<svg width="24" height="24" viewBox="0 0 24 24" fill="none" xmlns="http://www.w3.org/2000/svg">
<path d="M11.3046 0.538451C11.4511 0.210858 11.776 0 12.1343 0H21.2455C21.9044 0 22.3444 0.680289 22.0751 1.28269L20.9413 3.81927C20.7948 4.14687 20.4699 4.35772 20.1116 4.35772H11.0004C10.3415 4.35772 9.90147 3.67743 10.1707 3.07504L11.3046 0.538451Z" fill="#231A26"/>
<path d="M2.21428 10.4246C2.36071 10.097 2.68561 9.88618 3.04394 9.88618H14.0381C14.6971 9.88618 15.1371 10.5665 14.8678 11.1689L13.7339 13.7055C13.5875 14.033 13.2626 14.2439 12.9043 14.2439H1.91007C1.25115 14.2439 0.81113 13.5636 1.08041 12.9612L2.21428 10.4246Z" fill="#231A26"/>
<path d="M2.21428 20.1807C2.36071 19.8531 2.68561 19.6423 3.04394 19.6423H18.1937C18.8526 19.6423 19.2927 20.3226 19.0234 20.925L17.8895 23.4615C17.7431 23.7891 17.4182 24 17.0599 24H1.91007C1.25115 24 0.81113 23.3197 1.08041 22.7173L2.21428 20.1807Z" fill="#231A26"/>
</svg>
