<svg width="128" height="128" viewBox="0 0 128 128" fill="none" xmlns="http://www.w3.org/2000/svg">
<style>
  path { fill: #000000; }
  @media (prefers-color-scheme: dark) {
    path { fill: #FFFFFF; }
  }
</style>
<path d="M102.644 29.1234C105.202 26.5648 109.572 27.7549 110.481 31.2575L113.1 41.3615C113.516 42.9663 113.052 44.6716 111.88 45.8439L58.7364 98.9872C57.7233 100 56.426 100.425 55.1722 100.352C55.1375 100.352 55.1025 100.353 55.0675 100.353L44.6297 100.268C42.9719 100.254 41.445 99.3646 40.6161 97.9288L15.6339 54.6586C13.8248 51.525 16.1055 47.6116 19.7237 47.641L30.1615 47.726C31.8193 47.7394 33.3462 48.6293 34.1751 50.0651L51.5711 80.1957L102.644 29.1234Z"/>
</svg>
