<svg width="128" height="128" viewBox="0 0 128 128" fill="none" xmlns="http://www.w3.org/2000/svg">
<path d="M45.3333 45.3333V45.3867M85.3333 82.6667V82.72M64 64V64.0533M58.6667 90.6667V90.72M37.3333 74.6667V74.72M64 10.6667C53.4516 10.6667 43.1402 13.7946 34.3696 19.6549C25.5989 25.5153 18.7631 33.8448 14.7264 43.5902C10.6897 53.3356 9.63356 64.0591 11.6914 74.4048C13.7493 84.7505 18.8288 94.2535 26.2876 101.712C33.7464 109.171 43.2495 114.251 53.5952 116.309C63.9408 118.366 74.6644 117.31 84.4098 113.274C94.1552 109.237 102.485 102.401 108.345 93.6304C114.205 84.8598 117.333 74.5483 117.333 64C113.627 65.1413 109.679 65.2506 105.915 64.3161C102.151 63.3816 98.7128 61.4387 95.9704 58.6963C93.228 55.9539 91.285 52.5157 90.3505 48.7516C89.416 44.9876 89.5253 41.0399 90.6667 37.3333C86.96 38.4746 83.0124 38.5839 79.2483 37.6494C75.4842 36.7149 72.0461 34.772 69.3037 32.0296C66.5613 29.2872 64.6184 25.8491 63.6839 22.085C62.7494 18.3209 62.8587 14.3733 64 10.6667Z" stroke="#231A26" stroke-width="8" stroke-linecap="round" stroke-linejoin="round"/>
</svg>
