<svg width="128" height="128" viewBox="0 0 128 128" fill="none" xmlns="http://www.w3.org/2000/svg">
<style>
  path { fill: #000000; }
  @media (prefers-color-scheme: dark) {
    path { fill: #FFFFFF; }
  }
</style>
<path d="M18.5 76.6086C18.5 73.6203 21.5715 71.6181 24.3057 72.8237L35.9517 77.9585C37.4515 78.6198 38.4193 80.1043 38.4194 81.7434V104.288C38.4194 106.573 36.5673 108.425 34.2827 108.425H22.6367C20.3521 108.425 18.5 106.573 18.5 104.288V76.6086ZM53.9354 43.2928C53.9354 40.2986 57.0179 38.2962 59.7536 39.5131L71.1898 44.6004C72.683 45.2647 73.6451 46.7458 73.6451 48.3801V104.288C73.6451 106.573 71.793 108.425 69.5084 108.425H58.0721C55.7875 108.425 53.9354 106.573 53.9354 104.288V43.2928ZM89.5806 24.3964C89.5806 21.4088 92.6507 19.4063 95.3848 20.6105L107.031 25.7404C108.531 26.4014 109.5 27.8862 109.5 29.5259V104.288C109.5 106.573 107.648 108.425 105.363 108.425H93.7173C91.4327 108.425 89.5806 106.573 89.5806 104.288V24.3964Z"/>
</svg>
