<svg width="128" height="128" viewBox="0 0 128 128" fill="none" xmlns="http://www.w3.org/2000/svg">
<path d="M62.9359 16.2435C63.5461 14.8786 64.8998 14 66.3928 14H104.356C107.102 14 108.935 16.8345 107.813 19.3445L103.089 29.9136C102.479 31.2786 101.125 32.1572 99.6317 32.1572H61.6684C58.9229 32.1572 57.0895 29.3226 58.2115 26.8127L62.9359 16.2435Z" fill="#231A26"/>
<path d="M25.0595 57.436C25.6696 56.071 27.0234 55.1924 28.5164 55.1924H74.3256C77.0711 55.1924 78.9045 58.027 77.7825 60.5369L73.0581 71.106C72.4479 72.471 71.0942 73.3496 69.6011 73.3496H23.7919C21.0465 73.3496 19.213 70.5151 20.335 68.0051L25.0595 57.436Z" fill="#231A26"/>
<path d="M25.0595 98.0864C25.6696 96.7214 27.0234 95.8428 28.5164 95.8428H91.6405C94.386 95.8428 96.2194 98.6774 95.0975 101.187L90.373 111.756C89.7629 113.121 88.4091 114 86.9161 114H23.7919C21.0465 114 19.213 111.165 20.335 108.655L25.0595 98.0864Z" fill="#231A26"/>
</svg>
