<svg width="128" height="128" viewBox="0 0 128 128" fill="none" xmlns="http://www.w3.org/2000/svg">
<path d="M40.501 31.6138C41.6527 30.4621 43.52 30.4621 44.6717 31.6138L52.0309 38.973C53.1826 40.1247 53.1826 41.992 52.0309 43.1437L33.1738 62.0008C32.0221 63.1526 32.0221 65.0198 33.1738 66.1715L51.961 84.9587C53.1127 86.1104 53.1127 87.9777 51.961 89.1294L44.6017 96.4887C43.45 97.6404 41.5827 97.6404 40.431 96.4887L10.1139 66.1715C8.9622 65.0198 8.96219 63.1525 10.1139 62.0008L40.501 31.6138Z" fill="#231A26"/>
<path d="M87.5272 96.5401C86.3755 97.6918 84.5083 97.6918 83.3566 96.5401L75.9973 89.1808C74.8456 88.0291 74.8456 86.1618 75.9973 85.0101L94.8545 66.153C96.0062 65.0013 96.0062 63.134 94.8545 61.9823L76.0673 43.1951C74.9156 42.0434 74.9156 40.1761 76.0673 39.0244L83.4265 31.6652C84.5782 30.5135 86.4455 30.5135 87.5972 31.6652L117.914 61.9823C119.066 63.134 119.066 65.0013 117.914 66.153L87.5272 96.5401Z" fill="#231A26"/>
</svg>
