<svg width="128" height="128" viewBox="0 0 128 128" fill="none" xmlns="http://www.w3.org/2000/svg">
<style>
  path { fill: #000000; }
  @media (prefers-color-scheme: dark) {
    path { fill: #FFFFFF; }
  }
</style>
<path d="M91.3939 99.8855C91.3939 95.8941 88.1583 92.6584 84.1669 92.6584C80.1755 92.6585 76.9398 95.8941 76.9398 99.8855C76.9398 103.877 80.1755 107.113 84.1669 107.113C88.1583 107.113 91.3939 103.877 91.3939 99.8855ZM106.394 45.9771C106.394 41.9857 103.158 38.75 99.1669 38.75C95.1755 38.75 91.9398 41.9857 91.9398 45.9771C91.9398 49.9685 95.1755 53.2041 99.1669 53.2041C103.158 53.2041 106.394 49.9685 106.394 45.9771ZM21.4999 45.9771C21.4999 49.9685 24.7355 53.2041 28.7269 53.2041C32.7183 53.2041 35.954 49.9685 35.954 45.9771C35.954 41.9857 32.7183 38.75 28.7269 38.75C24.7356 38.75 21.4999 41.9857 21.4999 45.9771ZM118.894 45.9771C118.894 56.872 110.062 65.7041 99.1669 65.7041C90.4564 65.7041 83.0646 60.0587 80.4506 52.2271H61.1805C62.2548 54.7263 62.8502 57.4801 62.8502 60.373V85.7959C62.8503 88.3823 64.1028 90.6759 66.0343 92.1038C69.0533 85.0784 76.0354 80.1585 84.1669 80.1584C95.0618 80.1584 103.894 88.9905 103.894 99.8855C103.894 110.78 95.0618 119.613 84.1669 119.613C75.1826 119.613 67.6012 113.607 65.2184 105.391C56.6426 103.001 50.3503 95.1336 50.3502 85.7959V60.373C50.3502 57.6155 48.9797 55.1782 46.8829 53.7043C43.8767 60.7588 36.8794 65.7041 28.7269 65.7041C17.832 65.7041 8.99988 56.872 8.99988 45.9771C8.9999 35.0821 17.832 26.25 28.7269 26.25C37.4374 26.25 44.8289 31.8955 47.443 39.7271H80.4508C83.0649 31.8955 90.4564 26.25 99.1669 26.25C110.062 26.25 118.894 35.0821 118.894 45.9771Z"/>
</svg>
