<svg width="128" height="128" viewBox="0 0 128 128" fill="none" xmlns="http://www.w3.org/2000/svg">
<style>
  path { fill: #000000; }
  @media (prefers-color-scheme: dark) {
    path { fill: #FFFFFF; }
  }
</style>
<path d="M75.4082 79.4629C76.758 79.4629 77.9673 80.2972 78.4465 81.5591L87.6484 105.791C88.456 107.917 86.885 110.194 84.6101 110.194H43.0715C40.7967 110.194 39.2258 107.917 40.0334 105.791L49.2351 81.5591C49.7143 80.2972 50.9236 79.4629 52.2734 79.4629H75.4082ZM64.0354 18C78.0001 18 89.3208 29.3207 89.3208 43.2854C89.3208 57.2501 78.0001 68.5705 64.0354 68.5706C50.0707 68.5706 38.75 57.2501 38.75 43.2854C38.75 29.3207 50.0707 18 64.0354 18Z"/>
</svg>
