<svg width="128" height="128" viewBox="0 0 128 128" fill="none" xmlns="http://www.w3.org/2000/svg">
<path d="M49.3867 49.3867L16 58.6667V74.6667L91.4133 91.4133M112 81.8133V32L73.0133 42.8267M61.8667 89.6C61.3063 91.6311 60.3515 93.532 59.0565 95.194C57.7616 96.8561 56.152 98.2469 54.3196 99.2869C52.4872 100.327 50.4679 100.996 48.3769 101.255C46.286 101.515 44.1644 101.36 42.1333 100.8C40.1022 100.24 38.2013 99.2848 36.5393 97.9899C34.8772 96.6949 33.4864 95.0853 32.4464 93.2529C31.4064 91.4205 30.7375 89.4012 30.4779 87.3103C30.2183 85.2193 30.373 83.0978 30.9333 81.0667M10.6667 10.6667L117.333 117.333" stroke="#231A26" stroke-width="8" stroke-linecap="round" stroke-linejoin="round"/>
</svg>
