<svg width="128" height="128" viewBox="0 0 128 128" fill="currentColor" xmlns="http://www.w3.org/2000/svg">
<style>
  path { fill: #a29fa3; }
  @media (prefers-color-scheme: dark) {
    path { fill: #747175; }
  }
</style>
<path d="M51.8886 49.8558V39.9758C51.8886 39.1436 52.1981 38.5193 52.9193 38.1037L72.6064 26.6639C75.2864 25.104 78.4817 24.3763 81.7795 24.3763C94.1483 24.3763 101.982 34.0485 101.982 44.3441C101.982 45.0719 101.982 45.904 101.878 46.7361L81.4702 34.6719C80.2336 33.9442 78.9963 33.9442 77.7595 34.6719L51.8886 49.8558ZM97.8587 88.3365V64.7277C97.8587 63.2713 97.2398 62.2314 96.0031 61.5036L70.1323 46.3197L78.5842 41.4313C79.3054 41.0158 79.9244 41.0158 80.6455 41.4313L100.333 52.8712C106.002 56.1997 109.815 63.2713 109.815 70.135C109.815 78.0386 105.178 85.3188 97.8587 88.3351V88.3365ZM45.8074 67.5362L37.3556 62.5445C36.6344 62.1289 36.325 61.5046 36.325 60.6724V37.7926C36.325 26.6649 44.7768 18.2402 56.2181 18.2402C60.5475 18.2402 64.5665 19.6967 67.9687 22.2965L47.6638 34.1529C46.4272 34.8807 45.8084 35.9206 45.8084 37.3771V67.5372L45.8074 67.5362ZM63.9999 78.144L51.8886 71.2803V56.7206L63.9999 49.8569L76.1101 56.7206V71.2803L63.9999 78.144ZM71.7817 109.761C67.4523 109.761 63.4334 108.304 60.0311 105.705L80.3358 93.8476C81.5724 93.12 82.1914 92.0804 82.1914 90.6238V60.4636L90.7469 65.4554C91.468 65.8709 91.7771 66.4953 91.7771 67.3274V90.2074C91.7771 101.335 83.2217 109.76 71.7817 109.76V109.761ZM47.3534 86.5686L27.6662 75.1287C21.9968 71.8001 18.1837 64.7287 18.1837 57.865C18.1837 49.8569 22.925 42.681 30.2427 39.6647V63.3766C30.2427 64.8331 30.8615 65.873 32.098 66.6007L57.8665 81.68L49.4147 86.5686C48.6934 86.9843 48.0746 86.9843 47.3534 86.5686ZM46.2202 103.625C34.5731 103.625 26.0178 94.7841 26.0178 83.8643C26.0178 83.0322 26.1212 82.2002 26.2237 81.3681L46.5286 93.2244C47.7652 93.9521 49.0028 93.9521 50.2393 93.2244L76.1102 78.145V88.0253C76.1102 88.8574 75.8008 89.4813 75.0796 89.897L55.3924 101.337C52.7124 102.897 49.5171 103.625 46.2193 103.625L46.2202 103.625ZM71.7817 116C84.2533 116 94.663 107.056 97.0348 95.1998C108.578 92.1836 116 81.2637 116 70.136C116 62.8557 112.908 55.7842 107.342 50.688C107.857 48.5039 108.167 46.3197 108.167 44.1365C108.167 29.2647 96.2102 18.136 82.3984 18.136C79.616 18.136 76.9358 18.5515 74.2558 19.4881C69.617 14.9119 63.2264 12 56.2181 12C43.7462 12 33.3366 20.9436 30.965 32.8C19.4213 35.8162 12 46.7362 12 57.8639C12 65.1442 15.0918 72.2157 20.6578 77.3118C20.1424 79.496 19.8331 81.68 19.8331 83.8635C19.8331 98.7349 31.7895 109.864 45.6015 109.864C48.3839 109.864 51.064 109.449 53.7439 108.512C58.3817 113.088 64.7723 116 71.7817 116Z"/>
</svg>
