<svg width="128" height="128" viewBox="0 0 128 128" fill="none" xmlns="http://www.w3.org/2000/svg">
<style>
  path { fill: #000000; }
  @media (prefers-color-scheme: dark) {
    path { fill: #FFFFFF; }
  }
</style>
<path d="M90.777 96.5402C89.6253 97.6919 87.758 97.6919 86.6063 96.5402L79.2471 89.1809C78.0954 88.0292 78.0954 86.162 79.2471 85.0102L98.1042 66.1531C99.2559 65.0014 99.2559 63.1341 98.1042 61.9824L79.317 43.1952C78.1653 42.0435 78.1653 40.1762 79.317 39.0245L86.6763 31.6653C87.828 30.5136 89.6953 30.5136 90.847 31.6653L121.164 61.9824C122.316 63.1341 122.316 65.0014 121.164 66.1531L90.777 96.5402Z"/>
<path d="M37.3972 54C39.8039 54 41.3758 56.5247 40.3137 58.6843L33.7835 71.9624C33.2368 73.0739 32.1057 73.7781 30.867 73.7781H9.25416C6.8475 73.7781 5.27555 71.2534 6.33765 69.0938L12.8679 55.8157C13.4146 54.7041 14.5457 54 15.7844 54H37.3972Z" fill="#231A26"/>
<path d="M76.3049 54C78.7116 54 80.2835 56.5247 79.2214 58.6843L72.6912 71.9624C72.1445 73.0739 71.0136 73.778 69.7749 73.7781H48.1619C45.7552 73.7781 44.1835 71.2534 45.2456 69.0938L51.7756 55.8157C52.3223 54.7041 53.4534 54 54.6921 54H76.3049Z"/>
</svg>
