<svg width="128" height="128" viewBox="0 0 128 128" fill="none" xmlns="http://www.w3.org/2000/svg">
<style>
  path { fill: #000000; }
  @media (prefers-color-scheme: dark) {
    path { fill: #FFFFFF; }
  }
</style>
<path d="M62.9817 17.1119C63.6524 16.9629 64.3476 16.9629 65.0183 17.1119L99.6069 24.7964C100.569 25.0103 101.43 25.5458 102.047 26.3145C102.663 27.0832 103 28.0394 103 29.025V72.2921C103 76.5713 101.943 80.7844 99.9229 84.5572L99.731 84.9092C97.72 88.5301 94.8715 91.6199 91.4214 93.9193L66.6042 110.462L66.4548 110.557C64.9494 111.481 63.0506 111.481 61.5452 110.557L61.3958 110.462L36.5786 93.9193C33.1291 91.6203 30.2812 88.531 28.2703 84.9109L28.0781 84.5591C26.0583 80.7872 25.001 76.5749 25 72.2964V29.025C25.0002 28.0394 25.3365 27.0832 25.9534 26.3145C26.5702 25.5458 27.4308 25.0103 28.3931 24.7964L62.9817 17.1119ZM41.25 38.5862V72.2925L41.2512 72.4429C41.2755 73.9943 41.6702 75.5185 42.4036 76.888C43.1369 78.2576 44.1871 79.4317 45.4661 80.3128L45.5906 80.3973L45.5916 80.398L64 92.6683L82.4084 80.398L82.4094 80.3973C83.745 79.5072 84.8396 78.3013 85.5967 76.8873C86.3536 75.4735 86.7497 73.8951 86.75 72.2921V38.5862L64 33.5316L41.25 38.5862Z"/>
</svg>
