<svg width="128" height="128" viewBox="0 0 128 128" fill="none" xmlns="http://www.w3.org/2000/svg">
<style>
  path { fill: #000000; }
  @media (prefers-color-scheme: dark) {
    path { fill: #FFFFFF; }
  }
</style>
<path d="M39.1471 54C41.5537 54 43.1257 56.5247 42.0636 58.6843L35.5333 71.9624C34.9866 73.0739 33.8557 73.7781 32.617 73.7781H11.004C8.59737 73.778 7.02564 71.2534 8.08774 69.0938L14.6178 55.8157C15.1644 54.7041 16.2956 54 17.5343 54H39.1471ZM78.055 54C80.4616 54.0001 82.0334 56.5247 80.9713 58.6843L74.4413 71.9624C73.8946 73.074 72.7635 73.7781 71.5248 73.7781H49.9117C47.5051 73.778 45.9334 71.2533 46.9955 69.0938L53.5257 55.8157C54.0724 54.7042 55.2033 54 56.442 54H78.055ZM116.963 54C119.369 54 120.941 56.5247 119.879 58.6843L113.349 71.9624C112.802 73.074 111.671 73.7781 110.432 73.7781H88.8197C86.413 73.7781 84.8411 71.2534 85.9032 69.0938L92.4335 55.8157C92.9801 54.7042 94.111 54 95.3497 54H116.963Z"/>
</svg>
