<svg width="128" height="128" viewBox="0 0 128 128" fill="none" xmlns="http://www.w3.org/2000/svg">
<path d="M10.6667 69.3333C10.6667 73.5356 11.4944 77.6968 13.1025 81.5792C14.7107 85.4616 17.0678 88.9893 20.0392 91.9608C23.0107 94.9322 26.5384 97.2893 30.4208 98.8975C34.3032 100.506 38.4644 101.333 42.6667 101.333C46.869 101.333 51.0301 100.506 54.9125 98.8975C58.7949 97.2893 62.3226 94.9322 65.2941 91.9608C68.2655 88.9893 70.6226 85.4616 72.2308 81.5792C73.8389 77.6968 74.6667 73.5356 74.6667 69.3333C74.6667 63.6754 72.419 58.2492 68.4183 54.2484C64.4175 50.2476 58.9913 48 53.3333 48C47.6754 48 42.2492 50.2476 38.2484 54.2484C34.2476 58.2492 32 63.6754 32 69.3333C32 72.1623 33.1238 74.8754 35.1242 76.8758C37.1246 78.8762 39.8377 80 42.6667 80C45.4956 80 48.2087 78.8762 50.2091 76.8758C52.2095 74.8754 53.3333 72.1623 53.3333 69.3333M10.6667 69.3333C10.6667 92.8975 29.7692 112 53.3333 112C76.8975 112 96 92.8975 96 69.3333M10.6667 69.3333C10.6667 45.7692 29.7692 26.6667 53.3333 26.6667C76.8975 26.6667 96 45.7692 96 69.3333M96 69.3333V37.3333C96 34.5044 97.1238 31.7912 99.1242 29.7909C101.125 27.7905 103.838 26.6667 106.667 26.6667C109.496 26.6667 112.209 27.7905 114.209 29.7909C116.21 31.7912 117.333 34.5044 117.333 37.3333V69.3333C117.333 92.8 98.1333 112 74.6667 112H10.6667M96 16L101.867 27.7333M117.333 16L111.467 27.7333" stroke="#231A26" stroke-width="7" stroke-linecap="round" stroke-linejoin="round"/>
</svg>
