<svg width="128" height="128" viewBox="0 0 128 128" xmlns="http://www.w3.org/2000/svg" fill="currentColor">
<style>
  path { fill: #a29fa3; }
  @media (prefers-color-scheme: dark) {
    path { fill: #747175; }
  }
</style>
<path d="M12 64V116H116V12H12V64ZM95.8074 59.84C98.2983 60.418 100.562 61.7208 102.314 63.584C103.278 64.5878 104.116 65.7053 104.81 66.912C104.81 67.0451 100.317 70.0819 97.5795 71.7792C97.4797 71.8458 97.0803 71.4131 96.6394 70.7558C96.1397 69.8936 95.4297 69.172 94.5756 68.6585C93.7216 68.1449 92.7514 67.856 91.7555 67.8189C88.6022 67.6026 86.5722 69.2582 86.5888 71.9789C86.5627 72.6562 86.7178 73.3283 87.0381 73.9258C87.7286 75.3651 89.0182 76.2221 93.0618 77.9693C100.508 81.1725 103.695 83.2858 105.675 86.2893C107.888 89.6173 108.379 94.992 106.881 98.969C105.217 103.295 101.14 106.232 95.3747 107.206C92.7413 107.507 90.0806 107.479 87.4541 107.123C83.4456 106.472 79.748 104.564 76.896 101.673C75.9392 100.616 74.0755 97.8624 74.192 97.6627C74.4957 97.4373 74.8155 97.2343 75.1488 97.0554L78.976 94.8589L81.9629 93.1283L82.5869 94.0518C83.64 95.5583 84.9802 96.8419 86.5306 97.8291C89.8586 99.5763 94.4013 99.335 96.6477 97.3133C97.4019 96.5724 97.8724 95.5905 97.9773 94.5385C98.0822 93.4865 97.8149 92.431 97.2218 91.5558C96.3898 90.3994 94.7258 89.4259 90.0749 87.3958C84.7085 85.0829 82.3955 83.6518 80.2822 81.3722C78.963 79.8678 77.9889 78.093 77.4285 76.1722C77.0104 73.9777 76.9486 71.7303 77.2454 69.5162C78.352 64.3328 82.2374 60.7136 87.9117 59.6403C90.5395 59.3152 93.2013 59.3881 95.8074 59.8566V59.84ZM71.3965 64.1997V68.4595H57.8931V106.923H48.3168V68.4512H34.7802V64.2912C34.7438 62.8591 34.7827 61.4261 34.8966 59.9981C34.9466 59.9315 43.2166 59.8982 53.2006 59.9149H71.3466L71.3965 64.1997Z"/>
</svg>
