<svg width="820" height="154" viewBox="0 0 820 154" fill="none" xmlns="http://www.w3.org/2000/svg">
<path d="M251.05 120.084C253.953 120.084 255.977 119.854 257.123 119.396C258.345 118.938 258.956 117.754 258.956 115.844C258.956 113.934 256.932 107.442 252.884 96.3654H217.936C214.652 106.067 213.009 112.178 213.009 114.698C213.009 117.143 213.621 118.67 214.843 119.282C216.141 119.816 218.433 120.084 221.718 120.084L221.947 121.459H196.166L196.395 120.084C198.61 120.084 200.329 119.893 201.551 119.511C202.85 119.129 204.225 118.136 205.676 116.532C207.204 114.851 208.655 112.445 210.03 109.313C211.405 106.181 213.048 101.789 214.957 96.1362L225.155 66.6889C228.745 56.3002 230.54 49.9982 230.54 47.783C230.54 45.5678 230.006 44.1546 228.936 43.5435C227.867 42.856 225.804 42.5123 222.749 42.5123L222.52 41.2519H241.426L261.706 96.1362C265.144 105.226 267.435 110.994 268.581 113.438C269.803 115.882 270.949 117.448 272.019 118.136C273.928 119.434 276.335 120.084 279.237 120.084L279.466 121.459H250.821L251.05 120.084ZM235.009 47.4393L218.853 93.6154H251.967L235.009 47.4393Z" fill="white"/>
<path d="M283.623 104.386C283.623 109.351 284.959 113.094 287.633 115.615C290.307 118.059 293.477 119.282 297.143 119.282C300.886 119.282 303.904 118.441 306.195 116.761C308.487 115.08 309.633 112.827 309.633 110C309.633 107.098 308.64 104.73 306.654 102.896C304.744 101.063 302.414 99.5736 299.664 98.4278C296.914 97.282 294.126 96.098 291.3 94.8758C288.55 93.6536 286.182 91.8585 284.196 89.4905C282.286 87.1225 281.331 83.9524 281.331 79.9803C281.331 76.0081 283.088 72.7235 286.602 70.1263C290.192 67.4527 294.317 66.116 298.977 66.116C305.622 66.116 310.817 67.1854 314.56 69.3242C314.56 72.8381 314.101 77.7268 313.185 83.9906L311.81 83.6469C311.81 78.6053 310.664 74.9387 308.372 72.6471C306.081 70.3555 303.292 69.2096 300.008 69.2096C296.8 69.2096 294.202 70.0499 292.216 71.7304C290.307 73.411 289.352 75.7026 289.352 78.6053C289.352 81.4316 290.307 83.7232 292.216 85.4802C294.202 87.1607 296.57 88.5738 299.32 89.7197C302.07 90.8655 304.82 92.0877 307.57 93.3862C310.396 94.6084 312.765 96.4035 314.674 98.7716C316.66 101.063 317.653 103.89 317.653 107.251C317.653 112.139 315.744 115.921 311.924 118.594C308.105 121.268 303.063 122.604 296.8 122.604C290.612 122.604 285.38 120.962 281.102 117.677C281.102 113.858 281.484 109.351 282.248 104.157L283.623 104.386Z" fill="white"/>
<path d="M330.731 104.386C330.731 109.351 332.068 113.094 334.741 115.615C337.415 118.059 340.585 119.282 344.251 119.282C347.994 119.282 351.012 118.441 353.303 116.761C355.595 115.08 356.741 112.827 356.741 110C356.741 107.098 355.748 104.73 353.762 102.896C351.852 101.063 349.522 99.5736 346.772 98.4278C344.022 97.282 341.234 96.098 338.408 94.8758C335.658 93.6536 333.29 91.8585 331.304 89.4905C329.394 87.1225 328.439 83.9524 328.439 79.9803C328.439 76.0081 330.196 72.7235 333.71 70.1263C337.3 67.4527 341.425 66.116 346.085 66.116C352.73 66.116 357.925 67.1854 361.668 69.3242C361.668 72.8381 361.209 77.7268 360.293 83.9906L358.918 83.6469C358.918 78.6053 357.772 74.9387 355.48 72.6471C353.189 70.3555 350.401 69.2096 347.116 69.2096C343.908 69.2096 341.31 70.0499 339.324 71.7304C337.415 73.411 336.46 75.7026 336.46 78.6053C336.46 81.4316 337.415 83.7232 339.324 85.4802C341.31 87.1607 343.678 88.5738 346.428 89.7197C349.178 90.8655 351.928 92.0877 354.678 93.3862C357.505 94.6084 359.873 96.4035 361.782 98.7716C363.768 101.063 364.761 103.89 364.761 107.251C364.761 112.139 362.852 115.921 359.032 118.594C355.213 121.268 350.171 122.604 343.908 122.604C337.72 122.604 332.488 120.962 328.21 117.677C328.21 113.858 328.592 109.351 329.356 104.157L330.731 104.386Z" fill="white"/>
<path d="M420.463 92.4696H382.88V94.4175C382.88 102.515 384.599 108.702 388.037 112.98C391.474 117.181 395.752 119.282 400.87 119.282C408.508 119.282 414.008 116.226 417.369 110.115L419.088 111.032C415.116 118.747 408.47 122.604 399.151 122.604C392.276 122.604 386.394 120.122 381.505 115.157C376.617 110.191 374.172 103.508 374.172 95.105C374.172 86.626 376.311 79.6747 380.589 74.2512C384.943 68.8277 390.71 66.116 397.89 66.116C405.147 66.116 410.724 68.5985 414.619 73.5637C418.515 78.4525 420.463 84.7545 420.463 92.4696ZM398.234 68.4076C393.804 68.4076 390.29 70.3173 387.693 74.1366C385.172 77.8796 383.644 82.883 383.11 89.1467H411.64C411.106 75.3206 406.637 68.4076 398.234 68.4076Z" fill="white"/>
<path d="M482.697 86.626C483.384 81.1261 485.141 76.3519 487.967 72.3033C490.87 68.1784 494.88 66.116 499.998 66.116C505.116 66.116 509.088 67.6819 511.915 70.8138C514.741 73.9457 516.154 78.4907 516.154 84.4489V102.553C516.154 110.497 516.651 115.424 517.644 117.334C518.713 119.167 521.463 120.084 525.894 120.084L526.123 121.459H499.082L499.311 120.084C503.512 120.084 506.033 119.129 506.873 117.219C507.713 115.309 508.134 110.077 508.134 101.522V85.5947C508.134 80.324 507.37 76.3519 505.842 73.6783C504.391 71.0048 502.023 69.668 498.738 69.668C495.453 69.668 492.742 70.8902 490.603 73.3346C488.464 75.7026 486.86 78.7199 485.79 82.3865C483.728 89.4905 482.697 96.6327 482.697 103.813C482.697 110.994 483.155 115.5 484.072 117.334C485.065 119.167 487.815 120.084 492.321 120.084L492.551 121.459H465.624L465.853 120.084C470.055 120.084 472.575 119.129 473.416 117.219C474.256 115.309 474.676 110.077 474.676 101.522V85.5947C474.676 80.324 473.912 76.3519 472.384 73.6783C470.933 71.0048 468.565 69.668 465.28 69.668C461.996 69.668 459.284 70.8902 457.145 73.3346C455.006 75.7026 453.402 78.7199 452.333 82.3865C450.27 89.4905 449.239 96.6327 449.239 103.813C449.239 110.994 449.697 115.5 450.614 117.334C451.607 119.167 454.357 120.084 458.864 120.084L459.093 121.459H431.135L431.364 120.084C435.948 120.084 438.736 119.167 439.729 117.334C440.722 115.424 441.218 110.421 441.218 102.324V93.1571C441.218 81.699 440.645 74.7859 439.5 72.4179C439.118 71.5777 438.43 70.8138 437.437 70.1263C436.52 69.4388 435.489 69.0187 434.343 68.8659C433.274 68.7131 431.784 68.6367 429.875 68.6367L429.646 67.3763C436.291 66.5361 442.822 66.116 449.239 66.116V86.626C449.926 81.1261 451.683 76.3519 454.51 72.3033C457.412 68.1784 461.423 66.116 466.541 66.116C477.311 66.116 482.697 72.9526 482.697 86.626Z" fill="white"/>
<path d="M567.297 66.116C572.262 66.116 576.425 67.6055 579.786 70.5846C585.744 75.8553 588.724 83.8378 588.724 94.5321C588.724 102.706 586.126 109.428 580.932 114.698C575.814 119.969 568.863 122.604 560.078 122.604C556.488 122.604 553.165 122.337 550.11 121.802C547.054 121.268 544.877 120.771 543.579 120.313L541.745 119.511V57.5224C541.745 49.1962 541.287 44.1546 540.37 42.3977C540.065 41.863 539.492 41.3665 538.652 40.9081C537.811 40.3734 536.933 40.0679 536.016 39.9915C535.1 39.9151 533.801 39.8769 532.12 39.8769L531.891 38.6165C537.391 37.6999 543.349 37.2415 549.766 37.2415V81.1261C552.974 71.1193 558.818 66.116 567.297 66.116ZM549.766 115.844C552.669 118.136 556.144 119.282 560.193 119.282C564.318 119.282 567.679 118.479 570.276 116.875C572.873 115.271 574.821 113.209 576.12 110.688C577.495 108.091 578.488 105.455 579.099 102.782C579.71 100.032 580.015 97.282 580.015 94.5321C580.015 91.7821 579.786 89.1086 579.328 86.5114C578.946 83.9142 578.258 81.2789 577.265 78.6053C576.349 75.9317 574.859 73.7929 572.797 72.1888C570.734 70.5082 568.099 69.668 564.891 69.668C561.682 69.668 558.818 71.3485 556.297 74.7095C553.776 78.0706 552.058 81.5844 551.141 85.251C550.224 88.8412 549.766 92.0113 549.766 94.7612V115.844Z" fill="white"/>
<path d="M614.237 37.127V101.522C614.237 110 614.733 115.233 615.726 117.219C616.719 119.129 619.469 120.084 623.976 120.084L624.205 121.459H596.133L596.362 120.084C600.945 120.084 603.733 119.129 604.726 117.219C605.719 115.309 606.216 110.077 606.216 101.522V57.7515C606.216 49.2725 605.758 44.1546 604.841 42.3977C604.535 41.863 603.962 41.3283 603.122 40.7935C602.282 40.2588 601.365 39.9533 600.372 39.8769C599.456 39.8005 598.119 39.7623 596.362 39.7623L596.133 38.5019C601.862 37.5853 607.896 37.127 614.237 37.127Z" fill="white"/>
<path d="M638.735 145.521C642.554 145.521 645.724 144.031 648.245 141.052C650.842 138.149 653.477 133.413 656.151 126.844L639.078 83.7614C636.558 77.3449 634.266 73.22 632.203 71.3867C630.217 69.5534 627.811 68.6367 624.985 68.6367L624.756 67.2618H653.172L652.943 68.6367C650.269 68.6367 648.398 69.0569 647.328 69.8971C646.335 70.7374 645.839 72.036 645.839 73.7929C645.839 77.3067 647.634 83.5705 651.224 92.5842L660.047 114.813L668.984 87.3135C670.741 81.8136 671.619 77.6505 671.619 74.8241C671.619 70.6992 668.946 68.6367 663.599 68.6367L663.37 67.2618H684.911L684.682 68.6367C681.55 68.6367 679.334 69.668 678.036 71.7304C676.814 73.7165 674.484 79.9421 671.046 90.4071L660.734 121.802C657.373 132.115 653.439 140.059 648.932 145.635C644.425 151.211 639.728 154 634.839 154C632.624 154 630.79 153.541 629.339 152.625C627.888 151.784 627.162 150.562 627.162 148.958C627.162 147.43 627.62 146.208 628.537 145.291C629.53 144.451 630.561 144.031 631.631 144.031C632.776 144.031 634.037 144.26 635.412 144.719C636.787 145.253 637.894 145.521 638.735 145.521Z" fill="white"/>
<path d="M688.806 116.646C688.806 114.889 689.379 113.438 690.525 112.292C691.747 111.07 693.199 110.459 694.879 110.459C696.56 110.459 697.973 111.07 699.119 112.292C700.265 113.438 700.838 114.889 700.838 116.646C700.838 118.327 700.226 119.74 699.004 120.886C697.858 122.032 696.445 122.604 694.765 122.604C693.161 122.604 691.747 122.032 690.525 120.886C689.379 119.74 688.806 118.327 688.806 116.646Z" fill="white"/>
<path d="M712.966 104.386C712.966 109.351 714.303 113.094 716.976 115.615C719.65 118.059 722.82 119.282 726.487 119.282C730.23 119.282 733.247 118.441 735.539 116.761C737.83 115.08 738.976 112.827 738.976 110C738.976 107.098 737.983 104.73 735.997 102.896C734.087 101.063 731.757 99.5736 729.007 98.4278C726.258 97.282 723.469 96.098 720.643 94.8758C717.893 93.6536 715.525 91.8585 713.539 89.4905C711.629 87.1225 710.674 83.9524 710.674 79.9803C710.674 76.0081 712.431 72.7235 715.945 70.1263C719.535 67.4527 723.66 66.116 728.32 66.116C734.966 66.116 740.16 67.1854 743.903 69.3242C743.903 72.8381 743.445 77.7268 742.528 83.9906L741.153 83.6469C741.153 78.6053 740.007 74.9387 737.716 72.6471C735.424 70.3555 732.636 69.2096 729.351 69.2096C726.143 69.2096 723.546 70.0499 721.56 71.7304C719.65 73.411 718.695 75.7026 718.695 78.6053C718.695 81.4316 719.65 83.7232 721.56 85.4802C723.546 87.1607 725.914 88.5738 728.664 89.7197C731.414 90.8655 734.164 92.0877 736.914 93.3862C739.74 94.6084 742.108 96.4035 744.018 98.7716C746.004 101.063 746.997 103.89 746.997 107.251C746.997 112.139 745.087 115.921 741.268 118.594C737.448 121.268 732.407 122.604 726.143 122.604C719.956 122.604 714.723 120.962 710.445 117.677C710.445 113.858 710.827 109.351 711.591 104.157L712.966 104.386Z" fill="white"/>
<path d="M774.282 37.127V86.626C774.97 81.1261 776.879 76.3519 780.011 72.3033C783.143 68.1784 787.306 66.116 792.501 66.116C804.188 66.116 810.031 72.2269 810.031 84.4489V102.553C810.031 110.497 810.528 115.424 811.521 117.334C812.59 119.167 815.34 120.084 819.771 120.084L820 121.459H792.157L792.386 120.084C796.969 120.084 799.719 119.129 800.636 117.219C801.552 115.309 802.011 110.077 802.011 101.522V85.5947C802.011 80.324 801.17 76.3519 799.49 73.6783C797.886 71.0048 795.289 69.668 791.698 69.668C788.185 69.668 785.244 70.8902 782.876 73.3346C780.508 75.7026 778.751 78.7199 777.605 82.3865C775.39 89.4905 774.282 96.6327 774.282 103.813C774.282 110.994 774.741 115.5 775.657 117.334C776.65 119.167 779.4 120.084 783.907 120.084L784.136 121.459H756.178L756.408 120.084C760.991 120.084 763.779 119.167 764.772 117.334C765.765 115.424 766.262 110.421 766.262 102.324V64.1681C766.262 52.71 765.727 45.8351 764.657 43.5435C764.199 42.6268 763.473 41.8248 762.48 41.1373C761.564 40.4498 760.532 40.0297 759.387 39.8769C758.317 39.7241 756.828 39.6477 754.918 39.6477L754.689 38.3873C761.335 37.5471 767.866 37.127 774.282 37.127Z" fill="white"/>
<path d="M93.9033 0C96.3761 0 97.8853 2.71807 96.5779 4.81694L24.8491 119.971C24.2738 120.894 23.2627 121.456 22.1746 121.456H3.156C0.683255 121.456 -0.825923 118.738 0.481451 116.639L72.2102 1.48501C72.7855 0.561414 73.7966 0 74.8847 0H93.9033Z" fill="#EF397C"/>
<path d="M59.3401 121.456C60.4266 121.456 61.4365 120.896 62.0123 119.975L133.968 4.82073C135.279 2.72202 133.77 0 131.296 0H112.284C111.197 0 110.187 0.559783 109.612 1.48122L37.6558 116.635C36.3444 118.734 37.8533 121.456 40.328 121.456H59.3401Z" fill="#EF397C"/>
<path d="M114.415 73.5986C111.994 73.5986 110.478 70.9818 111.681 68.8812L128.324 39.834C128.885 38.854 129.928 38.2495 131.058 38.2495H140.134C141.875 38.2495 143.285 39.6603 143.285 41.4005V70.4476C143.285 72.1879 141.875 73.5986 140.134 73.5986H114.415Z" fill="#EF397C"/>
<path d="M86.9955 121.456C84.5745 121.456 83.0579 118.839 84.2615 116.738L96.1265 96.03C96.6879 95.05 97.731 94.4455 98.8605 94.4455H140.134C141.875 94.4455 143.285 95.8562 143.285 97.5965V118.305C143.285 120.045 141.875 121.456 140.134 121.456H86.9955Z" fill="#EF397C"/>
</svg>
