<svg width="128" height="128" viewBox="0 0 128 128" fill="none" xmlns="http://www.w3.org/2000/svg">
<path d="M110.25 17.75H17.75V110.25H110.25V17.75Z" fill="url(#paint0_linear_2683_539)"/>
<path fill-rule="evenodd" clip-rule="evenodd" d="M39.7188 89.4375H42.0312C42.0312 79.7181 48.3502 69.7812 95.2188 69.7812V67.4688C46.3128 67.4688 39.7188 78.5734 39.7188 89.4375ZM46.6562 96.375H48.9688C48.9688 87.6268 48.9688 74.4062 95.2188 74.4062V72.0938C74.0166 72.0938 60.2167 74.8213 53.0272 80.4326C46.6562 85.4045 46.6562 91.7454 46.6562 96.375ZM35.0938 47.8125H32.7812C32.7812 56.3641 44.3888 61.78 67.345 64C44.3888 66.22 32.7812 71.6359 32.7812 80.1875H35.0938C35.0938 74.5739 42.9054 65.1562 95.2188 65.1562V62.8438C42.9054 62.8438 35.0938 53.4261 35.0938 47.8125ZM42.0312 38.5625H39.7188C39.7188 49.4266 46.3128 60.5312 95.2188 60.5312V58.2188C48.3502 58.2188 42.0312 48.2819 42.0312 38.5625ZM95.2188 53.5938V55.9062C74.0166 55.9062 60.2167 53.1787 53.0272 47.5674C46.6562 42.5955 46.6562 36.2546 46.6562 31.625H48.9688C48.9688 40.3732 48.9688 53.5938 95.2188 53.5938Z" fill="white"/>
<defs>
<linearGradient id="paint0_linear_2683_539" x1="17.75" y1="9267.75" x2="9267.75" y2="17.75" gradientUnits="userSpaceOnUse">
<stop stop-color="#4D27A8"/>
<stop offset="1" stop-color="#A166FF"/>
</linearGradient>
</defs>
</svg>
