<svg width="128" height="128" viewBox="0 0 128 128" fill="none" xmlns="http://www.w3.org/2000/svg">
<path d="M110.25 17.75H17.75V110.25H110.25V17.75Z" fill="url(#paint0_linear_2683_540)"/>
<path fill-rule="evenodd" clip-rule="evenodd" d="M94.7852 68.7082L93.9272 70.8543C90.2295 69.3754 85.719 68.625 80.5205 68.625V66.3125C86.015 66.3125 90.8134 67.1184 94.7852 68.7082ZM93.9908 67.4098C90.6308 66.294 83.832 65.1562 80.5205 65.1562V62.8438C83.869 62.8438 90.6388 61.7072 93.9376 60.5925L94.6776 62.7825C93.4127 63.2114 91.7038 63.6346 89.8676 64.0046C91.7257 64.3735 93.4566 64.7955 94.7204 65.2152L93.9908 67.4098ZM94.769 59.2987C90.6284 60.8839 85.8346 61.6875 80.5205 61.6875V59.375C85.5513 59.375 90.0665 58.6223 93.9422 57.1388L94.769 59.2987ZM75.8573 67.722L64.2948 70.6126V57.3874L75.8573 60.278V67.722ZM61.9823 73.25H58.5136V54.75H61.9823V73.25ZM77.2934 58.2534L64.2948 55.0032V53.5938C64.2948 52.9555 63.778 52.4375 63.1386 52.4375H57.3573C56.7179 52.4375 56.2011 52.9555 56.2011 53.5938V54.6691C38.6238 53.3868 36.5448 46.2157 36.5448 40.875V35.0938H34.2323V40.875C34.2323 50.6673 41.4358 55.9328 56.2011 56.9781V58.176C47.2251 57.8164 40.7802 56.4 36.0026 53.7406L34.8775 55.7606C39.9986 58.613 46.8019 60.1196 56.2011 60.4896V62.8183C49.6706 62.6634 40.8241 62.2309 34.5272 60.5694L33.9375 62.8056C35.8257 63.3039 37.9254 63.6924 40.1142 64C37.9254 64.3087 35.8257 64.6972 33.9375 65.1944L34.5272 67.4306C40.8253 65.7691 49.6717 65.3366 56.2011 65.1828V67.5115C46.854 67.8769 40.0541 69.3835 34.881 72.2383L35.9991 74.2629C40.8264 71.5989 47.2864 70.1929 56.2011 69.8356V71.0161C37.1287 72.4198 34.2323 82.3867 34.2323 88.2812L34.23 88.7345C34.2104 92.4622 34.2219 92.8762 34.2393 93.03L36.5414 92.8161C36.5287 92.6056 36.5298 91.2366 36.5425 88.7472L36.5448 88.2812C36.5448 79.4706 43.3471 74.3288 56.2011 73.3425V74.4062C56.2011 75.0445 56.7179 75.5625 57.3573 75.5625H63.1386C63.778 75.5625 64.2948 75.0445 64.2948 74.4062V72.9968L77.2934 69.7466C77.8079 69.6182 78.1698 69.1557 78.1698 68.625V59.375C78.1698 58.8443 77.8079 58.3818 77.2934 58.2534Z" fill="white"/>
<defs>
<linearGradient id="paint0_linear_2683_540" x1="17.75" y1="9267.75" x2="9267.75" y2="17.75" gradientUnits="userSpaceOnUse">
<stop stop-color="#4D27A8"/>
<stop offset="1" stop-color="#A166FF"/>
</linearGradient>
</defs>
</svg>
