<svg width="512" height="512" viewBox="0 0 512 512" fill="none" xmlns="http://www.w3.org/2000/svg">
<path d="M441 71H71V441H441V71Z" fill="url(#paint0_linear_2609_158)"/>
<path fill-rule="evenodd" clip-rule="evenodd" d="M352.366 269.378L354.142 256.872C370.519 266.682 370.732 270.733 370.727 270.844C370.7 270.868 367.906 273.199 352.366 269.378ZM343.38 266.881C315.075 258.315 275.656 240.232 259.704 232.693C259.704 232.628 259.723 232.568 259.723 232.503C259.723 226.375 254.737 221.389 248.604 221.389C242.481 221.389 237.495 226.375 237.495 232.503C237.495 238.631 242.481 243.617 248.604 243.617C251.296 243.617 253.738 242.613 255.667 241.018C274.435 249.902 313.548 267.723 342.062 276.14L330.786 355.718C330.753 355.935 330.74 356.153 330.74 356.37C330.74 363.377 299.72 376.248 249.034 376.248C197.812 376.248 166.464 363.377 166.464 356.37C166.464 356.157 166.45 355.949 166.423 355.741L142.863 183.659C163.254 197.695 207.113 205.123 249.062 205.123C290.946 205.123 334.731 197.723 355.164 183.728L343.38 266.881ZM140.375 165.709C140.708 159.622 175.682 135.748 249.062 135.748C322.433 135.748 357.412 159.618 357.75 165.709V167.786C353.726 181.434 308.401 195.873 249.062 195.873C189.622 195.873 144.273 181.388 140.375 167.721V165.709ZM367 165.811C367 149.785 321.055 126.498 249.062 126.498C177.069 126.498 131.125 149.785 131.125 165.811L131.559 169.298L157.219 356.721C157.834 377.682 213.732 385.498 249.034 385.498C292.842 385.498 339.384 375.425 339.985 356.735L351.066 278.587C357.232 280.062 362.305 280.816 366.38 280.816C371.851 280.816 375.551 279.479 377.794 276.806C379.635 274.614 380.338 271.959 379.811 269.133C378.613 262.732 371.014 255.832 355.539 247.003L366.528 169.478L367 165.811Z" fill="white"/>
<defs>
<linearGradient id="paint0_linear_2609_158" x1="71" y1="37071" x2="37071" y2="71" gradientUnits="userSpaceOnUse">
<stop stop-color="#1B660F"/>
<stop offset="1" stop-color="#6CAE3E"/>
</linearGradient>
</defs>
</svg>
