<svg width="512" height="512" viewBox="0 0 512 512" fill="none" xmlns="http://www.w3.org/2000/svg">
<path d="M441 71H71V441H441V71Z" fill="url(#paint0_linear_2609_152)"/>
<path fill-rule="evenodd" clip-rule="evenodd" d="M379.141 274.833L375.709 283.417C360.918 277.502 342.876 274.5 322.082 274.5V265.25C344.06 265.25 363.254 268.474 379.141 274.833ZM375.963 269.639C362.523 265.176 335.328 260.625 322.082 260.625V251.375C335.476 251.375 362.555 246.829 375.75 242.37L378.71 251.13C373.651 252.846 366.815 254.539 359.471 256.019C366.903 257.494 373.827 259.182 378.882 260.861L375.963 269.639ZM379.076 237.195C362.514 243.536 343.338 246.75 322.082 246.75V237.5C342.205 237.5 360.266 234.489 375.769 228.555L379.076 237.195ZM303.429 270.888L257.179 282.45V229.55L303.429 241.112V270.888ZM247.929 293H234.054V219H247.929V293ZM309.174 233.014L257.179 220.013V214.375C257.179 211.822 255.112 209.75 252.554 209.75H229.429C226.872 209.75 224.804 211.822 224.804 214.375V218.676C154.495 213.547 146.179 184.863 146.179 163.5V140.375H136.929V163.5C136.929 202.669 165.743 223.731 224.804 227.912V232.704C188.9 231.265 163.121 225.6 144.01 214.962L139.51 223.042C159.994 234.452 187.208 240.479 224.804 241.959V251.273C198.682 250.654 163.297 248.924 138.109 242.278L135.75 251.222C143.303 253.216 151.702 254.77 160.457 256C151.702 257.235 143.303 258.789 135.75 260.778L138.109 269.722C163.301 263.076 198.687 261.346 224.804 260.731V270.046C187.416 271.508 160.216 277.534 139.524 288.953L143.996 297.051C163.306 286.395 189.146 280.772 224.804 279.342V284.065C148.515 289.679 136.929 329.547 136.929 353.125L136.92 354.938C136.842 369.849 136.888 371.505 136.957 372.12L146.165 371.264C146.115 370.422 146.119 364.946 146.17 354.989L146.179 353.125C146.179 317.883 173.388 297.315 224.804 293.37V297.625C224.804 300.178 226.872 302.25 229.429 302.25H252.554C255.112 302.25 257.179 300.178 257.179 297.625V291.987L309.174 278.986C311.232 278.473 312.679 276.623 312.679 274.5V237.5C312.679 235.377 311.232 233.527 309.174 233.014Z" fill="white"/>
<defs>
<linearGradient id="paint0_linear_2609_152" x1="71" y1="37071" x2="37071" y2="71" gradientUnits="userSpaceOnUse">
<stop stop-color="#4D27A8"/>
<stop offset="1" stop-color="#A166FF"/>
</linearGradient>
</defs>
</svg>
