<svg width="128" height="128" viewBox="0 0 128 128" fill="none" xmlns="http://www.w3.org/2000/svg">
<path d="M110.25 17.75H17.75V110.25H110.25V17.75Z" fill="url(#paint0_linear_2683_538)"/>
<path fill-rule="evenodd" clip-rule="evenodd" d="M88.0915 67.3446L88.5355 64.2181C92.6298 66.6705 92.683 67.6833 92.6818 67.7111C92.6749 67.7169 91.9765 68.2996 88.0915 67.3446ZM85.8449 66.7202C78.7687 64.5788 68.9139 60.0579 64.926 58.1732C64.926 58.157 64.9307 58.142 64.9307 58.1258C64.9307 56.5938 63.6842 55.3473 62.151 55.3473C60.6202 55.3473 59.3737 56.5938 59.3737 58.1258C59.3737 59.6578 60.6202 60.9043 62.151 60.9043C62.824 60.9043 63.4345 60.6533 63.9166 60.2544C68.6087 62.4756 78.3871 66.9306 85.5154 69.035L82.6964 88.9294C82.6884 88.9838 82.6849 89.0381 82.6849 89.0925C82.6849 90.8442 74.9299 94.062 62.2586 94.062C49.4531 94.062 41.616 90.8442 41.616 89.0925C41.616 89.0393 41.6126 88.9873 41.6056 88.9352L35.7157 45.9146C40.8136 49.4239 51.7783 51.2808 62.2655 51.2808C72.7365 51.2808 83.6827 49.4308 88.791 45.932L85.8449 66.7202ZM35.0936 41.4272C35.1769 39.9056 43.9204 33.937 62.2655 33.937C80.6083 33.937 89.353 39.9044 89.4374 41.4272V41.9464C88.4314 45.3585 77.1002 48.9683 62.2655 48.9683C47.4054 48.9683 36.0684 45.3469 35.0936 41.9302V41.4272ZM91.7499 41.4527C91.7499 37.4463 80.2637 31.6245 62.2655 31.6245C44.2673 31.6245 32.7811 37.4463 32.7811 41.4527L32.8898 42.3245L39.3047 89.1803C39.4585 94.4205 53.4329 96.3745 62.2586 96.3745C73.2106 96.3745 84.8459 93.8562 84.9962 89.1838L87.7666 69.6467C89.3079 70.0155 90.5763 70.204 91.5949 70.204C92.9628 70.204 93.8878 69.8698 94.4486 69.2015C94.9088 68.6534 95.0845 67.9898 94.9527 67.2833C94.6532 65.683 92.7535 63.9579 88.8847 61.7506L91.6319 42.3696L91.7499 41.4527Z" fill="white"/>
<defs>
<linearGradient id="paint0_linear_2683_538" x1="17.75" y1="9267.75" x2="9267.75" y2="17.75" gradientUnits="userSpaceOnUse">
<stop stop-color="#1B660F"/>
<stop offset="1" stop-color="#6CAE3E"/>
</linearGradient>
</defs>
</svg>
