<svg width="512" height="512" viewBox="0 0 512 512" fill="none" xmlns="http://www.w3.org/2000/svg">
<path d="M441 71H71V441H441V71Z" fill="url(#paint0_linear_2609_155)"/>
<path fill-rule="evenodd" clip-rule="evenodd" d="M158.875 357.75H168.125C168.125 318.872 193.401 279.125 380.875 279.125V269.875C185.251 269.875 158.875 314.293 158.875 357.75ZM186.625 385.5H195.875C195.875 350.507 195.875 297.625 380.875 297.625V288.375C296.066 288.375 240.867 299.285 212.109 321.731C186.625 341.618 186.625 366.981 186.625 385.5ZM140.375 191.25H131.125C131.125 225.457 177.555 247.12 269.38 256C177.555 264.88 131.125 286.543 131.125 320.75H140.375C140.375 298.296 171.622 260.625 380.875 260.625V251.375C171.622 251.375 140.375 213.704 140.375 191.25ZM168.125 154.25H158.875C158.875 197.707 185.251 242.125 380.875 242.125V232.875C193.401 232.875 168.125 193.128 168.125 154.25ZM380.875 214.375V223.625C296.066 223.625 240.867 212.715 212.109 190.27C186.625 170.382 186.625 145.019 186.625 126.5H195.875C195.875 161.493 195.875 214.375 380.875 214.375Z" fill="white"/>
<defs>
<linearGradient id="paint0_linear_2609_155" x1="71" y1="37071" x2="37071" y2="71" gradientUnits="userSpaceOnUse">
<stop stop-color="#4D27A8"/>
<stop offset="1" stop-color="#A166FF"/>
</linearGradient>
</defs>
</svg>
