<svg width="512" height="512" viewBox="0 0 512 512" fill="none" xmlns="http://www.w3.org/2000/svg">
<path d="M288.251 224.288C289.309 224.288 290.262 224.867 291.098 225.971C293.2 229.231 296.829 236.541 302.199 252.872C305.874 264.046 309.882 277.887 314.124 294.036C298.033 293.788 281.753 293.603 265.989 293.424L258.006 293.333C267.023 258.078 278.027 231.323 286.068 225.007C286.581 224.679 287.378 224.288 288.251 224.288Z" fill="#007FD2"/>
<path fill-rule="evenodd" clip-rule="evenodd" d="M309 460C392.396 460 460 392.393 460 309C460 225.604 392.396 158 309 158C225.604 158 158 225.604 158 309C158 392.393 225.604 460 309 460ZM414.115 297.699C417.796 298.436 420.528 301.668 420.528 305.546C420.528 308.027 419.379 310.264 417.577 311.741C417.571 311.746 417.566 311.75 417.561 311.755C417.556 311.759 417.55 311.764 417.544 311.768C417.38 311.902 417.214 312.026 417.041 312.144C417.008 312.168 416.976 312.191 416.943 312.214C416.92 312.23 416.897 312.245 416.874 312.26C416.759 312.335 416.641 312.405 416.519 312.475C416.489 312.492 416.459 312.51 416.43 312.528C416.351 312.575 416.273 312.621 416.192 312.663C416.186 312.666 416.18 312.669 416.171 312.672C415.061 313.254 413.796 313.591 412.453 313.591H340.928C341.459 315.783 342.031 318.253 342.652 320.934L342.802 321.583L342.803 321.586C346.724 338.513 357.139 383.475 368.199 383.475L368.415 383.481L368.536 383.463L368.748 383.466C377.39 383.463 381.801 370.971 391.465 343.6L391.583 343.269C393.135 338.873 394.888 333.912 396.783 328.666L397.268 327.326L397.274 327.329C397.769 326.019 399.03 325.088 400.513 325.088C402.423 325.088 403.972 326.638 403.972 328.548C403.972 328.897 403.921 329.23 403.824 329.546H403.827L403.424 330.892C402.414 334.152 401.343 338.588 400.106 343.724L400.102 343.741C394.338 367.616 385.635 403.666 363.311 403.666H363.148C348.724 403.551 340.092 380.495 336.404 370.643L336.401 370.637C329.506 352.22 324.288 332.596 319.258 313.591H253.418L239.749 357.335L239.552 357.177C238.3 359.142 236.108 360.404 233.688 360.404C229.874 360.404 226.754 357.299 226.735 353.481L226.744 353.245L227.572 348.296C229.461 337.056 231.723 325.389 234.304 313.591H206.499L206.396 313.485C201.347 312.757 197.472 308.306 197.472 303.115C197.472 298.024 201.074 293.694 206.038 292.814C206.493 292.754 207.412 292.675 209.291 292.675C209.692 292.675 210.14 292.678 210.641 292.687C219.455 292.839 228.803 292.981 239.058 293.112C253.573 234.143 270.38 204.21 289.024 204.125C309.033 204.125 323.873 249.682 335.752 294.243L335.801 294.422C360.21 294.91 386.228 295.622 411.519 297.432L412.578 297.532C412.984 297.539 413.381 297.578 413.772 297.642L413.921 297.657C413.942 297.66 413.963 297.665 413.984 297.67C414.006 297.676 414.027 297.681 414.048 297.684C414.072 297.69 414.094 297.696 414.115 297.699Z" fill="#007FD2"/>
<path opacity="0.6" fill-rule="evenodd" clip-rule="evenodd" d="M120.073 79.6086C138.23 67.4758 159.578 61 181.417 61C179.054 68.6739 178.828 76.8467 180.762 84.6395C182.697 92.4323 186.719 99.5503 192.397 105.228C198.075 110.906 205.193 114.928 212.986 116.863C220.778 118.798 228.951 118.571 236.625 116.208C234.262 123.882 234.036 132.055 235.971 139.848C237.905 147.641 241.928 154.759 247.605 160.436C253.283 166.114 260.401 170.136 268.194 172.071C275.987 174.006 284.16 173.78 291.833 171.417C291.833 193.255 285.358 214.603 273.225 232.761C261.092 250.919 243.847 265.071 223.671 273.428C203.495 281.786 181.294 283.972 159.876 279.712C138.457 275.451 118.782 264.935 103.34 249.493C87.8983 234.051 77.3821 214.377 73.1217 192.958C68.8612 171.539 71.0478 149.338 79.405 129.162C87.7622 108.986 101.915 91.7413 120.073 79.6086ZM158.77 132.771C158.77 123.935 151.606 116.771 142.77 116.771C133.933 116.771 126.77 123.935 126.77 132.771V132.882C126.77 141.719 133.933 148.882 142.77 148.882C151.606 148.882 158.77 141.719 158.77 132.882V132.771ZM225.582 194.062C234.419 194.062 241.582 201.226 241.582 210.062V210.173C241.582 219.01 234.419 226.173 225.582 226.173C216.745 226.173 209.582 219.01 209.582 210.173V210.062C209.582 201.226 216.745 194.062 225.582 194.062ZM181.416 155.417C190.253 155.417 197.416 162.58 197.416 171.417V171.528C197.416 180.364 190.253 187.528 181.416 187.528C172.579 187.528 165.416 180.364 165.416 171.528V171.417C165.416 162.58 172.579 155.417 181.416 155.417ZM170.375 210.625C179.212 210.625 186.375 217.788 186.375 226.625V226.736C186.375 235.572 179.212 242.736 170.375 242.736C161.538 242.736 154.375 235.572 154.375 226.736V226.625C154.375 217.788 161.538 210.625 170.375 210.625ZM126.207 177.5C135.044 177.5 142.207 184.663 142.207 193.5V193.611C142.207 202.447 135.044 209.611 126.207 209.611C117.37 209.611 110.207 202.447 110.207 193.611V193.5C110.207 184.663 117.37 177.5 126.207 177.5Z" fill="#B919E7"/>
</svg>
