<svg width="128" height="128" viewBox="0 0 128 128" fill="none" xmlns="http://www.w3.org/2000/svg">
<g opacity="0.6">
<path d="M72.0629 56.0721C72.3274 56.0721 72.5654 56.2169 72.7747 56.4928C73.3 57.3077 74.2073 59.1353 75.5498 63.218C76.4686 66.0114 77.4707 69.4718 78.5312 73.5091C74.5083 73.4469 70.4384 73.4007 66.4974 73.356L64.5015 73.3332C66.7559 64.5196 69.5068 57.8307 71.5171 56.2517C71.6452 56.1699 71.8446 56.0721 72.0629 56.0721Z" fill="#007FD2"/>
<path fill-rule="evenodd" clip-rule="evenodd" d="M77.2501 115C98.099 115 115 98.0982 115 77.25C115 56.4011 98.099 39.5 77.2501 39.5C56.4011 39.5 39.5001 56.4011 39.5001 77.25C39.5001 98.0982 56.4011 115 77.2501 115ZM103.529 74.4248C104.449 74.609 105.132 75.4171 105.132 76.3866C105.132 77.0067 104.845 77.5661 104.394 77.9353C104.393 77.9364 104.392 77.9375 104.39 77.9387C104.389 77.9398 104.388 77.9409 104.386 77.9421C104.345 77.9754 104.303 78.0065 104.26 78.0361C104.252 78.042 104.244 78.0478 104.236 78.0535C104.23 78.0574 104.224 78.0612 104.219 78.0649C104.19 78.0838 104.16 78.1013 104.13 78.1187C104.122 78.1231 104.115 78.1275 104.107 78.132C104.088 78.1436 104.068 78.1553 104.048 78.1657C104.046 78.1665 104.045 78.1672 104.043 78.168C103.765 78.3135 103.449 78.3977 103.113 78.3977H85.2321C85.3648 78.9457 85.5078 79.5632 85.663 80.2334L85.7006 80.3958L85.7007 80.3965C86.681 84.6283 89.2847 95.8688 92.0499 95.8688L92.1037 95.8703L92.134 95.8658L92.1871 95.8665C94.3475 95.8658 95.4504 92.7427 97.8663 85.8999L97.8958 85.8173C98.2839 84.7181 98.7221 83.478 99.1958 82.1666L99.3171 81.8315L99.3186 81.8323C99.4422 81.5048 99.7575 81.2721 100.128 81.2721C100.606 81.2721 100.993 81.6595 100.993 82.137C100.993 82.2242 100.98 82.3076 100.956 82.3864H100.957L100.856 82.723C100.604 83.5379 100.336 84.6469 100.027 85.931L100.026 85.9353C98.5846 91.9041 96.4087 100.917 90.8279 100.917H90.787C87.181 100.888 85.023 95.1236 84.1009 92.6607L84.1004 92.6593C82.3766 88.055 81.0721 83.149 79.8145 78.3977H63.3546L59.9374 89.3338L59.8881 89.2944C59.575 89.7856 59.027 90.1009 58.4221 90.1009C57.4685 90.1009 56.6884 89.3247 56.6839 88.3703L56.6862 88.3112L56.8931 87.0741C57.3654 84.2641 57.9309 81.3472 58.5759 78.3977H51.6248L51.599 78.3711C50.3369 78.1892 49.3681 77.0764 49.3681 75.7787C49.3681 74.5059 50.2687 73.4235 51.5096 73.2036C51.6233 73.1885 51.853 73.1688 52.3229 73.1688C52.423 73.1688 52.5352 73.1695 52.6603 73.1718C54.8639 73.2097 57.2009 73.2453 59.7645 73.2779C63.3932 58.5357 67.595 51.0524 72.2561 51.0312C77.2584 51.0312 80.9682 62.4206 83.9382 73.5607L83.9503 73.6054C90.0525 73.7274 96.5571 73.9056 102.88 74.3581L103.144 74.3831C103.246 74.3846 103.345 74.3945 103.443 74.4104L103.48 74.4142C103.486 74.415 103.491 74.4163 103.496 74.4176C103.501 74.4189 103.507 74.4203 103.512 74.421C103.518 74.4225 103.523 74.4241 103.529 74.4248Z" fill="#007FD2"/>
<path d="M45.3542 15.25C44.7634 17.1685 44.7069 19.2117 45.1906 21.1599C45.6742 23.1081 46.6799 24.8875 48.0993 26.3069C49.5187 27.7263 51.2983 28.7321 53.2465 29.2158C55.1947 29.6995 57.238 29.6427 59.1564 29.052C58.5657 30.9705 58.5092 33.0137 58.9928 34.9619C59.4765 36.9101 60.4821 38.6897 61.9015 40.1091C63.3209 41.5285 65.1003 42.5342 67.0485 43.0178C68.9967 43.5015 71.0399 43.445 72.9584 42.8542C72.9584 48.3138 71.3395 53.6507 68.3063 58.1902C65.2731 62.7297 60.9619 66.2679 55.9179 68.3572C50.8739 70.4465 45.3236 70.9931 39.9689 69.928C34.6142 68.8629 29.6956 66.2338 25.8351 62.3733C21.9746 58.5128 19.3455 53.5942 18.2804 48.2395C17.2153 42.8848 17.7619 37.3345 19.8512 32.2905C21.9405 27.2465 25.4787 22.9353 30.0182 19.9021C34.5577 16.8689 39.8946 15.25 45.3542 15.25ZM42.5939 52.6562C40.3848 52.6562 38.5939 54.4471 38.5939 56.6562V56.6838C38.5939 58.893 40.3848 60.6838 42.5939 60.6838C44.803 60.6838 46.5939 58.8929 46.5939 56.6838V56.6562C46.5939 54.4471 44.803 52.6563 42.5939 52.6562ZM56.3957 48.5156C54.1865 48.5156 52.3957 50.3065 52.3957 52.5156V52.5432C52.3957 54.7524 54.1865 56.5432 56.3957 56.5432C58.6048 56.5432 60.3957 54.7523 60.3957 52.5432V52.5156C60.3957 50.3065 58.6048 48.5157 56.3957 48.5156ZM31.5519 44.375C29.3428 44.375 27.5519 46.1659 27.5519 48.375V48.4026C27.5519 50.6117 29.3428 52.4026 31.5519 52.4026C33.761 52.4025 35.5519 50.6117 35.5519 48.4026V48.375C35.5519 46.1659 33.761 44.375 31.5519 44.375ZM45.3542 38.8542C43.145 38.8542 41.3542 40.6451 41.3542 42.8542V42.8818C41.3542 45.091 43.145 46.8818 45.3542 46.8818C47.5633 46.8818 49.3542 45.0909 49.3542 42.8818V42.8542C49.3542 40.6451 47.5633 38.8543 45.3542 38.8542ZM35.6925 29.1929C33.4834 29.1929 31.6925 30.9837 31.6925 33.1929V33.2205C31.6925 35.4296 33.4834 37.2205 35.6925 37.2205C37.9016 37.2204 39.6925 35.4296 39.6925 33.2205V33.1929C39.6925 30.9838 37.9016 29.1929 35.6925 29.1929Z" fill="#B919E7"/>
</g>
</svg>
