<svg width="512" height="512" viewBox="0 0 512 512" fill="none" xmlns="http://www.w3.org/2000/svg">
<path d="M228.774 146.385C230.137 146.385 231.363 147.131 232.441 148.552C235.148 152.751 239.823 162.167 246.74 183.203C251.473 197.595 256.637 215.424 262.101 236.226C241.373 235.905 220.404 235.667 200.099 235.437L189.815 235.319C201.431 189.909 215.604 155.446 225.962 147.31C226.622 146.888 227.649 146.385 228.774 146.385Z" fill="#007FD2"/>
<path fill-rule="evenodd" clip-rule="evenodd" d="M255.5 450C362.92 450 450 362.916 450 255.5C450 148.08 362.92 61 255.5 61C148.08 61 61 148.08 61 255.5C61 362.916 148.08 450 255.5 450ZM390.896 240.944C395.638 241.893 399.157 246.056 399.157 251.051C399.157 254.246 397.676 257.129 395.356 259.031C395.349 259.037 395.342 259.042 395.335 259.048C395.328 259.054 395.321 259.06 395.313 259.066C395.103 259.238 394.888 259.398 394.665 259.55C394.623 259.58 394.581 259.611 394.539 259.64C394.51 259.66 394.48 259.68 394.45 259.699C394.302 259.796 394.15 259.886 393.993 259.976C393.955 259.998 393.916 260.021 393.878 260.044C393.777 260.104 393.676 260.164 393.572 260.218C393.564 260.222 393.556 260.226 393.544 260.23C392.115 260.98 390.486 261.413 388.756 261.413H296.626C297.31 264.237 298.046 267.418 298.846 270.871L299.04 271.708L299.041 271.712C304.091 293.515 317.506 351.43 331.753 351.43L332.031 351.438L332.187 351.414L332.46 351.418C343.591 351.414 349.274 335.323 361.721 300.067L361.874 299.641C363.873 293.978 366.131 287.589 368.572 280.832L369.197 279.106L369.204 279.109C369.841 277.422 371.466 276.223 373.376 276.223C375.836 276.223 377.832 278.219 377.832 280.68C377.832 281.129 377.766 281.558 377.641 281.964H377.644L377.125 283.699C375.824 287.897 374.446 293.611 372.852 300.227L372.847 300.249C365.422 331.003 354.212 377.437 325.457 377.437H325.247C306.667 377.289 295.549 347.591 290.798 334.901L290.795 334.893C281.914 311.171 275.192 285.894 268.713 261.413H183.906L166.299 317.76L166.046 317.556C164.433 320.087 161.609 321.712 158.492 321.712C153.579 321.712 149.56 317.713 149.537 312.795L149.548 312.491L150.615 306.117C153.048 291.639 155.961 276.61 159.285 261.413H123.47L123.338 261.276C116.835 260.339 111.843 254.606 111.843 247.919C111.843 241.362 116.483 235.784 122.877 234.652C123.463 234.574 124.646 234.472 127.068 234.472C127.583 234.472 128.161 234.476 128.806 234.488C140.159 234.683 152.2 234.867 165.409 235.035C184.105 159.078 205.754 120.522 229.77 120.412C255.543 120.412 274.657 179.094 289.959 236.491L290.022 236.722C321.462 237.351 354.976 238.268 387.553 240.6L388.916 240.729C389.439 240.737 389.951 240.788 390.455 240.87L390.646 240.889C390.674 240.893 390.701 240.9 390.728 240.907C390.756 240.913 390.783 240.92 390.81 240.924C390.842 240.932 390.869 240.94 390.896 240.944Z" fill="#007FD2"/>
</svg>
