<svg width="128" height="128" viewBox="0 0 128 128" fill="none" xmlns="http://www.w3.org/2000/svg">
<path d="M57.1935 36.5961C57.5343 36.5961 57.8408 36.7826 58.1103 37.138C58.787 38.1877 59.9557 40.5418 61.685 45.8007C62.8684 49.3988 64.1592 53.8561 65.5252 59.0564C60.3434 58.9763 55.101 58.9168 50.0247 58.8592L47.4538 58.8299C50.3577 47.4772 53.901 38.8614 56.4905 36.8276C56.6555 36.7221 56.9123 36.5961 57.1935 36.5961Z" fill="#007FD2"/>
<path fill-rule="evenodd" clip-rule="evenodd" d="M63.875 112.5C90.7301 112.5 112.5 90.7291 112.5 63.875C112.5 37.0199 90.7301 15.25 63.875 15.25C37.0199 15.25 15.25 37.0199 15.25 63.875C15.25 90.7291 37.0199 112.5 63.875 112.5ZM97.724 60.2359C98.9094 60.4732 99.7891 61.514 99.7891 62.7629C99.7891 63.5616 99.4191 64.2822 98.8391 64.7577C98.8372 64.7591 98.8354 64.7606 98.8337 64.7621C98.832 64.7635 98.8303 64.765 98.8284 64.7665C98.7756 64.8094 98.7219 64.8495 98.6663 64.8875C98.6558 64.8951 98.6453 64.9027 98.6347 64.91C98.6274 64.915 98.6201 64.9199 98.6126 64.9246C98.5755 64.949 98.5374 64.9715 98.4983 64.994C98.4887 64.9996 98.4791 65.0053 98.4695 65.011C98.4442 65.0261 98.4191 65.041 98.3929 65.0545C98.3909 65.0555 98.389 65.0565 98.3861 65.0574C98.0287 65.2449 97.6215 65.3533 97.189 65.3533H74.1565C74.3274 66.0592 74.5116 66.8546 74.7115 67.7178L74.76 67.9271L74.7601 67.9279C76.0228 73.3788 79.3766 87.8575 82.9383 87.8575L83.0077 87.8594L83.0467 87.8536L83.1151 87.8545C85.8978 87.8536 87.3185 83.8308 90.4303 75.0168L90.4684 74.9103C90.9683 73.4945 91.5327 71.8972 92.1429 70.208L92.2991 69.7764L92.3011 69.7774C92.4602 69.3556 92.8664 69.0558 93.3439 69.0558C93.959 69.0558 94.458 69.5548 94.458 70.1699C94.458 70.2822 94.4414 70.3896 94.4101 70.4911H94.4111L94.2812 70.9246C93.9561 71.9743 93.6114 73.4028 93.2131 75.0568L93.2117 75.0624C91.3556 82.7506 88.5529 94.3594 81.3644 94.3594H81.3117C76.6668 94.3223 73.8872 86.8977 72.6995 83.7253L72.6988 83.7234C70.4784 77.7927 68.798 71.4734 67.1782 65.3533H45.9765L41.5749 79.4399L41.5114 79.3891C41.1082 80.0218 40.4022 80.428 39.623 80.428C38.3947 80.428 37.39 79.4282 37.3841 78.1989L37.3871 78.1227L37.6536 76.5292C38.2619 72.9097 38.9903 69.1525 39.8212 65.3533H30.8676L30.8344 65.3191C29.2087 65.0848 27.9608 63.6514 27.9608 61.9798C27.9608 60.3404 29.1208 58.9461 30.7192 58.6629C30.8657 58.6434 31.1615 58.618 31.7669 58.618C31.8958 58.618 32.0403 58.619 32.2014 58.6219C35.0398 58.6708 38.05 58.7166 41.3523 58.7586C46.0263 39.7695 51.4385 30.1304 57.4424 30.1031C63.8857 30.1031 68.6643 44.7736 72.4898 59.1228L72.5054 59.1804C80.3655 59.3376 88.744 59.5671 96.8882 60.15L97.229 60.1822C97.3599 60.1842 97.4878 60.1969 97.6137 60.2174L97.6616 60.2223C97.6684 60.2232 97.6752 60.2249 97.6821 60.2267C97.6889 60.2284 97.6957 60.2301 97.7026 60.2311C97.7104 60.233 97.7172 60.235 97.724 60.2359Z" fill="#007FD2"/>
</svg>
