<svg width="128" height="128" viewBox="0 0 128 128" fill="none" xmlns="http://www.w3.org/2000/svg">
<path d="M29.9305 34.4432C51.5439 9.67992 88.3536 6.44034 103.511 19.67C122.535 36.2743 120.436 69.8093 98.8228 94.5726C77.2094 119.336 42.975 122.047 23.951 105.442C4.92692 88.8382 8.31707 59.2065 29.9305 34.4432ZM92.7491 68.609C92.3945 68.609 92.0432 68.6791 91.7156 68.8155C91.3881 68.9519 91.0906 69.152 90.8401 69.4039L82.9798 77.253C82.4755 77.7652 82.1927 78.4562 82.1927 79.1761C82.1927 79.8961 82.4755 80.5871 82.9798 81.0994C83.2266 81.3579 83.5229 81.5636 83.8509 81.7042C84.1789 81.8447 84.532 81.9168 84.8887 81.9168C85.2454 81.9168 85.5985 81.8447 85.9266 81.7042C86.2547 81.5636 86.5509 81.3579 86.7977 81.0994L94.6409 73.233C94.8954 72.9843 95.0979 72.6873 95.2366 72.3592C95.3754 72.0311 95.4479 71.6786 95.4495 71.3221C95.4511 70.9658 95.3817 70.6126 95.2459 70.2833C95.1101 69.954 94.9102 69.655 94.658 69.4039C94.4077 69.152 94.1103 68.9519 93.7828 68.8155C93.4551 68.6791 93.1038 68.609 92.7491 68.609ZM76.5186 39.222C76.1492 39.222 75.7834 39.2954 75.4424 39.4378C75.1016 39.5802 74.7921 39.7889 74.532 40.0518L44.0057 70.6514L33.5193 60.1339C33.2592 59.8709 32.9499 59.662 32.6089 59.5196C32.268 59.3772 31.9021 59.3038 31.5328 59.3038C31.1634 59.3038 30.7976 59.3772 30.4566 59.5196C30.1156 59.662 29.8061 59.8709 29.5459 60.1339C29.2822 60.3922 29.0726 60.7007 28.9295 61.0413C28.7864 61.382 28.7127 61.748 28.7127 62.1178C28.7127 62.4876 28.7864 62.8535 28.9295 63.1942C29.0726 63.5349 29.2822 63.8436 29.5459 64.1019L42.0535 76.6292C42.3117 76.8888 42.619 77.0945 42.9571 77.2342C43.2951 77.374 43.6574 77.4453 44.023 77.4437C44.3916 77.4486 44.7577 77.3791 45.0989 77.2391C45.4402 77.0992 45.7501 76.8917 46.0098 76.6292L78.5054 44.0199C79.0214 43.4892 79.3101 42.7772 79.3101 42.036C79.3101 41.2947 79.0215 40.5825 78.5054 40.0518C78.2453 39.7888 77.9356 39.5803 77.5945 39.4378C77.2537 39.2954 76.888 39.222 76.5186 39.222ZM92.7317 53.8309C92.0157 53.8309 91.3291 54.116 90.8228 54.6239L75.6031 69.9063C75.1062 70.412 74.8274 71.0936 74.8274 71.8038C74.8275 72.5138 75.1062 73.1953 75.6031 73.701C75.8526 73.9592 76.1503 74.1654 76.4793 74.3082C76.8083 74.4508 77.1621 74.5269 77.5206 74.5325C77.8789 74.5269 78.2328 74.4508 78.5618 74.3082C78.8908 74.1654 79.1886 73.9592 79.438 73.701L94.6409 58.4532C95.1471 57.9454 95.4314 57.2566 95.4314 56.5387C95.4314 55.8205 95.1471 55.1316 94.6409 54.6239C94.1346 54.116 93.4476 53.8309 92.7317 53.8309ZM90.1145 41.6842C89.7613 41.6842 89.4113 41.7543 89.0853 41.8905C88.7591 42.0267 88.463 42.2262 88.2142 42.4776L68.2435 62.5076C67.8618 62.8858 67.6012 63.3696 67.4952 63.897C67.3892 64.4245 67.4426 64.9719 67.6485 65.4688C67.8545 65.9657 68.2038 66.3894 68.6514 66.6861C69.0991 66.9828 69.6247 67.1389 70.1612 67.1341C70.5196 67.1388 70.8751 67.0688 71.2051 66.9285C71.5352 66.7884 71.8326 66.581 72.0787 66.3197L92.0149 46.307C92.2682 46.0571 92.4694 45.759 92.6067 45.4303C92.744 45.1016 92.8147 44.7487 92.8147 44.3924C92.8147 44.036 92.7441 43.683 92.6067 43.3543C92.4694 43.0256 92.2682 42.7275 92.0149 42.4776C91.7661 42.2262 91.4699 42.0267 91.1438 41.8905C90.8178 41.7543 90.4678 41.6842 90.1145 41.6842Z" fill="#FFC823"/>
</svg>
