<svg width="512" height="512" viewBox="0 0 512 512" fill="none" xmlns="http://www.w3.org/2000/svg">
<path d="M119.722 137.773C206.175 38.7198 353.414 25.7614 414.045 78.68C490.141 145.097 481.745 279.237 395.291 378.29C308.837 477.343 171.901 488.187 95.8046 421.77C19.7083 355.353 33.2679 236.826 119.722 137.773ZM370.996 274.436C369.578 274.436 368.172 274.716 366.862 275.262C365.552 275.808 364.362 276.608 363.36 277.616L331.919 309.012C329.902 311.061 328.77 313.826 328.77 316.705C328.77 319.585 329.902 322.349 331.919 324.399C332.906 325.432 334.091 326.255 335.403 326.817C336.716 327.379 338.128 327.668 339.555 327.668C340.982 327.668 342.394 327.379 343.706 326.817C345.018 326.255 346.203 325.432 347.19 324.399L378.563 292.933C379.581 291.938 380.391 290.749 380.946 289.437C381.501 288.124 381.791 286.714 381.798 285.288C381.804 283.863 381.527 282.45 380.983 281.133C380.44 279.816 379.641 278.62 378.632 277.616C377.63 276.608 376.441 275.808 375.131 275.262C373.82 274.716 372.415 274.436 370.996 274.436ZM306.074 156.888C304.597 156.888 303.133 157.182 301.769 157.751C300.406 158.321 299.168 159.156 298.128 160.208L176.023 282.606L134.078 240.535C133.037 239.483 131.799 238.649 130.435 238.079C129.072 237.51 127.608 237.216 126.131 237.216C124.653 237.216 123.191 237.51 121.827 238.079C120.463 238.649 119.225 239.484 118.184 240.535C117.129 241.569 116.29 242.803 115.718 244.166C115.145 245.529 114.851 246.992 114.851 248.471C114.851 249.95 115.145 251.415 115.718 252.778C116.29 254.14 117.129 255.374 118.184 256.408L168.215 306.517C169.248 307.555 170.476 308.379 171.828 308.938C173.18 309.497 174.63 309.781 176.093 309.775C177.567 309.794 179.03 309.516 180.395 308.956C181.761 308.397 183 307.567 184.039 306.517L314.021 176.079C316.086 173.957 317.24 171.109 317.24 168.144C317.24 165.179 316.086 162.331 314.021 160.208C312.981 159.156 311.743 158.321 310.379 157.751C309.015 157.181 307.552 156.888 306.074 156.888ZM370.928 215.324C368.064 215.324 365.317 216.465 363.292 218.496L302.412 279.625C300.425 281.648 299.309 284.375 299.309 287.215C299.31 290.055 300.425 292.781 302.412 294.804C303.41 295.837 304.601 296.661 305.917 297.233C307.233 297.803 308.649 298.109 310.083 298.131C311.516 298.109 312.931 297.803 314.247 297.233C315.563 296.661 316.755 295.837 317.753 294.804L378.563 233.813C380.588 231.781 381.726 229.027 381.726 226.155C381.726 223.282 380.588 220.527 378.563 218.496C376.538 216.465 373.791 215.324 370.928 215.324ZM360.458 166.737C359.045 166.737 357.646 167.017 356.342 167.562C355.037 168.107 353.853 168.906 352.857 169.911L272.974 250.032C271.447 251.544 270.404 253.479 269.98 255.589C269.557 257.699 269.77 259.888 270.594 261.875C271.418 263.863 272.815 265.559 274.605 266.745C276.396 267.932 278.499 268.556 280.644 268.536C282.078 268.555 283.5 268.275 284.82 267.714C286.141 267.154 287.331 266.324 288.315 265.279L368.059 185.229C369.073 184.229 369.878 183.036 370.428 181.721C370.977 180.406 371.259 178.995 371.259 177.57C371.259 176.144 370.977 174.732 370.428 173.417C369.878 172.103 369.073 170.911 368.059 169.911C367.064 168.906 365.879 168.107 364.575 167.562C363.271 167.017 361.871 166.737 360.458 166.737Z" fill="#FFC823"/>
</svg>
