<svg width="128" height="128" viewBox="0 0 128 128" fill="none" xmlns="http://www.w3.org/2000/svg">
<path d="M36.2144 105.641L14.135 67.3975C12.955 65.3548 12.955 62.8363 14.135 60.7936L36.2144 22.5519C37.3927 20.5108 39.5686 19.2532 41.9237 19.25H86.1032C88.4504 19.2611 90.6152 20.5187 91.7888 22.5519L113.865 60.7936C115.045 62.8363 115.045 65.3548 113.865 67.3975L91.7856 105.641C90.6073 107.682 88.4314 108.94 86.0762 108.943H41.9079C39.5559 108.935 37.388 107.677 36.2096 105.641H36.2144Z" fill="#4386FA"/>
<path d="M77.7932 51.7819C77.7932 51.7819 83.9308 66.5041 75.5634 74.8493C67.196 83.1945 51.9599 77.8531 51.9599 77.8531L82.9523 108.931H86.0988C88.4555 108.928 90.6314 107.669 91.8082 105.629L106.424 80.3208L77.7932 51.7819Z" fill="#3E7BE4"/>
<path d="M85.0405 81.9066L78.2733 75.1235C78.1997 75.048 78.1152 74.9839 78.0227 74.9332C80.9012 71.2255 82.2578 66.5598 81.8161 61.8867C81.3744 57.2136 79.1676 52.8848 75.6454 49.782C72.1232 46.6793 67.5505 45.0362 62.8591 45.1875C58.1676 45.3388 53.7103 47.273 50.3953 50.5962C47.0802 53.9194 45.1569 58.3814 45.0172 63.0733C44.8775 67.7651 46.5318 72.3337 49.6432 75.8483C52.7545 79.3629 57.0888 81.559 61.763 81.9892C66.4371 82.4194 71.0995 81.0514 74.8001 78.1638C74.8484 78.2511 74.9087 78.3312 74.9793 78.4017L81.7624 85.1847C81.9616 85.3837 82.2317 85.4955 82.5133 85.4955C82.7949 85.4955 83.065 85.3837 83.2642 85.1847L85.0405 83.4085C85.2395 83.2092 85.3513 82.9391 85.3513 82.6575C85.3513 82.3759 85.2395 82.1058 85.0405 81.9066ZM63.4289 77.5199C60.6842 77.5202 58.001 76.7065 55.7187 75.1819C53.4364 73.6572 51.6575 71.4899 50.607 68.9541C49.5565 66.4184 49.2815 63.6281 49.8169 60.9361C50.3523 58.244 51.674 55.7713 53.6148 53.8304C55.5557 51.8896 58.0285 50.5679 60.7205 50.0325C63.4125 49.4971 66.2028 49.7721 68.7385 50.8226C71.2743 51.8731 73.4416 53.652 74.9663 55.9343C76.491 58.2166 77.3046 60.8998 77.3043 63.6445C77.3039 67.3244 75.8419 70.8534 73.2398 73.4554C70.6378 76.0575 67.1088 77.5195 63.4289 77.5199ZM54.5588 62.9039V68.6386C55.4421 70.1976 56.7204 71.4981 58.2667 72.4052V62.869L54.5588 62.9039ZM61.4972 58.1492V73.647C62.7229 73.8729 63.9795 73.8729 65.2052 73.647V58.1492H61.4972ZM72.2245 68.6259V65.2289H68.5198V72.3656C70.0639 71.4608 71.3427 70.1656 72.2277 68.6101L72.2245 68.6259Z" fill="white"/>
</svg>
