<svg width="512" height="512" viewBox="0 0 512 512" fill="none" xmlns="http://www.w3.org/2000/svg">
<path d="M144.857 422.563L56.5398 269.59C51.8201 261.419 51.8201 251.345 56.5398 243.175L144.857 90.2077C149.571 82.0433 158.275 77.0127 167.695 77H344.413C353.802 77.0444 362.461 82.075 367.155 90.2077L455.46 243.175C460.18 251.345 460.18 261.419 455.46 269.59L367.143 422.563C362.429 430.727 353.725 435.758 344.305 435.771H167.632C158.224 435.739 149.552 430.708 144.838 422.563H144.857Z" fill="#4386FA"/>
<path opacity="0.1" d="M311.173 207.127C311.173 207.127 335.723 266.016 302.254 299.397C268.784 332.778 207.84 311.412 207.84 311.412L331.809 435.724H344.395C353.822 435.711 362.526 430.674 367.233 422.516L425.697 321.283L311.173 207.127Z" fill="black"/>
<path d="M340.161 327.627L313.092 300.494C312.798 300.192 312.46 299.936 312.09 299.733C323.604 284.902 329.03 266.24 327.263 247.547C325.497 228.855 316.67 211.539 302.581 199.128C288.492 186.718 270.201 180.145 251.435 180.75C232.669 181.355 214.84 189.092 201.58 202.385C188.32 215.678 180.627 233.526 180.068 252.293C179.509 271.061 186.126 289.335 198.572 303.393C211.017 317.452 228.354 326.236 247.051 327.957C265.748 329.678 284.397 324.206 299.199 312.655C299.393 313.005 299.634 313.325 299.916 313.607L327.049 340.739C327.845 341.535 328.926 341.982 330.052 341.982C331.179 341.982 332.259 341.535 333.056 340.739L340.161 333.634C340.957 332.837 341.404 331.757 341.404 330.63C341.404 329.504 340.957 328.424 340.161 327.627ZM253.715 310.08C242.736 310.081 232.003 306.826 222.874 300.728C213.745 294.629 206.629 285.96 202.427 275.817C198.225 265.674 197.125 254.513 199.267 243.744C201.408 232.976 206.695 223.085 214.458 215.322C222.222 207.559 232.113 202.272 242.881 200.13C253.649 197.989 264.81 199.089 274.953 203.291C285.096 207.493 293.765 214.608 299.864 223.737C305.963 232.867 309.217 243.599 309.216 254.578C309.215 269.298 303.367 283.414 292.958 293.822C282.55 304.23 268.434 310.078 253.715 310.08ZM218.234 251.616V274.555C221.768 280.791 226.881 285.993 233.066 289.621V251.476L218.234 251.616ZM245.988 232.597V294.588C250.891 295.492 255.917 295.492 260.82 294.588V232.597H245.988ZM288.897 274.504V260.916H274.078V289.463C280.255 285.843 285.37 280.663 288.91 274.441L288.897 274.504Z" fill="white"/>
</svg>
