<svg width="512" height="512" viewBox="0 0 512 512" fill="none" xmlns="http://www.w3.org/2000/svg">
<path d="M95.4553 63H73.4323C67.6707 63 63 67.6708 63 73.4326V438.567C63 444.329 67.6707 449 73.4323 449H95.4553C101.217 449 105.888 444.329 105.888 438.567V73.4326C105.888 67.6708 101.217 63 95.4553 63Z" fill="#FAFF69"/>
<path d="M181.233 63H159.21C153.449 63 148.778 67.6708 148.778 73.4326V438.567C148.778 444.329 153.449 449 159.21 449H181.233C186.995 449 191.666 444.329 191.666 438.567V73.4326C191.666 67.6708 186.995 63 181.233 63Z" fill="#FAFF69"/>
<path d="M267.012 63H244.988C239.227 63 234.556 67.6708 234.556 73.4326V438.567C234.556 444.329 239.227 449 244.988 449H267.012C272.773 449 277.444 444.329 277.444 438.567V73.4326C277.444 67.6708 272.773 63 267.012 63Z" fill="#FAFF69"/>
<path d="M352.79 63H330.767C325.005 63 320.334 67.6708 320.334 73.4326V438.567C320.334 444.329 325.005 449 330.767 449H352.79C358.551 449 363.222 444.329 363.222 438.567V73.4326C363.222 67.6708 358.551 63 352.79 63Z" fill="#FAFF69"/>
<path d="M438.568 213.116H416.545C410.783 213.116 406.112 217.787 406.112 223.549V288.462C406.112 294.223 410.783 298.894 416.545 298.894H438.568C444.329 298.894 449 294.223 449 288.462V223.549C449 217.787 444.329 213.116 438.568 213.116Z" fill="#FAFF69"/>
</svg>
