<svg width="128" height="128" viewBox="0 0 128 128" fill="none" xmlns="http://www.w3.org/2000/svg">
<path d="M23.8638 15.75H18.3581C16.9177 15.75 15.75 16.9177 15.75 18.3581V109.642C15.75 111.082 16.9177 112.25 18.3581 112.25H23.8638C25.3042 112.25 26.4719 111.082 26.4719 109.642V18.3581C26.4719 16.9177 25.3042 15.75 23.8638 15.75Z" fill="#FAFF69"/>
<path d="M45.3083 15.75H39.8026C38.3622 15.75 37.1945 16.9177 37.1945 18.3581V109.642C37.1945 111.082 38.3622 112.25 39.8026 112.25H45.3083C46.7487 112.25 47.9164 111.082 47.9164 109.642V18.3581C47.9164 16.9177 46.7487 15.75 45.3083 15.75Z" fill="#FAFF69"/>
<path d="M66.7529 15.75H61.2471C59.8067 15.75 58.6391 16.9177 58.6391 18.3581V109.642C58.6391 111.082 59.8067 112.25 61.2471 112.25H66.7529C68.1933 112.25 69.3609 111.082 69.3609 109.642V18.3581C69.3609 16.9177 68.1933 15.75 66.7529 15.75Z" fill="#FAFF69"/>
<path d="M88.1974 15.75H82.6917C81.2513 15.75 80.0836 16.9177 80.0836 18.3581V109.642C80.0836 111.082 81.2513 112.25 82.6917 112.25H88.1974C89.6378 112.25 90.8055 111.082 90.8055 109.642V18.3581C90.8055 16.9177 89.6378 15.75 88.1974 15.75Z" fill="#FAFF69"/>
<path d="M109.642 53.2791H104.136C102.696 53.2791 101.528 54.4468 101.528 55.8872V72.1154C101.528 73.5558 102.696 74.7235 104.136 74.7235H109.642C111.082 74.7235 112.25 73.5558 112.25 72.1154V55.8872C112.25 54.4468 111.082 53.2791 109.642 53.2791Z" fill="#FAFF69"/>
</svg>
