<svg width="128" height="128" viewBox="0 0 128 128" fill="none" xmlns="http://www.w3.org/2000/svg">
<path fill-rule="evenodd" clip-rule="evenodd" d="M60.9523 19.7854C62.1278 17.4201 65.691 18.2567 65.6911 20.898V49.2188C65.6911 50.5994 66.8104 51.7187 68.1911 51.7188H90.5138C92.4171 51.7188 93.6223 53.7611 92.7023 55.4272L63.1149 109.009C61.8662 111.27 58.4264 110.384 58.4264 107.801V78.5313C58.4264 77.1506 57.3071 76.0313 55.9264 76.0313H37.0341C35.1783 76.0312 33.9694 74.0806 34.7953 72.4187L60.9523 19.7854ZM53.5211 56.5C52.4105 56.5 51.3961 56.6758 50.4782 57.0271C49.5715 57.3784 48.7893 57.877 48.132 58.523C47.4747 59.1576 46.9648 59.9113 46.6022 60.7839C46.2395 61.6566 46.058 62.6088 46.058 63.6401C46.058 64.6714 46.3019 65.5837 46.7892 66.377C47.2765 67.159 47.9678 67.7711 48.8632 68.2131C49.7698 68.6551 50.8295 68.876 52.0421 68.876C53.1074 68.876 54.0765 68.7117 54.9491 68.3831C55.8218 68.0431 56.5925 67.4707 57.2611 66.666L55.2721 64.7109C54.8528 65.1983 54.3938 65.5498 53.8952 65.7651C53.4078 65.9805 52.8978 66.0881 52.3651 66.0881C51.7645 66.0881 51.2431 65.9804 50.8012 65.7651C50.3705 65.5385 50.036 65.2267 49.798 64.8301C49.5713 64.4221 49.4581 63.9516 49.4581 63.4189C49.4582 62.8297 49.5488 62.2857 49.7301 61.7871C49.9114 61.2771 50.1721 60.8349 50.5121 60.4609C50.8521 60.087 51.2545 59.798 51.7191 59.594C52.1951 59.39 52.7222 59.2881 53.3002 59.2881C53.9008 59.2881 54.4164 59.407 54.8471 59.645C55.2891 59.883 55.6461 60.2288 55.9181 60.6821L58.349 58.7441C57.9297 58.0188 57.2951 57.4635 56.4452 57.0781C55.5952 56.6928 54.6204 56.5 53.5211 56.5ZM64.7147 56.5C63.5474 56.5 62.5331 56.6758 61.6718 57.0271C60.8218 57.3784 60.1643 57.8714 59.6996 58.5061C59.235 59.1407 59.0026 59.8887 59.0026 60.75C59.0026 61.2827 59.1047 61.7304 59.3087 62.093C59.5241 62.4557 59.8017 62.7561 60.1417 62.9941C60.4817 63.2208 60.8556 63.4134 61.2636 63.572C61.6829 63.7194 62.0968 63.8498 62.5048 63.9631C62.9241 64.0651 63.3037 64.1671 63.6437 64.269C63.9837 64.371 64.2556 64.4957 64.4596 64.6431C64.6749 64.7791 64.7826 64.9661 64.7826 65.2041C64.7826 65.4194 64.7032 65.6065 64.5446 65.7651C64.3859 65.9238 64.1535 66.0485 63.8475 66.1392C63.5416 66.2185 63.1732 66.2581 62.7426 66.2581C62.2893 66.2581 61.836 66.2127 61.3827 66.1221C60.9294 66.0314 60.4817 65.901 60.0397 65.731C59.609 65.5496 59.1896 65.3343 58.7816 65.085L57.4557 67.6011C57.8183 67.8391 58.2546 68.0602 58.7645 68.2642C59.2745 68.4568 59.8414 68.6041 60.4647 68.7061C61.088 68.8194 61.7396 68.876 62.4196 68.876C63.5868 68.876 64.6012 68.7004 65.4625 68.3491C66.3238 67.9978 66.9869 67.5047 67.4516 66.8701C67.9162 66.2355 68.1486 65.4931 68.1486 64.6431C68.1486 64.1217 68.0467 63.6853 67.8427 63.334C67.6387 62.9827 67.361 62.6937 67.0097 62.467C66.6583 62.2291 66.2787 62.042 65.8707 61.906C65.4628 61.7587 65.0491 61.634 64.6298 61.532C64.2218 61.4187 63.8419 61.311 63.4906 61.209C63.1506 61.107 62.8787 60.9823 62.6747 60.835C62.4707 60.6876 62.3685 60.5006 62.3685 60.2739C62.3686 60.0587 62.448 59.866 62.6066 59.696C62.7766 59.5147 63.0202 59.373 63.3375 59.271C63.6662 59.169 64.0573 59.1182 64.5106 59.1182C65.1 59.1182 65.6723 59.1973 66.2277 59.356C66.7943 59.5033 67.3099 59.7244 67.7746 60.019L68.9987 57.52C68.466 57.1914 67.8313 56.942 67.0946 56.772C66.358 56.5907 65.5647 56.5 64.7147 56.5ZM75.7216 56.5C74.5543 56.5 73.5399 56.6758 72.6786 57.0271C71.8286 57.3784 71.1711 57.8714 70.7064 58.5061C70.2418 59.1407 70.0094 59.8887 70.0094 60.75C70.0094 61.2827 70.1116 61.7304 70.3156 62.093C70.5309 62.4557 70.8086 62.7561 71.1486 62.9941C71.4885 63.2208 71.8625 63.4134 72.2704 63.572C72.6897 63.7194 73.1036 63.8498 73.5116 63.9631C73.9309 64.0651 74.3106 64.1671 74.6505 64.269C74.9905 64.371 75.2625 64.4957 75.4664 64.6431C75.6818 64.7791 75.7894 64.9661 75.7894 65.2041C75.7894 65.4194 75.7101 65.6065 75.5514 65.7651C75.3927 65.9238 75.1603 66.0485 74.8544 66.1392C74.5484 66.2185 74.18 66.2581 73.7494 66.2581C73.2961 66.2581 72.8428 66.2127 72.3895 66.1221C71.9362 66.0314 71.4885 65.901 71.0465 65.731C70.6159 65.5496 70.1965 65.3343 69.7885 65.085L68.4625 67.6011C68.8252 67.8391 69.2614 68.0602 69.7714 68.2642C70.2814 68.4568 70.8482 68.6041 71.4716 68.7061C72.0949 68.8194 72.7465 68.876 73.4264 68.876C74.5937 68.876 75.6081 68.7004 76.4694 68.3491C77.3307 67.9978 77.9937 67.5047 78.4584 66.8701C78.9231 66.2355 79.1554 65.4931 79.1554 64.6431C79.1554 64.1217 79.0535 63.6853 78.8495 63.334C78.6455 62.9827 78.3678 62.6937 78.0165 62.467C77.6652 62.2291 77.2856 62.042 76.8776 61.906C76.4696 61.7587 76.0559 61.634 75.6366 61.532C75.2286 61.4187 74.8488 61.311 74.4975 61.209C74.1575 61.107 73.8855 60.9823 73.6815 60.835C73.4775 60.6876 73.3754 60.5006 73.3754 60.2739C73.3754 60.0587 73.4548 59.866 73.6134 59.696C73.7834 59.5147 74.0271 59.373 74.3444 59.271C74.673 59.169 75.0641 59.1182 75.5175 59.1182C76.1068 59.1182 76.6792 59.1973 77.2345 59.356C77.8011 59.5033 78.3167 59.7244 78.7814 60.019L80.0055 57.52C79.4728 57.1914 78.8381 56.942 78.1015 56.772C77.3648 56.5907 76.5715 56.5 75.7216 56.5Z" fill="url(#paint0_linear_2683_565)"/>
<defs>
<linearGradient id="paint0_linear_2683_565" x1="54.2501" y1="33.125" x2="67.2501" y2="87.75" gradientUnits="userSpaceOnUse">
<stop stop-color="#BC34F6"/>
<stop offset="1" stop-color="#2915BB"/>
</linearGradient>
</defs>
</svg>
