<svg width="512" height="512" viewBox="0 0 512 512" fill="none" xmlns="http://www.w3.org/2000/svg">
<path d="M243.809 79.1416C248.511 69.6803 262.763 73.0266 262.764 83.5918V196.875C262.764 202.398 267.241 206.875 272.764 206.875H362.055C369.668 206.875 374.489 215.044 370.809 221.709L252.459 436.037C247.464 445.082 233.705 441.535 233.705 431.203V314.125C233.705 308.602 229.228 304.125 223.705 304.125H148.136C140.713 304.125 135.877 296.322 139.181 289.675L243.809 79.1416ZM214.084 226C209.641 226 205.584 226.703 201.912 228.108C198.285 229.514 195.157 231.508 192.527 234.092C189.898 236.63 187.859 239.645 186.408 243.136C184.958 246.626 184.231 250.435 184.231 254.561C184.232 258.686 185.207 262.335 187.156 265.508C189.106 268.636 191.871 271.085 195.452 272.853C199.079 274.62 203.318 275.504 208.168 275.504C212.429 275.504 216.305 274.847 219.796 273.532C223.287 272.172 226.369 269.883 229.044 266.664L221.088 258.844C219.411 260.793 217.575 262.199 215.58 263.061C213.631 263.922 211.591 264.353 209.46 264.353C207.058 264.353 204.972 263.922 203.204 263.061C201.481 262.154 200.143 260.907 199.191 259.32C198.285 257.688 197.832 255.806 197.832 253.676C197.832 251.319 198.195 249.143 198.92 247.148C199.645 245.108 200.688 243.34 202.048 241.844C203.408 240.348 205.017 239.192 206.876 238.376C208.78 237.56 210.888 237.152 213.2 237.152C215.603 237.152 217.665 237.628 219.388 238.58C221.156 239.532 222.584 240.915 223.672 242.729L233.396 234.977C231.718 232.075 229.18 229.854 225.78 228.313C222.38 226.771 218.481 226 214.084 226ZM258.858 226C254.189 226 250.132 226.703 246.687 228.108C243.287 229.514 240.657 231.486 238.798 234.024C236.939 236.563 236.01 239.555 236.01 243C236.01 245.131 236.418 246.921 237.234 248.372C238.096 249.823 239.206 251.025 240.566 251.977C241.926 252.883 243.422 253.654 245.054 254.288C246.731 254.877 248.387 255.399 250.019 255.853C251.696 256.261 253.214 256.668 254.574 257.076C255.934 257.484 257.022 257.983 257.838 258.572C258.699 259.116 259.13 259.864 259.13 260.816C259.13 261.678 258.812 262.426 258.178 263.061C257.543 263.695 256.613 264.194 255.39 264.557C254.166 264.874 252.692 265.032 250.97 265.032C249.157 265.032 247.343 264.851 245.53 264.488C243.717 264.126 241.926 263.604 240.158 262.924C238.436 262.199 236.758 261.337 235.126 260.34L229.822 270.404C231.273 271.356 233.018 272.241 235.058 273.057C237.098 273.827 239.365 274.416 241.858 274.824C244.352 275.278 246.958 275.504 249.678 275.504C254.347 275.504 258.404 274.802 261.85 273.396C265.295 271.991 267.947 270.019 269.806 267.48C271.664 264.942 272.594 261.972 272.594 258.572C272.594 256.487 272.186 254.741 271.37 253.336C270.554 251.931 269.443 250.775 268.038 249.868C266.633 248.916 265.114 248.168 263.482 247.624C261.851 247.035 260.196 246.536 258.519 246.128C256.887 245.675 255.367 245.244 253.962 244.836C252.602 244.428 251.514 243.929 250.698 243.34C249.882 242.751 249.474 242.002 249.474 241.096C249.474 240.235 249.791 239.464 250.426 238.784C251.106 238.059 252.081 237.492 253.35 237.084C254.664 236.676 256.229 236.473 258.042 236.473C260.399 236.473 262.689 236.789 264.91 237.424C267.177 238.013 269.239 238.898 271.098 240.076L275.994 230.08C273.864 228.765 271.325 227.768 268.378 227.088C265.431 226.363 262.258 226 258.858 226ZM302.886 226C298.217 226 294.159 226.703 290.714 228.108C287.314 229.514 284.684 231.486 282.825 234.024C280.967 236.563 280.037 239.555 280.037 243C280.037 245.131 280.446 246.921 281.262 248.372C282.123 249.823 283.234 251.025 284.594 251.977C285.954 252.883 287.449 253.654 289.081 254.288C290.758 254.877 292.414 255.399 294.046 255.853C295.723 256.261 297.242 256.668 298.602 257.076C299.962 257.484 301.049 257.983 301.865 258.572C302.727 259.116 303.157 259.864 303.157 260.816C303.157 261.678 302.84 262.426 302.205 263.061C301.57 263.695 300.641 264.194 299.417 264.557C298.193 264.874 296.72 265.032 294.997 265.032C293.184 265.032 291.371 264.851 289.558 264.488C287.744 264.126 285.954 263.604 284.186 262.924C282.463 262.199 280.785 261.337 279.153 260.34L273.85 270.404C275.3 271.356 277.045 272.241 279.085 273.057C281.125 273.827 283.392 274.416 285.886 274.824C288.379 275.278 290.985 275.504 293.705 275.504C298.374 275.504 302.432 274.802 305.877 273.396C309.322 271.991 311.974 270.019 313.833 267.48C315.692 264.942 316.621 261.972 316.621 258.572C316.621 256.487 316.214 254.741 315.398 253.336C314.582 251.931 313.471 250.775 312.065 249.868C310.66 248.916 309.142 248.168 307.51 247.624C305.878 247.035 304.223 246.536 302.546 246.128C300.914 245.675 299.395 245.244 297.989 244.836C296.629 244.428 295.542 243.929 294.726 243.34C293.91 242.751 293.501 242.002 293.501 241.096C293.501 240.235 293.819 239.464 294.453 238.784C295.133 238.059 296.108 237.492 297.377 237.084C298.692 236.676 300.256 236.473 302.069 236.473C304.427 236.473 306.716 236.789 308.938 237.424C311.204 238.013 313.266 238.898 315.125 240.076L320.022 230.08C317.891 228.765 315.352 227.768 312.405 227.088C309.459 226.363 306.286 226 302.886 226Z" fill="url(#paint0_linear_2395_14)"/>
<defs>
<linearGradient id="paint0_linear_2395_14" x1="217" y1="132.5" x2="269" y2="351" gradientUnits="userSpaceOnUse">
<stop stop-color="#BC34F6"/>
<stop offset="1" stop-color="#2915BB"/>
</linearGradient>
</defs>
</svg>
