<svg width="128" height="128" viewBox="0 0 128 128" fill="none" xmlns="http://www.w3.org/2000/svg">
<path fill-rule="evenodd" clip-rule="evenodd" d="M53.0886 106.002C65.5862 106.002 75.8261 86.8159 78.3612 63.2615C81.0154 63.2188 83.2028 61.28 83.6557 58.7342C83.7058 58.4534 83.7405 58.1672 83.7468 57.8735C83.7999 57.8791 83.8524 57.8873 83.9067 57.8902C85.8094 57.9898 87.432 56.5206 87.5311 54.609C87.5965 53.3499 86.9822 52.2161 86.0132 51.5579C87.9302 50.7009 89.2685 48.7734 89.2685 46.5293C89.2685 43.7761 87.2551 41.5014 84.6281 41.0951C85.0846 40.5075 85.3582 39.7706 85.3582 38.9677C85.3582 37.0787 83.8536 35.5458 81.9832 35.5055C82.8885 35.0519 83.6789 34.3697 84.199 33.5509C85.4845 31.5263 85.6902 22.3968 81.1239 16.5299C79.2421 14.1116 77.3985 15.5693 77.282 17.2197C76.924 22.2697 76.8802 26.0649 75.5763 30.3875C75.3097 28.7394 73.8907 27.4795 72.1753 27.4795C71.0754 27.4795 70.0979 27.9984 69.4664 28.8039C69.0765 26.1475 66.8048 24.1061 64.0525 24.1061C61.2952 24.1061 59.02 26.1548 58.6367 28.8189C58.0055 28.005 57.0231 27.4795 55.9169 27.4795C54.2013 27.4795 52.782 28.739 52.516 30.3875C51.212 26.0649 51.1679 22.2697 50.8105 17.2197C50.6937 15.5693 48.8497 14.1116 46.9678 16.5299C42.402 22.3968 42.6075 31.5263 43.8928 33.5509C44.413 34.3697 45.2035 35.0519 46.1083 35.5055C44.2378 35.5458 42.7333 37.0787 42.7333 38.9677C42.7333 39.7706 43.0074 40.5075 43.4634 41.0951C40.8369 41.5014 38.8232 43.7761 38.8232 46.5293C38.8232 48.7734 40.1618 50.7009 42.079 51.5579C41.11 52.2161 40.4952 53.3499 40.5607 54.609C40.6595 56.5206 42.2823 57.9898 44.1848 57.8902C44.2395 57.8873 44.2919 57.8791 44.345 57.8735C44.351 58.156 44.3845 58.4316 44.431 58.7022C44.8759 61.2926 47.1134 63.2656 49.8187 63.2656L49.8306 63.2653C48.3151 69.8559 45.9859 88.7203 44.1051 105.991C44.2112 105.013 44.4407 104.028 44.5492 103.042C47.2591 104.957 50.0521 106.002 53.0886 106.002Z" fill="#F7AA13"/>
<path fill-rule="evenodd" clip-rule="evenodd" d="M64.1264 110.817C71.1011 110.817 77.871 110.927 84.3334 111.134C84.1648 109.538 83.992 107.917 83.8166 106.279C83.1267 99.8488 82.4356 92.9989 81.7292 86.5735C80.5075 76.2713 79.3046 67.377 78.3612 63.2615C75.8261 86.8159 65.5862 106.002 53.0886 106.002C50.0521 106.002 47.2591 104.957 44.5492 103.042C44.4407 104.028 44.2112 105.013 44.1051 105.991C43.9156 107.731 43.751 109.452 43.594 111.145C50.1546 110.931 57.0345 110.817 64.1264 110.817Z" fill="#F29219"/>
<path fill-rule="evenodd" clip-rule="evenodd" d="M42.9996 59.3289C41.9591 59.1137 41.0375 58.5699 40.3433 57.8102C39.6342 57.9646 38.9297 58.1694 38.2309 58.4359C36.7817 58.9882 35.2599 58.9758 33.7936 58.4381C32.0317 57.7921 30.2225 57.4737 28.3536 57.4388C25.8177 57.3915 23.3192 57.622 20.8341 58.3947C20.8341 59.2489 20.8169 60.0195 20.8464 60.7881C20.8536 60.9769 21.0038 61.1659 21.1059 61.3445C21.3536 61.7775 21.6869 62.1776 21.8494 62.6397C22.2187 63.6894 22.4687 64.7813 22.836 65.8322C23.2451 67.0014 24.1032 67.7684 25.3188 67.9271C26.7317 68.1115 28.169 68.2455 29.5898 68.2033C30.4901 68.1767 31.2859 67.9758 31.9622 67.5907C32.3788 65.8921 32.885 64.2223 33.6919 62.6087C34.8008 60.3909 36.5764 60.2964 37.7752 62.6087C38.5424 64.0885 39.0313 65.626 39.4247 67.1912C39.8378 67.5399 40.3341 67.7805 40.9052 67.9225C42.7847 68.3904 44.6629 68.3892 46.5615 67.9848C46.877 67.9174 47.1651 67.8226 47.4311 67.7044C47.625 66.5476 47.8142 65.4884 47.9965 64.561C45.5326 63.8956 43.5821 61.911 42.9996 59.3289Z" fill="#F7AA13"/>
<path fill-rule="evenodd" clip-rule="evenodd" d="M36.438 71.3254C36.4548 72.3809 36.425 73.4299 36.3397 74.4627C36.235 75.7271 36.1811 76.9888 35.9865 78.1704C35.8485 79.0069 35.628 79.0423 35.4789 78.1704C35.2782 76.9966 35.23 75.7271 35.1257 74.4627C35.0404 73.4299 35.0106 72.3809 35.0274 71.3254C33.6593 70.9621 32.5737 69.5666 32.2568 67.7768C33.2285 68.3579 34.4311 68.702 35.7327 68.702C37.0347 68.702 38.2365 68.3579 39.2086 67.7768C38.8913 69.5666 37.8057 70.9621 36.438 71.3254ZM41.3727 77.0518C41.2496 75.5037 40.9995 73.9649 40.6169 72.4393C40.1759 70.681 39.8586 68.9184 39.4247 67.1912C39.0313 65.626 38.5424 64.0885 37.7752 62.6087C36.5764 60.2964 34.8008 60.3909 33.6919 62.6087C32.885 64.2223 32.3788 65.8921 31.9622 67.5907C31.5696 69.1896 31.256 70.8133 30.8482 72.4393C30.4655 73.9649 30.2155 75.5037 30.0928 77.0518C29.9021 79.4513 31.4632 81.5195 33.4261 81.5195H38.0393C40.0021 81.5195 41.5634 79.4513 41.3727 77.0518Z" fill="#FEFEFE"/>
<path fill-rule="evenodd" clip-rule="evenodd" d="M32.2541 67.7768C32.571 69.5666 33.6566 70.9616 35.0247 71.3254C35.0075 72.3804 35.0374 73.4299 35.1226 74.4627C35.2273 75.7271 35.2755 76.9961 35.4762 78.1704C35.6249 79.0423 35.8458 79.0069 35.9835 78.1704C36.178 76.9888 36.2323 75.7271 36.3367 74.4627C36.4219 73.4299 36.4517 72.3804 36.4353 71.3254C37.803 70.9616 38.8887 69.5666 39.2055 67.7768C38.2338 68.3579 37.0316 68.702 35.7296 68.702C34.428 68.702 33.2258 68.3579 32.2541 67.7768Z" fill="#1D1A8B"/>
<path fill-rule="evenodd" clip-rule="evenodd" d="M85.0934 59.3286C84.5193 61.8613 82.603 63.8348 80.1878 64.5288C80.3473 65.3486 80.5142 66.2902 80.6902 67.3528C81.0852 67.6537 81.5567 67.8556 82.106 67.9268C83.519 68.1117 84.9562 68.2452 86.3767 68.2036C87.2774 68.1769 88.0732 67.9758 88.7495 67.5907C89.166 65.8923 89.6722 64.222 90.4791 62.6089C91.588 60.3907 93.3637 60.2967 94.5625 62.6089C95.3292 64.0887 95.8187 65.6258 96.2119 67.1914C96.6251 67.5398 97.1214 67.7802 97.6925 67.9222C99.5719 68.3901 101.45 68.3889 103.349 67.985C104.713 67.6942 105.619 66.9348 106.057 65.6258C106.379 64.663 106.663 63.6862 106.924 62.7044C107.073 62.1482 107.136 61.5824 107.762 61.3064C107.883 61.2529 107.959 60.9757 107.964 60.799C107.985 60.0059 107.973 59.2116 107.973 58.261C106.438 58.0111 104.941 57.6782 103.426 57.5403C100.576 57.2808 97.7536 57.3927 95.018 58.4357C93.569 58.9884 92.0467 58.976 90.5804 58.4383C89.6836 58.1093 88.7742 57.866 87.8512 57.7012C87.1465 58.5193 86.1845 59.1035 85.0934 59.3286Z" fill="#F7AA13"/>
<path fill-rule="evenodd" clip-rule="evenodd" d="M93.2222 71.3254C93.2389 72.3809 93.2091 73.4299 93.1238 74.4627C93.0194 75.7271 92.9651 76.9888 92.7708 78.1704C92.6326 79.0069 92.4121 79.0423 92.2631 78.1704C92.0627 76.9966 92.0145 75.7271 91.9098 74.4627C91.8245 73.4299 91.7947 72.3809 91.8119 71.3254C90.4435 70.9621 89.3582 69.5666 89.041 67.7768C90.0127 68.3579 91.2153 68.702 92.5168 68.702C93.8188 68.702 95.0207 68.3579 95.9924 67.7768C95.6759 69.5666 94.5898 70.9621 93.2222 71.3254ZM98.1568 77.0518C98.0339 75.5037 97.7841 73.9649 97.4015 72.4393C96.96 70.681 96.6423 68.9186 96.2083 67.1914C95.8145 65.626 95.3258 64.0887 94.5586 62.6089C93.3596 60.2967 91.5844 60.3907 90.4753 62.6089C89.6681 64.222 89.1624 65.8926 88.7458 67.591C88.3535 69.1898 88.0402 70.8133 87.6326 72.4393C87.25 73.9649 86.9999 75.5037 86.8768 77.0518C86.6861 79.4513 88.2474 81.5195 90.2102 81.5195H94.8234C96.7862 81.5195 98.3475 79.4513 98.1568 77.0518Z" fill="#FEFEFE"/>
<path fill-rule="evenodd" clip-rule="evenodd" d="M89.0478 67.7768C89.3645 69.5666 90.4503 70.9616 91.8182 71.3254C91.801 72.3804 91.831 73.4299 91.9166 74.4627C92.021 75.7271 92.069 76.9961 92.2699 78.1704C92.4184 79.0423 92.6394 79.0069 92.7773 78.1704C92.9719 76.9888 93.0259 75.7271 93.1306 74.4627C93.2154 73.4299 93.2452 72.3804 93.2287 71.3254C94.5966 70.9616 95.6822 69.5666 95.9994 67.7768C95.0275 68.3579 93.8251 68.702 92.5236 68.702C91.2216 68.702 90.0195 68.3579 89.0478 67.7768Z" fill="#1D1A8B"/>
<path fill-rule="evenodd" clip-rule="evenodd" d="M104.003 74.0655C104.76 77.3659 105.725 84.4986 106.704 92.7604C105.847 84.9609 104.96 77.9429 104.003 74.0655Z" fill="#F29219"/>
<path fill-rule="evenodd" clip-rule="evenodd" d="M45.465 43.7225C48.5635 42.7588 51.6783 42.4712 54.8403 42.5303C57.1709 42.5737 59.4264 42.9704 61.6235 43.7763C63.4518 44.4468 65.3494 44.4623 67.1564 43.7732C70.567 42.4731 74.086 42.3333 77.6399 42.6571C79.5287 42.8286 81.3953 43.2439 83.3094 43.5553C83.3094 44.7408 83.3249 45.7309 83.2983 46.72C83.2924 46.94 83.1972 47.2861 83.0462 47.353C82.2657 47.6971 82.1865 48.4027 82.0018 49.096C81.6759 50.3197 81.3207 51.5381 80.9199 52.7385C80.3747 54.3705 79.2447 55.3175 77.5432 55.6795C75.176 56.1838 72.8347 56.185 70.491 55.602C69.1977 55.2802 68.1993 54.5719 67.6052 53.3392C66.8804 51.8356 66.1816 50.3172 65.393 48.8478C65.1951 48.4788 64.7114 48.0765 64.3341 48.0508C64.029 48.03 63.5747 48.4894 63.3828 48.8435C62.8094 49.9022 62.2608 50.986 61.8326 52.1099C60.8668 54.648 58.9679 55.8758 56.3819 55.9524C54.6103 56.005 52.8186 55.8375 51.0567 55.6073C49.541 55.4096 48.4707 54.4536 47.9608 52.9956C47.5029 51.6854 47.191 50.3238 46.7306 49.0148C46.528 48.439 46.1122 47.9401 45.804 47.4002C45.6767 47.1773 45.4894 46.942 45.4802 46.7064C45.4431 45.7478 45.465 44.7868 45.465 43.7225Z" fill="#1D1A8B"/>
<path fill-rule="evenodd" clip-rule="evenodd" d="M70.1297 61.2335C69.0816 57.0542 68.5975 52.8572 66.5853 48.9763C65.0906 46.0934 62.877 46.2109 61.4939 48.9763C59.541 52.8817 58.9978 57.0542 57.9497 61.2335C57.4726 63.1359 57.1607 65.0549 57.0073 66.9845C56.7696 69.9766 58.7164 72.5556 61.1638 72.5556H66.9155C69.3632 72.5556 71.3098 69.9766 71.072 66.9845C70.9186 65.0549 70.6068 63.1359 70.1297 61.2335Z" fill="#FEFEFE"/>
<path fill-rule="evenodd" clip-rule="evenodd" d="M68.3813 55.4203C67.1695 56.1448 65.6705 56.5737 64.0474 56.5737C62.4244 56.5737 60.9256 56.1448 59.7138 55.4203C60.1088 57.6518 61.4621 59.3914 63.1678 59.8448C63.147 61.1605 63.1843 62.4691 63.2907 63.7565C63.4211 65.333 63.4809 66.9159 63.731 68.3795C63.9168 69.467 64.1921 69.4224 64.3637 68.3795C64.6065 66.9067 64.6741 65.333 64.8045 63.7565C64.9106 62.4691 64.9477 61.1605 64.9268 59.8448C66.6323 59.3914 67.9859 57.6518 68.3813 55.4203Z" fill="#F7AA13"/>
<path fill-rule="evenodd" clip-rule="evenodd" d="M26.9407 108.344C34.5948 108.344 41.1926 99.3707 44.7896 86.7167C45.6392 79.817 46.5772 72.7793 47.4265 67.7044C47.1605 67.8226 46.8723 67.9179 46.5568 67.9847C44.6583 68.3892 42.7801 68.3901 40.9006 67.9225C40.3295 67.7802 39.8332 67.5398 39.4201 67.1911C39.8543 68.9189 40.172 70.6805 40.613 72.4393C40.9956 73.9645 41.2457 75.5037 41.3688 77.0516C41.5595 79.451 39.9985 81.5197 38.0355 81.5197H33.4224C31.4594 81.5197 29.8983 79.451 30.089 77.0516C30.2117 75.5037 30.4617 73.9645 30.8444 72.4393C31.2523 70.8136 31.5653 69.19 31.9579 67.5905C31.2813 67.9758 30.4854 68.1767 29.5848 68.2036C28.1644 68.2455 26.727 68.1115 25.3142 67.9271C24.0986 67.7684 23.2404 67.0014 22.8314 65.8322C22.4641 64.7818 22.2137 63.6894 21.8444 62.6397C21.6823 62.1776 21.3486 61.7777 21.1013 61.3445C20.9992 61.1659 20.849 60.9769 20.8417 60.7883C20.8123 60.0195 20.8295 59.2489 20.8295 58.395C23.3146 57.622 25.8131 57.3915 28.349 57.4388C30.2179 57.4737 32.0271 57.7921 33.7889 58.4381C35.2553 58.9758 36.7771 58.9884 38.2262 58.4357C38.925 58.1696 39.6295 57.9646 40.3387 57.8105C39.581 56.9815 39.0947 55.8957 39.0321 54.6889C38.9793 53.6731 39.2282 52.6963 39.7278 51.8608C38.2079 50.5438 37.2928 48.607 37.2928 46.5291C37.2928 45.3785 37.5665 44.292 38.0519 43.3302C37.3795 42.9086 36.5864 42.6624 35.7343 42.6624C33.5229 42.6624 31.698 44.3056 31.3906 46.4418C30.8841 45.7893 30.0963 45.3679 29.2091 45.3679C27.8329 45.3679 26.6949 46.3781 26.4816 47.7C25.4358 44.2333 25.4006 41.1893 25.1139 37.1395C25.0202 35.8155 23.5413 34.6467 22.0321 36.586C18.37 41.2916 18.5348 48.6135 19.5657 50.237C19.9828 50.8937 20.617 51.4411 21.3425 51.8048C19.8425 51.8371 18.6361 53.0666 18.6361 54.5813C18.6361 55.2254 18.8559 55.8162 19.2213 56.2875C17.1147 56.6137 15.5 58.4376 15.5 60.6459C15.5 62.4461 16.5734 63.9916 18.1108 64.6793C17.3337 65.2068 16.841 66.1165 16.8933 67.1262C16.9729 68.6596 18.2745 69.8375 19.8001 69.7576C19.8436 69.7554 19.8857 69.7488 19.9285 69.7442C19.9331 69.9713 19.9599 70.1915 19.9973 70.4087C20.3544 72.4866 22.1487 74.0691 24.3184 74.0691L24.328 74.0687C23.1124 79.3541 21.2446 94.4838 19.7358 108.335C19.8211 107.55 20.005 106.761 20.0921 105.97C22.2656 107.506 24.5053 108.344 26.9407 108.344Z" fill="#2F2BAE"/>
<path fill-rule="evenodd" clip-rule="evenodd" d="M42.5833 105.824C43.0701 101.352 43.879 94.1157 44.7896 86.7167C41.1926 99.3707 34.5948 108.344 26.9407 108.344C24.5053 108.344 22.2656 107.506 20.0921 105.97C20.005 106.761 19.8211 107.55 19.7358 108.335C19.5825 109.742 19.451 111.131 19.3241 112.5C26.2408 111.928 33.8867 111.484 42.0519 111.197C42.2147 109.439 42.3853 107.641 42.5833 105.824Z" fill="#0F0C63"/>
<path fill-rule="evenodd" clip-rule="evenodd" d="M108.247 70.4343C108.287 70.2092 108.315 69.9798 108.32 69.7445C108.363 69.7486 108.405 69.7556 108.448 69.7578C109.974 69.8378 111.275 68.6594 111.355 67.1265C111.407 66.1162 110.915 65.2073 110.138 64.6795C111.675 63.9916 112.749 62.4463 112.749 60.6461C112.749 58.4378 111.134 56.6139 109.027 56.2878C109.392 55.8164 109.613 55.2254 109.613 54.5816C109.613 53.0668 108.406 51.8373 106.906 51.8046C107.631 51.4414 108.266 50.8937 108.683 50.2373C109.713 48.6137 109.879 41.2918 106.217 36.5862C104.707 34.6469 103.229 35.8157 103.135 37.1393C102.848 41.1896 102.813 44.2336 101.767 47.7C101.553 46.3784 100.415 45.3676 99.0393 45.3676C98.1575 45.3676 97.3734 45.7839 96.8669 46.4302C96.5546 44.2995 94.7323 42.6626 92.5248 42.6626C91.6173 42.6626 90.7774 42.9425 90.0783 43.4165C90.5366 44.3567 90.7946 45.4127 90.7946 46.5293C90.7946 48.6067 89.8799 50.5438 88.3596 51.8608C88.8592 52.6961 89.1081 53.6729 89.0553 54.6889C88.9957 55.8426 88.552 56.8872 87.8512 57.7012C88.7742 57.866 89.6836 58.1093 90.5804 58.4383C92.0467 58.976 93.569 58.9884 95.018 58.4357C97.7536 57.3927 100.576 57.2808 103.426 57.5403C104.941 57.6782 106.438 58.0111 107.973 58.261C107.973 59.2116 107.985 60.0059 107.964 60.799C107.959 60.9757 107.883 61.2529 107.762 61.3064C107.136 61.5824 107.073 62.1482 106.924 62.7044C106.663 63.6862 106.379 64.663 106.057 65.6258C105.619 66.9348 104.713 67.6942 103.349 67.985C101.45 68.3889 99.5719 68.3901 97.6925 67.9222C97.1214 67.7802 96.6251 67.5398 96.2119 67.1914C96.6462 68.9191 96.9605 70.6808 97.4015 72.4393C97.7841 73.9649 98.0366 75.5039 98.1597 77.0518C98.3504 79.4513 96.7894 81.5195 94.8264 81.5195H90.2133C88.2503 81.5195 86.6893 79.4513 86.8795 77.0518C87.0026 75.5039 87.2527 73.9649 87.6353 72.4393C88.0431 70.8138 88.3569 69.1898 88.7495 67.5907C88.0732 67.9758 87.2774 68.1769 86.3767 68.2036C84.9562 68.2452 83.519 68.1117 82.106 67.9268C81.5567 67.8556 81.0852 67.6537 80.6902 67.3528C81.863 74.4481 83.4063 87.0296 85.4537 106.114C85.5252 106.78 85.5979 107.46 85.6715 108.149C94.8016 106.317 102.101 91.7221 104.001 74.0655C106.13 74.0313 107.883 72.4761 108.247 70.4343Z" fill="#2F2BAE"/>
<path fill-rule="evenodd" clip-rule="evenodd" d="M108.373 108.566C107.82 103.409 107.266 97.9146 106.699 92.7604C105.719 84.4983 104.754 77.3661 103.998 74.0653C102.098 91.7223 94.7985 106.317 85.6684 108.149C85.7733 109.129 85.8802 110.141 85.9914 111.19C94.1811 111.476 101.851 111.918 108.791 112.489C108.654 111.199 108.515 109.891 108.373 108.566Z" fill="#0F0C63"/>
<path fill-rule="evenodd" clip-rule="evenodd" d="M84.3334 111.134C84.3732 111.135 84.4153 111.136 84.4551 111.138C84.2862 109.541 84.1139 107.918 83.9375 106.279C83.2316 99.6961 82.4763 92.8724 81.7292 86.5735C82.4356 92.9989 83.1267 99.8488 83.8166 106.279C83.992 107.917 84.1648 109.538 84.3334 111.134Z" fill="#4E4A98"/>
<path fill-rule="evenodd" clip-rule="evenodd" d="M81.7292 86.5735C80.5075 76.2713 79.3046 67.377 78.3612 63.2615C79.5539 68.0965 80.6596 76.8476 81.7292 86.5735Z" fill="#3E3977"/>
<path fill-rule="evenodd" clip-rule="evenodd" d="M44.1051 105.991C43.9156 107.731 43.7285 109.453 43.5465 111.146C43.5623 111.146 43.5783 111.145 43.594 111.145C43.751 109.452 43.9156 107.731 44.1051 105.991Z" fill="#3E3977"/>
</svg>
