<svg width="512" height="512" viewBox="0 0 512 512" fill="none" xmlns="http://www.w3.org/2000/svg">
<path d="M347.809 334.775C370.116 313.02 380.993 285.735 379.703 253.841C379.28 232.115 372.414 211.004 359.976 193.186C349.099 177.884 333.982 164.795 314.808 154.102C284.942 137.694 230.555 125.342 181.884 120.733V153.549C226.315 157.789 273.511 168.851 299.506 183.046C330.663 200.376 346.518 223.79 347.624 255.131C348.362 277.439 341.172 295.875 325.685 310.992C299.506 336.434 249.729 353.027 181.516 358.557C164.555 360.032 146.856 360.77 128.42 360.77C115.515 360.77 104.637 360.401 97.263 360.032V122.576H65V390.82C73.1118 390.82 71.2682 391.189 79.7488 391.927C81.7768 392.111 101.135 393.77 128.789 393.77C187.968 393.77 295.266 386.027 347.809 334.775Z" fill="url(#paint0_linear_1459_4624)"/>
<path d="M392.424 122.023C371.775 103.587 345.412 89.0228 314.071 78.6986C287.284 70.3347 259.64 65.0161 231.662 62.8436C217.835 61.7374 203.455 61 189.075 61C159.761 61 125.286 64.1341 124.548 64.1341V336.065H157.18V95.1066C164.739 94.5536 175.616 94.0005 188.706 94.0005C234.796 94.0005 319.601 100.822 370.116 146.543C399.982 173.46 414.547 211.254 413.256 258.818C411.966 306.383 395.373 345.468 363.664 371.647C318.495 409.256 251.019 417 202.348 417C168.057 417 128.051 410.916 127.867 410.916V443.732C152.506 447.648 177.401 449.743 202.348 450C210.46 450 218.756 449.816 226.868 449.447C293.975 445.76 347.071 428.245 384.681 397.089C422.29 365.932 444.782 318.367 446.257 259.74C447.732 201.114 429.665 155.761 392.424 122.023Z" fill="url(#paint1_linear_1459_4624)"/>
<defs>
<linearGradient id="paint0_linear_1459_4624" x1="65.0447" y1="255.526" x2="446.372" y2="255.526" gradientUnits="userSpaceOnUse">
<stop stop-color="#03DAC6"/>
<stop offset="1" stop-color="#49BFF9"/>
</linearGradient>
<linearGradient id="paint1_linear_1459_4624" x1="124.476" y1="255.555" x2="446.443" y2="255.555" gradientUnits="userSpaceOnUse">
<stop stop-color="#03DAC6"/>
<stop offset="1" stop-color="#49BFF9"/>
</linearGradient>
</defs>
</svg>
