<svg width="128" height="128" viewBox="0 0 128 128" fill="none" xmlns="http://www.w3.org/2000/svg">
<path d="M108.146 97.5604C114.811 90.048 118.195 78.7986 118.195 64.1187V64.0099C118.195 49.33 114.811 38.0741 108.146 30.5681C101.347 22.9023 94.9139 18.75 80.3922 18.75H49.157C50.8329 20.462 54.7196 24.4418 56.0151 25.7578C56.6274 26.3774 57.1237 26.8566 57.5041 27.2207L57.5557 27.2718C57.7684 27.4762 57.9424 27.6423 58.0648 27.7764C58.2001 27.9106 58.2904 28.0064 58.3483 28.0575C60.9267 30.6192 63.9302 31.654 68.7386 31.654C68.9192 31.654 69.2735 31.654 69.7634 31.654C70.9173 31.6477 73.2247 31.654 75.7128 31.654C77.2918 31.654 78.9485 31.654 80.4309 31.654C93.3091 31.654 97.1568 39.1537 97.8208 40.7124C98.4655 41.6068 99.0005 42.6161 99.413 43.7149C101.74 49.8602 102.932 56.9063 102.868 64.0803C102.932 71.1264 101.74 78.1598 99.413 84.401C95.3585 95.2864 85.0652 96.4618 80.8239 96.4618H68.7386C64.1042 96.4618 59.5859 98.5572 56.0151 102.358C54.3071 104.179 50.8587 107.769 49.3247 109.366H80.3726C94.9076 109.366 101.347 105.213 108.146 97.5541V97.5604Z" fill="#0B465E"/>
<path d="M69.9192 64.075C69.9192 64.075 69.9192 64.075 69.9192 64.0684C69.9192 64.0684 69.9192 64.0684 69.9192 64.0621C69.9192 64.0621 69.9192 64.0621 69.9192 64.0559C70.0353 57.38 68.7395 51.4967 67.7018 48.2707C66.4258 44.2908 65.1624 42.7896 64.7628 42.285C58.5815 34.3764 51.427 37.7877 45.3036 33.6546C39.1868 29.5278 38.162 26.3976 35.9834 24.2065C35.6095 23.8296 34.7845 22.9991 33.5083 22.1304C33.5083 22.1304 31.5102 20.7697 28.7321 19.9137C25.7221 18.9746 16.6467 18.7319 9.75 18.751V32.4664H30.3177C32.7799 32.4153 38.7679 32.6452 44.0469 36.7656C46.8055 38.9184 48.2621 41.2628 49.1579 42.7257C53.3993 49.6888 53.528 58.1531 53.612 64.043V64.075C53.528 69.9649 53.3993 78.4291 49.1579 85.3921C48.2687 86.8549 46.8055 89.2057 44.0469 91.3524C38.7614 95.4726 32.7799 95.7026 30.3177 95.6516H9.75V109.367C16.6467 109.392 25.7221 109.143 28.7321 108.211C31.5102 107.348 33.5083 105.994 33.5083 105.994C34.7845 105.125 35.6095 104.294 35.9834 103.918C38.162 101.727 39.1868 98.6028 45.3036 94.4696C51.4204 90.343 58.5815 93.7541 64.7628 85.8393C65.1624 85.3345 66.4258 83.8333 67.7018 79.8536C68.7332 76.6275 70.0353 70.7443 69.9192 64.0684V64.075Z" fill="#0B465E"/>
</svg>
