<svg width="512" height="512" viewBox="0 0 512 512" fill="none" xmlns="http://www.w3.org/2000/svg">
<rect x="69" y="67" width="374" height="374" rx="16" fill="#2E62D6"/>
<path fill-rule="evenodd" clip-rule="evenodd" d="M147 326.393C147 327.716 148.073 328.79 149.397 328.79H215.273C231.322 328.79 245.576 325.762 257.974 319.635L257.995 319.624C270.375 313.364 280.104 304.652 287.116 293.49L287.123 293.478C294.157 282.139 297.634 268.915 297.634 253.895C297.634 238.742 294.16 225.511 287.116 214.299C280.102 203.136 270.37 194.49 257.985 188.367C245.583 182.098 231.326 179 215.273 179H149.397C148.073 179 147 180.073 147 181.397V326.393ZM253.192 276.495L253.174 276.527C249.546 282.875 244.371 287.803 237.586 291.327C230.948 294.709 222.984 296.446 213.616 296.446H185.354V211.343H213.616C222.975 211.343 230.93 213.147 237.561 216.657L237.585 216.67L237.611 216.683C244.382 220.068 249.549 224.92 253.174 231.263L253.187 231.285L253.204 231.313C256.942 237.501 258.866 244.994 258.866 253.895C258.866 262.648 256.946 270.153 253.192 276.495Z" fill="white"/>
<path d="M326.977 326.393C326.977 327.716 328.051 328.79 329.374 328.79H362.934C364.258 328.79 365.331 327.716 365.331 326.393V181.397C365.331 180.073 364.258 179 362.934 179C343.073 179 326.971 195.094 326.969 214.953C326.966 252.099 326.977 289.246 326.977 326.393Z" fill="white"/>
</svg>
