<svg width="128" height="128" viewBox="0 0 128 128" fill="none" xmlns="http://www.w3.org/2000/svg">
<path d="M17.25 20.75C17.25 18.5409 19.0409 16.75 21.25 16.75H106.75C108.959 16.75 110.75 18.5409 110.75 20.75V106.25C110.75 108.459 108.959 110.25 106.75 110.25H21.25C19.0409 110.25 17.25 108.459 17.25 106.25V20.75Z" fill="#2E62D6"/>
<path fill-rule="evenodd" clip-rule="evenodd" d="M36.75 81.5982C36.75 81.9291 37.0183 82.1974 37.3493 82.1974H53.8184C57.8305 82.1974 61.394 81.4405 64.4936 79.9087L64.4987 79.9061C67.5936 78.341 70.0259 76.1629 71.7789 73.3725L71.7808 73.3696C73.5393 70.5347 74.4085 67.2288 74.4085 63.4738C74.4085 59.6856 73.5399 56.3777 71.7789 53.5749C70.0256 50.784 67.5924 48.6225 64.4962 47.0918C61.3959 45.5246 57.8314 44.75 53.8184 44.75H37.3493C37.0183 44.75 36.75 45.0183 36.75 45.3492V81.5982ZM63.2981 69.1237L63.2935 69.1317C62.3866 70.7187 61.0927 71.9507 59.3964 72.8318C57.737 73.6772 55.7461 74.1116 53.4041 74.1116H46.3385V52.8357H53.4041C55.7438 52.8357 57.7324 53.2866 59.3903 54.1643L59.3962 54.1674L59.4027 54.1706C61.0956 55.017 62.3874 56.2301 63.2935 57.8158L63.2967 57.8213L63.301 57.8284C64.2355 59.3752 64.7165 61.2484 64.7165 63.4738C64.7165 65.6621 64.2364 67.5384 63.2981 69.1237Z" fill="white"/>
<path d="M81.7441 81.5982C81.7441 81.9291 82.0124 82.1974 82.3433 82.1974H90.7333C91.0642 82.1974 91.3325 81.9291 91.3325 81.5982V45.3492C91.3325 45.0183 91.0642 44.75 90.7333 44.75C85.7681 44.75 81.7425 48.7736 81.7421 53.7382C81.7413 63.0248 81.7441 72.3115 81.7441 81.5982Z" fill="white"/>
</svg>
