<svg width="160" height="44" viewBox="0 0 160 44" fill="none" xmlns="http://www.w3.org/2000/svg">
<path d="M71.1777 18.3761C71.1777 17.0422 70.8007 16.0564 70.0468 15.4185C69.2929 14.7515 68.452 14.4181 67.5242 14.4181C66.1614 14.4181 64.987 14.9545 64.0011 16.0274C63.0153 17.1002 62.3629 18.4196 62.0439 19.9853L71.0472 19.6374C71.1342 19.2024 71.1777 18.782 71.1777 18.3761ZM67.3937 32.6856C64.3201 32.6856 62.0004 31.8158 60.4346 30.076C58.8688 28.3072 58.0859 25.973 58.0859 23.0734C58.0859 20.1448 58.9413 17.6222 60.6521 15.5054C62.3919 13.3597 65.0015 12.2869 68.481 12.2869C70.2498 12.2869 71.7866 12.9103 73.0914 14.1571C74.4252 15.404 75.0922 17.2597 75.0922 19.7244L73.6133 21.5076C73.4394 21.4786 72.0621 21.4641 69.4814 21.4641C66.9297 21.4641 64.3636 21.5656 61.7829 21.7686V22.16C61.7829 24.7987 62.3339 26.7849 63.4357 28.1187C64.5376 29.4236 66.0454 30.076 67.9591 30.076C69.8729 30.076 71.8881 29.612 74.0048 28.6842L74.5267 29.989C72.294 31.7868 69.9163 32.6856 67.3937 32.6856Z" fill="white"/>
<path d="M92.8371 29.8585C90.8364 31.7433 88.6471 32.6856 86.2695 32.6856C83.8918 32.6856 81.9346 31.8302 80.3978 30.1195C78.89 28.3797 78.1361 25.915 78.1361 22.7255C78.1361 19.5069 79.0349 16.9552 80.8327 15.0705C82.6595 13.1858 84.9067 12.2434 87.5743 12.2434C89.0241 12.2434 90.7639 12.7508 92.7936 13.7657C92.7936 8.4014 92.7066 5.11034 92.5326 3.8925L92.4456 3.28359L89.662 2.4572L89.575 1.32635C91.4308 1.32635 93.3445 1.06539 95.3163 0.543457L96.1426 0.934905C96.0846 4.55942 96.0557 9.69173 96.0557 16.3318C96.0557 22.9719 96.0846 26.7704 96.1426 27.7273C96.2006 28.6842 96.3166 29.2931 96.4906 29.5541C96.6936 29.786 96.9835 29.96 97.3605 30.076C97.9694 30.25 98.6798 30.3659 99.4917 30.4239L99.3612 31.6853C98.3173 31.7723 96.7371 32.0332 94.6203 32.4682C93.7505 32.0912 93.156 31.2213 92.8371 29.8585ZM88.7051 14.8965C86.4144 14.8965 84.7182 15.6504 83.6163 17.1582C82.5435 18.637 82.007 20.4783 82.007 22.682C82.007 24.8857 82.4855 26.6544 83.4423 27.9883C84.3992 29.2931 85.762 29.9455 87.5308 29.9455C89.2996 29.9455 90.9813 29.4381 92.5761 28.4232C92.7211 26.1035 92.7936 21.8556 92.7936 15.6794C91.2858 15.1575 89.923 14.8965 88.7051 14.8965Z" fill="white"/>
<path d="M118.975 10.7211C119.207 10.7211 119.584 11.069 120.106 11.7649C120.656 12.4319 121.019 13.0988 121.193 13.7657L120.54 14.5921C120.019 14.3311 119.395 14.2006 118.67 14.2006C117.945 14.2006 117.264 14.3601 116.626 14.6791C117.641 15.9259 118.148 17.5642 118.148 19.5939C118.148 21.6236 117.481 23.3634 116.148 24.8132C114.814 26.234 112.842 26.9444 110.232 26.9444C109.565 26.9444 108.928 26.9009 108.319 26.8139C107.246 28.2057 106.709 29.1626 106.709 29.6845C106.709 30.3514 107.652 30.6849 109.536 30.6849H112.799C118.279 30.6849 121.019 32.4537 121.019 35.9912C121.019 37.9629 119.917 39.7462 117.713 41.341C115.539 42.9358 112.61 43.7331 108.928 43.7331C106.782 43.7331 104.926 43.3707 103.36 42.6458C101.795 41.9499 101.012 40.9495 101.012 39.6447C101.012 37.7889 102.505 35.6577 105.492 33.2511C103.665 32.8451 102.751 32.1492 102.751 31.1633C102.751 30.1775 104.056 28.6262 106.666 26.5095C103.737 25.5816 102.273 23.2474 102.273 19.5069C102.273 17.5932 102.94 15.9259 104.274 14.5051C105.636 13.0553 107.536 12.3304 109.971 12.3304C112.436 12.3304 114.277 12.7653 115.495 13.6352C115.843 13.0843 116.38 12.4609 117.104 11.7649C117.829 11.069 118.453 10.7211 118.975 10.7211ZM104.665 38.2094C104.665 39.3402 105.086 40.2536 105.926 40.9495C106.767 41.6454 108.145 41.9934 110.058 41.9934C111.972 41.9934 113.668 41.3845 115.147 40.1666C116.626 38.9778 117.365 37.702 117.365 36.3391C117.365 35.4693 116.988 34.7589 116.235 34.2079C115.481 33.657 114.306 33.3815 112.712 33.3815H106.84C105.39 35.0053 104.665 36.6146 104.665 38.2094ZM110.276 14.1136C109.435 14.1136 108.696 14.3166 108.058 14.7226C107.449 15.0995 106.999 15.5924 106.709 16.2014C106.216 17.3612 105.97 18.5935 105.97 19.8984C105.97 21.2032 106.289 22.4065 106.927 23.5084C107.594 24.6102 108.652 25.1611 110.102 25.1611C111.146 25.1611 112.001 24.8567 112.668 24.2478C113.364 23.6099 113.813 22.9574 114.016 22.2905C114.248 21.6236 114.379 20.9277 114.408 20.2028C114.408 16.1434 113.03 14.1136 110.276 14.1136Z" fill="white"/>
<path d="M136.122 18.3761C136.122 17.0422 135.745 16.0564 134.991 15.4185C134.237 14.7515 133.396 14.4181 132.468 14.4181C131.105 14.4181 129.931 14.9545 128.945 16.0274C127.959 17.1002 127.307 18.4196 126.988 19.9853L135.991 19.6374C136.078 19.2024 136.122 18.782 136.122 18.3761ZM132.338 32.6856C129.264 32.6856 126.944 31.8158 125.379 30.076C123.813 28.3072 123.03 25.973 123.03 23.0734C123.03 20.1448 123.885 17.6222 125.596 15.5054C127.336 13.3597 129.945 12.2869 133.425 12.2869C135.194 12.2869 136.73 12.9103 138.035 14.1571C139.369 15.404 140.036 17.2597 140.036 19.7244L138.557 21.5076C138.383 21.4786 137.006 21.4641 134.425 21.4641C131.874 21.4641 129.307 21.5656 126.727 21.7686V22.16C126.727 24.7987 127.278 26.7849 128.38 28.1187C129.481 29.4236 130.989 30.076 132.903 30.076C134.817 30.076 136.832 29.612 138.949 28.6842L139.471 29.989C137.238 31.7868 134.86 32.6856 132.338 32.6856Z" fill="white"/>
<path d="M156.085 18.3761C156.085 17.0422 155.708 16.0564 154.954 15.4185C154.2 14.7515 153.359 14.4181 152.431 14.4181C151.068 14.4181 149.894 14.9545 148.908 16.0274C147.922 17.1002 147.27 18.4196 146.951 19.9853L155.954 19.6374C156.041 19.2024 156.085 18.782 156.085 18.3761ZM152.301 32.6856C149.227 32.6856 146.907 31.8158 145.342 30.076C143.776 28.3072 142.993 25.973 142.993 23.0734C142.993 20.1448 143.848 17.6222 145.559 15.5054C147.299 13.3597 149.909 12.2869 153.388 12.2869C155.157 12.2869 156.694 12.9103 157.998 14.1571C159.332 15.404 159.999 17.2597 159.999 19.7244L158.52 21.5076C158.346 21.4786 156.969 21.4641 154.388 21.4641C151.837 21.4641 149.271 21.5656 146.69 21.7686V22.16C146.69 24.7987 147.241 26.7849 148.343 28.1187C149.445 29.4236 150.952 30.076 152.866 30.076C154.78 30.076 156.795 29.612 158.912 28.6842L159.434 29.989C157.201 31.7868 154.823 32.6856 152.301 32.6856Z" fill="white"/>
<path d="M17.2564 0.900186C17.5016 0.352514 18.0457 0 18.6458 0H33.9037C35.0071 0 35.744 1.13731 35.2931 2.1444L33.3942 6.38508C33.149 6.93276 32.6049 7.28527 32.0049 7.28527H16.747C15.6435 7.28527 14.9067 6.14796 15.3576 5.14087L17.2564 0.900186Z" fill="white"/>
<path d="M2.03346 17.428C2.27869 16.8803 2.82277 16.5278 3.42284 16.5278H21.834C22.9375 16.5278 23.6744 17.6651 23.2234 18.6722L21.3246 22.9129C21.0794 23.4605 20.5353 23.813 19.9352 23.813H1.52403C0.420586 23.813 -0.316287 22.6757 0.13465 21.6686L2.03346 17.428Z" fill="white"/>
<path d="M2.03346 33.7383C2.27869 33.1906 2.82277 32.8381 3.42284 32.8381H28.7931C29.8966 32.8381 30.6334 33.9754 30.1825 34.9825L28.2837 39.2232C28.0385 39.7708 27.4944 40.1234 26.8943 40.1234H1.52403C0.420586 40.1234 -0.316287 38.986 0.13465 37.9789L2.03346 33.7383Z" fill="white"/>
</svg>
