<svg width="160" height="45" viewBox="0 0 160 45" fill="none" xmlns="http://www.w3.org/2000/svg">
<path d="M71.1777 19.0367C71.1777 17.7029 70.8007 16.717 70.0468 16.0791C69.2929 15.4122 68.452 15.0787 67.5242 15.0787C66.1614 15.0787 64.987 15.6152 64.0011 16.688C63.0153 17.7609 62.3629 19.0802 62.0439 20.646L71.0472 20.298C71.1342 19.8631 71.1777 19.4426 71.1777 19.0367ZM67.3937 33.3463C64.3201 33.3463 62.0004 32.4764 60.4346 30.7366C58.8688 28.9679 58.0859 26.6337 58.0859 23.7341C58.0859 20.8055 58.9413 18.2828 60.6521 16.1661C62.3919 14.0204 65.0015 12.9475 68.481 12.9475C70.2498 12.9475 71.7866 13.5709 73.0914 14.8178C74.4252 16.0646 75.0922 17.9204 75.0922 20.385L73.6133 22.1683C73.4394 22.1393 72.0621 22.1248 69.4814 22.1248C66.9297 22.1248 64.3636 22.2263 61.7829 22.4292V22.8207C61.7829 25.4593 62.3339 27.4456 63.4357 28.7794C64.5376 30.0842 66.0454 30.7366 67.9591 30.7366C69.8729 30.7366 71.8881 30.2727 74.0048 29.3448L74.5267 30.6496C72.294 32.4474 69.9163 33.3463 67.3937 33.3463Z" fill="#231A26"/>
<path d="M92.8371 30.5192C90.8364 32.4039 88.6471 33.3463 86.2695 33.3463C83.8918 33.3463 81.9346 32.4909 80.3978 30.7801C78.89 29.0404 78.1361 26.5757 78.1361 23.3861C78.1361 20.1676 79.0349 17.6159 80.8327 15.7311C82.6595 13.8464 84.9067 12.904 87.5743 12.904C89.0241 12.904 90.7639 13.4115 92.7936 14.4263C92.7936 9.06205 92.7066 5.77099 92.5326 4.55315L92.4456 3.94423L89.662 3.11784L89.575 1.987C91.4308 1.987 93.3445 1.72603 95.3163 1.2041L96.1426 1.59555C96.0846 5.22006 96.0557 10.3524 96.0557 16.9925C96.0557 23.6326 96.0846 27.4311 96.1426 28.3879C96.2006 29.3448 96.3166 29.9537 96.4906 30.2147C96.6936 30.4467 96.9835 30.6206 97.3605 30.7366C97.9694 30.9106 98.6798 31.0266 99.4917 31.0846L99.3612 32.3459C98.3173 32.4329 96.7371 32.6939 94.6203 33.1288C93.7505 32.7519 93.156 31.882 92.8371 30.5192ZM88.7051 15.5572C86.4144 15.5572 84.7182 16.3111 83.6163 17.8189C82.5435 19.2977 82.007 21.1389 82.007 23.3426C82.007 25.5463 82.4855 27.3151 83.4423 28.6489C84.3992 29.9537 85.762 30.6061 87.5308 30.6061C89.2996 30.6061 90.9813 30.0987 92.5761 29.0839C92.7211 26.7642 92.7936 22.5162 92.7936 16.3401C91.2858 15.8181 89.923 15.5572 88.7051 15.5572Z" fill="#231A26"/>
<path d="M118.975 11.3817C119.207 11.3817 119.584 11.7297 120.106 12.4256C120.656 13.0925 121.019 13.7594 121.193 14.4263L120.54 15.2527C120.019 14.9917 119.395 14.8613 118.67 14.8613C117.945 14.8613 117.264 15.0207 116.626 15.3397C117.641 16.5865 118.148 18.2248 118.148 20.2545C118.148 22.2843 117.481 24.024 116.148 25.4738C114.814 26.8946 112.842 27.6051 110.232 27.6051C109.565 27.6051 108.928 27.5616 108.319 27.4746C107.246 28.8664 106.709 29.8233 106.709 30.3452C106.709 31.0121 107.652 31.3455 109.536 31.3455H112.799C118.279 31.3455 121.019 33.1143 121.019 36.6518C121.019 38.6236 119.917 40.4068 117.713 42.0016C115.539 43.5964 112.61 44.3938 108.928 44.3938C106.782 44.3938 104.926 44.0313 103.36 43.3064C101.795 42.6105 101.012 41.6102 101.012 40.3053C101.012 38.4496 102.505 36.3184 105.492 33.9117C103.665 33.5058 102.751 32.8099 102.751 31.824C102.751 30.8381 104.056 29.2868 106.666 27.1701C103.737 26.2422 102.273 23.908 102.273 20.1676C102.273 18.2538 102.94 16.5865 104.274 15.1657C105.636 13.7159 107.536 12.991 109.971 12.991C112.436 12.991 114.277 13.426 115.495 14.2958C115.843 13.7449 116.38 13.1215 117.104 12.4256C117.829 11.7297 118.453 11.3817 118.975 11.3817ZM104.665 38.87C104.665 40.0009 105.086 40.9143 105.926 41.6102C106.767 42.3061 108.145 42.654 110.058 42.654C111.972 42.654 113.668 42.0451 115.147 40.8273C116.626 39.6384 117.365 38.3626 117.365 36.9998C117.365 36.1299 116.988 35.4195 116.235 34.8686C115.481 34.3176 114.306 34.0422 112.712 34.0422H106.84C105.39 35.666 104.665 37.2753 104.665 38.87ZM110.276 14.7743C109.435 14.7743 108.696 14.9773 108.058 15.3832C107.449 15.7601 106.999 16.2531 106.709 16.862C106.216 18.0218 105.97 19.2542 105.97 20.559C105.97 21.8638 106.289 23.0672 106.927 24.169C107.594 25.2709 108.652 25.8218 110.102 25.8218C111.146 25.8218 112.001 25.5173 112.668 24.9084C113.364 24.2705 113.813 23.6181 114.016 22.9512C114.248 22.2843 114.379 21.5884 114.408 20.8635C114.408 16.804 113.03 14.7743 110.276 14.7743Z" fill="#231A26"/>
<path d="M136.122 19.0367C136.122 17.7029 135.745 16.717 134.991 16.0791C134.237 15.4122 133.396 15.0787 132.468 15.0787C131.105 15.0787 129.931 15.6152 128.945 16.688C127.959 17.7609 127.307 19.0802 126.988 20.646L135.991 20.298C136.078 19.8631 136.122 19.4426 136.122 19.0367ZM132.338 33.3463C129.264 33.3463 126.944 32.4764 125.379 30.7366C123.813 28.9679 123.03 26.6337 123.03 23.7341C123.03 20.8055 123.885 18.2828 125.596 16.1661C127.336 14.0204 129.945 12.9475 133.425 12.9475C135.194 12.9475 136.73 13.5709 138.035 14.8178C139.369 16.0646 140.036 17.9204 140.036 20.385L138.557 22.1683C138.383 22.1393 137.006 22.1248 134.425 22.1248C131.874 22.1248 129.307 22.2263 126.727 22.4292V22.8207C126.727 25.4593 127.278 27.4456 128.38 28.7794C129.481 30.0842 130.989 30.7366 132.903 30.7366C134.817 30.7366 136.832 30.2727 138.949 29.3448L139.471 30.6496C137.238 32.4474 134.86 33.3463 132.338 33.3463Z" fill="#231A26"/>
<path d="M156.085 19.0367C156.085 17.7029 155.708 16.717 154.954 16.0791C154.2 15.4122 153.359 15.0787 152.431 15.0787C151.068 15.0787 149.894 15.6152 148.908 16.688C147.922 17.7609 147.27 19.0802 146.951 20.646L155.954 20.298C156.041 19.8631 156.085 19.4426 156.085 19.0367ZM152.301 33.3463C149.227 33.3463 146.907 32.4764 145.342 30.7366C143.776 28.9679 142.993 26.6337 142.993 23.7341C142.993 20.8055 143.848 18.2828 145.559 16.1661C147.299 14.0204 149.909 12.9475 153.388 12.9475C155.157 12.9475 156.694 13.5709 157.998 14.8178C159.332 16.0646 159.999 17.9204 159.999 20.385L158.52 22.1683C158.346 22.1393 156.969 22.1248 154.388 22.1248C151.837 22.1248 149.271 22.2263 146.69 22.4292V22.8207C146.69 25.4593 147.241 27.4456 148.343 28.7794C149.445 30.0842 150.952 30.7366 152.866 30.7366C154.78 30.7366 156.795 30.2727 158.912 29.3448L159.434 30.6496C157.201 32.4474 154.823 33.3463 152.301 33.3463Z" fill="#231A26"/>
<path d="M17.2564 1.56083C17.5016 1.01316 18.0457 0.660645 18.6458 0.660645H33.9037C35.0071 0.660645 35.744 1.79796 35.2931 2.80505L33.3942 7.04573C33.149 7.5934 32.6049 7.94591 32.0049 7.94591H16.747C15.6435 7.94591 14.9067 6.8086 15.3576 5.80151L17.2564 1.56083Z" fill="#231A26"/>
<path d="M2.03346 18.0886C2.27869 17.5409 2.82277 17.1884 3.42284 17.1884H21.834C22.9375 17.1884 23.6744 18.3257 23.2234 19.3328L21.3246 23.5735C21.0794 24.1212 20.5353 24.4737 19.9352 24.4737H1.52403C0.420586 24.4737 -0.316287 23.3364 0.13465 22.3293L2.03346 18.0886Z" fill="#231A26"/>
<path d="M2.03346 34.3989C2.27869 33.8512 2.82277 33.4987 3.42284 33.4987H28.7931C29.8966 33.4987 30.6334 34.636 30.1825 35.6431L28.2837 39.8838C28.0385 40.4315 27.4944 40.784 26.8943 40.784H1.52403C0.420586 40.784 -0.316287 39.6467 0.13465 38.6396L2.03346 34.3989Z" fill="#231A26"/>
</svg>
