<svg width="512" height="512" viewBox="0 0 512 512" fill="none" xmlns="http://www.w3.org/2000/svg">
<path d="M285.915 375.903C285.915 391.94 273.088 405.839 255.984 405.839C238.88 405.839 226.052 393.009 226.052 375.903C226.052 359.866 238.88 345.967 255.984 345.967C272.019 345.967 285.915 359.866 285.915 375.903Z" fill="#000037"/>
<path d="M285.915 134.947C285.915 150.985 273.088 164.884 255.984 164.884C239.949 164.884 226.052 152.054 226.052 134.947C226.052 118.91 238.88 105.011 255.984 105.011C272.019 105.011 285.915 118.91 285.915 134.947Z" fill="#000037"/>
<path d="M362.166 319.387C373.925 331.148 373.925 350.393 362.166 362.154C350.407 373.914 331.165 373.914 319.407 362.154C307.648 350.393 307.648 331.148 319.407 320.457C331.165 308.696 350.407 308.696 362.166 319.387Z" fill="#FFA078"/>
<path d="M191.482 149.755C203.24 161.516 203.24 180.761 191.482 191.452C179.723 203.213 161.55 203.213 149.791 191.452C138.032 179.692 138.032 160.447 149.791 149.755C161.55 137.994 179.723 137.994 191.482 149.755Z" fill="#FFA078"/>
<path d="M375.913 226.018C391.948 226.018 405.845 238.848 405.845 255.954C405.845 273.061 393.017 285.891 375.913 285.891C359.878 285.891 345.982 271.992 345.982 255.954C345.982 239.917 359.878 226.018 375.913 226.018Z" fill="#000037"/>
<path d="M134.986 226.018C151.021 226.018 164.917 238.848 164.917 255.954C164.917 273.061 152.09 285.891 134.986 285.891C118.951 285.891 105.054 271.992 105.054 255.954C105.054 238.848 118.951 226.018 134.986 226.018Z" fill="#000037"/>
<path d="M319.407 149.755C331.165 137.994 350.407 137.994 362.166 149.755C373.925 161.516 373.925 179.692 362.166 191.452C350.407 203.213 331.165 203.213 319.407 191.452C307.648 179.692 307.648 161.516 319.407 149.755Z" fill="#FFA078"/>
<path d="M149.802 319.387C161.561 308.696 179.733 308.696 191.492 319.387C203.251 331.148 203.251 350.393 191.492 361.084C179.733 373.914 161.561 373.914 149.802 362.154C138.043 350.393 138.043 331.148 149.802 319.387Z" fill="#FFA078"/>
<path d="M276.316 63.314C276.316 74.0055 266.695 83.6279 256.005 83.6279C245.316 83.6279 235.695 74.0055 235.695 63.314C235.695 52.6224 244.247 43 256.005 43C267.764 43 276.316 52.6224 276.316 63.314Z" fill="#FFA078"/>
<path d="M276.316 448.755C276.316 459.447 266.695 468 256.005 468C245.316 468 235.695 459.447 235.695 448.755C235.695 438.064 244.247 428.441 256.005 428.441C267.764 428.441 276.316 436.995 276.316 448.755Z" fill="#FFA078"/>
<path d="M63.3107 235.726C74.0005 235.726 83.6213 244.279 83.6213 256.04C83.6213 266.731 75.0695 276.354 63.3107 276.354C51.5519 276.354 43 266.731 43 256.04C43 245.348 51.5519 235.726 63.3107 235.726Z" fill="#FFA078"/>
<path d="M448.689 235.726C459.379 235.726 469 244.279 469 256.04C469 266.731 460.448 276.354 448.689 276.354C436.931 276.354 428.379 266.731 428.379 256.04C428.379 245.348 436.931 235.726 448.689 235.726Z" fill="#FFA078"/>
<path d="M133.329 105.546C141.881 113.03 141.881 125.86 133.329 134.413C125.846 141.897 113.018 141.897 104.466 134.413C96.9836 126.929 96.9836 114.099 104.466 105.546C113.018 98.0615 125.846 98.0615 133.329 105.546Z" fill="#FFA078"/>
<path d="M406.465 377.656C413.947 385.14 413.947 397.97 406.465 406.524C398.982 414.008 386.154 414.008 377.602 406.524C370.119 397.97 370.119 385.14 377.602 377.656C385.085 370.172 397.913 370.172 406.465 377.656Z" fill="#FFA078"/>
<path d="M406.465 134.413C398.982 141.897 386.154 141.897 377.602 134.413C370.119 125.86 370.119 113.03 377.602 105.546C385.085 98.0615 397.913 98.0615 406.465 105.546C413.947 113.03 413.947 125.86 406.465 134.413Z" fill="#FFA078"/>
<path d="M133.329 406.524C125.846 414.008 113.018 414.008 104.466 406.524C96.9836 399.039 96.9836 386.21 104.466 377.656C111.949 370.172 124.777 370.172 133.329 377.656C141.881 385.14 141.881 397.97 133.329 406.524Z" fill="#FFA078"/>
<path d="M403.386 168.209C416.214 162.863 430.11 169.278 435.455 181.039C439.731 193.869 433.317 207.768 421.559 213.113C408.731 218.459 394.834 212.044 389.489 200.283C385.213 187.454 390.558 173.555 403.386 168.209Z" fill="#000037"/>
<path d="M89.8962 298.261C102.724 292.915 116.621 299.33 121.966 311.091C127.311 323.921 120.897 337.82 109.138 343.165C96.3101 347.442 82.4134 342.096 77.0685 329.266C71.7235 317.506 78.1374 303.607 89.8962 298.261Z" fill="#000037"/>
<path d="M421.559 298.261C434.386 303.607 439.731 317.506 434.386 330.336C429.041 342.096 415.145 347.442 403.386 343.165C390.558 337.82 385.213 323.921 390.558 311.091C394.834 299.33 408.731 292.915 421.559 298.261Z" fill="#000037"/>
<path d="M108.069 168.209C120.897 173.555 126.242 187.454 120.897 200.283C116.621 212.044 102.724 218.459 89.8962 213.113C78.1374 207.768 71.7235 193.869 77.0685 182.108C82.4134 169.278 96.3101 163.932 108.069 168.209Z" fill="#000037"/>
<path d="M343.192 403.369C348.536 416.199 342.123 430.098 330.364 435.444C317.536 440.79 303.639 434.375 298.294 422.614C292.949 409.784 299.363 395.885 311.122 390.54C323.95 385.194 337.847 390.54 343.192 403.369Z" fill="#000037"/>
<path d="M213.161 89.829C218.505 102.659 212.092 116.558 200.333 121.904C187.505 127.249 173.608 120.835 168.263 109.074C162.918 96.2439 169.332 82.3449 181.091 78.0683C193.919 71.6534 207.816 78.0683 213.161 89.829Z" fill="#000037"/>
<path d="M213.161 421.545C207.816 434.375 193.919 439.721 181.091 434.375C168.263 429.029 162.918 415.13 168.263 402.3C173.608 390.54 187.505 385.194 200.333 389.47C212.092 394.816 218.505 408.715 213.161 421.545Z" fill="#000037"/>
<path d="M343.192 109.074C337.847 120.835 323.95 127.249 311.122 121.904C299.363 116.558 292.949 102.659 298.294 89.829C303.639 76.9991 317.536 71.6534 330.364 76.9991C342.123 82.3449 347.467 96.2439 343.192 109.074Z" fill="#000037"/>
</svg>
