<svg width="128" height="128" viewBox="0 0 128 128" fill="none" xmlns="http://www.w3.org/2000/svg">
<path d="M71.4802 93.9757C71.4802 97.9851 68.2727 101.46 63.9961 101.46C59.7195 101.46 56.512 98.2523 56.512 93.9757C56.512 89.9664 59.7195 86.4916 63.9961 86.4916C68.0054 86.4916 71.4802 89.9664 71.4802 93.9757Z" fill="#000037"/>
<path d="M71.4802 33.7368C71.4802 37.7462 68.2727 41.2209 63.9961 41.2209C59.9868 41.2209 56.512 38.0135 56.512 33.7368C56.512 29.7275 59.7195 26.2528 63.9961 26.2528C68.0054 26.2528 71.4802 29.7275 71.4802 33.7368Z" fill="#000037"/>
<path d="M90.5459 79.8468C93.4861 82.787 93.4861 87.5982 90.5459 90.5384C87.6057 93.4786 82.7945 93.4786 79.8543 90.5384C76.9142 87.5982 76.9142 82.787 79.8543 80.1141C82.7945 77.1739 87.6057 77.174 90.5459 79.8468Z" fill="#FFA078"/>
<path d="M47.8679 37.4388C50.8081 40.379 50.8081 45.1902 47.8679 47.8631C44.9277 50.8032 40.3838 50.8032 37.4436 47.8631C34.5034 44.9229 34.5034 40.1117 37.4436 37.4388C40.3838 34.4986 44.9277 34.4986 47.8679 37.4388Z" fill="#FFA078"/>
<path d="M93.9832 56.5045C97.9926 56.5045 101.467 59.712 101.467 63.9886C101.467 68.2652 98.2598 71.4727 93.9832 71.4727C89.9739 71.4727 86.4991 67.9979 86.4991 63.9886C86.4991 59.9793 89.9739 56.5045 93.9832 56.5045Z" fill="#000037"/>
<path d="M33.7417 56.5045C37.751 56.5045 41.2257 59.712 41.2257 63.9886C41.2257 68.2652 38.0183 71.4727 33.7417 71.4727C29.7323 71.4727 26.2576 67.9979 26.2576 63.9886C26.2576 59.712 29.7323 56.5045 33.7417 56.5045Z" fill="#000037"/>
<path d="M79.8543 37.4388C82.7945 34.4986 87.6057 34.4986 90.5459 37.4388C93.4861 40.379 93.4861 44.9229 90.5459 47.8631C87.6057 50.8032 82.7945 50.8032 79.8543 47.8631C76.9142 44.9229 76.9142 40.379 79.8543 37.4388Z" fill="#FFA078"/>
<path d="M37.4463 79.8468C40.3865 77.174 44.9304 77.174 47.8705 79.8468C50.8107 82.787 50.8107 87.5982 47.8705 90.2711C44.9304 93.4786 40.3865 93.4786 37.4463 90.5384C34.5061 87.5982 34.5061 82.787 37.4463 79.8468Z" fill="#FFA078"/>
<path d="M69.0799 15.8285C69.0799 18.5014 66.6743 20.907 64.0014 20.907C61.3285 20.907 58.9229 18.5014 58.9229 15.8285C58.9229 13.1556 61.0613 10.75 64.0014 10.75C66.9416 10.75 69.0799 13.1556 69.0799 15.8285Z" fill="#FFA078"/>
<path d="M69.0799 112.189C69.0799 114.862 66.6743 117 64.0014 117C61.3285 117 58.9229 114.862 58.9229 112.189C58.9229 109.516 61.0613 107.11 64.0014 107.11C66.9416 107.11 69.0799 109.249 69.0799 112.189Z" fill="#FFA078"/>
<path d="M15.8199 58.9315C18.4928 58.9315 20.8984 61.0698 20.8984 64.01C20.8984 66.6829 18.7601 69.0885 15.8199 69.0885C12.8798 69.0885 10.7415 66.6829 10.7415 64.01C10.7415 61.3371 12.8798 58.9315 15.8199 58.9315Z" fill="#FFA078"/>
<path d="M112.18 58.9315C114.853 58.9315 117.259 61.0698 117.259 64.01C117.259 66.6829 115.12 69.0885 112.18 69.0885C109.24 69.0885 107.102 66.6829 107.102 64.01C107.102 61.3371 109.24 58.9315 112.18 58.9315Z" fill="#FFA078"/>
<path d="M33.3274 26.3864C35.4657 28.2574 35.4657 31.4649 33.3274 33.6032C31.4563 35.4742 28.2489 35.4742 26.1106 33.6032C24.2395 31.7322 24.2395 28.5247 26.1106 26.3864C28.2489 24.5154 31.4563 24.5154 33.3274 26.3864Z" fill="#FFA078"/>
<path d="M101.622 94.4141C103.493 96.2851 103.493 99.4926 101.622 101.631C99.7513 103.502 96.5438 103.502 94.4055 101.631C92.5345 99.4926 92.5345 96.2851 94.4055 94.4141C96.2766 92.5431 99.484 92.5431 101.622 94.4141Z" fill="#FFA078"/>
<path d="M101.622 33.6032C99.7513 35.4742 96.5438 35.4742 94.4055 33.6032C92.5345 31.4649 92.5345 28.2574 94.4055 26.3864C96.2766 24.5154 99.484 24.5154 101.622 26.3864C103.493 28.2574 103.493 31.4649 101.622 33.6032Z" fill="#FFA078"/>
<path d="M33.3274 101.631C31.4563 103.502 28.2489 103.502 26.1106 101.631C24.2395 99.7599 24.2395 96.5524 26.1106 94.4141C27.9816 92.5431 31.1891 92.5431 33.3274 94.4141C35.4657 96.2851 35.4657 99.4926 33.3274 101.631Z" fill="#FFA078"/>
<path d="M100.853 42.0522C104.06 40.7158 107.535 42.3195 108.871 45.2597C109.94 48.4671 108.337 51.9419 105.396 53.2783C102.189 54.6148 98.7142 53.011 97.3778 50.0709C96.3086 46.8634 97.6451 43.3886 100.853 42.0522Z" fill="#000037"/>
<path d="M22.4674 74.5652C25.6749 73.2288 29.1496 74.8325 30.4861 77.7727C31.8225 80.9801 30.2188 84.4549 27.2786 85.7913C24.0712 86.8605 20.5964 85.5241 19.26 82.3166C17.9235 79.3764 19.5272 75.9017 22.4674 74.5652Z" fill="#000037"/>
<path d="M105.396 74.5652C108.604 75.9017 109.94 79.3764 108.604 82.5839C107.267 85.5241 103.793 86.8605 100.853 85.7913C97.6451 84.4549 96.3086 80.9801 97.6451 77.7727C98.7142 74.8325 102.189 73.2288 105.396 74.5652Z" fill="#000037"/>
<path d="M27.0113 42.0522C30.2188 43.3886 31.5552 46.8634 30.2188 50.0709C29.1496 53.011 25.6749 54.6148 22.4674 53.2783C19.5272 51.9419 17.9235 48.4671 19.26 45.527C20.5964 42.3195 24.0711 40.983 27.0113 42.0522Z" fill="#000037"/>
<path d="M85.8015 100.842C87.138 104.05 85.5342 107.525 82.594 108.861C79.3866 110.197 75.9118 108.594 74.5754 105.654C73.2389 102.446 74.8427 98.9714 77.7828 97.6349C80.9903 96.2985 84.4651 97.6349 85.8015 100.842Z" fill="#000037"/>
<path d="M53.2885 22.4573C54.6249 25.6647 53.0212 29.1395 50.081 30.4759C46.8736 31.8124 43.3988 30.2086 42.0624 27.2685C40.7259 24.061 42.3296 20.5862 45.2698 19.5171C48.4773 17.9133 51.952 19.5171 53.2885 22.4573Z" fill="#000037"/>
<path d="M53.2885 105.386C51.952 108.594 48.4773 109.93 45.2698 108.594C42.0624 107.257 40.7259 103.783 42.0624 100.575C43.3988 97.6349 46.8736 96.2985 50.081 97.3676C53.0212 98.7041 54.6249 102.179 53.2885 105.386Z" fill="#000037"/>
<path d="M85.8015 27.2685C84.4651 30.2086 80.9903 31.8124 77.7828 30.4759C74.8427 29.1395 73.2389 25.6647 74.5754 22.4573C75.9118 19.2498 79.3866 17.9133 82.594 19.2498C85.5342 20.5862 86.8707 24.061 85.8015 27.2685Z" fill="#000037"/>
</svg>
