<svg width="128" height="128" viewBox="0 0 128 128" fill="none" xmlns="http://www.w3.org/2000/svg">
<g opacity="0.6">
<path d="M83.3341 29.1431V100.344C83.3341 108.317 88.8292 112.75 94.6614 112.75C100.055 112.75 105.989 108.974 105.989 100.344V29.6825C105.989 22.3838 100.595 17.8158 94.6614 17.8158C88.728 17.8158 83.3341 22.8558 83.3341 29.1431Z" fill="#F8AB00"/>
<path d="M53.6671 65.2828V100.344C53.6671 108.317 59.1622 112.75 64.9944 112.75C70.3884 112.75 76.3218 108.974 76.3218 100.344V65.8222C76.3218 58.5234 70.9278 53.9554 64.9944 53.9554C59.061 53.9554 53.6671 58.9954 53.6671 65.2828Z" fill="#E37300"/>
<path d="M46.6548 101.423C46.6548 107.676 41.5811 112.75 35.3274 112.75C29.0738 112.75 24.0001 107.676 24.0001 101.423C24.0001 95.1691 29.0738 90.0954 35.3274 90.0954C41.5811 90.0954 46.6548 95.1691 46.6548 101.423Z" fill="#E37300"/>
<path d="M45.3542 15.25C44.7634 17.1685 44.7069 19.2117 45.1906 21.1599C45.6742 23.1081 46.6799 24.8875 48.0993 26.3069C49.5187 27.7263 51.2983 28.7321 53.2465 29.2158C55.1947 29.6995 57.238 29.6427 59.1564 29.052C58.5657 30.9705 58.5092 33.0137 58.9928 34.9619C59.4765 36.9101 60.4821 38.6897 61.9015 40.1091C63.3209 41.5285 65.1003 42.5342 67.0485 43.0178C68.9967 43.5015 71.0399 43.445 72.9584 42.8542C72.9584 48.3138 71.3395 53.6507 68.3063 58.1902C65.2731 62.7297 60.9619 66.2679 55.9179 68.3572C50.8739 70.4465 45.3236 70.9931 39.9689 69.928C34.6142 68.8629 29.6956 66.2338 25.8351 62.3733C21.9746 58.5128 19.3455 53.5942 18.2804 48.2395C17.2153 42.8848 17.7619 37.3345 19.8512 32.2905C21.9405 27.2465 25.4787 22.9353 30.0182 19.9021C34.5577 16.8689 39.8946 15.25 45.3542 15.25ZM42.5939 52.6562C40.3848 52.6562 38.5939 54.4471 38.5939 56.6562V56.6838C38.5939 58.893 40.3848 60.6838 42.5939 60.6838C44.803 60.6838 46.5939 58.8929 46.5939 56.6838V56.6562C46.5939 54.4471 44.803 52.6563 42.5939 52.6562ZM56.3957 48.5156C54.1865 48.5156 52.3957 50.3065 52.3957 52.5156V52.5432C52.3957 54.7524 54.1865 56.5432 56.3957 56.5432C58.6048 56.5432 60.3957 54.7523 60.3957 52.5432V52.5156C60.3957 50.3065 58.6048 48.5157 56.3957 48.5156ZM31.5519 44.375C29.3428 44.375 27.5519 46.1659 27.5519 48.375V48.4026C27.5519 50.6117 29.3428 52.4026 31.5519 52.4026C33.761 52.4025 35.5519 50.6117 35.5519 48.4026V48.375C35.5519 46.1659 33.761 44.375 31.5519 44.375ZM45.3542 38.8542C43.145 38.8542 41.3542 40.6451 41.3542 42.8542V42.8818C41.3542 45.091 43.145 46.8818 45.3542 46.8818C47.5633 46.8818 49.3542 45.0909 49.3542 42.8818V42.8542C49.3542 40.6451 47.5633 38.8543 45.3542 38.8542ZM35.6925 29.1929C33.4834 29.1929 31.6925 30.9837 31.6925 33.1929V33.2205C31.6925 35.4296 33.4834 37.2205 35.6925 37.2205C37.9016 37.2204 39.6925 35.4296 39.6925 33.2205V33.1929C39.6925 30.9838 37.9016 29.1929 35.6925 29.1929Z" fill="#B919E7"/>
</g>
</svg>
