<svg width="512" height="512" viewBox="0 0 512 512" fill="none" xmlns="http://www.w3.org/2000/svg">
<g opacity="0.6">
<path d="M333.336 116.572V401.374C333.336 433.266 355.316 450.999 378.645 450.999C400.221 450.999 423.955 435.896 423.955 401.374V118.73C423.955 89.5348 402.379 71.2627 378.645 71.2627C354.912 71.2627 333.336 91.4227 333.336 116.572Z" fill="#F8AB00"/>
<path d="M214.668 261.131V401.374C214.668 433.266 236.648 450.999 259.977 450.999C281.553 450.999 305.287 435.896 305.287 401.374V263.288C305.287 234.093 283.711 215.821 259.977 215.821C236.244 215.821 214.668 235.981 214.668 261.131Z" fill="#E37300"/>
<path d="M186.619 405.69C186.619 430.705 166.324 451 141.309 451C116.295 451 96 430.705 96 405.69C96 380.676 116.295 360.381 141.309 360.381C166.324 360.381 186.619 380.676 186.619 405.69Z" fill="#E37300"/>
</g>
<path opacity="0.6" fill-rule="evenodd" clip-rule="evenodd" d="M120.073 79.6086C138.23 67.4758 159.578 61 181.417 61C179.054 68.6739 178.828 76.8467 180.762 84.6395C182.697 92.4323 186.719 99.5503 192.397 105.228C198.075 110.906 205.193 114.928 212.986 116.863C220.778 118.798 228.951 118.571 236.625 116.208C234.262 123.882 234.036 132.055 235.971 139.848C237.905 147.641 241.928 154.759 247.605 160.436C253.283 166.114 260.401 170.136 268.194 172.071C275.987 174.006 284.16 173.78 291.833 171.417C291.833 193.255 285.358 214.603 273.225 232.761C261.092 250.919 243.847 265.071 223.671 273.428C203.495 281.786 181.294 283.972 159.876 279.712C138.457 275.451 118.782 264.935 103.34 249.493C87.8983 234.051 77.3821 214.377 73.1217 192.958C68.8612 171.539 71.0478 149.338 79.405 129.162C87.7622 108.986 101.915 91.7413 120.073 79.6086ZM158.77 132.771C158.77 123.935 151.606 116.771 142.77 116.771C133.933 116.771 126.77 123.935 126.77 132.771V132.882C126.77 141.719 133.933 148.882 142.77 148.882C151.606 148.882 158.77 141.719 158.77 132.882V132.771ZM225.582 194.062C234.419 194.062 241.582 201.226 241.582 210.062V210.173C241.582 219.01 234.419 226.173 225.582 226.173C216.745 226.173 209.582 219.01 209.582 210.173V210.062C209.582 201.226 216.745 194.062 225.582 194.062ZM181.416 155.417C190.253 155.417 197.416 162.58 197.416 171.417V171.528C197.416 180.364 190.253 187.528 181.416 187.528C172.579 187.528 165.416 180.364 165.416 171.528V171.417C165.416 162.58 172.579 155.417 181.416 155.417ZM170.375 210.625C179.212 210.625 186.375 217.788 186.375 226.625V226.736C186.375 235.572 179.212 242.736 170.375 242.736C161.538 242.736 154.375 235.572 154.375 226.736V226.625C154.375 217.788 161.538 210.625 170.375 210.625ZM126.207 177.5C135.044 177.5 142.207 184.663 142.207 193.5V193.611C142.207 202.447 135.044 209.611 126.207 209.611C117.37 209.611 110.207 202.447 110.207 193.611V193.5C110.207 184.663 117.37 177.5 126.207 177.5Z" fill="#B919E7"/>
</svg>
