<svg width="128" height="128" viewBox="0 0 128 128" fill="none" xmlns="http://www.w3.org/2000/svg">
<path d="M82.7812 26.8537V99.7911C82.7812 107.959 88.4104 112.5 94.3849 112.5C99.9105 112.5 105.989 108.632 105.989 99.7911V27.4062C105.989 19.9295 100.463 15.25 94.3849 15.25C88.3068 15.25 82.7812 20.4129 82.7812 26.8537Z" fill="#F8AB00"/>
<path d="M52.3906 63.8749V99.7911C52.3906 107.959 58.0198 112.5 63.9943 112.5C69.5199 112.5 75.598 108.632 75.598 99.7911V64.4275C75.598 56.9507 70.0724 52.2712 63.9943 52.2712C57.9162 52.2712 52.3906 57.4342 52.3906 63.8749Z" fill="#E37300"/>
<path d="M45.2074 100.896C45.2074 107.303 40.0099 112.5 33.6037 112.5C27.1975 112.5 22 107.303 22 100.896C22 94.4902 27.1975 89.2927 33.6037 89.2927C40.0099 89.2927 45.2074 94.4902 45.2074 100.896Z" fill="#E37300"/>
</svg>
