<svg width="512" height="512" viewBox="0 0 512 512" fill="none" xmlns="http://www.w3.org/2000/svg">
<path d="M331.125 107.415V399.164C331.125 431.834 353.642 450 377.54 450C399.642 450 423.954 434.528 423.954 399.164V109.625C423.954 79.7178 401.852 61 377.54 61C353.227 61 331.125 81.6518 331.125 107.415Z" fill="#F8AB00"/>
<path d="M209.562 255.5V399.164C209.562 431.834 232.079 450 255.977 450C278.079 450 302.392 434.528 302.392 399.164V257.71C302.392 227.803 280.29 209.085 255.977 209.085C231.665 209.085 209.562 229.737 209.562 255.5Z" fill="#E37300"/>
<path d="M180.829 403.586C180.829 429.21 160.04 450 134.415 450C108.79 450 88 429.21 88 403.586C88 377.961 108.79 357.171 134.415 357.171C160.04 357.171 180.829 377.961 180.829 403.586Z" fill="#E37300"/>
</svg>
