<svg width="512" height="512" viewBox="0 0 512 512" fill="none" xmlns="http://www.w3.org/2000/svg">
<path d="M256.002 61C297.376 61 337.056 77.4363 366.312 106.692C395.568 135.948 412.004 175.628 412.004 217.002C412.004 314.367 303.992 415.767 267.722 447.085C264.343 449.626 260.23 451 256.002 451C251.774 451 247.661 449.626 244.282 447.085C208.011 415.767 100 314.366 100 217.002C100 175.628 116.436 135.948 145.692 106.692C174.948 77.4364 214.628 61 256.002 61ZM256.003 158.501C223.694 158.501 197.502 184.693 197.502 217.002C197.502 249.311 223.694 275.502 256.003 275.502C288.312 275.502 314.504 249.311 314.504 217.002C314.504 184.693 288.312 158.501 256.003 158.501Z" fill="url(#paint0_linear_2575_12)"/>
<defs>
<linearGradient id="paint0_linear_2575_12" x1="256.002" y1="151.189" x2="256.002" y2="409.567" gradientUnits="userSpaceOnUse">
<stop stop-color="#9400D3"/>
<stop offset="1" stop-color="#3D2EB3"/>
</linearGradient>
</defs>
</svg>
