<svg width="128" height="128" viewBox="0 0 128 128" fill="none" xmlns="http://www.w3.org/2000/svg">
<path d="M64.0005 15.25C74.3441 15.25 84.2641 19.3591 91.5781 26.6731C98.8921 33.9871 103.001 43.907 103.001 54.2505C103.001 78.5916 75.9981 103.942 66.9304 111.771C66.0857 112.406 65.0574 112.75 64.0005 112.75C62.9436 112.75 61.9153 112.406 61.0706 111.771C52.0029 103.942 25 78.5916 25 54.2505C25 43.9069 29.1091 33.9871 36.4231 26.6731C43.7371 19.3591 53.6569 15.25 64.0005 15.25ZM64.0007 39.6252C55.9235 39.6253 49.3755 46.1732 49.3755 54.2505C49.3755 62.3277 55.9235 68.8755 64.0007 68.8755C72.078 68.8755 78.6259 62.3277 78.626 54.2505C78.626 46.1732 72.078 39.6252 64.0007 39.6252Z" fill="url(#paint0_linear_2683_559)"/>
<defs>
<linearGradient id="paint0_linear_2683_559" x1="64.0005" y1="37.7972" x2="64.0005" y2="102.392" gradientUnits="userSpaceOnUse">
<stop stop-color="#9400D3"/>
<stop offset="1" stop-color="#3D2EB3"/>
</linearGradient>
</defs>
</svg>
