<svg width="128" height="128" viewBox="0 0 128 128" fill="none" xmlns="http://www.w3.org/2000/svg">
<path d="M73.3754 114.026L54.4118 95.5342L95.1385 53.9447L114.772 73.1876L73.3754 114.026Z" fill="#8AB4F8"/>
<path d="M73.4561 32.2685L54.5608 12.976L13.2445 53.9013C7.91852 59.2272 7.91852 67.8617 13.2445 73.1938L53.9401 114.156L73.183 96.155L42.1771 63.5476L73.4561 32.2685Z" fill="#4285F4"/>
<path d="M114.499 54.2179L73.5306 13.2491C68.1984 7.91696 59.5516 7.91696 54.2194 13.2491C48.8873 18.5813 48.8873 27.2281 54.2194 32.5603L95.1882 73.529C100.52 78.8612 109.167 78.8612 114.499 73.529C119.831 68.1969 119.831 59.55 114.499 54.2179Z" fill="#8AB4F8"/>
<path d="M63.5615 118.502C70.9323 118.502 76.9074 112.526 76.9074 105.156C76.9074 97.785 70.9323 91.8098 63.5615 91.8098C56.1908 91.8098 50.2156 97.785 50.2156 105.156C50.2156 112.526 56.1908 118.502 63.5615 118.502Z" fill="#246FDB"/>
</svg>
