<svg width="512" height="512" viewBox="0 0 512 512" fill="none" xmlns="http://www.w3.org/2000/svg">
<g clip-path="url(#clip0_2565_12)">
<path d="M293.501 456.104L217.646 382.137L380.553 215.779L459.089 292.751L293.501 456.104Z" fill="#8AB4F8"/>
<path d="M293.824 129.075L218.243 51.9043L52.9778 215.605C31.6741 236.909 31.6741 271.447 52.9778 292.776L215.76 456.626L292.732 384.62L168.708 254.191L293.824 129.075Z" fill="#4285F4"/>
<path d="M457.997 216.871L294.122 52.9964C272.793 31.6679 238.206 31.6679 216.877 52.9964C195.549 74.325 195.549 108.913 216.877 130.241L380.752 294.116C402.081 315.445 436.668 315.445 457.997 294.116C479.326 272.788 479.326 238.2 457.997 216.871Z" fill="#8AB4F8"/>
<path d="M254.247 474.006C283.73 474.006 307.63 450.106 307.63 420.623C307.63 391.14 283.73 367.239 254.247 367.239C224.764 367.239 200.863 391.14 200.863 420.623C200.863 450.106 224.764 474.006 254.247 474.006Z" fill="#246FDB"/>
</g>
<defs>
<clipPath id="clip0_2565_12">
<rect width="437" height="437" fill="white" transform="translate(37 37)"/>
</clipPath>
</defs>
</svg>
