<svg width="512" height="512" viewBox="0 0 512 512" fill="none" xmlns="http://www.w3.org/2000/svg">
<path fill-rule="evenodd" clip-rule="evenodd" d="M347.998 138.106C347.086 114.166 336.941 91.5106 319.694 74.8961C302.447 58.2815 279.438 49 255.499 49C231.56 49 208.552 58.2815 191.304 74.8961C174.057 91.5106 163.913 114.166 163 138.106C162.967 162.042 172.371 185.025 189.169 202.064L170.165 462H345.745L326.101 197.486C340.351 181.003 348.132 159.901 347.998 138.106ZM272.99 389.122H242.718V269.354L272.99 238.856V389.122ZM255.499 159.01C251.089 159.003 246.781 157.686 243.12 155.226C239.459 152.766 236.611 149.273 234.936 145.191C233.26 141.109 232.834 136.621 233.711 132.296C234.588 127.971 236.728 124.004 239.86 120.897C242.992 117.791 246.976 115.685 251.305 114.847C255.635 114.009 260.115 114.477 264.179 116.19C268.243 117.904 271.707 120.786 274.132 124.472C276.556 128.158 277.833 132.481 277.8 136.894C277.764 142.784 275.397 148.419 271.217 152.565C267.036 156.71 261.384 159.028 255.499 159.01Z" fill="#1CC691"/>
</svg>
