<svg width="128" height="128" viewBox="0 0 128 128" fill="none" xmlns="http://www.w3.org/2000/svg">
<path fill-rule="evenodd" clip-rule="evenodd" d="M86.9996 34.5265C86.7714 28.5415 84.2353 22.8777 79.9235 18.724C75.6117 14.5704 69.8596 12.25 63.8748 12.25C57.89 12.25 52.1379 14.5704 47.8261 18.724C43.5143 22.8777 40.9781 28.5415 40.75 34.5265C40.7418 40.5105 43.0927 46.2562 47.2922 50.5159L42.5411 115.5H86.4362L81.5253 49.3714C85.0877 45.2507 87.033 39.9753 86.9996 34.5265ZM68.2475 97.2805H60.6794V67.3384L68.2475 59.714V97.2805ZM63.8748 39.7525C62.7724 39.7508 61.6953 39.4216 60.78 38.8065C59.8648 38.1915 59.1527 37.3184 58.7339 36.2978C58.3151 35.2772 58.2086 34.1552 58.4277 33.0739C58.6469 31.9927 59.1819 31.0009 59.965 30.2243C60.7481 29.4478 61.7439 28.9214 62.8263 28.7118C63.9086 28.5023 65.0288 28.6192 66.0447 29.0475C67.0607 29.4759 67.9267 30.1965 68.5329 31.118C69.1391 32.0395 69.4583 33.1203 69.45 34.2236C69.4411 35.696 68.8492 37.1047 67.8042 38.1411C66.7591 39.1775 65.3461 39.757 63.8748 39.7525Z" fill="#1CC691"/>
</svg>
