<svg width="128" height="128" viewBox="0 0 128 128" fill="none" xmlns="http://www.w3.org/2000/svg">
<path d="M30.0954 72.8961C30.0954 87.6725 42.0786 99.6556 56.855 99.6556C71.6315 99.6556 83.6146 87.6725 83.6146 72.8961C83.6146 58.1196 71.6315 46.1365 56.855 46.1365C42.0786 46.1365 30.0954 58.1196 30.0954 72.8961ZM44.6899 72.8961C44.6899 66.1812 50.1401 60.731 56.855 60.731C63.57 60.731 69.0201 66.1812 69.0201 72.8961C69.0201 79.611 63.57 85.0611 56.855 85.0611C50.1401 85.0611 44.6899 79.611 44.6899 72.8961Z" fill="#FE2020"/>
<path d="M56.8541 31.5421V46.1365C42.0776 46.1365 30.0945 58.1196 30.0945 72.896C30.0945 87.6725 42.0776 99.6555 56.8541 99.6555C71.6306 99.6555 83.6137 87.6725 83.6137 72.896H98.2082C98.2082 95.734 79.6921 114.25 56.8541 114.25C34.0161 114.25 15.5 95.734 15.5 72.896C15.5 50.0581 34.0161 31.5421 56.8541 31.5421Z" fill="#2EE5AC"/>
<path d="M56.8534 31.5424V19.4411C56.8534 18.0581 58.0089 16.9389 59.392 17.0026C88.2716 18.2946 111.455 41.4783 112.747 70.3578C112.811 71.7409 111.692 72.8964 110.309 72.8964H98.2075C98.2075 50.0585 79.6914 31.5424 56.8534 31.5424Z" fill="#2EE5AC"/>
<path d="M56.8534 46.1365V31.5421C79.6914 31.5421 98.2075 50.0581 98.2075 72.896H83.613C83.613 58.1196 71.6299 46.1365 56.8534 46.1365Z" fill="#6464FF"/>
<path d="M56.856 85.0612C63.5709 85.0612 69.0211 79.611 69.0211 72.8961C69.0211 66.1812 63.5709 60.731 56.856 60.731C50.141 60.731 44.6908 66.1812 44.6908 72.8961C44.6908 79.611 50.141 85.0612 56.856 85.0612Z" fill="#0A0A0A"/>
</svg>
