<svg width="512" height="512" viewBox="0 0 512 512" fill="none" xmlns="http://www.w3.org/2000/svg">
<path fill-rule="evenodd" clip-rule="evenodd" d="M105.222 451H407.778C431.649 451 451 431.649 451 407.778V105.222C451 81.3512 431.649 62 407.778 62H105.222C81.3512 62 62 81.3512 62 105.222V407.778C62 431.649 81.3512 451 105.222 451Z" fill="#007EBB"/>
<path fill-rule="evenodd" clip-rule="evenodd" d="M396.972 396.972H339.246V298.653C339.246 271.696 329.004 256.632 307.668 256.632C284.457 256.632 272.33 272.309 272.33 298.653V396.972H216.699V209.675H272.33V234.904C272.33 234.904 289.057 203.953 328.803 203.953C368.53 203.953 396.972 228.213 396.972 278.387V396.972ZM150.331 185.151C131.382 185.151 116.027 169.675 116.027 150.589C116.027 131.503 131.382 116.027 150.331 116.027C169.281 116.027 184.626 131.503 184.626 150.589C184.626 169.675 169.281 185.151 150.331 185.151ZM121.606 396.972H179.615V209.675H121.606V396.972Z" fill="white"/>
</svg>
