<svg width="128" height="128" viewBox="0 0 128 128" fill="none" xmlns="http://www.w3.org/2000/svg">
<path fill-rule="evenodd" clip-rule="evenodd" d="M26.3056 112.75H101.944C107.912 112.75 112.75 107.912 112.75 101.944V26.3056C112.75 20.3378 107.912 15.5 101.944 15.5H26.3056C20.3378 15.5 15.5 20.3378 15.5 26.3056V101.944C15.5 107.912 20.3378 112.75 26.3056 112.75Z" fill="#007EBB"/>
<path fill-rule="evenodd" clip-rule="evenodd" d="M99.243 99.243H84.8116V74.6632C84.8116 67.9241 82.2509 64.158 76.9169 64.158C71.1142 64.158 68.0825 68.0772 68.0825 74.6632V99.243H54.1748V52.4189H68.0825V58.7261C68.0825 58.7261 72.2642 50.9883 82.2006 50.9883C92.1325 50.9883 99.243 57.0533 99.243 69.5968V99.243ZM37.5829 46.2876C32.8456 46.2876 29.0068 42.4188 29.0068 37.6472C29.0068 32.8757 32.8456 29.0068 37.5829 29.0068C42.3201 29.0068 46.1566 32.8757 46.1566 37.6472C46.1566 42.4188 42.3201 46.2876 37.5829 46.2876ZM30.4015 99.243H44.9037V52.4189H30.4015V99.243Z" fill="white"/>
</svg>
