<svg width="512" height="512" viewBox="0 0 512 512" fill="none" xmlns="http://www.w3.org/2000/svg">
<path d="M164.703 114C164.566 114 164.429 114 164.292 114.001L163.73 160.408C163.859 160.407 163.987 160.406 164.116 160.406C194.644 160.406 218.324 184.49 269.791 271.231L272.928 276.512L273.133 276.858L301.944 233.605L301.745 233.271C294.964 222.237 288.451 212.085 282.203 202.815C274.959 192.074 268.03 182.479 261.306 173.913C227.259 130.537 198.778 114 164.703 114Z" fill="url(#paint0_linear_2221_73)"/>
<path d="M164.287 114.001C130.047 114.177 99.7766 136.331 77.9185 170.231C77.8544 170.33 77.7903 170.429 77.7266 170.529L117.849 192.38C117.915 192.281 117.98 192.182 118.045 192.084C130.809 172.855 146.693 160.591 163.726 160.408C163.854 160.407 163.983 160.406 164.111 160.406L164.698 114C164.561 114 164.424 114 164.287 114.001Z" fill="url(#paint1_linear_2221_73)"/>
<path d="M77.9168 170.259C77.853 170.358 77.7889 170.457 77.7249 170.557C63.3617 192.928 52.6545 220.381 46.8679 249.997C46.8428 250.125 46.8179 250.253 46.793 250.382L91.8694 261.024C91.8931 260.895 91.9168 260.767 91.9405 260.638C96.7587 234.61 105.932 210.471 117.848 192.408C117.913 192.309 117.978 192.21 118.044 192.112L77.9168 170.259Z" fill="url(#paint2_linear_2221_73)"/>
<path d="M91.9423 260.652L46.8695 250.011C46.8445 250.139 46.8195 250.267 46.7946 250.396C43.6393 266.683 42.034 283.233 42.0003 299.824C42.0001 299.958 42 300.093 42 300.226L88.2279 304.365C88.2242 304.23 88.2203 304.097 88.2172 303.962C88.1943 302.999 88.1827 302.024 88.1824 301.036C88.2056 287.619 89.4401 274.232 91.8712 261.038C91.8946 260.909 91.9183 260.781 91.9423 260.652Z" fill="url(#paint3_linear_2221_73)"/>
<path d="M89.6337 318.732C88.8045 313.964 88.3346 309.14 88.2279 304.301C88.2242 304.167 88.2203 304.034 88.2172 303.898L42.0003 299.761C42.0001 299.895 42 300.029 42 300.163C42 310.489 42.8606 320.182 44.5331 329.114C44.5573 329.243 44.5811 329.369 44.6056 329.498L89.7037 319.118C89.68 318.99 89.6568 318.861 89.6337 318.732Z" fill="url(#paint4_linear_2221_73)"/>
<path d="M100.164 342.729C95.1336 337.235 91.5736 329.31 89.7019 319.175C89.6781 319.047 89.6553 318.918 89.6321 318.789L44.5312 329.17C44.5554 329.3 44.5792 329.426 44.6038 329.556C48.0126 347.463 54.6981 362.388 64.2721 373.679C64.3573 373.779 64.4427 373.88 64.5284 373.98L100.433 343.018C100.343 342.922 100.253 342.826 100.164 342.729Z" fill="url(#paint5_linear_2221_73)"/>
<path d="M233.782 214.326C206.604 256.036 190.14 282.198 190.14 282.198C153.937 338.981 141.412 351.708 121.256 351.708C112.845 351.708 105.819 348.712 100.436 342.984C100.346 342.888 100.256 342.791 100.167 342.695L64.2754 373.645C64.3605 373.745 64.4459 373.845 64.5317 373.945C77.7512 389.364 96.4108 397.919 119.495 397.919C154.419 397.919 179.538 381.444 224.191 303.345C224.191 303.345 242.805 270.455 255.61 247.799C247.678 234.985 240.459 223.891 233.782 214.326Z" fill="#0082FB"/>
<path d="M282.221 148.525C282.13 148.623 282.036 148.722 281.945 148.82C274.808 156.428 267.958 164.925 261.295 173.939C268.019 182.506 274.96 192.12 282.206 202.861C290.745 189.673 298.715 178.993 306.528 170.807C306.62 170.71 306.711 170.616 306.804 170.519L282.221 148.525Z" fill="url(#paint6_linear_2221_73)"/>
<path d="M414.167 144.401C395.212 125.242 372.614 114 348.455 114C322.978 114 301.55 127.968 282.222 148.49C282.13 148.587 282.037 148.686 281.945 148.784L306.528 170.771C306.621 170.674 306.712 170.58 306.804 170.484C319.537 157.232 331.86 150.615 345.52 150.615C360.224 150.615 373.986 157.541 385.904 169.681C385.997 169.776 386.091 169.87 386.184 169.966L414.449 144.686C414.356 144.591 414.26 144.496 414.167 144.401Z" fill="#0082FB"/>
<path d="M468.963 293.663C467.902 232.146 446.387 177.151 414.453 144.674C414.357 144.578 414.264 144.484 414.168 144.389L385.908 169.668C386.001 169.763 386.094 169.858 386.188 169.954C410.211 194.646 426.69 240.573 428.189 293.649C428.192 293.783 428.195 293.916 428.2 294.05L468.968 294.063C468.968 293.93 468.966 293.796 468.963 293.663Z" fill="url(#paint7_linear_2221_73)"/>
<path d="M468.967 294.107C468.967 293.974 468.964 293.84 468.961 293.706L428.188 293.693C428.191 293.827 428.193 293.96 428.199 294.094C428.264 296.585 428.298 299.092 428.298 301.613C428.298 316.084 426.139 327.782 421.744 336.227C421.68 336.352 421.612 336.478 421.547 336.602L451.946 368.237C452.022 368.122 452.095 368.008 452.172 367.893C463.207 350.854 469.001 327.184 469.001 298.48C469.001 297.019 468.99 295.561 468.967 294.107Z" fill="url(#paint8_linear_2221_73)"/>
<path d="M421.745 336.162C421.681 336.287 421.613 336.413 421.548 336.537C417.746 343.656 412.319 348.404 405.227 350.48L419.084 394.181C420.919 393.558 422.705 392.857 424.444 392.081C424.963 391.85 425.479 391.612 425.99 391.367C426.284 391.226 426.577 391.082 426.868 390.937C436.032 386.367 443.776 379.627 450.039 370.943C450.423 370.413 450.801 369.878 451.171 369.333C451.433 368.95 451.693 368.563 451.947 368.172C452.023 368.057 452.096 367.943 452.173 367.828L421.745 336.162Z" fill="url(#paint9_linear_2221_73)"/>
<path d="M396.395 351.665C391.75 351.665 387.649 350.973 383.636 349.179L369.445 393.92C377.421 396.646 385.93 397.874 395.419 397.874C404.16 397.874 412.183 396.566 419.459 394.043L405.605 350.357C402.619 351.252 399.514 351.693 396.395 351.665Z" fill="url(#paint10_linear_2221_73)"/>
<path d="M368.004 336.411C367.917 336.31 367.829 336.209 367.739 336.106L335.088 370.084C335.181 370.182 335.271 370.279 335.362 370.376C346.707 382.474 357.542 389.978 369.828 394.097L384.007 349.389C378.831 347.164 373.821 343.13 368.004 336.411Z" fill="url(#paint11_linear_2221_73)"/>
<path d="M367.739 336.074C357.946 324.678 345.83 305.704 326.774 275.022L301.938 233.578L301.738 233.244L272.922 276.485L273.127 276.831L290.724 306.451C307.782 335.011 321.678 355.673 335.088 370.051C335.181 370.149 335.272 370.246 335.362 370.344L368.002 336.378C367.914 336.278 367.827 336.176 367.739 336.074Z" fill="url(#paint12_linear_2221_73)"/>
<defs>
<linearGradient id="paint0_linear_2221_73" x1="282.794" y1="259.268" x2="187.072" y2="133.911" gradientUnits="userSpaceOnUse">
<stop offset="0.0006" stop-color="#0867DF"/>
<stop offset="0.4539" stop-color="#0668E1"/>
<stop offset="0.8591" stop-color="#0064E0"/>
</linearGradient>
<linearGradient id="paint1_linear_2221_73" x1="96.573" y1="178.029" x2="162.176" y2="128.252" gradientUnits="userSpaceOnUse">
<stop offset="0.1323" stop-color="#0064DF"/>
<stop offset="0.9988" stop-color="#0064E0"/>
</linearGradient>
<linearGradient id="paint2_linear_2221_73" x1="68.7765" y1="251.155" x2="95.1074" y2="184.91" gradientUnits="userSpaceOnUse">
<stop offset="0.0147" stop-color="#0072EC"/>
<stop offset="0.6881" stop-color="#0064DF"/>
</linearGradient>
<linearGradient id="paint3_linear_2221_73" x1="65.206" y1="299.032" x2="68.2531" y2="258.569" gradientUnits="userSpaceOnUse">
<stop offset="0.0731" stop-color="#007CF6"/>
<stop offset="0.9943" stop-color="#0072EC"/>
</linearGradient>
<linearGradient id="paint4_linear_2221_73" x1="66.8798" y1="320.949" x2="64.7002" y2="304.737" gradientUnits="userSpaceOnUse">
<stop offset="0.0731" stop-color="#007FF9"/>
<stop offset="1" stop-color="#007CF6"/>
</linearGradient>
<linearGradient id="paint5_linear_2221_73" x1="65.6" y1="325.264" x2="79.1809" y2="354.052" gradientUnits="userSpaceOnUse">
<stop offset="0.0731" stop-color="#007FF9"/>
<stop offset="1" stop-color="#0082FB"/>
</linearGradient>
<linearGradient id="paint6_linear_2221_73" x1="274.142" y1="185.94" x2="292.093" y2="161.127" gradientUnits="userSpaceOnUse">
<stop offset="0.2799" stop-color="#007FF8"/>
<stop offset="0.9141" stop-color="#0082FB"/>
</linearGradient>
<linearGradient id="paint7_linear_2221_73" x1="410.524" y1="153.721" x2="448.089" y2="291.829" gradientUnits="userSpaceOnUse">
<stop stop-color="#0082FB"/>
<stop offset="0.9995" stop-color="#0081FA"/>
</linearGradient>
<linearGradient id="paint8_linear_2221_73" x1="457.111" y1="297.168" x2="433.339" y2="345.175" gradientUnits="userSpaceOnUse">
<stop offset="0.0619" stop-color="#0081FA"/>
<stop offset="1" stop-color="#0080F9"/>
</linearGradient>
<linearGradient id="paint9_linear_2221_73" x1="414.487" y1="370.579" x2="436.695" y2="355.462" gradientUnits="userSpaceOnUse">
<stop stop-color="#027AF3"/>
<stop offset="1" stop-color="#0080F9"/>
</linearGradient>
<linearGradient id="paint10_linear_2221_73" x1="379.665" y1="373.527" x2="410.513" y2="373.527" gradientUnits="userSpaceOnUse">
<stop stop-color="#0377EF"/>
<stop offset="0.9994" stop-color="#0279F1"/>
</linearGradient>
<linearGradient id="paint11_linear_2221_73" x1="352.846" y1="356.576" x2="375.03" y2="369.62" gradientUnits="userSpaceOnUse">
<stop offset="0.0019" stop-color="#0471E9"/>
<stop offset="1" stop-color="#0377EF"/>
</linearGradient>
<linearGradient id="paint12_linear_2221_73" x1="285.195" y1="260.278" x2="356.288" y2="349.613" gradientUnits="userSpaceOnUse">
<stop offset="0.2765" stop-color="#0867DF"/>
<stop offset="1" stop-color="#0471E9"/>
</linearGradient>
</defs>
</svg>
