<svg width="128" height="128" viewBox="0 0 128 128" fill="none" xmlns="http://www.w3.org/2000/svg">
<path d="M41.1756 28.5C41.1413 28.5 41.1071 28.5001 41.0728 28.5003L40.9325 40.1021C40.9646 40.1017 40.9967 40.1014 41.0289 40.1014C48.6608 40.1014 54.5808 46.1224 67.4475 67.8078L68.2832 69.2144L75.4859 58.4012L75.4361 58.3177C73.741 55.5592 72.1125 53.0212 70.5507 50.7038C68.7395 48.0186 67.0073 45.6198 65.3264 43.4782C56.8145 32.6343 49.6943 28.5 41.1756 28.5Z" fill="url(#paint0_linear_2683_574)"/>
<path d="M41.0717 28.5003C32.5116 28.5444 24.944 34.0828 19.4795 42.5577C19.4634 42.5825 19.4474 42.6074 19.4315 42.6323L29.4622 48.095C29.4785 48.0703 29.4948 48.0456 29.5112 48.0209C32.7021 43.2138 36.6732 40.1477 40.9313 40.1021C40.9634 40.1017 40.9955 40.1014 41.0277 40.1014L41.1745 28.5C41.1401 28.5 41.1059 28.5001 41.0717 28.5003Z" fill="url(#paint1_linear_2683_574)"/>
<path d="M19.4792 42.5646C19.4632 42.5894 19.4472 42.6142 19.4312 42.6391C15.8404 48.232 13.1636 55.0951 11.717 62.4991C11.7107 62.5312 11.7045 62.5632 11.6982 62.5954L22.9673 65.2558C22.9733 65.2237 22.9792 65.1915 22.9851 65.1594C24.1897 58.6525 26.4829 52.6176 29.4619 48.1019C29.4782 48.0771 29.4945 48.0524 29.5109 48.0278L19.4792 42.5646Z" fill="url(#paint2_linear_2683_574)"/>
<path d="M22.9856 65.1631L11.7174 62.5028C11.7111 62.5348 11.7049 62.567 11.6986 62.599C10.9098 66.671 10.5085 70.8085 10.5001 74.9562C10.5 74.9897 10.5 75.0232 10.5 75.0567L22.057 76.0912C22.0561 76.0576 22.0551 76.0243 22.0543 75.9906C22.0486 75.75 22.0457 75.5062 22.0456 75.2591C22.0514 71.9049 22.36 68.5581 22.9678 65.2595C22.9737 65.2274 22.9796 65.1953 22.9856 65.1631Z" fill="url(#paint3_linear_2683_574)"/>
<path d="M22.4084 79.683C22.2011 78.4909 22.0836 77.2849 22.057 76.0752C22.0561 76.0416 22.0551 76.0084 22.0543 75.9745L10.5001 74.9401C10.5 74.9737 10.5 75.0072 10.5 75.0407C10.5 77.6221 10.7151 80.0456 11.1333 82.2784C11.1393 82.3106 11.1453 82.3423 11.1514 82.3746L22.4259 79.7795C22.42 79.7475 22.4142 79.7152 22.4084 79.683Z" fill="url(#paint4_linear_2683_574)"/>
<path d="M25.0408 85.6823C23.7833 84.3088 22.8933 82.3276 22.4254 79.7939C22.4194 79.7618 22.4137 79.7296 22.4079 79.6973L11.1327 82.2926C11.1387 82.325 11.1447 82.3567 11.1508 82.3889C12.003 86.8659 13.6744 90.5971 16.0679 93.4198C16.0892 93.4449 16.1106 93.4699 16.132 93.495L25.1081 85.7546C25.0856 85.7307 25.0631 85.7065 25.0408 85.6823Z" fill="url(#paint5_linear_2683_574)"/>
<path d="M58.4453 53.5816C51.6509 64.0092 47.5348 70.5495 47.5348 70.5495C38.484 84.7454 35.3529 87.9271 30.3138 87.9271C28.2111 87.9271 26.4545 87.178 25.1088 85.746C25.0864 85.7222 25.0638 85.6979 25.0416 85.6737L16.0686 93.4112C16.0899 93.4363 16.1113 93.4614 16.1327 93.4864C19.4376 97.341 24.1025 99.4799 29.8735 99.4799C38.6047 99.4799 44.8842 95.361 56.0474 75.8362C56.0474 75.8362 60.701 67.6138 63.9023 61.9498C61.9193 58.7463 60.1146 55.9729 58.4453 53.5816Z" fill="#0082FB"/>
<path d="M70.5556 37.1314C70.5326 37.1557 70.5093 37.1806 70.4864 37.205C68.7022 39.1071 66.9898 41.2312 65.324 43.4849C67.005 45.6266 68.7403 48.0301 70.5516 50.7152C72.6864 47.4184 74.6791 44.7483 76.6321 42.7018C76.6553 42.6775 76.678 42.654 76.7011 42.6298L70.5556 37.1314Z" fill="url(#paint6_linear_2683_574)"/>
<path d="M103.542 36.1003C98.8031 31.3105 93.1535 28.5 87.1138 28.5C80.7446 28.5 75.3875 31.9921 70.5555 37.1225C70.5325 37.1468 70.5092 37.1716 70.4863 37.196L76.6321 42.6928C76.6552 42.6686 76.6779 42.645 76.7011 42.6209C79.8842 39.308 82.965 37.6539 86.38 37.6539C90.0561 37.6539 93.4964 39.3851 96.4761 42.4202C96.4994 42.444 96.5227 42.4676 96.5459 42.4915L103.612 36.1716C103.589 36.1477 103.565 36.1241 103.542 36.1003Z" fill="#0082FB"/>
<path d="M117.241 73.4158C116.975 58.0366 111.597 44.2878 103.613 36.1686C103.589 36.1447 103.566 36.1211 103.542 36.0973L96.4769 42.4172C96.5002 42.441 96.5235 42.4646 96.5468 42.4885C102.553 48.6615 106.672 60.1434 107.047 73.4124C107.048 73.4458 107.049 73.4792 107.05 73.5126L117.242 73.5159C117.242 73.4825 117.241 73.4491 117.241 73.4158Z" fill="url(#paint7_linear_2683_574)"/>
<path d="M117.242 73.5269C117.242 73.4935 117.241 73.4601 117.24 73.4266L107.047 73.4234C107.048 73.4568 107.048 73.4902 107.05 73.5236C107.066 74.1464 107.074 74.7729 107.074 75.4032C107.074 79.021 106.535 81.9455 105.436 84.0568C105.42 84.0882 105.403 84.1196 105.387 84.1505L112.986 92.0594C113.006 92.0306 113.024 92.0021 113.043 91.9732C115.802 87.7135 117.25 81.7959 117.25 74.62C117.25 74.2547 117.247 73.8903 117.242 73.5269Z" fill="url(#paint8_linear_2683_574)"/>
<path d="M105.436 84.0406C105.42 84.0719 105.403 84.1033 105.387 84.1343C104.437 85.914 103.08 87.101 101.307 87.6201L104.771 98.5454C105.23 98.3895 105.676 98.2145 106.111 98.0203C106.241 97.9625 106.37 97.903 106.498 97.8418C106.571 97.8065 106.644 97.7707 106.717 97.7344C109.008 96.5919 110.944 94.9069 112.51 92.7359C112.606 92.6033 112.7 92.4696 112.793 92.3335C112.858 92.2375 112.923 92.1408 112.987 92.0431C113.006 92.0144 113.024 91.9858 113.043 91.957L105.436 84.0406Z" fill="url(#paint9_linear_2683_574)"/>
<path d="M99.0986 87.9161C97.9372 87.9161 96.912 87.7431 95.9087 87.2946L92.3611 98.4799C94.355 99.1613 96.4823 99.4684 98.8545 99.4684C101.04 99.4684 103.046 99.1415 104.865 98.5106L101.401 87.5891C100.654 87.8129 99.8783 87.9231 99.0986 87.9161Z" fill="url(#paint10_linear_2683_574)"/>
<path d="M92.0011 84.1027C91.9792 84.0775 91.9573 84.0522 91.9348 84.0266L83.772 92.5209C83.7952 92.5454 83.8178 92.5697 83.8404 92.594C86.6768 95.6184 89.3855 97.4945 92.4569 98.5242L96.0017 87.3471C94.7077 86.7909 93.4553 85.7825 92.0011 84.1027Z" fill="url(#paint11_linear_2683_574)"/>
<path d="M91.9351 84.0186C89.4868 81.1696 86.4577 76.4261 81.6937 68.7556L75.4847 58.3947L75.4348 58.3112L68.2307 69.1214L72.6813 76.6128C76.9457 83.753 80.4199 88.9185 83.7723 92.5129C83.7956 92.5374 83.8182 92.5617 83.8408 92.586L92.0007 84.0947C91.9789 84.0696 91.957 84.0442 91.9351 84.0186Z" fill="url(#paint12_linear_2683_574)"/>
<defs>
<linearGradient id="paint0_linear_2683_574" x1="102.459" y1="91.8136" x2="71.0264" y2="18.8657" gradientUnits="userSpaceOnUse">
<stop offset="0.0006" stop-color="#0867DF"/>
<stop offset="0.4539" stop-color="#0668E1"/>
<stop offset="0.8591" stop-color="#0064E0"/>
</linearGradient>
<linearGradient id="paint1_linear_2683_574" x1="33.6323" y1="86.4834" x2="95.296" y2="23.0685" gradientUnits="userSpaceOnUse">
<stop offset="0.1323" stop-color="#0064DF"/>
<stop offset="0.9988" stop-color="#0064E0"/>
</linearGradient>
<linearGradient id="paint2_linear_2683_574" x1="43.4365" y1="91.7624" x2="55.3687" y2="34.2487" gradientUnits="userSpaceOnUse">
<stop offset="0.0147" stop-color="#0072EC"/>
<stop offset="0.6881" stop-color="#0064DF"/>
</linearGradient>
<linearGradient id="paint3_linear_2683_574" x1="60.1021" y1="92.5168" x2="62.5418" y2="39.4885" gradientUnits="userSpaceOnUse">
<stop offset="0.0731" stop-color="#007CF6"/>
<stop offset="0.9943" stop-color="#0072EC"/>
</linearGradient>
<linearGradient id="paint4_linear_2683_574" x1="66.1756" y1="79.0723" x2="60.64" y2="40.4722" gradientUnits="userSpaceOnUse">
<stop offset="0.0731" stop-color="#007FF9"/>
<stop offset="1" stop-color="#007CF6"/>
</linearGradient>
<linearGradient id="paint5_linear_2683_574" x1="50.7331" y1="36.8273" x2="63.7955" y2="77.941" gradientUnits="userSpaceOnUse">
<stop offset="0.0731" stop-color="#007FF9"/>
<stop offset="1" stop-color="#0082FB"/>
</linearGradient>
<linearGradient id="paint6_linear_2683_574" x1="40.6349" y1="77.3759" x2="57.7508" y2="34.893" gradientUnits="userSpaceOnUse">
<stop offset="0.2799" stop-color="#007FF8"/>
<stop offset="0.9141" stop-color="#0082FB"/>
</linearGradient>
<linearGradient id="paint7_linear_2683_574" x1="42.137" y1="32.9255" x2="49.1262" y2="102.564" gradientUnits="userSpaceOnUse">
<stop stop-color="#0082FB"/>
<stop offset="0.9995" stop-color="#0081FA"/>
</linearGradient>
<linearGradient id="paint8_linear_2683_574" x1="90.5024" y1="31.8082" x2="79.0744" y2="86.3333" gradientUnits="userSpaceOnUse">
<stop offset="0.0619" stop-color="#0081FA"/>
<stop offset="1" stop-color="#0080F9"/>
</linearGradient>
<linearGradient id="paint9_linear_2683_574" x1="31.5561" y1="70.6051" x2="59.9705" y2="34.6555" gradientUnits="userSpaceOnUse">
<stop stop-color="#027AF3"/>
<stop offset="1" stop-color="#0080F9"/>
</linearGradient>
<linearGradient id="paint10_linear_2683_574" x1="32.3127" y1="63.9906" x2="98.1543" y2="63.9906" gradientUnits="userSpaceOnUse">
<stop stop-color="#0377EF"/>
<stop offset="0.9994" stop-color="#0279F1"/>
</linearGradient>
<linearGradient id="paint11_linear_2683_574" x1="49.2511" y1="53.5548" x2="80.2892" y2="86.0921" gradientUnits="userSpaceOnUse">
<stop offset="0.0019" stop-color="#0471E9"/>
<stop offset="1" stop-color="#0377EF"/>
</linearGradient>
<linearGradient id="paint12_linear_2683_574" x1="71.2989" y1="65.0697" x2="89.0723" y2="87.4035" gradientUnits="userSpaceOnUse">
<stop offset="0.2765" stop-color="#0867DF"/>
<stop offset="1" stop-color="#0471E9"/>
</linearGradient>
</defs>
</svg>
