<svg width="128" height="128" viewBox="0 0 128 128" fill="none" xmlns="http://www.w3.org/2000/svg">
<path d="M110.75 17.25H17.25V110.75H110.75V17.25Z" fill="#55A05E"/>
<path d="M42.1584 68.1826C42.1584 76.3108 45.8953 81.285 51.5894 81.285C57.2836 81.285 60.8491 76.3108 60.8491 68.1826C60.8491 59.4715 57.3179 55.0115 51.5894 55.0115C45.861 55.0115 42.1584 59.4715 42.1584 68.1826ZM68.7373 68.1826C68.7373 78.6764 61.1576 86.0161 51.5209 86.0161C41.8841 86.0161 34.2701 78.6764 34.2701 68.1826C34.2701 57.6887 41.987 50.349 51.5209 50.349C61.0547 50.349 68.7373 57.6887 68.7373 68.1826Z" fill="white"/>
<path d="M84.8505 77.7663C84.8505 80.0352 85.6702 80.8549 87.9298 80.8549L93.7299 80.8892V85.4146H85.4707C80.6711 85.4146 77.9253 82.6751 77.9253 77.8754V61.5223H77.919V55.9715H71.0374V51.9759C71.4956 51.9759 71.346 51.9697 71.9724 51.9541C73.0882 51.9385 73.9297 51.9073 74.5094 51.8606C75.9493 51.7827 76.9092 51.5053 77.3892 51.0253C77.8598 50.5547 78.1777 49.5698 78.3491 48.0832C78.4738 47.2635 78.5673 46.2412 78.6265 45.0195C78.6889 43.804 78.72 42.1833 78.72 41.9839H84.8505V51.1406H93.7299V55.9746H84.8505V77.7694V77.7663Z" fill="white"/>
</svg>
