<svg width="512" height="512" viewBox="0 0 512 512" fill="none" xmlns="http://www.w3.org/2000/svg">
<path d="M443 69H69V443H443V69Z" fill="#55A05E"/>
<path d="M168.634 272.73C168.634 305.243 183.581 325.14 206.358 325.14C229.134 325.14 243.396 305.243 243.396 272.73C243.396 237.886 229.271 220.046 206.358 220.046C183.444 220.046 168.634 237.886 168.634 272.73ZM274.949 272.73C274.949 314.706 244.63 344.065 206.083 344.065C167.537 344.065 137.08 314.706 137.08 272.73C137.08 230.755 167.948 201.396 206.083 201.396C244.219 201.396 274.949 230.755 274.949 272.73Z" fill="white"/>
<path d="M339.402 311.065C339.402 320.141 342.681 323.42 351.719 323.42L374.92 323.557V341.658H341.883C322.684 341.658 311.701 330.7 311.701 311.502V246.089H311.676V223.886H284.15V207.904C285.982 207.904 285.384 207.879 287.89 207.816C292.353 207.754 295.719 207.629 298.038 207.442C303.797 207.131 307.637 206.021 309.557 204.101C311.439 202.219 312.711 198.279 313.397 192.333C313.895 189.054 314.269 184.965 314.506 180.078C314.755 175.216 314.88 168.733 314.88 167.935H339.402V204.563H374.92V223.898H339.402V311.078V311.065Z" fill="white"/>
</svg>
