<svg width="128" height="128" viewBox="0 0 128 128" fill="none" xmlns="http://www.w3.org/2000/svg">
<path fill-rule="evenodd" clip-rule="evenodd" d="M60.9523 19.7854C62.1278 17.4201 65.691 18.2567 65.6911 20.898V49.2188C65.6911 50.5994 66.8104 51.7187 68.1911 51.7188H90.5138C92.4171 51.7188 93.6223 53.7611 92.7023 55.4272L87.0365 65.688H81.9594L83.6874 57H80.5192L78.2792 68.2H85.6493L63.1149 109.009C61.8662 111.27 58.4264 110.384 58.4264 107.801V78.5313C58.4264 77.1506 57.3071 76.0313 55.9264 76.0313H37.0341C35.1783 76.0312 33.9694 74.0806 34.7953 72.4187L42.0375 57.8457L39.9667 68.2H43.1347L44.0084 63.832H48.3124L47.4389 68.2H50.6068L52.8468 57H49.6788L48.8373 61.208H44.5331L45.3749 57H42.4579L60.9523 19.7854ZM54.0414 57L53.5294 59.512H56.9694L55.2255 68.2H58.3934L60.1373 59.512H63.5614L64.0734 57H54.0414ZM65.2536 57L63.0136 68.2H65.9257L67.1117 62.2966L69.1417 67.096H70.5336L74.2643 62.3015L73.1098 68.2H76.0377L78.2457 57H75.5416L70.4547 63.4878L67.8297 57H65.2536Z" fill="url(#paint0_linear_2683_566)"/>
<defs>
<linearGradient id="paint0_linear_2683_566" x1="54.2501" y1="33.125" x2="67.2501" y2="87.75" gradientUnits="userSpaceOnUse">
<stop stop-color="#BC34F6"/>
<stop offset="1" stop-color="#2915BB"/>
</linearGradient>
</defs>
</svg>
