<svg width="128" height="128" viewBox="0 0 128 128" fill="none" xmlns="http://www.w3.org/2000/svg">
<path d="M47.8871 68.6131V79.9295C56.5217 79.9194 64.7997 76.5901 70.9053 70.6717C77.0109 64.7534 80.4454 56.7295 80.456 48.3598H68.7813C68.7745 53.7291 66.5707 58.8769 62.654 62.6735C58.737 66.4704 53.4265 68.6063 47.8871 68.6131Z" fill="#3BE081"/>
<path d="M47.8839 99.7851C42.3844 99.7851 37.1102 97.6674 33.2215 93.898C29.3328 90.1286 27.1482 85.0162 27.1482 79.6855C27.1482 74.3545 29.3328 69.2423 33.2215 65.4727C37.1102 61.7033 42.3844 59.5856 47.8839 59.5856V48.3525C43.6371 48.3467 39.431 49.1516 35.5053 50.7215C31.5796 52.2912 28.0113 54.5953 25.0042 57.5018C21.9971 60.4082 19.61 63.8607 17.9793 67.6613C16.3485 71.4622 15.5061 75.5371 15.5 79.6534C15.494 83.7697 16.3244 87.8469 17.9439 91.6524C19.5634 95.4576 21.9403 98.9163 24.9389 101.831C27.9374 104.746 31.4989 107.06 35.4199 108.641C39.341 110.221 43.5448 111.038 47.7916 111.044H47.8839V99.7851Z" fill="#0037FF"/>
<path d="M47.8871 99.7852V111.018C56.4637 111.018 64.6889 107.716 70.7534 101.838C76.8178 95.9591 80.2249 87.9861 80.2249 79.6727H68.6231C68.6195 85.0034 66.4342 90.1154 62.5465 93.886C58.6591 97.6567 53.3869 99.7784 47.8871 99.7852Z" fill="#00CCFF"/>
<path d="M47.8871 37.1125V48.3456C56.4637 48.3456 64.6889 45.0433 70.7534 39.1648C76.8178 33.2863 80.2249 25.3134 80.2249 17H68.6231C68.6195 22.3309 66.4342 27.4427 62.5465 31.2134C58.6591 34.9841 53.3869 37.1057 47.8871 37.1125Z" fill="#861DFF"/>
<path d="M80.4125 37.1125V48.3456C88.989 48.3456 97.214 45.0433 103.278 39.1648C109.343 33.2863 112.75 25.3134 112.75 17H101.155C101.151 22.332 98.9649 27.4447 95.0759 31.2156C91.1869 34.9865 85.9133 37.1074 80.4125 37.1125Z" fill="#FF8110"/>
</svg>
