<svg width="512" height="512" viewBox="0 0 512 512" fill="none" xmlns="http://www.w3.org/2000/svg">
<path d="M243.809 79.1416C248.511 69.6803 262.763 73.0266 262.764 83.5918V196.875C262.764 202.398 267.241 206.875 272.764 206.875H362.055C369.668 206.875 374.489 215.044 370.809 221.709L348.146 262.752H327.837L334.749 228H322.076L313.116 272.8H342.597L252.459 436.037C247.464 445.082 233.705 441.535 233.705 431.203V314.125C233.705 308.602 229.228 304.125 223.705 304.125H148.136C140.713 304.125 135.877 296.322 139.181 289.675L168.149 231.383L159.866 272.8H172.538L176.033 255.328H193.249L189.755 272.8H202.427L211.387 228H198.715L195.349 244.832H178.132L181.499 228H169.831L243.809 79.1416ZM216.165 228L214.117 238.048H227.877L220.901 272.8H233.573L240.549 238.048H254.245L256.293 228H216.165ZM261.014 228L252.054 272.8H263.702L268.446 249.187L276.566 268.384H282.134L297.057 249.206L292.439 272.8H304.15L312.982 228H302.166L281.818 253.951L271.318 228H261.014Z" fill="url(#paint0_linear_2395_4)"/>
<defs>
<linearGradient id="paint0_linear_2395_4" x1="217" y1="132.5" x2="269" y2="351" gradientUnits="userSpaceOnUse">
<stop stop-color="#BC34F6"/>
<stop offset="1" stop-color="#2915BB"/>
</linearGradient>
</defs>
</svg>
