<svg width="512" height="512" viewBox="0 0 512 512" fill="none" xmlns="http://www.w3.org/2000/svg">
<path d="M169.96 416.72L297.947 244.52V401.228L349.583 418.491L442.262 294.55L396.364 260.024L355.32 314.912V155.56L302.36 142.28L122.737 383.965L169.96 416.72Z" fill="url(#paint0_linear_2335_37)"/>
<path d="M297.947 243.425L346.493 177.692V157.773H355.32V401.228H297.947V243.425Z" fill="url(#paint1_linear_2335_37)"/>
<path fill-rule="evenodd" clip-rule="evenodd" d="M312.292 132.858C326.011 124.915 343.552 129.629 351.471 143.389C359.393 157.149 354.693 174.742 340.974 182.687C327.256 190.63 309.715 185.916 301.795 172.157C293.873 158.397 298.573 140.804 312.292 132.858ZM131.346 376.316C145.065 368.37 162.605 373.085 170.527 386.844C178.447 400.604 173.747 418.197 160.028 426.14C146.309 434.085 128.768 429.371 120.849 415.612C112.927 401.852 117.627 384.259 131.346 376.316ZM326.633 430C342.477 430 355.32 417.119 355.32 401.228C355.32 385.337 342.477 372.456 326.633 372.456C310.789 372.456 297.947 385.337 297.947 401.228C297.947 417.119 310.789 430 326.633 430ZM267.053 277.287C267.053 293.178 254.211 306.059 238.367 306.059C222.523 306.059 209.68 293.178 209.68 277.287C209.68 261.396 222.523 248.515 238.367 248.515C254.211 248.515 267.053 261.396 267.053 277.287ZM444.151 262.903C436.232 249.144 418.691 244.43 404.972 252.373C391.253 260.318 386.553 277.913 394.475 291.671C402.395 305.431 419.935 310.145 433.654 302.199C447.373 294.256 452.073 276.663 444.151 262.903Z" fill="url(#paint2_linear_2335_37)"/>
<path opacity="0.6" fill-rule="evenodd" clip-rule="evenodd" d="M120.073 79.6086C138.23 67.4758 159.578 61 181.417 61C179.054 68.6739 178.828 76.8467 180.762 84.6395C182.697 92.4323 186.719 99.5503 192.397 105.228C198.075 110.906 205.193 114.928 212.986 116.863C220.778 118.798 228.951 118.571 236.625 116.208C234.262 123.882 234.036 132.055 235.971 139.848C237.905 147.641 241.928 154.759 247.605 160.436C253.283 166.114 260.401 170.136 268.194 172.071C275.987 174.006 284.16 173.78 291.833 171.417C291.833 193.255 285.358 214.603 273.225 232.761C261.092 250.919 243.847 265.071 223.671 273.428C203.495 281.786 181.294 283.972 159.876 279.712C138.457 275.451 118.782 264.935 103.34 249.493C87.8983 234.051 77.3821 214.377 73.1217 192.958C68.8612 171.539 71.0478 149.338 79.405 129.162C87.7622 108.986 101.915 91.7413 120.073 79.6086ZM158.77 132.771C158.77 123.935 151.606 116.771 142.77 116.771C133.933 116.771 126.77 123.935 126.77 132.771V132.882C126.77 141.719 133.933 148.882 142.77 148.882C151.606 148.882 158.77 141.719 158.77 132.882V132.771ZM225.582 194.062C234.419 194.062 241.582 201.226 241.582 210.062V210.173C241.582 219.01 234.419 226.173 225.582 226.173C216.745 226.173 209.582 219.01 209.582 210.173V210.062C209.582 201.226 216.745 194.062 225.582 194.062ZM181.416 155.417C190.253 155.417 197.416 162.58 197.416 171.417V171.528C197.416 180.364 190.253 187.528 181.416 187.528C172.579 187.528 165.416 180.364 165.416 171.528V171.417C165.416 162.58 172.579 155.417 181.416 155.417ZM170.375 210.625C179.212 210.625 186.375 217.788 186.375 226.625V226.736C186.375 235.572 179.212 242.736 170.375 242.736C161.538 242.736 154.375 235.572 154.375 226.736V226.625C154.375 217.788 161.538 210.625 170.375 210.625ZM126.207 177.5C135.044 177.5 142.207 184.663 142.207 193.5V193.611C142.207 202.447 135.044 209.611 126.207 209.611C117.37 209.611 110.207 202.447 110.207 193.611V193.5C110.207 184.663 117.37 177.5 126.207 177.5Z" fill="#B919E7"/>
<defs>
<linearGradient id="paint0_linear_2335_37" x1="116.936" y1="279.57" x2="447.95" y2="279.57" gradientUnits="userSpaceOnUse">
<stop stop-color="#838899" stop-opacity="0.24"/>
<stop offset="1" stop-color="#737783" stop-opacity="0.24"/>
</linearGradient>
<linearGradient id="paint1_linear_2335_37" x1="295.231" y1="131.736" x2="295.231" y2="432.736" gradientUnits="userSpaceOnUse">
<stop stop-color="#838899"/>
<stop offset="1" stop-color="#737783" stop-opacity="0"/>
</linearGradient>
<linearGradient id="paint2_linear_2335_37" x1="117" y1="279.5" x2="447.797" y2="279.5" gradientUnits="userSpaceOnUse">
<stop stop-color="#485167"/>
<stop offset="1" stop-color="#1E263C"/>
</linearGradient>
</defs>
</svg>
