<svg width="512" height="512" viewBox="0 0 512 512" fill="none" xmlns="http://www.w3.org/2000/svg">
<path d="M125.44 414.72L273.92 215.539V396.8L333.824 416.768L441.344 273.408L388.096 233.472L340.48 296.96V112.64L279.04 97.2799L70.6562 376.832L125.44 414.72Z" fill="url(#paint0_linear_1459_4616)"/>
<path d="M273.92 214.272L330.24 138.24V115.2H340.48V396.8H273.92V214.272Z" fill="url(#paint1_linear_1459_4616)"/>
<path fill-rule="evenodd" clip-rule="evenodd" d="M290.563 86.382C306.478 77.1941 326.828 82.6469 336.016 98.5625C345.206 114.478 339.753 134.827 323.838 144.018C307.922 153.206 287.573 147.753 278.385 131.837C269.194 115.922 274.647 95.5724 290.563 86.382ZM80.6427 367.985C96.5583 358.794 116.908 364.247 126.098 380.162C135.286 396.078 129.833 416.427 113.918 425.615C98.0021 434.806 77.6527 429.353 68.4648 413.437C59.2744 397.522 64.7272 377.172 80.6427 367.985ZM307.2 430.08C325.581 430.08 340.48 415.181 340.48 396.8C340.48 378.419 325.581 363.52 307.2 363.52C288.819 363.52 273.92 378.419 273.92 396.8C273.92 415.181 288.819 430.08 307.2 430.08ZM238.08 253.44C238.08 271.821 223.181 286.72 204.8 286.72C186.419 286.72 171.52 271.821 171.52 253.44C171.52 235.059 186.419 220.16 204.8 220.16C223.181 220.16 238.08 235.059 238.08 253.44ZM443.536 236.802C434.348 220.887 413.998 215.434 398.083 224.622C382.167 233.812 376.714 254.164 385.905 270.077C395.093 285.993 415.442 291.446 431.358 282.255C447.273 273.067 452.726 252.718 443.536 236.802Z" fill="white"/>
<defs>
<linearGradient id="paint0_linear_1459_4616" x1="63.9257" y1="256.08" x2="447.942" y2="256.08" gradientUnits="userSpaceOnUse">
<stop stop-color="white" stop-opacity="0.24"/>
<stop offset="1" stop-color="#F5F6F9" stop-opacity="0.24"/>
</linearGradient>
<linearGradient id="paint1_linear_1459_4616" x1="270.769" y1="85.084" x2="270.769" y2="433.245" gradientUnits="userSpaceOnUse">
<stop stop-color="#D5D7DB"/>
<stop offset="1" stop-color="#737783" stop-opacity="0"/>
</linearGradient>
</defs>
</svg>
