<svg width="128" height="128" viewBox="0 0 128 128" fill="none" xmlns="http://www.w3.org/2000/svg">
<g opacity="0.6">
<path d="M42.4901 104.18L74.4867 61.1301V100.307L87.3957 104.623L110.566 73.6376L99.091 65.006L88.83 78.728V38.8899L75.59 35.57L30.6844 95.9912L42.4901 104.18Z" fill="url(#paint0_linear_2683_556)"/>
<path d="M74.4867 60.8562L86.6234 44.423V39.4432H88.83V100.307H74.4867V60.8562Z" fill="url(#paint1_linear_2683_556)"/>
<path fill-rule="evenodd" clip-rule="evenodd" d="M78.0731 33.2146C81.5028 31.2288 85.888 32.4073 87.8679 35.8473C89.8484 39.2872 88.6734 43.6854 85.2437 45.6718C81.8139 47.6576 77.4288 46.479 75.4488 43.0391C73.4683 39.5992 74.6434 35.201 78.0731 33.2146ZM32.8365 94.079C36.2662 92.0926 40.6514 93.2711 42.6319 96.711C44.6118 100.151 43.4367 104.549 40.007 106.535C36.5773 108.521 32.1921 107.343 30.2122 103.903C28.2317 100.463 29.4068 96.0648 32.8365 94.079ZM81.6584 107.5C85.6193 107.5 88.83 104.28 88.83 100.307C88.83 96.3342 85.6193 93.114 81.6584 93.114C77.6974 93.114 74.4867 96.3342 74.4867 100.307C74.4867 104.28 77.6974 107.5 81.6584 107.5ZM66.7634 69.3218C66.7634 73.2945 63.5527 76.5148 59.5917 76.5148C55.6308 76.5148 52.4201 73.2945 52.4201 69.3218C52.4201 65.349 55.6308 62.1288 59.5917 62.1288C63.5527 62.1288 66.7634 65.349 66.7634 69.3218ZM111.038 65.7258C109.058 62.2859 104.673 61.1074 101.243 63.0932C97.8134 65.0796 96.6383 69.4784 98.6188 72.9177C100.599 76.3576 104.984 77.5362 108.414 75.5498C111.843 73.564 113.018 69.1657 111.038 65.7258Z" fill="url(#paint2_linear_2683_556)"/>
<path d="M45.3542 15.25C44.7634 17.1685 44.7069 19.2117 45.1906 21.1599C45.6742 23.1081 46.6799 24.8875 48.0993 26.3069C49.5187 27.7263 51.2983 28.7321 53.2465 29.2158C55.1947 29.6995 57.238 29.6427 59.1564 29.052C58.5657 30.9705 58.5092 33.0137 58.9928 34.9619C59.4765 36.9101 60.4821 38.6897 61.9015 40.1091C63.3209 41.5285 65.1003 42.5342 67.0485 43.0178C68.9967 43.5015 71.0399 43.445 72.9584 42.8542C72.9584 48.3138 71.3395 53.6507 68.3063 58.1902C65.2731 62.7297 60.9619 66.2679 55.9179 68.3572C50.8739 70.4465 45.3236 70.9931 39.9689 69.928C34.6142 68.8629 29.6956 66.2338 25.8351 62.3733C21.9746 58.5128 19.3455 53.5942 18.2804 48.2395C17.2153 42.8848 17.7619 37.3345 19.8512 32.2905C21.9405 27.2465 25.4787 22.9353 30.0182 19.9021C34.5577 16.8689 39.8946 15.25 45.3542 15.25ZM42.5939 52.6562C40.3848 52.6562 38.5939 54.4471 38.5939 56.6562V56.6838C38.5939 58.893 40.3848 60.6838 42.5939 60.6838C44.803 60.6838 46.5939 58.8929 46.5939 56.6838V56.6562C46.5939 54.4471 44.803 52.6563 42.5939 52.6562ZM56.3957 48.5156C54.1865 48.5156 52.3957 50.3065 52.3957 52.5156V52.5432C52.3957 54.7524 54.1865 56.5432 56.3957 56.5432C58.6048 56.5432 60.3957 54.7523 60.3957 52.5432V52.5156C60.3957 50.3065 58.6048 48.5157 56.3957 48.5156ZM31.5519 44.375C29.3428 44.375 27.5519 46.1659 27.5519 48.375V48.4026C27.5519 50.6117 29.3428 52.4026 31.5519 52.4026C33.761 52.4025 35.5519 50.6117 35.5519 48.4026V48.375C35.5519 46.1659 33.761 44.375 31.5519 44.375ZM45.3542 38.8542C43.145 38.8542 41.3542 40.6451 41.3542 42.8542V42.8818C41.3542 45.091 43.145 46.8818 45.3542 46.8818C47.5633 46.8818 49.3542 45.0909 49.3542 42.8818V42.8542C49.3542 40.6451 47.5633 38.8543 45.3542 38.8542ZM35.6925 29.1929C33.4834 29.1929 31.6925 30.9837 31.6925 33.1929V33.2205C31.6925 35.4296 33.4834 37.2205 35.6925 37.2205C37.9016 37.2204 39.6925 35.4296 39.6925 33.2205V33.1929C39.6925 30.9838 37.9016 29.1929 35.6925 29.1929Z" fill="#B919E7"/>
</g>
<defs>
<linearGradient id="paint0_linear_2683_556" x1="17.7318" y1="61.3964" x2="111.986" y2="61.3964" gradientUnits="userSpaceOnUse">
<stop stop-color="#838899" stop-opacity="0.24"/>
<stop offset="1" stop-color="#737783" stop-opacity="0.24"/>
</linearGradient>
<linearGradient id="paint1_linear_2683_556" x1="68.5" y1="16.0886" x2="68.5" y2="108.339" gradientUnits="userSpaceOnUse">
<stop stop-color="#838899"/>
<stop offset="1" stop-color="#737783" stop-opacity="0"/>
</linearGradient>
<linearGradient id="paint2_linear_2683_556" x1="17.75" y1="61.3751" x2="111.942" y2="61.3751" gradientUnits="userSpaceOnUse">
<stop stop-color="#485167"/>
<stop offset="1" stop-color="#1E263C"/>
</linearGradient>
</defs>
</svg>
