<svg width="128" height="128" viewBox="0 0 128 128" fill="none" xmlns="http://www.w3.org/2000/svg">
<path d="M31.36 103.68L68.48 53.8848V99.2L83.456 104.192L110.336 68.352L97.024 58.368L85.12 74.24V28.16L69.76 24.32L17.664 94.208L31.36 103.68Z" fill="url(#paint0_linear_2683_583)"/>
<path d="M68.48 53.568L82.56 34.56V28.8H85.12V99.2H68.48V53.568Z" fill="url(#paint1_linear_2683_583)"/>
<path fill-rule="evenodd" clip-rule="evenodd" d="M72.6407 21.5955C76.6196 19.2985 81.7069 20.6617 84.0039 24.6406C86.3015 28.6195 84.9383 33.7069 80.9594 36.0045C76.9805 38.3014 71.8932 36.9382 69.5962 32.9593C67.2986 28.9805 68.6618 23.8931 72.6407 21.5955ZM20.1607 91.9961C24.1396 89.6985 29.2269 91.0617 31.5245 95.0406C33.8215 99.0195 32.4583 104.107 28.4794 106.404C24.5005 108.701 19.4132 107.338 17.1162 103.359C14.8186 99.3804 16.1818 94.2931 20.1607 91.9961ZM76.8 107.52C81.3952 107.52 85.12 103.795 85.12 99.2C85.12 94.6048 81.3952 90.88 76.8 90.88C72.2048 90.88 68.48 94.6048 68.48 99.2C68.48 103.795 72.2048 107.52 76.8 107.52ZM59.52 63.36C59.52 67.9552 55.7952 71.68 51.2 71.68C46.6048 71.68 42.88 67.9552 42.88 63.36C42.88 58.7648 46.6048 55.04 51.2 55.04C55.7952 55.04 59.52 58.7648 59.52 63.36ZM110.884 59.2006C108.587 55.2217 103.5 53.8585 99.5207 56.1555C95.5418 58.4531 94.1786 63.5411 96.4762 67.5193C98.7732 71.4982 103.861 72.8614 107.839 70.5638C111.818 68.2669 113.181 63.1795 110.884 59.2006Z" fill="url(#paint2_linear_2683_583)"/>
<defs>
<linearGradient id="paint0_linear_2683_583" x1="15.9814" y1="64.0201" x2="111.986" y2="64.0201" gradientUnits="userSpaceOnUse">
<stop stop-color="#838899" stop-opacity="0.24"/>
<stop offset="1" stop-color="#737783" stop-opacity="0.24"/>
</linearGradient>
<linearGradient id="paint1_linear_2683_583" x1="67.6924" y1="21.271" x2="67.6924" y2="108.311" gradientUnits="userSpaceOnUse">
<stop stop-color="#838899"/>
<stop offset="1" stop-color="#737783" stop-opacity="0"/>
</linearGradient>
<linearGradient id="paint2_linear_2683_583" x1="16" y1="64" x2="111.941" y2="64" gradientUnits="userSpaceOnUse">
<stop stop-color="#485167"/>
<stop offset="1" stop-color="#1E263C"/>
</linearGradient>
</defs>
</svg>
