<svg width="512" height="512" viewBox="0 0 512 512" fill="none" xmlns="http://www.w3.org/2000/svg">
<path d="M256.5 62C149.029 62 62 149.029 62 256.5C62 338.856 113.107 409.238 185.534 437.566C183.782 422.088 182.321 398.724 186.118 381.786C189.622 366.6 208.897 285.12 208.897 285.12C208.897 285.12 203.056 273.438 203.056 256.208C203.056 229.048 218.827 208.897 238.101 208.897C254.748 208.897 262.633 221.455 262.633 236.349C262.633 252.995 252.119 278.111 246.571 301.182C241.898 320.457 256.208 336.227 275.483 336.227C309.944 336.227 336.52 299.722 336.52 247.155C336.52 200.72 302.935 168.011 255.332 168.011C200.136 168.011 167.427 209.481 167.427 252.411C167.427 269.058 173.852 287.164 182.029 296.802C183.489 298.846 183.782 300.306 183.489 302.351C182.029 308.483 178.817 321.625 178.233 324.254C177.357 327.758 175.312 328.634 171.808 326.882C147.568 315.492 132.382 280.155 132.382 251.535C132.382 190.206 177.065 133.842 260.881 133.842C328.342 133.842 380.618 182.029 380.618 245.986C380.618 312.864 338.272 366.892 279.863 366.892C260.297 366.892 241.606 356.67 235.181 344.697C235.181 344.697 225.544 381.786 223.207 390.839C218.827 407.778 206.853 428.805 198.968 441.947C217.074 447.496 236.349 450.708 256.5 450.708C363.971 450.708 451 363.679 451 256.208C451 149.029 363.971 62 256.5 62Z" fill="#BD081C"/>
</svg>
