<svg width="128" height="128" viewBox="0 0 128 128" fill="none" xmlns="http://www.w3.org/2000/svg">
<path d="M64.125 15.5C37.2571 15.5 15.5 37.2571 15.5 64.125C15.5 84.714 28.2768 102.31 46.3834 109.392C45.9454 105.522 45.5803 99.6811 46.5295 95.4465C47.4056 91.65 52.2243 71.28 52.2243 71.28C52.2243 71.28 50.7641 68.3596 50.7641 64.052C50.7641 57.262 54.7066 52.2243 59.5253 52.2243C63.6869 52.2243 65.6582 55.3637 65.6582 59.0873C65.6582 63.2489 63.0298 69.5278 61.6426 75.2956C60.4745 80.1143 64.052 84.0569 68.8707 84.0569C77.4859 84.0569 84.1299 74.9306 84.1299 61.7887C84.1299 50.18 75.7337 42.0028 63.833 42.0028C50.034 42.0028 41.8568 52.3703 41.8568 63.1029C41.8568 67.2644 43.463 71.7911 45.5073 74.2005C45.8724 74.7115 45.9454 75.0766 45.8724 75.5876C45.5073 77.1209 44.7042 80.4063 44.5582 81.0634C44.3392 81.9396 43.8281 82.1586 42.952 81.7205C36.8921 78.8731 33.0955 70.0389 33.0955 62.8838C33.0955 47.5516 44.2661 33.4606 65.2202 33.4606C82.0856 33.4606 95.1545 45.5073 95.1545 61.4966C95.1545 78.216 84.5679 91.723 69.9658 91.723C65.0741 91.723 60.4015 89.1676 58.7952 86.1742C58.7952 86.1742 56.3859 95.4465 55.8018 97.7098C54.7066 101.944 51.7132 107.201 49.7419 110.487C54.2686 111.874 59.0873 112.677 64.125 112.677C90.9929 112.677 112.75 90.9199 112.75 64.052C112.75 37.2571 90.9929 15.5 64.125 15.5Z" fill="#BD081C"/>
</svg>
