<svg width="512" height="512" viewBox="0 0 512 512" fill="none" xmlns="http://www.w3.org/2000/svg">
<path d="M404.249 206.801C397.08 275.635 337.023 326.798 267.959 326.798H241.366V389.8C241.366 424.704 213.129 453 178.297 453H129.074C116.883 453 107 443.097 107 430.88V301.172L140.098 254.637C146.089 246.215 157.1 243.072 166.62 247.067L185.447 254.969C194.937 258.952 205.914 255.821 211.889 247.428L256.018 185.432C261.978 177.059 272.931 173.943 282.392 177.928L318.655 193.205C328.136 197.198 339.112 194.073 345.081 185.682L387.517 126.02C400.819 149.455 407.321 177.296 404.249 206.801Z" fill="url(#paint0_linear_2609_83)"/>
<path d="M128.628 248.078C134.037 240.473 141.905 234.625 151.056 232.861C158.192 231.486 165.226 232.207 171.732 234.938L190.554 242.838C191.639 243.293 192.781 243.524 193.947 243.524C196.816 243.524 199.524 242.125 201.192 239.782L244.513 178.921C249.921 171.323 257.787 165.484 266.932 163.724C274.042 162.356 281.033 163.073 287.484 165.79L323.747 181.067C324.842 181.528 325.993 181.761 327.168 181.761C330.027 181.761 332.724 180.37 334.381 178.039L379.838 114.13C355.512 80.1492 315.785 58 270.88 58H129.074C116.883 58 107 67.9034 107 80.1199V278.487L128.628 248.078Z" fill="url(#paint1_linear_2609_83)"/>
<defs>
<linearGradient id="paint0_linear_2609_83" x1="204.503" y1="155.117" x2="313.612" y2="312.849" gradientUnits="userSpaceOnUse">
<stop stop-color="#909CF7"/>
<stop offset="1" stop-color="#4B38D8"/>
</linearGradient>
<linearGradient id="paint1_linear_2609_83" x1="159.451" y1="49.0579" x2="245.238" y2="198.873" gradientUnits="userSpaceOnUse">
<stop stop-color="#909CF7"/>
<stop offset="1" stop-color="#4B38D8"/>
</linearGradient>
</defs>
</svg>
