<svg width="128" height="128" viewBox="0 0 128 128" fill="none" xmlns="http://www.w3.org/2000/svg">
<path d="M101.062 51.7003C99.2701 68.9088 84.2557 81.6994 66.9897 81.6994H60.3416V97.45C60.3416 106.176 53.2823 113.25 44.5744 113.25H32.2685C29.2207 113.25 26.75 110.774 26.75 107.72V75.293L35.0246 63.6592C36.5222 61.5537 39.2751 60.768 41.655 61.7668L46.3617 63.7423C48.7342 64.738 51.4785 63.9554 52.9721 61.857L64.0046 46.3579C65.4944 44.2649 68.2328 43.4858 70.5979 44.4821L79.6639 48.3011C82.0339 49.2995 84.778 48.5183 86.2702 46.4204L96.8792 31.5049C100.205 37.3637 101.83 44.3239 101.062 51.7003Z" fill="url(#paint0_linear_2683_543)"/>
<path d="M32.157 62.0195C33.5092 60.1184 35.4762 58.6563 37.764 58.2153C39.5479 57.8714 41.3065 58.0519 42.9331 58.7346L47.6386 60.7095C47.9097 60.8233 48.1951 60.881 48.4869 60.881C49.2039 60.881 49.881 60.5313 50.2979 59.9455L61.1283 44.7301C62.4803 42.8308 64.4467 41.371 66.7331 40.9311C68.5104 40.5891 70.2583 40.7683 71.8709 41.4476L80.9368 45.2666C81.2104 45.382 81.4982 45.4403 81.792 45.4403C82.5068 45.4403 83.1809 45.0925 83.5953 44.5098L94.9596 28.5325C88.878 20.0373 78.9464 14.5 67.7201 14.5H32.2685C29.2207 14.5 26.75 16.9759 26.75 20.03V69.6216L32.157 62.0195Z" fill="url(#paint1_linear_2683_543)"/>
<defs>
<linearGradient id="paint0_linear_2683_543" x1="51.1257" y1="38.7791" x2="78.4029" y2="78.2123" gradientUnits="userSpaceOnUse">
<stop stop-color="#909CF7"/>
<stop offset="1" stop-color="#4B38D8"/>
</linearGradient>
<linearGradient id="paint1_linear_2683_543" x1="39.8627" y1="12.2645" x2="61.3094" y2="49.7183" gradientUnits="userSpaceOnUse">
<stop stop-color="#909CF7"/>
<stop offset="1" stop-color="#4B38D8"/>
</linearGradient>
</defs>
</svg>
