<svg width="512" height="512" viewBox="0 0 512 512" fill="none" xmlns="http://www.w3.org/2000/svg">
<path d="M132.047 270.259C128.56 277.247 118.609 277.247 115.123 270.259L106.784 253.546C106.127 252.23 105.785 250.778 105.785 249.306C105.785 247.834 106.127 246.383 106.784 245.066L115.122 228.354C118.608 221.366 128.56 221.366 132.047 228.354L140.385 245.066C141.043 246.383 141.385 247.834 141.385 249.306C141.385 250.778 141.043 252.23 140.385 253.546L132.047 270.259ZM132.047 365.037C128.56 372.026 118.609 372.026 115.123 365.037L106.784 348.325C106.127 347.009 105.785 345.557 105.785 344.085C105.785 342.614 106.127 341.162 106.784 339.845L115.122 323.132C118.608 316.145 128.56 316.145 132.047 323.132L140.385 339.845C141.043 341.162 141.385 342.613 141.385 344.085C141.385 345.557 141.043 347.009 140.385 348.325L132.047 365.037Z" fill="#1D4AFF"/>
<path d="M29.0009 329.063C29.0009 320.616 39.1917 316.386 45.1524 322.359L88.5167 365.814C94.4764 371.786 90.2554 381.998 81.8269 381.998H38.4616C33.2357 381.998 29 377.754 29 372.518L29.0009 329.063ZM29.0009 283.29C29.0009 285.805 29.9975 288.216 31.7718 289.994L120.813 379.222C122.588 380.999 124.994 381.998 127.503 381.998H176.41C184.839 381.998 189.06 371.786 183.1 365.814L45.1524 227.578C39.1926 221.605 29.0009 225.834 29.0009 234.281V283.29ZM29.0009 188.509C29.0009 191.024 29.9975 193.435 31.7718 195.213L215.396 379.222C217.171 380.999 219.577 381.998 222.086 381.998H270.993C279.422 381.998 283.644 371.786 277.683 365.814L45.1524 132.796C39.1926 126.823 29.0009 131.053 29.0009 139.499V188.509ZM123.584 188.509C123.584 191.024 124.581 193.435 126.356 195.213L296.6 365.814C302.561 371.786 312.751 367.556 312.751 359.109V310.101C312.751 307.586 311.755 305.175 309.98 303.397L139.736 132.796C133.775 126.823 123.584 131.053 123.584 139.499V188.509ZM234.319 132.796C228.359 126.823 218.167 131.053 218.167 139.499V188.509C218.167 191.024 219.165 193.435 220.939 195.213L296.6 271.032C302.561 277.005 312.751 272.775 312.751 264.328V215.32C312.751 212.805 311.755 210.394 309.98 208.615L234.319 132.796Z" fill="#F9BD2B"/>
<path d="M431.335 330.226L342.28 240.984C336.319 235.011 326.128 239.241 326.128 247.688V372.519C326.128 377.755 330.364 382 335.589 382H473.539C478.764 382 483 377.755 483 372.519V361.15C483 355.914 478.747 351.733 473.565 351.057C457.581 348.971 442.733 341.647 431.335 330.226ZM371.528 351.67C363.174 351.67 356.395 344.876 356.395 336.504C356.395 328.133 363.174 321.34 371.528 321.34C379.882 321.34 386.662 328.133 386.662 336.504C386.662 344.876 379.882 351.67 371.528 351.67Z" fill="black"/>
<path d="M29 372.518C29 377.754 33.2357 381.998 38.4616 381.998H81.8269C90.2554 381.998 94.4764 371.786 88.5167 365.814L45.1524 322.359C39.1917 316.386 29.0009 320.616 29.0009 329.063L29 372.518ZM123.584 211.392L45.1524 132.796C39.1926 126.823 29.0009 131.053 29.0009 139.499V188.509C29.0009 191.024 29.9975 193.435 31.7718 195.213L123.584 287.217V211.392ZM45.1524 227.578C39.1926 221.605 29.0009 225.834 29.0009 234.281V283.29C29.0009 285.805 29.9975 288.216 31.7718 289.994L123.584 382V306.175L45.1524 227.578Z" fill="#1D4AFF"/>
<path d="M218.167 215.32C218.167 212.805 217.171 210.394 215.396 208.615L139.736 132.796C133.775 126.823 123.584 131.053 123.584 139.499V188.509C123.584 191.024 124.581 193.435 126.356 195.213L218.167 287.217V215.32ZM123.584 382L176.41 381.998C184.839 381.998 189.06 371.786 183.1 365.814L123.584 306.175V382ZM123.584 211.392V283.292C123.584 285.807 124.581 288.218 126.355 289.996L218.167 382V310.102C218.167 307.588 217.171 305.177 215.396 303.399L123.584 211.392Z" fill="#F54E00"/>
</svg>
