<svg width="128" height="128" viewBox="0 0 128 128" fill="none" xmlns="http://www.w3.org/2000/svg">
<path d="M33.0118 67.5648C32.14 69.3118 29.6523 69.3118 28.7807 67.5648L26.6959 63.3865C26.5317 63.0574 26.4462 62.6945 26.4462 62.3265C26.4462 61.9586 26.5317 61.5957 26.6959 61.2665L28.7805 57.0885C29.6521 55.3415 32.14 55.3415 33.0118 57.0885L35.0963 61.2665C35.2606 61.5956 35.3462 61.9585 35.3462 62.3265C35.3462 62.6945 35.2606 63.0574 35.0963 63.3865L33.0118 67.5648ZM33.0118 91.2593C32.14 93.0064 29.6523 93.0064 28.7807 91.2593L26.6959 87.0813C26.5317 86.7522 26.4462 86.3893 26.4462 86.0213C26.4462 85.6534 26.5317 85.2905 26.6959 84.9614L28.7805 80.7831C29.6521 79.0363 32.14 79.0363 33.0118 80.7831L35.0963 84.9614C35.2606 85.2904 35.3462 85.6534 35.3462 86.0213C35.3462 86.3893 35.2606 86.7522 35.0963 87.0813L33.0118 91.2593Z" fill="#1D4AFF"/>
<path d="M7.25023 82.2656C7.25023 80.1539 9.79793 79.0964 11.2881 80.5897L22.1292 91.4535C23.6191 92.9465 22.5638 95.4995 20.4567 95.4995H9.6154C8.30892 95.4995 7.25 94.4384 7.25 93.1294L7.25023 82.2656ZM7.25023 70.8225C7.25023 71.4512 7.49939 72.0539 7.94294 72.4984L30.2033 94.8054C30.6469 95.2498 31.2485 95.4995 31.8758 95.4995H44.1025C46.2096 95.4995 47.2649 92.9465 45.775 91.4535L11.2881 56.8944C9.79816 55.4011 7.25023 56.4586 7.25023 58.5704V70.8225ZM7.25023 47.1272C7.25023 47.756 7.49939 48.3587 7.94294 48.8032L53.8491 94.8054C54.2927 95.2498 54.8943 95.4995 55.5216 95.4995H67.7483C69.8554 95.4995 70.9109 92.9465 69.4208 91.4535L11.2881 33.1989C9.79816 31.7059 7.25023 32.7633 7.25023 34.8749V47.1272ZM30.896 47.1272C30.896 47.756 31.1452 48.3587 31.589 48.8032L74.15 91.4535C75.6401 92.9465 78.1878 91.889 78.1878 89.7773V77.5252C78.1878 76.8966 77.9387 76.2937 77.4949 75.8492L34.9339 33.1989C33.4437 31.7059 30.896 32.7633 30.896 34.8749V47.1272ZM58.5797 33.1989C57.0898 31.7059 54.5418 32.7633 54.5418 34.8749V47.1272C54.5418 47.756 54.7912 48.3587 55.2348 48.8032L74.15 67.758C75.6401 69.2512 78.1878 68.1938 78.1878 66.082V53.8299C78.1878 53.2011 77.9387 52.5984 77.4949 52.1537L58.5797 33.1989Z" fill="#F9BD2B"/>
<path d="M107.834 82.5565L85.5699 60.2461C84.0798 58.7528 81.5321 59.8103 81.5321 61.9221V93.1297C81.5321 94.4386 82.591 95.5 83.8972 95.5H118.385C119.691 95.5 120.75 94.4386 120.75 93.1297V90.2876C120.75 88.9786 119.687 87.9333 118.391 87.7643C114.395 87.2428 110.683 85.4118 107.834 82.5565ZM92.882 87.9175C90.7936 87.9175 89.0988 86.2189 89.0988 84.1261C89.0988 82.0333 90.7936 80.335 92.882 80.335C94.9704 80.335 96.6654 82.0333 96.6654 84.1261C96.6654 86.2189 94.9704 87.9175 92.882 87.9175Z" fill="black"/>
<path d="M7.25 93.1294C7.25 94.4384 8.30892 95.4995 9.6154 95.4995H20.4567C22.5638 95.4995 23.6191 92.9465 22.1292 91.4535L11.2881 80.5897C9.79793 79.0964 7.25023 80.1539 7.25023 82.2656L7.25 93.1294ZM30.896 52.8481L11.2881 33.1989C9.79816 31.7059 7.25023 32.7633 7.25023 34.8749V47.1272C7.25023 47.756 7.49939 48.3587 7.94294 48.8032L30.896 71.8043V52.8481ZM11.2881 56.8944C9.79816 55.4011 7.25023 56.4586 7.25023 58.5704V70.8225C7.25023 71.4512 7.49939 72.0539 7.94294 72.4984L30.896 95.5V76.5438L11.2881 56.8944Z" fill="#1D4AFF"/>
<path d="M54.5418 53.8299C54.5418 53.2011 54.2927 52.5984 53.8491 52.1537L34.9339 33.1989C33.4437 31.7059 30.896 32.7633 30.896 34.8749V47.1272C30.896 47.756 31.1452 48.3587 31.589 48.8032L54.5418 71.8043V53.8299ZM30.896 95.5L44.1025 95.4995C46.2096 95.4995 47.2649 92.9465 45.775 91.4535L30.896 76.5438V95.5ZM30.896 52.8481V70.8229C30.896 71.4517 31.1452 72.0544 31.5887 72.4989L54.5418 95.5V77.5256C54.5418 76.8971 54.2927 76.2941 53.8491 75.8497L30.896 52.8481Z" fill="#F54E00"/>
</svg>
