<svg width="128" height="128" viewBox="0 0 128 128" fill="none" xmlns="http://www.w3.org/2000/svg">
<path d="M106.128 57.8065H58.1179C56.2743 57.8065 54.738 56.2702 54.738 54.4266V48.6653C54.738 46.8217 56.2743 45.2853 58.1179 45.2853H106.436C108.279 45.2853 109.816 46.8217 109.816 48.6653V54.4266C109.431 56.2702 107.972 57.8065 106.128 57.8065ZM69.6404 82.0806C71.484 82.0806 73.0204 80.5442 73.2508 79.0079V73.2467C73.2508 71.4031 71.7145 69.8667 69.8709 69.8667H21.6299C19.7863 69.8667 18.25 71.403 18.25 72.9394V78.7006C18.25 80.5442 19.7863 82.0806 21.6299 82.0806H69.6404ZM36.5324 91.2218C33.1524 91.2218 30.4639 93.9104 30.4639 97.2903C30.4639 100.67 33.1524 103.359 36.5324 103.359C39.9123 103.359 42.6009 100.67 42.6009 97.2903C42.6009 93.9104 39.8355 91.2218 36.5324 91.2218ZM91.2259 24.3144C87.846 24.3144 85.1574 27.003 85.1574 30.3829C85.1574 33.7628 87.846 36.4514 91.2259 36.4514C94.6059 36.4514 97.2944 33.7628 97.2944 30.3829C97.2944 27.0798 94.6059 24.3144 91.2259 24.3144ZM63.8792 100.363C60.4992 100.363 57.1961 99.7484 54.1234 98.8266C52.5871 98.5194 51.0508 99.1339 50.513 100.67L48.3622 106.431C47.7476 107.968 48.6694 109.811 50.513 110.349C54.738 111.885 59.347 112.5 63.8792 112.5C83.6211 112.5 100.674 100.67 108.279 83.6169C108.894 82.0806 108.279 80.0065 106.436 79.392L100.674 77.2411C99.138 76.6266 97.6017 77.2411 97.064 78.7774C91.2259 91.529 78.7816 100.363 63.8792 100.363ZM63.8792 27.387C67.2591 27.387 70.5622 28.0016 73.6349 28.9234C75.1712 29.2307 76.7076 28.6161 77.2453 27.0798L79.3961 21.3185C80.0107 19.7822 79.0889 17.9386 77.2453 17.4009C73.0203 15.8645 68.4113 15.25 63.8792 15.25C44.1372 15.25 27.0839 27.0798 19.4791 44.1331C18.8645 45.6694 19.4791 47.7435 21.3227 48.358L27.0839 50.5089C28.6203 51.1234 30.1566 50.5089 30.6943 48.9726C36.5324 36.221 48.9767 27.387 63.8792 27.387Z" fill="#25C365"/>
</svg>
