<svg width="512" height="512" viewBox="0 0 512 512" fill="none" xmlns="http://www.w3.org/2000/svg">
<path d="M424.513 231.226H232.472C225.097 231.226 218.952 225.081 218.952 217.706V194.661C218.952 187.287 225.097 181.141 232.472 181.141H425.743C433.117 181.141 439.262 187.287 439.262 194.661V217.706C437.726 225.081 431.888 231.226 424.513 231.226ZM278.562 328.322C285.936 328.322 292.081 322.177 293.003 316.032V292.987C293.003 285.612 286.858 279.467 279.483 279.467H86.5197C79.1453 279.467 73 285.612 73 291.757V314.803C73 322.177 79.1453 328.322 86.5197 328.322H278.562ZM146.13 364.887C132.61 364.887 121.855 375.641 121.855 389.161C121.855 402.681 132.61 413.435 146.13 413.435C159.649 413.435 170.404 402.681 170.404 389.161C170.404 375.641 159.342 364.887 146.13 364.887ZM364.904 97.2575C351.384 97.2575 340.63 108.012 340.63 121.532C340.63 135.051 351.384 145.806 364.904 145.806C378.423 145.806 389.178 135.051 389.178 121.532C389.178 108.319 378.423 97.2575 364.904 97.2575ZM255.517 401.452C241.997 401.452 228.784 398.994 216.494 395.307C210.348 394.077 204.203 396.536 202.052 402.681L193.449 425.726C190.991 431.871 194.678 439.246 202.052 441.397C218.952 447.542 237.388 450 255.517 450C334.484 450 402.698 402.681 433.117 334.468C435.575 328.322 433.117 320.026 425.743 317.568L402.698 308.964C396.552 306.506 390.407 308.964 388.256 315.11C364.904 366.116 315.126 401.452 255.517 401.452ZM255.517 109.548C269.036 109.548 282.249 112.006 294.54 115.694C300.685 116.923 306.83 114.464 308.981 108.319L317.585 85.2741C320.043 79.1288 316.355 71.7544 308.981 69.6035C292.081 63.4581 273.645 61 255.517 61C176.549 61 108.336 108.319 77.9163 176.532C75.4581 182.678 77.9163 190.974 85.2907 193.432L108.336 202.036C114.481 204.494 120.626 202.036 122.777 195.89C146.13 144.884 195.907 109.548 255.517 109.548Z" fill="#25C365"/>
</svg>
