<svg width="512" height="512" viewBox="0 0 512 512" fill="none" xmlns="http://www.w3.org/2000/svg">
<path d="M248.569 59.9047C257.946 59.0063 264.69 68.2079 264.126 77.6115C263.647 85.6026 264.377 93.6569 266.323 101.497C269.801 115.506 277.033 128.303 287.24 138.51C297.447 148.717 310.243 155.949 324.253 159.427C329.645 160.766 335.139 161.529 340.644 161.719C351.879 162.106 362.893 173.121 363.281 184.356C363.471 189.861 364.234 195.355 365.573 200.747C369.051 214.756 376.283 227.553 386.49 237.76C396.697 247.966 409.493 255.199 423.502 258.677C431.342 260.623 439.397 261.353 447.388 260.873C456.792 260.309 465.993 267.054 465.095 276.431C461.974 309.005 450.835 340.409 432.547 367.78C410.735 400.423 379.734 425.866 343.463 440.89C307.192 455.914 267.279 459.845 228.774 452.186C190.269 444.526 154.9 425.621 127.139 397.86C99.3788 370.1 80.4733 334.731 72.8142 296.226C65.155 257.72 69.0861 217.808 84.1101 181.537C99.134 145.266 124.577 114.265 157.219 92.4531C184.591 74.1643 215.994 63.0255 248.569 59.9047ZM247.651 340.75C238.815 340.75 231.651 347.914 231.651 356.75V356.949C231.651 365.785 238.815 372.949 247.651 372.949C256.487 372.949 263.651 365.786 263.651 356.949V356.75C263.651 347.914 256.488 340.75 247.651 340.75ZM346.899 310.976C338.063 310.976 330.899 318.139 330.899 326.976V327.175C330.9 336.011 338.063 343.175 346.899 343.175C355.735 343.175 362.899 336.011 362.899 327.175V326.976C362.899 318.139 355.736 310.976 346.899 310.976ZM168.248 281.2C159.411 281.2 152.248 288.364 152.248 297.2V297.399C152.248 306.236 159.411 313.399 168.248 313.399C177.084 313.399 184.247 306.236 184.248 297.399V297.2C184.248 288.364 177.084 281.2 168.248 281.2ZM267.499 241.5C258.663 241.5 251.499 248.664 251.499 257.5V257.699C251.499 266.535 258.663 273.699 267.499 273.699C276.335 273.699 283.498 266.536 283.499 257.699V257.5C283.498 248.664 276.335 241.5 267.499 241.5ZM198.024 172.025C189.188 172.026 182.024 179.189 182.024 188.025V188.225C182.024 197.061 189.188 204.224 198.024 204.225C206.861 204.225 214.024 197.061 214.024 188.225V188.025C214.024 179.189 206.861 172.025 198.024 172.025Z" fill="url(#paint0_linear_2566_2)"/>
<defs>
<linearGradient id="paint0_linear_2566_2" x1="244" y1="182.5" x2="323" y2="456" gradientUnits="userSpaceOnUse">
<stop stop-color="#9400D3"/>
<stop offset="1" stop-color="#3D2EB3"/>
</linearGradient>
</defs>
</svg>
