<svg width="128" height="128" viewBox="0 0 128 128" fill="none" xmlns="http://www.w3.org/2000/svg">
<path d="M56.1994 15.9119C61.4203 14.7618 65.2926 20.1857 66.5807 25.3743V25.3743C67.4503 28.8766 69.2583 32.0757 71.81 34.6274C74.3617 37.1791 77.5608 38.9872 81.0632 39.8567V39.8567C85.5 40.9582 90.2917 45.7499 91.3932 50.1868V50.1868C92.2628 53.6891 94.0708 56.8882 96.6225 59.4399C99.1742 61.9916 102.373 63.7996 105.875 64.6692V64.6692C111.064 65.9574 116.488 69.8297 115.338 75.0508C114.016 81.051 111.585 86.7846 108.137 91.9451C102.684 100.106 94.9334 106.466 85.8656 110.222C76.7979 113.978 66.8198 114.961 57.1935 113.046C47.5673 111.132 38.725 106.405 31.7848 99.4651C24.8447 92.5249 20.1183 83.6827 18.2035 74.0564C16.2888 64.4301 17.2715 54.452 21.0275 45.3843C24.7835 36.3166 31.1441 28.5661 39.3049 23.1133C44.4653 19.6652 50.1991 17.2337 56.1994 15.9119ZM61.9128 85.1875C59.7037 85.1876 57.9128 86.9784 57.9128 89.1875V89.2373C57.9128 91.4463 59.7037 93.2372 61.9128 93.2373C64.1219 93.2373 65.9127 91.4464 65.9128 89.2373V89.1875C65.9127 86.9784 64.1219 85.1875 61.9128 85.1875ZM86.7248 77.7439C84.5157 77.744 82.7248 79.5348 82.7248 81.7439V81.7937C82.7249 84.0027 84.5158 85.7936 86.7248 85.7937C88.9338 85.7937 90.7247 84.0027 90.7248 81.7937V81.7439C90.7248 79.5348 88.9339 77.7439 86.7248 77.7439ZM42.0619 70.3C39.8528 70.3 38.062 72.0909 38.0619 74.3V74.3499C38.062 76.5589 39.8528 78.3499 42.0619 78.3499C44.271 78.3499 46.0619 76.5589 46.0619 74.3499V74.3C46.0619 72.0909 44.2711 70.3 42.0619 70.3ZM66.8747 60.375C64.6657 60.3751 62.8747 62.166 62.8747 64.375V64.4248C62.8747 66.6338 64.6657 68.4247 66.8747 68.4248C69.0838 68.4248 70.8746 66.6339 70.8747 64.4248V64.375C70.8746 62.1659 69.0838 60.375 66.8747 60.375ZM49.506 43.0063C47.297 43.0064 45.5061 44.7973 45.506 47.0063V47.0562C45.5061 49.2652 47.297 51.0561 49.506 51.0562C51.7151 51.0562 53.506 49.2652 53.506 47.0562V47.0063C53.506 44.7972 51.7151 43.0063 49.506 43.0063Z" fill="url(#paint0_linear_2683_561)"/>
<defs>
<linearGradient id="paint0_linear_2683_561" x1="61" y1="45.625" x2="80.75" y2="114" gradientUnits="userSpaceOnUse">
<stop stop-color="#9400D3"/>
<stop offset="1" stop-color="#3D2EB3"/>
</linearGradient>
</defs>
</svg>
