<svg width="128" height="128" viewBox="0 0 128 128" fill="none" xmlns="http://www.w3.org/2000/svg">
<path d="M16.0377 88.3281V88.3325C16.0958 90.4857 16.1137 92.6514 16.4769 94.7915C16.8618 97.0555 17.412 99.2632 18.4616 101.318C19.8807 104.099 21.8297 106.448 24.2898 108.367C26.0561 109.744 27.9856 110.838 30.1215 111.528C33.236 112.532 36.4491 112.917 39.7091 112.936C41.7431 112.949 43.7757 113 45.8104 112.992C60.5866 112.929 75.3632 113.098 90.1399 112.9C92.1007 112.874 94.0294 112.635 95.9539 112.283C99.6423 111.607 102.902 110.034 105.691 107.545C108.942 104.646 111.135 101.098 112.125 96.8161C112.772 94.0172 112.934 91.1774 112.962 88.3278V87.7593C112.962 87.5388 112.878 39.3391 112.871 38.702C112.849 36.9519 112.72 35.2151 112.392 33.4931C111.993 31.3947 111.429 29.35 110.424 27.4516C109.363 25.4459 108.034 23.6425 106.39 22.0666C103.872 19.6521 100.967 17.9446 97.5841 17.0414C94.5287 16.2258 91.4118 16.0452 88.272 16.0481C88.2669 16.0473 88.255 16.0155 88.2543 16H40.7305C40.7296 16.0162 40.729 16.0324 40.7279 16.0481C38.9459 16.0807 37.1614 16.0673 35.3885 16.2871C33.4463 16.5285 31.5229 16.8921 29.6846 17.571C26.7891 18.642 24.2734 20.3101 22.1245 22.537C19.6898 25.0601 17.9736 27.978 17.0631 31.3758C16.2507 34.4074 16.0739 37.4993 16.0696 40.6131" fill="#FFFC00"/>
<path d="M64.9397 97.8404C64.7384 97.8404 64.5463 97.833 64.4002 97.826C64.2843 97.836 64.1646 97.8404 64.0447 97.8404C59.8157 97.8404 56.9881 95.8411 54.4927 94.0758C52.7042 92.8124 51.0174 91.6196 49.0414 91.2909C48.0709 91.13 47.1054 91.0483 46.1726 91.0483C44.4919 91.0483 43.1637 91.309 42.1939 91.4986C41.5972 91.6149 41.0826 91.715 40.6849 91.715C40.2684 91.715 39.7623 91.6227 39.5514 90.9025C39.3842 90.3344 39.2643 89.784 39.1486 89.254C38.8591 87.9295 38.6491 87.1211 38.1532 87.0444C32.849 86.226 29.7151 85.0204 29.0908 83.5604C29.0254 83.407 28.9889 83.2526 28.9808 83.0999C28.9565 82.6647 29.2637 82.283 29.6927 82.212C33.9049 81.5184 37.6503 79.292 40.8253 75.5926C43.2849 72.7286 44.4927 69.9922 44.6223 69.69C44.628 69.6764 44.6346 69.6621 44.6414 69.6491C45.2534 68.4074 45.3752 67.3343 45.0044 66.4607C44.321 64.849 42.0574 64.1309 40.5599 63.6557C40.1875 63.5379 39.8352 63.4263 39.5546 63.3149C38.2271 62.7905 36.0439 61.6826 36.3347 60.1535C36.5465 59.0384 38.0214 58.2618 39.2134 58.2618C39.5444 58.2618 39.8377 58.3199 40.0846 58.4358C41.4315 59.0668 42.6433 59.3867 43.6854 59.3867C44.9814 59.3867 45.6074 58.8932 45.7587 58.753C45.7214 58.0617 45.6758 57.3307 45.6317 56.6393L45.6307 56.6303C45.3265 51.791 44.9471 45.7685 46.4876 42.3149C51.0983 31.9771 60.8763 31.1732 63.7624 31.1732C63.8393 31.1732 65.0203 31.1615 65.0203 31.1615C65.0737 31.1606 65.1315 31.1598 65.1915 31.1598C68.0855 31.1598 77.8838 31.9646 82.4974 42.3087C84.0379 45.7645 83.6581 51.7921 83.3529 56.6365L83.3386 56.8684C83.2967 57.5262 83.2581 58.1487 83.2255 58.7523C83.368 58.8834 83.9408 59.3358 85.1062 59.3816C86.0997 59.3435 87.2413 59.0252 88.4985 58.4366C88.8872 58.2541 89.3175 58.2162 89.6097 58.2162C90.0513 58.2162 90.5006 58.3022 90.8751 58.4584L90.8951 58.4661C91.9619 58.8448 92.6606 59.6016 92.6757 60.3966C92.6891 61.1377 92.1384 62.2454 89.4295 63.3153C89.152 63.4252 88.798 63.5375 88.4241 63.6561C86.9253 64.1318 84.6636 64.8495 83.9802 66.4603C83.6089 67.334 83.731 68.4066 84.3432 69.648C84.35 69.6616 84.3558 69.6753 84.3624 69.6896C84.5509 70.1315 89.1132 80.5341 99.2921 82.2111C99.7209 82.2825 100.029 82.6645 100.004 83.099C99.9951 83.2551 99.9574 83.4111 99.8915 83.5636C99.2716 85.0155 96.1378 86.2194 90.8322 87.0389C90.3342 87.1158 90.1244 87.9206 89.8375 89.2381C89.7188 89.7823 89.598 90.3157 89.433 90.8763C89.2787 91.4034 88.9352 91.6611 88.3837 91.6611H88.3006C87.9416 91.6611 87.4328 91.5959 86.7912 91.4704C85.6698 91.2521 84.412 91.0489 82.8125 91.0489C81.8799 91.0489 80.9147 91.1307 79.943 91.2915C77.969 91.6202 76.2825 92.8111 74.4972 94.0731C71.9969 95.8409 69.1683 97.8404 64.9397 97.8404Z" fill="white"/>
<path d="M65.1913 32.0116C67.9158 32.0116 77.2978 32.7435 81.7191 42.6557C83.175 45.9197 82.8018 51.8322 82.5025 56.5819C82.4557 57.3356 82.4094 58.0662 82.3717 58.7638L82.3558 59.0636L82.556 59.287C82.6369 59.3767 83.3936 60.1676 85.0768 60.2326L85.1039 60.2341L85.1322 60.2336C86.245 60.1911 87.4985 59.8455 88.8597 59.2078C89.0602 59.114 89.3271 59.0682 89.6095 59.0682C89.9312 59.0682 90.2731 59.1287 90.5551 59.2474L90.5977 59.2644C91.3115 59.5145 91.8161 59.9861 91.8238 60.4128C91.8279 60.6541 91.6476 61.5232 89.1173 62.5227C88.8701 62.6203 88.5445 62.7242 88.1672 62.8431C86.5206 63.366 84.033 64.155 83.1957 66.1278C82.7243 67.2392 82.8534 68.5506 83.5791 70.0253C83.8777 70.7222 88.5777 81.309 99.1538 83.0517C99.1517 83.1018 99.1389 83.1567 99.1106 83.2213C98.9314 83.6435 97.792 85.1022 90.7019 86.1962C89.5925 86.3662 89.3207 87.6098 89.0056 89.0555C88.8917 89.5731 88.776 90.0955 88.6169 90.6352C88.5683 90.7982 88.5592 90.8074 88.3845 90.8074C88.3604 90.8074 88.3321 90.8074 88.3012 90.8074C87.9868 90.8074 87.5096 90.7422 86.9564 90.6337C85.9489 90.4375 84.5726 90.1968 82.8131 90.1968C81.8311 90.1968 80.8195 90.2821 79.8045 90.4516C77.6349 90.8124 75.8705 92.0603 74.0018 93.3812C71.4923 95.1545 68.8986 96.9894 64.9412 96.9894C64.7683 96.9894 64.5996 96.9835 64.4306 96.975L64.3861 96.9732L64.3414 96.9766C64.2443 96.985 64.1465 96.9894 64.0466 96.9894C60.0898 96.9894 57.4949 95.155 54.9866 93.3812C53.1175 92.0603 51.3522 90.8124 49.1829 90.4516C48.1689 90.2827 47.1563 90.1968 46.1749 90.1968C44.4158 90.1968 43.0378 90.4659 42.0324 90.6625C41.4792 90.7707 41.0002 90.8634 40.6868 90.8634C40.4301 90.8634 40.4252 90.8483 40.3709 90.6629C40.2118 90.1229 40.0955 89.588 39.9822 89.0711C39.6663 87.624 39.3944 86.3735 38.2855 86.2033C31.196 85.1084 30.0564 83.6473 29.8766 83.2262C29.8486 83.1599 29.8359 83.1033 29.8331 83.0532C40.409 81.312 45.1081 70.7248 45.4076 70.0253C46.1346 68.5518 46.2635 67.2405 45.7906 66.1278C44.9533 64.1561 42.4661 63.366 40.8206 62.8441C40.4423 62.7244 40.1166 62.6203 39.8691 62.5227C37.7325 61.6785 37.0752 60.828 37.1729 60.3127C37.2862 59.7184 38.3164 59.1142 39.2155 59.1142C39.4175 59.1142 39.5947 59.1468 39.7257 59.208C41.1859 59.8924 42.5189 60.2394 43.688 60.2394C45.5259 60.2394 46.344 59.3842 46.4318 59.2866L46.631 59.0638L46.615 58.7655C46.5779 58.0682 46.5321 57.3379 46.4838 56.5856C46.1855 51.8349 45.8123 45.9263 47.2675 42.6621C51.6724 32.7862 61.0086 32.025 63.7647 32.025C63.8325 32.025 65.0307 32.0127 65.0307 32.0127C65.0797 32.0123 65.1342 32.0116 65.1913 32.0116ZM65.1913 30.3081H65.1881C65.1253 30.3081 65.0663 30.3081 65.0102 30.3088C64.5623 30.3133 63.8261 30.3205 63.7599 30.3212C62.1454 30.3212 58.915 30.5493 55.445 32.0809C53.461 32.9561 51.6764 34.1394 50.141 35.5981C48.3104 37.3361 46.8191 39.479 45.7093 41.9681C44.084 45.6126 44.4699 51.7514 44.7797 56.6846L44.7809 56.6923C44.814 57.2206 44.8489 57.7723 44.8808 58.3099C44.6423 58.4194 44.2557 58.5349 43.686 58.5349C42.7692 58.5349 41.679 58.2418 40.4465 57.6643C40.0838 57.4954 39.6699 57.4101 39.2132 57.4101C38.4795 57.4101 37.7059 57.6261 37.0349 58.0206C36.1907 58.5163 35.6452 59.2169 35.4971 59.9936C35.3994 60.5074 35.4041 61.523 36.5322 62.5529C37.1527 63.1198 38.0642 63.6427 39.2407 64.1077C39.5495 64.2292 39.9159 64.3453 40.304 64.4684C41.6507 64.8965 43.689 65.5432 44.2205 66.7941C44.4898 67.4284 44.3739 68.263 43.8769 69.2718C43.8639 69.2993 43.8509 69.3262 43.839 69.3545C43.7148 69.6446 42.556 72.2694 40.179 75.0377C38.8283 76.6119 37.3406 77.9275 35.7596 78.9491C33.8299 80.1963 31.7419 81.0117 29.5541 81.3721C28.695 81.5131 28.0815 82.2785 28.1294 83.1484C28.1441 83.3991 28.2029 83.649 28.3049 83.8908L28.3073 83.8952C28.6547 84.7077 29.4601 85.3979 30.7695 86.0067C32.3695 86.7499 34.7625 87.3751 37.8814 87.8643C38.039 88.164 38.2026 88.9171 38.3158 89.4328C38.4344 89.9809 38.558 90.5445 38.7343 91.1431C38.9245 91.7917 39.4177 92.5668 40.6849 92.5668C41.1652 92.5668 41.7174 92.4586 42.357 92.3346C43.2935 92.1508 44.5743 91.9001 46.1728 91.9001C47.0591 91.9001 47.9776 91.9781 48.9021 92.1317C50.6842 92.4284 52.2205 93.5137 53.9981 94.7705C56.6 96.6098 59.5451 98.6916 64.0447 98.6916C64.1674 98.6916 64.2905 98.6876 64.4121 98.6791C64.5608 98.6861 64.7452 98.6916 64.9397 98.6916C69.4407 98.6916 72.385 96.609 74.984 94.7713L74.9882 94.7675C76.7661 93.5122 78.3008 92.4284 80.0823 92.1317C81.0065 91.9783 81.9248 91.9001 82.8114 91.9001C84.3385 91.9001 85.5476 92.0948 86.6273 92.3053C87.3318 92.4441 87.8794 92.5108 88.2995 92.5108L88.3406 92.5115H88.3832C89.31 92.5115 89.991 92.0028 90.2509 91.1126C90.4235 90.5266 90.5468 89.9762 90.6684 89.4189C90.7743 88.9356 90.9436 88.1609 91.1011 87.858C94.2221 87.368 96.6141 86.7441 98.2144 86.0011C99.5207 85.3951 100.325 84.7056 100.675 83.8965C100.779 83.6539 100.841 83.4025 100.854 83.1465C100.904 82.2781 100.289 81.5112 99.4295 81.3702C89.7065 79.7677 85.3264 69.7773 85.1452 69.3528C85.1335 69.3249 85.1203 69.2972 85.1066 69.2703C84.6095 68.2611 84.4948 67.4274 84.7643 66.7921C85.2947 65.5422 87.3316 64.8955 88.6793 64.4677C89.0695 64.3448 89.4372 64.2279 89.7435 64.1069C91.0702 63.5829 92.0185 63.0145 92.6441 62.3689C93.3912 61.5993 93.5367 60.862 93.5277 60.3794C93.5049 59.212 92.6124 58.1745 91.1927 57.6666C90.7132 57.4683 90.1665 57.3637 89.6097 57.3637C89.2306 57.3637 88.6693 57.4157 88.138 57.6638C87.0005 58.196 85.9815 58.4871 85.1068 58.5285C84.6416 58.505 84.3153 58.4041 84.104 58.3078C84.1306 57.8524 84.16 57.3846 84.1904 56.8968L84.203 56.688C84.5146 51.7516 84.9017 45.6081 83.2756 41.9609C82.1611 39.4629 80.6646 37.3146 78.8266 35.5728C77.2852 34.1132 75.4946 32.9301 73.5035 32.0555C70.0384 30.5352 66.8081 30.3081 65.1913 30.3081Z" fill="#020202"/>
</svg>
