<svg width="512" height="512" viewBox="0 0 512 512" fill="none" xmlns="http://www.w3.org/2000/svg">
<path d="M62 352.058V352.076C62.2328 360.711 62.3046 369.396 63.7612 377.978C65.3047 387.058 67.5111 395.911 71.7206 404.152C77.4117 415.306 85.2275 424.725 95.0933 432.419C102.177 437.944 109.915 442.329 118.48 445.096C130.97 449.125 143.856 450.669 156.93 450.745C165.086 450.796 173.238 451 181.398 450.966C240.655 450.717 299.914 451.394 359.173 450.6C367.036 450.494 374.771 449.534 382.489 448.123C397.28 445.416 410.353 439.104 421.538 429.126C434.573 417.499 443.368 403.271 447.338 386.098C449.936 374.873 450.586 363.485 450.697 352.057V349.777C450.697 348.893 450.361 155.597 450.33 153.042C450.243 146.024 449.726 139.058 448.41 132.153C446.81 123.737 444.549 115.538 440.519 107.924C436.264 99.881 430.934 92.6487 424.342 86.3288C414.245 76.646 402.592 69.7984 389.026 66.1762C376.773 62.9055 364.273 62.1814 351.682 62.1928C351.661 62.1897 351.614 62.062 351.611 62H161.026C161.022 62.065 161.02 62.13 161.015 62.1928C153.869 62.3235 146.712 62.2698 139.603 63.1512C131.814 64.1195 124.1 65.5776 116.728 68.3003C105.116 72.5952 95.0275 79.2847 86.4097 88.2155C76.646 98.3337 69.7637 110.036 66.112 123.662C62.8541 135.819 62.1451 148.219 62.1277 160.706" fill="#FFFC00"/>
<path d="M258.112 390.205C257.305 390.205 256.535 390.175 255.949 390.147C255.484 390.187 255.004 390.205 254.523 390.205C237.563 390.205 226.224 382.187 216.217 375.107C209.044 370.041 202.28 365.258 194.355 363.939C190.463 363.294 186.591 362.966 182.851 362.966C176.11 362.966 170.784 364.012 166.895 364.772C164.501 365.239 162.438 365.64 160.843 365.64C159.173 365.64 157.143 365.27 156.297 362.381C155.627 360.103 155.146 357.896 154.682 355.77C153.521 350.459 152.679 347.217 150.69 346.909C129.419 343.627 116.851 338.793 114.347 332.938C114.085 332.322 113.938 331.703 113.906 331.091C113.808 329.346 115.04 327.815 116.761 327.53C133.653 324.748 148.673 315.82 161.406 300.984C171.27 289.499 176.113 278.525 176.633 277.313C176.656 277.259 176.683 277.201 176.71 277.149C179.164 272.169 179.652 267.866 178.166 264.362C175.425 257.899 166.347 255.019 160.342 253.113C158.848 252.641 157.436 252.194 156.31 251.747C150.986 249.644 142.231 245.201 143.397 239.068C144.247 234.597 150.162 231.482 154.942 231.482C156.269 231.482 157.445 231.715 158.436 232.18C163.837 234.711 168.697 235.993 172.876 235.993C178.073 235.993 180.584 234.015 181.191 233.452C181.041 230.68 180.858 227.748 180.681 224.976C180.681 224.973 180.677 224.939 180.677 224.939C179.457 205.532 177.936 181.38 184.114 167.53C202.604 126.072 241.817 122.849 253.391 122.849C253.699 122.849 258.436 122.802 258.436 122.802C258.65 122.798 258.882 122.795 259.122 122.795C270.728 122.795 310.022 126.023 328.524 167.505C334.702 181.364 333.179 205.537 331.955 224.964L331.898 225.894C331.73 228.532 331.575 231.029 331.444 233.449C332.015 233.975 334.313 235.789 338.986 235.973C342.97 235.82 347.549 234.544 352.591 232.183C354.149 231.451 355.875 231.299 357.046 231.299C358.817 231.299 360.62 231.644 362.121 232.271L362.202 232.302C366.48 233.82 369.282 236.855 369.342 240.043C369.396 243.016 367.187 247.458 356.324 251.748C355.211 252.189 353.792 252.639 352.292 253.115C346.281 255.023 337.211 257.901 334.471 264.361C332.981 267.864 333.471 272.166 335.926 277.144C335.954 277.199 335.977 277.254 336.003 277.311C336.759 279.083 355.055 320.801 395.876 327.526C397.596 327.813 398.83 329.345 398.732 331.087C398.695 331.713 398.544 332.339 398.28 332.95C395.794 338.773 383.226 343.601 361.949 346.887C359.952 347.196 359.111 350.423 357.96 355.707C357.484 357.889 357 360.028 356.338 362.276C355.719 364.391 354.342 365.424 352.13 365.424H351.797C350.357 365.424 348.317 365.162 345.744 364.659C341.246 363.784 336.202 362.969 329.788 362.969C326.048 362.969 322.177 363.297 318.28 363.942C310.364 365.26 303.6 370.035 296.441 375.097C286.414 382.186 275.07 390.205 258.112 390.205Z" fill="white"/>
<path d="M259.121 126.211C270.047 126.211 307.672 129.146 325.402 168.897C331.241 181.986 329.744 205.698 328.544 224.745C328.356 227.768 328.17 230.698 328.019 233.495L327.956 234.698L328.759 235.593C329.083 235.953 332.118 239.125 338.868 239.386L338.977 239.392L339.09 239.389C343.553 239.219 348.579 237.833 354.038 235.276C354.843 234.9 355.913 234.716 357.045 234.716C358.335 234.716 359.707 234.958 360.837 235.435L361.008 235.503C363.871 236.506 365.894 238.397 365.925 240.108C365.942 241.076 365.219 244.561 355.072 248.57C354.08 248.961 352.774 249.378 351.261 249.855C344.658 251.951 334.682 255.116 331.324 263.027C329.434 267.484 329.951 272.743 332.861 278.657C334.059 281.452 352.907 323.908 395.321 330.897C395.312 331.098 395.261 331.318 395.148 331.578C394.429 333.271 389.859 339.12 361.426 343.508C356.977 344.189 355.887 349.177 354.623 354.974C354.167 357.05 353.703 359.145 353.065 361.309C352.87 361.963 352.833 362 352.133 362C352.036 362 351.923 362 351.799 362C350.538 362 348.624 361.739 346.405 361.303C342.365 360.516 336.846 359.551 329.79 359.551C325.851 359.551 321.795 359.894 317.724 360.573C309.023 362.02 301.947 367.025 294.454 372.322C284.39 379.433 273.988 386.792 258.118 386.792C257.425 386.792 256.748 386.768 256.07 386.734L255.892 386.727L255.712 386.74C255.323 386.774 254.931 386.792 254.53 386.792C238.662 386.792 228.256 379.435 218.197 372.322C210.701 367.025 203.622 362.02 194.922 360.573C190.856 359.896 186.795 359.551 182.859 359.551C175.804 359.551 170.278 360.631 166.246 361.419C164.028 361.853 162.107 362.225 160.85 362.225C159.821 362.225 159.801 362.164 159.583 361.42C158.945 359.255 158.479 357.11 158.025 355.037C156.758 349.233 155.667 344.219 151.22 343.536C122.789 339.145 118.219 333.286 117.498 331.597C117.385 331.331 117.335 331.104 117.323 330.903C159.736 323.92 178.581 281.463 179.782 278.657C182.697 272.748 183.214 267.489 181.318 263.027C177.96 255.12 167.986 251.951 161.387 249.858C159.87 249.378 158.564 248.961 157.571 248.57C149.002 245.184 146.367 241.773 146.758 239.707C147.212 237.324 151.344 234.9 154.95 234.9C155.76 234.9 156.47 235.031 156.996 235.277C162.852 238.021 168.197 239.413 172.886 239.413C180.257 239.413 183.537 235.983 183.889 235.592L184.688 234.698L184.624 233.502C184.475 230.706 184.291 227.777 184.098 224.76C182.901 205.708 181.405 182.013 187.241 168.922C204.906 129.317 242.347 126.264 253.399 126.264C253.672 126.264 258.477 126.215 258.477 126.215C258.673 126.214 258.892 126.211 259.121 126.211ZM259.121 119.379H259.108C258.856 119.379 258.62 119.379 258.394 119.382C256.598 119.4 253.646 119.429 253.381 119.432C246.906 119.432 233.951 120.346 220.035 126.489C212.078 129.998 204.922 134.744 198.764 140.593C191.423 147.563 185.443 156.157 180.992 166.139C174.474 180.755 176.021 205.373 177.264 225.157L177.269 225.188C177.402 227.307 177.541 229.519 177.669 231.675C176.713 232.114 175.163 232.577 172.878 232.577C169.201 232.577 164.829 231.402 159.886 229.086C158.432 228.409 156.772 228.066 154.941 228.066C151.998 228.066 148.896 228.933 146.205 230.515C142.819 232.503 140.632 235.312 140.038 238.427C139.646 240.488 139.665 244.56 144.189 248.691C146.677 250.964 150.333 253.061 155.051 254.926C156.289 255.413 157.759 255.879 159.315 256.373C164.716 258.089 172.89 260.683 175.021 265.699C176.101 268.243 175.637 271.59 173.643 275.635C173.591 275.746 173.539 275.854 173.491 275.967C172.993 277.131 168.346 287.657 158.814 298.759C153.397 305.072 147.431 310.348 141.091 314.445C133.352 319.446 124.978 322.716 116.205 324.162C112.759 324.727 110.299 327.797 110.491 331.285C110.55 332.29 110.786 333.293 111.195 334.262C111.198 334.268 111.202 334.275 111.205 334.28C112.598 337.538 115.827 340.306 121.079 342.748C127.495 345.728 137.092 348.236 149.6 350.197C150.231 351.399 150.888 354.419 151.342 356.488C151.817 358.686 152.313 360.946 153.02 363.346C153.783 365.947 155.761 369.056 160.843 369.056C162.768 369.056 164.983 368.622 167.548 368.124C171.304 367.387 176.44 366.382 182.851 366.382C186.405 366.382 190.088 366.695 193.796 367.311C200.943 368.501 207.104 372.853 214.233 377.893C224.667 385.269 236.478 393.618 254.523 393.618C255.015 393.618 255.508 393.602 255.996 393.568C256.592 393.596 257.332 393.618 258.112 393.618C276.162 393.618 287.97 385.266 298.393 377.896L298.409 377.881C305.539 372.847 311.694 368.501 318.838 367.311C322.544 366.696 326.227 366.382 329.783 366.382C335.907 366.382 340.756 367.163 345.086 368.007C347.911 368.564 350.107 368.831 351.792 368.831L351.957 368.834H352.127C355.844 368.834 358.575 366.794 359.617 363.224C360.31 360.874 360.804 358.667 361.292 356.432C361.717 354.494 362.395 351.387 363.027 350.172C375.543 348.207 385.136 345.705 391.553 342.725C396.792 340.295 400.019 337.53 401.42 334.285C401.84 333.312 402.086 332.304 402.141 331.277C402.338 327.795 399.874 324.719 396.427 324.154C357.434 317.727 339.869 277.663 339.142 275.961C339.095 275.849 339.042 275.738 338.987 275.629C336.994 271.582 336.534 268.239 337.614 265.691C339.742 260.679 347.91 258.085 353.315 256.37C354.88 255.877 356.354 255.408 357.583 254.923C362.903 252.821 366.706 250.542 369.215 247.953C372.211 244.867 372.795 241.91 372.758 239.975C372.667 235.293 369.088 231.132 363.395 229.095C361.472 228.3 359.279 227.88 357.046 227.88C355.526 227.88 353.275 228.089 351.144 229.084C346.582 231.218 342.496 232.385 338.988 232.552C337.122 232.457 335.814 232.053 334.967 231.667C335.073 229.84 335.191 227.964 335.313 226.008L335.363 225.171C336.613 205.374 338.166 180.737 331.645 166.111C327.175 156.093 321.173 147.477 313.803 140.492C307.621 134.639 300.44 129.894 292.455 126.387C278.559 120.29 265.605 119.379 259.121 119.379Z" fill="#020202"/>
</svg>
