<svg width="128" height="128" viewBox="0 0 128 128" fill="none" xmlns="http://www.w3.org/2000/svg">
<path fill-rule="evenodd" clip-rule="evenodd" d="M86.2488 21.25H41.4884C40.1065 21.25 38.8409 21.9871 38.1436 23.1767L15.7633 62.0082C15.0789 63.1979 15.0789 64.6717 15.7633 65.8744L38.1436 104.693C38.828 105.883 40.1065 106.62 41.4884 106.62H86.2618C87.6434 106.62 88.9093 105.883 89.6066 104.693L111.987 65.8744C112.671 64.6847 112.671 63.2105 111.987 62.0082L89.5936 23.1767C88.9093 21.9871 87.6308 21.25 86.2488 21.25ZM97.1879 48.4821C96.9813 48.2235 96.6456 48.1201 96.3356 48.1976L79.6247 52.1933C79.3276 52.2579 79.0954 52.4648 79.0049 52.7493C78.9014 53.0338 78.9663 53.3441 79.1599 53.5769L81.846 56.7706L70.107 67.0508L59.1817 54.663C58.7166 54.1331 57.8902 54.0812 57.3606 54.5466L41.1664 68.6671C40.3787 68.3826 39.5392 68.2146 38.6611 68.2146C34.619 68.2146 31.3258 71.5119 31.3258 75.5595C31.3258 79.6067 34.619 82.904 38.6611 82.904C42.7032 82.904 45.9963 79.6067 45.9963 75.5595C45.9963 75.0162 45.9318 74.4862 45.8155 73.9689L57.6966 63.6111L68.8674 76.2834C69.2031 76.6584 69.7843 76.6973 70.1585 76.3609L86.3788 62.1629L89.0522 65.3568C89.2199 65.5507 89.4524 65.6672 89.7106 65.6672H89.827C90.1241 65.6286 90.3693 65.4346 90.4984 65.1628L97.33 49.3743C97.4591 49.0769 97.4075 48.7407 97.2009 48.4821H97.1879Z" fill="#231A26"/>
</svg>
