<svg width="128" height="128" viewBox="0 0 128 128" fill="none" xmlns="http://www.w3.org/2000/svg">
<path d="M54.5183 53.5496V49.76C53.2028 49.5516 51.8741 49.4374 50.5423 49.4183C37.6491 49.3911 26.2342 57.7461 22.3626 70.0443C18.4909 82.3425 23.061 95.7299 33.6446 103.093C25.7167 94.6088 23.5154 82.2573 28.024 71.5562C32.5325 60.8551 42.9089 53.8029 54.5183 53.5496Z" fill="#25F4EE"/>
<path d="M55.2349 96.4771C62.4437 96.4675 68.3692 90.7883 68.6848 83.5864V19.3191H80.4262C80.1866 17.9763 80.0722 16.614 80.0845 15.25H64.0255V79.4552C63.7584 86.6937 57.819 92.4273 50.5756 92.4391C48.4111 92.4208 46.2818 91.8883 44.3632 90.886C46.8852 94.3802 50.9257 96.4582 55.2349 96.4771Z" fill="#25F4EE"/>
<path d="M102.355 41.1247V37.5525C98.0342 37.554 93.8089 36.2789 90.21 33.8872C93.3649 37.5547 97.6282 40.0953 102.355 41.1247Z" fill="#25F4EE"/>
<path d="M90.2088 33.8866C86.6637 29.8496 84.7094 24.6601 84.7108 19.2875H80.4243C81.5432 25.2908 85.0813 30.5699 90.2088 33.8866Z" fill="#FE2C55"/>
<path d="M50.5446 65.4782C44.3585 65.51 38.9879 69.748 37.5186 75.7572C36.0494 81.7664 38.8586 88.0044 44.3322 90.887C41.3664 86.7923 40.9474 81.3802 43.2477 76.8779C45.5481 72.3755 50.179 69.5436 55.235 69.5474C56.5831 69.5641 57.9219 69.7734 59.2109 70.1686V53.83C57.8946 53.6328 56.566 53.529 55.235 53.5194H54.5206V65.9442C53.2249 65.5967 51.8855 65.4398 50.5446 65.4782Z" fill="#FE2C55"/>
<path d="M102.352 41.1249V53.5497C94.353 53.5342 86.5612 51.0022 80.0809 46.3122V78.9584C80.0466 95.2486 66.8312 108.436 50.5409 108.436C44.4912 108.447 38.5872 106.58 33.6432 103.094C41.894 111.967 54.7345 114.888 66.012 110.457C77.2895 106.026 84.7066 95.1445 84.7091 83.0275V50.4746C91.2112 55.1338 99.0126 57.6328 107.012 57.6188V41.6219C105.446 41.6169 103.884 41.4504 102.352 41.1249Z" fill="#FE2C55"/>
<path d="M80.0818 78.9576V46.3114C86.5819 50.9744 94.3846 53.4738 102.384 53.4557V41.0309C97.6582 40.0329 93.3846 37.5254 90.208 33.8866C85.0805 30.5699 81.5424 25.2908 80.4235 19.2875H68.682V83.5858C68.4472 89.3222 64.6049 94.2805 59.1087 95.9399C53.6125 97.5992 47.6684 95.5956 44.2983 90.9475C38.8247 88.065 36.0155 81.827 37.4847 75.8178C38.954 69.8085 44.3246 65.5705 50.5107 65.5388C51.8593 65.5509 53.1988 65.7601 54.4867 66.16V53.7352C42.8122 53.933 32.3574 61.0099 27.836 71.775C23.3147 82.5402 25.5809 94.9599 33.613 103.434C38.6057 106.806 44.5183 108.553 50.5418 108.435C66.832 108.435 80.0475 95.2478 80.0818 78.9576Z" fill="black"/>
</svg>
