<svg width="512" height="512" viewBox="0 0 512 512" fill="none" xmlns="http://www.w3.org/2000/svg">
<path d="M218.073 214.198V199.04C212.811 198.206 207.496 197.75 202.169 197.673C150.597 197.564 104.937 230.985 89.4504 280.177C73.9637 329.37 92.2439 382.92 134.578 412.374C102.867 378.435 94.0616 329.029 112.096 286.225C130.13 243.421 171.636 215.212 218.073 214.198Z" fill="#25F4EE"/>
<path d="M220.94 385.909C249.775 385.87 273.477 363.153 274.739 334.346V77.2765H321.705C320.746 71.905 320.289 66.4561 320.338 61H256.102V317.821C255.034 346.775 231.276 369.709 202.303 369.756C193.644 369.683 185.127 367.553 177.453 363.544C187.541 377.521 203.703 385.833 220.94 385.909Z" fill="#25F4EE"/>
<path d="M409.421 164.499V150.21C392.136 150.216 375.235 145.115 360.84 135.549C373.459 150.219 390.513 160.381 409.421 164.499Z" fill="#25F4EE"/>
<path d="M360.835 135.546C346.655 119.398 338.838 98.64 338.843 77.1494H321.697C326.173 101.163 340.325 122.279 360.835 135.546Z" fill="#FE2C55"/>
<path d="M202.179 261.913C177.435 262.04 155.952 278.992 150.075 303.029C144.198 327.065 155.435 352.017 177.33 363.548C165.466 347.169 163.791 325.521 172.992 307.511C182.193 289.502 200.717 278.174 220.941 278.189C226.333 278.256 231.689 279.093 236.845 280.674V215.32C231.579 214.531 226.265 214.116 220.941 214.077H218.083V263.776C212.9 262.387 207.543 261.759 202.179 261.913Z" fill="#FE2C55"/>
<path d="M409.409 164.5V214.199C377.411 214.137 346.244 204.009 320.323 185.249V315.834C320.186 380.995 267.324 433.746 202.163 433.745C177.964 433.789 154.348 426.322 134.572 412.375C167.575 447.87 218.937 459.554 264.047 441.829C309.158 424.103 338.826 380.578 338.836 332.111V201.899C364.844 220.535 396.05 230.532 428.046 230.476V166.488C421.782 166.468 415.536 165.802 409.409 164.5Z" fill="#FE2C55"/>
<path d="M320.328 315.83V185.245C346.328 203.897 377.539 213.895 409.538 213.822V164.123C390.633 160.131 373.539 150.101 360.832 135.546C340.322 122.279 326.17 101.163 321.694 77.1494H274.729V334.343C273.789 357.289 258.42 377.122 236.435 383.759C214.451 390.397 190.674 382.382 177.194 363.79C155.299 352.259 144.062 327.307 149.939 303.271C155.816 279.234 177.299 262.282 202.043 262.155C207.438 262.203 212.796 263.04 217.947 264.64V214.94C171.249 215.732 129.43 244.039 111.345 287.1C93.2592 330.16 102.324 379.839 134.453 413.737C154.423 427.224 178.074 434.211 202.168 433.741C267.329 433.741 320.191 380.991 320.328 315.83Z" fill="black"/>
</svg>
