<svg width="128" height="128" viewBox="0 0 128 128" fill="none" xmlns="http://www.w3.org/2000/svg">
<path d="M98.9987 41.6345C91.845 41.6345 86.0671 45.1728 80.9272 50.1639C81.9282 51.4586 82.9059 52.7415 83.8542 53.9893C85.3587 55.9635 86.9627 58.09 88.5843 60.0877C92.0441 56.4849 95.4863 54.0538 98.9987 54.0538C104.402 54.0538 108.798 58.588 108.798 63.872C108.81 69.285 104.425 73.6845 98.9987 73.7079C92.5709 73.7079 86.4066 65.6002 79.8734 57.018C75.1785 50.8493 70.3255 44.4639 64.3016 39.3556C56.8787 33.064 49.122 30.0001 40.5868 30.0001C28.422 29.965 17.1647 36.409 11.0706 46.9068C4.97648 57.4046 4.97648 70.3512 11.0706 80.8431C17.1647 91.341 28.422 97.7908 40.5868 97.7498C49.122 97.7498 56.8845 94.686 64.3016 88.3943C67.9838 85.2778 71.2211 81.6809 74.2594 77.9492C71.4611 74.8151 68.8444 71.3881 66.2745 68.0079C63.1133 72.0325 59.8115 75.893 56.2289 78.9334C51.0831 83.2919 46.113 85.3246 40.5809 85.3246C32.8945 85.3246 25.7877 81.2356 21.9416 74.5983C18.0955 67.961 18.0955 59.783 21.9416 53.1399C25.7877 46.5026 32.8887 42.4136 40.5809 42.4136C46.113 42.4136 51.0831 44.464 56.2289 48.8224C61.2224 53.052 65.6539 58.8809 69.9449 64.5223C78.0236 75.1432 86.3773 86.1213 98.9928 86.1213C111.298 86.0862 121.256 76.1332 121.25 63.8603C121.25 51.7046 111.263 41.6227 98.9928 41.6227L98.9987 41.6345Z" fill="#364167"/>
</svg>
