<svg width="512" height="512" viewBox="0 0 512 512" fill="none" xmlns="http://www.w3.org/2000/svg">
<path d="M395.995 166.538C367.38 166.538 344.268 180.691 323.709 200.656C327.713 205.834 331.623 210.966 335.417 215.957C341.435 223.854 347.851 232.36 354.337 240.351C368.176 225.94 381.945 216.215 395.995 216.215C417.608 216.215 435.194 234.352 435.194 255.488C435.24 277.14 417.702 294.738 395.995 294.832C370.284 294.832 345.626 262.401 319.494 228.072C300.714 203.397 281.302 177.856 257.206 157.423C227.515 132.256 196.488 120.001 162.347 120.001C113.688 119.86 68.6586 145.636 44.2823 187.627C19.9059 229.619 19.9059 281.405 44.2823 323.373C68.6586 365.364 113.688 391.163 162.347 390.999C196.488 390.999 227.538 378.744 257.206 353.577C271.935 341.111 284.885 326.723 297.038 311.797C285.845 299.26 275.378 285.552 265.098 272.032C252.453 288.13 239.246 303.572 224.915 315.734C204.333 333.167 184.452 341.299 162.324 341.299C131.578 341.299 103.151 324.943 87.7663 298.393C72.3818 271.844 72.3818 239.132 87.7663 212.56C103.151 186.01 131.555 169.654 162.324 169.654C184.452 169.654 204.333 177.856 224.915 195.29C244.89 212.208 262.616 235.524 279.78 258.089C312.094 300.573 345.509 344.485 395.971 344.485C445.192 344.345 485.023 304.533 485 255.441C485 206.819 445.052 166.491 395.971 166.491L395.995 166.538Z" fill="white"/>
</svg>
