<svg width="6943" height="3453" viewBox="0 0 6943 3453" fill="none" xmlns="http://www.w3.org/2000/svg">
<line x1="3476.5" y1="683.5" x2="3476.5" y2="3258.5" stroke="white" stroke-opacity="0.7" stroke-width="11" stroke-linecap="round" stroke-dasharray="2 120"/>
<g filter="url(#filter0_d_423_167)">
<path d="M1574.14 1078C1574.14 1078 1487.55 1078 1441.8 1078C1372.32 1078 1316 1026.02 1316 961.893C1316 902.912 1363.65 854.202 1425.36 846.768C1424.21 839.658 1423.62 832.383 1423.62 824.98C1423.62 743.805 1494.92 678 1582.87 678C1641.79 678 1693.23 707.532 1720.78 751.433C1732.61 746.511 1745.75 743.772 1759.57 743.772C1811.78 743.772 1854.1 782.834 1854.1 831.02C1854.1 840.157 1852.58 848.965 1849.76 857.242C1891.91 875.996 1921 915.809 1921 961.893C1921 1026.02 1864.68 1078 1795.2 1078C1725.72 1078 1681.04 1078 1681.04 1078H1574.14Z" fill="url(#paint0_linear_423_167)"/>
<path d="M1508.82 982.791C1500.74 982.791 1493.62 981.031 1487.46 977.511C1481.38 973.911 1476.62 968.951 1473.18 962.631C1469.82 956.311 1468.14 949.031 1468.14 940.791C1468.14 934.711 1469.14 929.151 1471.14 924.111C1473.22 918.991 1476.06 914.551 1479.66 910.791C1483.34 907.031 1487.62 904.111 1492.5 902.031C1497.46 899.951 1502.86 898.911 1508.7 898.911C1511.98 898.911 1515.66 899.311 1519.74 900.111C1523.82 900.831 1527.86 902.351 1531.86 904.671L1532.34 922.071H1524.9L1522.5 908.151C1520.34 906.951 1518.22 906.111 1516.14 905.631C1514.14 905.151 1512.18 904.911 1510.26 904.911C1504.9 904.911 1500.02 906.271 1495.62 908.991C1491.22 911.711 1487.7 915.751 1485.06 921.111C1482.5 926.391 1481.22 932.951 1481.22 940.791C1481.22 948.631 1482.42 955.231 1484.82 960.591C1487.22 965.951 1490.54 969.991 1494.78 972.711C1499.1 975.431 1503.98 976.791 1509.42 976.791C1511.74 976.791 1514.1 976.551 1516.5 976.071C1518.98 975.511 1521.38 974.671 1523.7 973.551L1526.1 959.631H1533.54L1533.06 977.031C1529.38 979.031 1525.46 980.471 1521.3 981.351C1517.22 982.311 1513.06 982.791 1508.82 982.791ZM1541.2 980.991V976.671L1550.8 974.991C1550.88 971.711 1550.92 968.511 1550.92 965.391C1551 962.191 1551.04 958.991 1551.04 955.791V903.111L1541.2 901.911V897.711L1559.92 892.311L1561.6 893.271L1561.12 910.311V955.791C1561.12 958.991 1561.12 962.191 1561.12 965.391C1561.2 968.591 1561.28 971.791 1561.36 974.991L1570.96 976.671V980.991H1541.2ZM1606.82 982.551C1602.18 982.551 1597.74 981.471 1593.5 979.311C1589.34 977.071 1585.94 973.751 1583.3 969.351C1580.66 964.871 1579.34 959.351 1579.34 952.791C1579.34 946.151 1580.66 940.591 1583.3 936.111C1585.94 931.551 1589.34 928.151 1593.5 925.911C1597.74 923.591 1602.18 922.431 1606.82 922.431C1611.46 922.431 1615.86 923.591 1620.02 925.911C1624.26 928.151 1627.7 931.551 1630.34 936.111C1633.06 940.591 1634.42 946.151 1634.42 952.791C1634.42 959.351 1633.06 964.871 1630.34 969.351C1627.7 973.751 1624.26 977.071 1620.02 979.311C1615.86 981.471 1611.46 982.551 1606.82 982.551ZM1606.82 977.151C1612.02 977.151 1616.02 975.111 1618.82 971.031C1621.62 966.871 1623.02 960.791 1623.02 952.791C1623.02 944.711 1621.62 938.551 1618.82 934.311C1616.02 930.071 1612.02 927.951 1606.82 927.951C1601.62 927.951 1597.62 930.071 1594.82 934.311C1592.1 938.551 1590.74 944.711 1590.74 952.791C1590.74 960.791 1592.1 966.871 1594.82 971.031C1597.62 975.111 1601.62 977.151 1606.82 977.151ZM1665.39 982.551C1660.51 982.551 1656.67 980.951 1653.87 977.751C1651.07 974.471 1649.71 968.871 1649.79 960.951L1650.15 931.071L1641.63 929.271V924.951L1659.27 923.271L1660.47 924.471L1659.87 941.271V959.871C1659.87 965.071 1660.67 968.751 1662.27 970.911C1663.87 972.991 1666.27 974.031 1669.47 974.031C1675.07 974.031 1680.67 971.431 1686.27 966.231L1686.63 930.951L1678.11 929.271V924.951L1695.51 923.271L1696.71 924.471L1696.35 941.271V974.991L1704.51 976.671V980.991L1687.83 981.951L1686.63 971.271C1683.43 975.191 1679.99 978.071 1676.31 979.911C1672.71 981.671 1669.07 982.551 1665.39 982.551ZM1723.62 952.791C1723.62 960.631 1725.18 966.431 1728.3 970.191C1731.5 973.871 1735.5 975.711 1740.3 975.711C1742.94 975.711 1745.26 975.191 1747.26 974.151C1749.34 973.031 1751.5 971.231 1753.74 968.751V935.511C1751.02 933.111 1748.58 931.471 1746.42 930.591C1744.26 929.711 1742.18 929.271 1740.18 929.271C1737.22 929.271 1734.46 930.111 1731.9 931.791C1729.42 933.391 1727.42 935.951 1725.9 939.471C1724.38 942.911 1723.62 947.351 1723.62 952.791ZM1754.94 982.191L1754.1 973.911C1752.02 976.631 1749.62 978.751 1746.9 980.271C1744.26 981.791 1741.06 982.551 1737.3 982.551C1732.42 982.551 1728.14 981.311 1724.46 978.831C1720.78 976.351 1717.9 972.911 1715.82 968.511C1713.82 964.031 1712.82 958.871 1712.82 953.031C1712.82 946.871 1713.94 941.511 1716.18 936.951C1718.42 932.391 1721.46 928.831 1725.3 926.271C1729.14 923.711 1733.5 922.431 1738.38 922.431C1741.18 922.431 1743.86 922.991 1746.42 924.111C1749.06 925.231 1751.62 927.271 1754.1 930.231V903.111L1743.9 901.911V897.711L1762.62 892.311L1764.3 893.271L1763.82 910.311V975.231L1773.54 976.671V980.991L1754.94 982.191Z" fill="#372C3B"/>
</g>
<path d="M1440.8 3201.36C1440.8 3207.2 1440.8 3212.84 1440.8 3218.28C1440.88 3223.72 1440.96 3229.08 1441.04 3234.36H1450.52C1459.8 3234.36 1466.92 3231.36 1471.88 3225.36C1476.84 3219.28 1479.32 3210.8 1479.32 3199.92C1479.32 3188.64 1476.88 3180.04 1472 3174.12C1467.12 3168.2 1460.32 3165.24 1451.6 3165.24H1441.04C1440.96 3170.36 1440.88 3175.6 1440.8 3180.96C1440.8 3186.24 1440.8 3191.56 1440.8 3196.92V3201.36ZM1418.12 3164.64V3159.72H1453.52C1461.2 3159.72 1467.96 3161.28 1473.8 3164.4C1479.64 3167.44 1484.2 3171.96 1487.48 3177.96C1490.76 3183.88 1492.4 3191.2 1492.4 3199.92C1492.4 3208.56 1490.6 3215.88 1487 3221.88C1483.4 3227.8 1478.48 3232.32 1472.24 3235.44C1466.08 3238.48 1459.08 3240 1451.24 3240H1418.12V3235.08L1429.16 3233.76C1429.32 3228.64 1429.4 3223.44 1429.4 3218.16C1429.4 3212.8 1429.4 3207.2 1429.4 3201.36V3196.92C1429.4 3191.72 1429.4 3186.56 1429.4 3181.44C1429.4 3176.24 1429.32 3171.08 1429.16 3165.96L1418.12 3164.64ZM1530.32 3186.96C1528.08 3186.96 1525.8 3187.6 1523.48 3188.88C1521.24 3190.16 1519.28 3192.2 1517.6 3195C1516 3197.8 1514.96 3201.52 1514.48 3206.16H1536.32C1539.2 3206.16 1541.08 3205.56 1541.96 3204.36C1542.92 3203.16 1543.4 3201.68 1543.4 3199.92C1543.4 3197.6 1542.8 3195.48 1541.6 3193.56C1540.48 3191.56 1538.92 3189.96 1536.92 3188.76C1535 3187.56 1532.8 3186.96 1530.32 3186.96ZM1530.2 3241.56C1522.12 3241.56 1515.64 3238.96 1510.76 3233.76C1505.88 3228.48 1503.44 3221.24 1503.44 3212.04C1503.44 3205.88 1504.68 3200.52 1507.16 3195.96C1509.72 3191.4 1513.08 3187.84 1517.24 3185.28C1521.48 3182.72 1526.08 3181.44 1531.04 3181.44C1535.2 3181.44 1538.96 3182.36 1542.32 3184.2C1545.68 3186.04 1548.36 3188.68 1550.36 3192.12C1552.36 3195.48 1553.36 3199.6 1553.36 3204.48C1553.36 3205.84 1553.28 3207.12 1553.12 3208.32C1552.96 3209.44 1552.76 3210.4 1552.52 3211.2H1514.24C1514.4 3218.56 1516.24 3224.16 1519.76 3228C1523.28 3231.84 1527.92 3233.76 1533.68 3233.76C1537.52 3233.76 1540.72 3233 1543.28 3231.48C1545.84 3229.88 1548.2 3227.84 1550.36 3225.36L1553.24 3227.64C1551 3231.88 1547.96 3235.28 1544.12 3237.84C1540.28 3240.32 1535.64 3241.56 1530.2 3241.56ZM1594.76 3187.68V3183H1617.56V3187.68L1610.96 3189.24L1591.52 3240.72H1586.36L1564.52 3188.88L1558.04 3187.68V3183H1587.08V3187.68L1576.52 3189.24L1591.16 3227.64L1604.48 3189.36L1594.76 3187.68ZM1622.82 3240V3235.68L1631.82 3234C1631.9 3230.96 1631.94 3227.68 1631.94 3224.16C1632.02 3220.56 1632.06 3217.44 1632.06 3214.8V3209.16C1632.06 3205.88 1632.02 3203.16 1631.94 3201C1631.94 3198.76 1631.86 3196.44 1631.7 3194.04L1622.1 3192.96V3188.76L1640.58 3181.44L1642.38 3182.64L1642.02 3198.96V3214.8C1642.02 3217.44 1642.02 3220.56 1642.02 3224.16C1642.1 3227.68 1642.18 3230.96 1642.26 3234L1650.66 3235.68V3240H1622.82ZM1636.98 3168.24C1634.74 3168.24 1632.82 3167.52 1631.22 3166.08C1629.7 3164.64 1628.94 3162.8 1628.94 3160.56C1628.94 3158.24 1629.7 3156.4 1631.22 3155.04C1632.82 3153.6 1634.74 3152.88 1636.98 3152.88C1639.22 3152.88 1641.1 3153.6 1642.62 3155.04C1644.22 3156.4 1645.02 3158.24 1645.02 3160.56C1645.02 3162.8 1644.22 3164.64 1642.62 3166.08C1641.1 3167.52 1639.22 3168.24 1636.98 3168.24ZM1686.4 3241.56C1678.16 3241.56 1671.6 3238.88 1666.72 3233.52C1661.84 3228.16 1659.4 3220.88 1659.4 3211.68C1659.4 3205.36 1660.68 3199.96 1663.24 3195.48C1665.88 3190.92 1669.32 3187.44 1673.56 3185.04C1677.8 3182.64 1682.32 3181.44 1687.12 3181.44C1690.72 3181.44 1694.04 3182.12 1697.08 3183.48C1700.12 3184.84 1702.64 3186.72 1704.64 3189.12C1706.64 3191.44 1707.88 3194.08 1708.36 3197.04C1707.8 3200.08 1705.96 3201.6 1702.84 3201.6C1700.84 3201.6 1699.32 3201.08 1698.28 3200.04C1697.32 3198.92 1696.64 3197.52 1696.24 3195.84L1694.08 3187.92C1692.96 3187.52 1691.84 3187.28 1690.72 3187.2C1689.68 3187.04 1688.64 3186.96 1687.6 3186.96C1682.48 3186.96 1678.24 3188.96 1674.88 3192.96C1671.6 3196.96 1669.96 3202.8 1669.96 3210.48C1669.96 3218 1671.76 3223.76 1675.36 3227.76C1678.96 3231.76 1683.56 3233.76 1689.16 3233.76C1692.6 3233.76 1695.76 3233 1698.64 3231.48C1701.52 3229.88 1703.88 3227.6 1705.72 3224.64L1708.72 3226.2C1707.04 3231.16 1704.32 3234.96 1700.56 3237.6C1696.8 3240.24 1692.08 3241.56 1686.4 3241.56ZM1745.24 3186.96C1743 3186.96 1740.72 3187.6 1738.4 3188.88C1736.16 3190.16 1734.2 3192.2 1732.52 3195C1730.92 3197.8 1729.88 3201.52 1729.4 3206.16H1751.24C1754.12 3206.16 1756 3205.56 1756.88 3204.36C1757.84 3203.16 1758.32 3201.68 1758.32 3199.92C1758.32 3197.6 1757.72 3195.48 1756.52 3193.56C1755.4 3191.56 1753.84 3189.96 1751.84 3188.76C1749.92 3187.56 1747.72 3186.96 1745.24 3186.96ZM1745.12 3241.56C1737.04 3241.56 1730.56 3238.96 1725.68 3233.76C1720.8 3228.48 1718.36 3221.24 1718.36 3212.04C1718.36 3205.88 1719.6 3200.52 1722.08 3195.96C1724.64 3191.4 1728 3187.84 1732.16 3185.28C1736.4 3182.72 1741 3181.44 1745.96 3181.44C1750.12 3181.44 1753.88 3182.36 1757.24 3184.2C1760.6 3186.04 1763.28 3188.68 1765.28 3192.12C1767.28 3195.48 1768.28 3199.6 1768.28 3204.48C1768.28 3205.84 1768.2 3207.12 1768.04 3208.32C1767.88 3209.44 1767.68 3210.4 1767.44 3211.2H1729.16C1729.32 3218.56 1731.16 3224.16 1734.68 3228C1738.2 3231.84 1742.84 3233.76 1748.6 3233.76C1752.44 3233.76 1755.64 3233 1758.2 3231.48C1760.76 3229.88 1763.12 3227.84 1765.28 3225.36L1768.16 3227.64C1765.92 3231.88 1762.88 3235.28 1759.04 3237.84C1755.2 3240.32 1750.56 3241.56 1745.12 3241.56ZM1798.13 3241.56C1794.77 3241.56 1791.69 3241.16 1788.89 3240.36C1786.09 3239.64 1783.21 3238.52 1780.25 3237L1779.77 3223.8H1786.37L1788.65 3234.24C1791.45 3235.52 1794.69 3236.16 1798.37 3236.16C1802.93 3236.16 1806.29 3235.32 1808.45 3233.64C1810.69 3231.96 1811.81 3229.76 1811.81 3227.04C1811.81 3224.48 1810.89 3222.44 1809.05 3220.92C1807.21 3219.32 1804.41 3217.88 1800.65 3216.6L1795.13 3214.56C1790.73 3212.96 1787.21 3210.88 1784.57 3208.32C1781.93 3205.76 1780.61 3202.44 1780.61 3198.36C1780.61 3195.4 1781.41 3192.64 1783.01 3190.08C1784.61 3187.52 1786.97 3185.44 1790.09 3183.84C1793.21 3182.24 1797.01 3181.44 1801.49 3181.44C1804.77 3181.44 1807.73 3181.88 1810.37 3182.76C1813.09 3183.56 1815.73 3184.76 1818.29 3186.36L1817.81 3198.6H1811.57L1809.65 3189C1806.93 3187.64 1804.17 3186.96 1801.37 3186.96C1797.69 3186.96 1794.89 3187.72 1792.97 3189.24C1791.13 3190.68 1790.21 3192.64 1790.21 3195.12C1790.21 3197.76 1791.01 3199.76 1792.61 3201.12C1794.29 3202.48 1797.17 3203.92 1801.25 3205.44L1804.97 3206.76C1810.97 3209 1815.21 3211.56 1817.69 3214.44C1820.25 3217.32 1821.53 3220.64 1821.53 3224.4C1821.53 3227.44 1820.65 3230.28 1818.89 3232.92C1817.13 3235.48 1814.53 3237.56 1811.09 3239.16C1807.65 3240.76 1803.33 3241.56 1798.13 3241.56Z" fill="#231A26"/>
<circle cx="1618.5" cy="1386.5" r="12.5" fill="#608FE3"/>
<circle cx="1618.5" cy="1555.5" r="12.5" fill="#608FE3"/>
<circle cx="1618.5" cy="1724.5" r="12.5" fill="#608FE3"/>
<circle cx="1618.5" cy="1893.5" r="12.5" fill="#608FE3"/>
<circle cx="1618.5" cy="2062.5" r="12.5" fill="#608FE3"/>
<circle cx="1618.5" cy="2231.5" r="12.5" fill="#608FE3"/>
<circle cx="1618.5" cy="2400.5" r="12.5" fill="#608FE3"/>
<circle cx="1618.5" cy="1473.5" r="12.5" fill="#608FE3"/>
<circle cx="1618.5" cy="1642.5" r="12.5" fill="#608FE3"/>
<circle cx="1618.5" cy="1811.5" r="12.5" fill="#608FE3"/>
<circle cx="1618.5" cy="1980.5" r="12.5" fill="#608FE3"/>
<circle cx="1618.5" cy="2149.5" r="12.5" fill="#608FE3"/>
<circle cx="1618.5" cy="2318.5" r="12.5" fill="#608FE3"/>
<circle cx="1618.5" cy="2487.5" r="12.5" fill="#608FE3"/>
<circle cx="1618.5" cy="2569.5" r="12.5" fill="#608FE3"/>
<circle cx="1619" cy="1280" r="29.5" stroke="#608FE3" stroke-width="11"/>
<circle cx="1619" cy="2677" r="29.5" stroke="#608FE3" stroke-width="11"/>
<path d="M1534 2849.5H1599C1604.25 2849.5 1608.5 2853.75 1608.5 2859V3000C1608.5 3005.25 1604.25 3009.5 1599 3009.5H1534C1528.75 3009.5 1524.5 3005.25 1524.5 3000V2859C1524.5 2853.75 1528.75 2849.5 1534 2849.5Z" fill="white" stroke="#608FE3" stroke-width="5"/>
<path d="M1522 3001C1522 3007.08 1526.92 3012 1533 3012H1600C1606.08 3012 1611 3007.08 1611 3001V3001H1522V3001Z" fill="#608FE3"/>
<path d="M1611 2858C1611 2851.92 1606.08 2847 1600 2847L1533 2847C1526.92 2847 1522 2851.92 1522 2858V2858L1611 2858V2858Z" fill="#608FE3"/>
<path d="M1679 2850.5H1775C1780.25 2850.5 1784.5 2854.75 1784.5 2860V3001C1784.5 3006.25 1780.25 3010.5 1775 3010.5H1679C1673.75 3010.5 1669.5 3006.25 1669.5 3001V2860C1669.5 2854.75 1673.75 2850.5 1679 2850.5Z" fill="white" stroke="#608FE3" stroke-width="5"/>
<path d="M1667 3001C1667 3007.63 1672.37 3013 1679 3013H1775C1781.63 3013 1787 3007.63 1787 3001V2999H1667V3001Z" fill="#608FE3"/>
<path d="M1787 2860C1787 2853.37 1781.63 2848 1775 2848L1679 2848C1672.37 2848 1667 2853.37 1667 2860L1667 2862L1787 2862L1787 2860Z" fill="#608FE3"/>
<path d="M1260 2855H1444C1448.42 2855 1452 2858.58 1452 2863V2987H1252V2863C1252 2858.58 1255.58 2855 1260 2855Z" fill="white" stroke="#608FE3" stroke-width="12"/>
<path d="M1224 3000C1224 3007.73 1230.27 3014 1238 3014H1465C1472.73 3014 1479 3007.73 1479 3000V2997H1224V3000Z" fill="#608FE3"/>
<path d="M1877.08 2854H1961.92C1969.79 2854 1976.49 2859.72 1977.73 2867.49L1984.32 2909H1854.68L1861.27 2867.49C1862.51 2859.72 1869.21 2854 1877.08 2854Z" fill="white" stroke="#608FE3" stroke-width="8"/>
<path d="M1971 2980V2995C1971 3002.73 1977.27 3009 1985 3009C1992.73 3009 1999 3002.73 1999 2995V2978.25C1996.22 2979.38 1993.18 2980 1990 2980H1971Z" fill="#654FF0"/>
<rect x="1826" y="2910" width="188" height="70" rx="24" fill="#608FE3"/>
<path d="M1839.02 2977.34C1839.01 2977.56 1839 2977.78 1839 2978V2995C1839 3002.73 1845.27 3009 1853 3009C1860.73 3009 1867 3002.73 1867 2995V2980H1850C1846.04 2980 1842.31 2979.04 1839.02 2977.34Z" fill="#654FF0"/>
<rect x="1886" y="2958" width="66" height="22" fill="#654FF0"/>
<circle cx="1853" cy="2944" r="11" fill="#654FF0"/>
<circle cx="1985" cy="2944" r="11" fill="#654FF0"/>
<path d="M985.943 324.7C973.823 324.7 963.143 322.06 953.903 316.78C944.783 311.38 937.643 303.94 932.483 294.46C927.443 284.98 924.923 274.06 924.923 261.7C924.923 252.58 926.423 244.24 929.423 236.68C932.543 229 936.803 222.34 942.203 216.7C947.723 211.06 954.143 206.68 961.463 203.56C968.903 200.44 977.003 198.88 985.763 198.88C990.683 198.88 996.203 199.48 1002.32 200.68C1008.44 201.76 1014.5 204.04 1020.5 207.52L1021.22 233.62H1010.06L1006.46 212.74C1003.22 210.94 1000.04 209.68 996.923 208.96C993.923 208.24 990.983 207.88 988.103 207.88C980.063 207.88 972.743 209.92 966.143 214C959.543 218.08 954.263 224.14 950.303 232.18C946.463 240.1 944.543 249.94 944.543 261.7C944.543 273.46 946.343 283.36 949.943 291.4C953.543 299.44 958.523 305.5 964.883 309.58C971.363 313.66 978.683 315.7 986.843 315.7C990.323 315.7 993.863 315.34 997.463 314.62C1001.18 313.78 1004.78 312.52 1008.26 310.84L1011.86 289.96H1023.02L1022.3 316.06C1016.78 319.06 1010.9 321.22 1004.66 322.54C998.543 323.98 992.303 324.7 985.943 324.7ZM1034.52 322V315.52L1048.92 313C1049.04 308.08 1049.1 303.28 1049.1 298.6C1049.22 293.8 1049.28 289 1049.28 284.2V205.18L1034.52 203.38V197.08L1062.6 188.98L1065.12 190.42L1064.4 215.98V284.2C1064.4 289 1064.4 293.8 1064.4 298.6C1064.52 303.4 1064.64 308.2 1064.76 313L1079.16 315.52V322H1034.52ZM1132.95 324.34C1125.99 324.34 1119.33 322.72 1112.97 319.48C1106.73 316.12 1101.63 311.14 1097.67 304.54C1093.71 297.82 1091.73 289.54 1091.73 279.7C1091.73 269.74 1093.71 261.4 1097.67 254.68C1101.63 247.84 1106.73 242.74 1112.97 239.38C1119.33 235.9 1125.99 234.16 1132.95 234.16C1139.91 234.16 1146.51 235.9 1152.75 239.38C1159.11 242.74 1164.27 247.84 1168.23 254.68C1172.31 261.4 1174.35 269.74 1174.35 279.7C1174.35 289.54 1172.31 297.82 1168.23 304.54C1164.27 311.14 1159.11 316.12 1152.75 319.48C1146.51 322.72 1139.91 324.34 1132.95 324.34ZM1132.95 316.24C1140.75 316.24 1146.75 313.18 1150.95 307.06C1155.15 300.82 1157.25 291.7 1157.25 279.7C1157.25 267.58 1155.15 258.34 1150.95 251.98C1146.75 245.62 1140.75 242.44 1132.95 242.44C1125.15 242.44 1119.15 245.62 1114.95 251.98C1110.87 258.34 1108.83 267.58 1108.83 279.7C1108.83 291.7 1110.87 300.82 1114.95 307.06C1119.15 313.18 1125.15 316.24 1132.95 316.24ZM1220.8 324.34C1213.48 324.34 1207.72 321.94 1203.52 317.14C1199.32 312.22 1197.28 303.82 1197.4 291.94L1197.94 247.12L1185.16 244.42V237.94L1211.62 235.42L1213.42 237.22L1212.52 262.42V290.32C1212.52 298.12 1213.72 303.64 1216.12 306.88C1218.52 310 1222.12 311.56 1226.92 311.56C1235.32 311.56 1243.72 307.66 1252.12 299.86L1252.66 246.94L1239.88 244.42V237.94L1265.98 235.42L1267.78 237.22L1267.24 262.42V313L1279.48 315.52V322L1254.46 323.44L1252.66 307.42C1247.86 313.3 1242.7 317.62 1237.18 320.38C1231.78 323.02 1226.32 324.34 1220.8 324.34ZM1308.15 279.7C1308.15 291.46 1310.49 300.16 1315.17 305.8C1319.97 311.32 1325.97 314.08 1333.17 314.08C1337.13 314.08 1340.61 313.3 1343.61 311.74C1346.73 310.06 1349.97 307.36 1353.33 303.64V253.78C1349.25 250.18 1345.59 247.72 1342.35 246.4C1339.11 245.08 1335.99 244.42 1332.99 244.42C1328.55 244.42 1324.41 245.68 1320.57 248.2C1316.85 250.6 1313.85 254.44 1311.57 259.72C1309.29 264.88 1308.15 271.54 1308.15 279.7ZM1355.13 323.8L1353.87 311.38C1350.75 315.46 1347.15 318.64 1343.07 320.92C1339.11 323.2 1334.31 324.34 1328.67 324.34C1321.35 324.34 1314.93 322.48 1309.41 318.76C1303.89 315.04 1299.57 309.88 1296.45 303.28C1293.45 296.56 1291.95 288.82 1291.95 280.06C1291.95 270.82 1293.63 262.78 1296.99 255.94C1300.35 249.1 1304.91 243.76 1310.67 239.92C1316.43 236.08 1322.97 234.16 1330.29 234.16C1334.49 234.16 1338.51 235 1342.35 236.68C1346.31 238.36 1350.15 241.42 1353.87 245.86V205.18L1338.57 203.38V197.08L1366.65 188.98L1369.17 190.42L1368.45 215.98V313.36L1383.03 315.52V322L1355.13 323.8ZM1497.47 324.7C1485.35 324.7 1474.67 322.06 1465.43 316.78C1456.31 311.38 1449.17 303.94 1444.01 294.46C1438.97 284.98 1436.45 274.06 1436.45 261.7C1436.45 252.58 1437.95 244.24 1440.95 236.68C1444.07 229 1448.33 222.34 1453.73 216.7C1459.25 211.06 1465.67 206.68 1472.99 203.56C1480.43 200.44 1488.53 198.88 1497.29 198.88C1502.21 198.88 1507.73 199.48 1513.85 200.68C1519.97 201.76 1526.03 204.04 1532.03 207.52L1532.75 233.62H1521.59L1517.99 212.74C1514.75 210.94 1511.57 209.68 1508.45 208.96C1505.45 208.24 1502.51 207.88 1499.63 207.88C1491.59 207.88 1484.27 209.92 1477.67 214C1471.07 218.08 1465.79 224.14 1461.83 232.18C1457.99 240.1 1456.07 249.94 1456.07 261.7C1456.07 273.46 1457.87 283.36 1461.47 291.4C1465.07 299.44 1470.05 305.5 1476.41 309.58C1482.89 313.66 1490.21 315.7 1498.37 315.7C1501.85 315.7 1505.39 315.34 1508.99 314.62C1512.71 313.78 1516.31 312.52 1519.79 310.84L1523.39 289.96H1534.55L1533.83 316.06C1528.31 319.06 1522.43 321.22 1516.19 322.54C1510.07 323.98 1503.83 324.7 1497.47 324.7ZM1590.86 324.34C1583.9 324.34 1577.24 322.72 1570.88 319.48C1564.64 316.12 1559.54 311.14 1555.58 304.54C1551.62 297.82 1549.64 289.54 1549.64 279.7C1549.64 269.74 1551.62 261.4 1555.58 254.68C1559.54 247.84 1564.64 242.74 1570.88 239.38C1577.24 235.9 1583.9 234.16 1590.86 234.16C1597.82 234.16 1604.42 235.9 1610.66 239.38C1617.02 242.74 1622.18 247.84 1626.14 254.68C1630.22 261.4 1632.26 269.74 1632.26 279.7C1632.26 289.54 1630.22 297.82 1626.14 304.54C1622.18 311.14 1617.02 316.12 1610.66 319.48C1604.42 322.72 1597.82 324.34 1590.86 324.34ZM1590.86 316.24C1598.66 316.24 1604.66 313.18 1608.86 307.06C1613.06 300.82 1615.16 291.7 1615.16 279.7C1615.16 267.58 1613.06 258.34 1608.86 251.98C1604.66 245.62 1598.66 242.44 1590.86 242.44C1583.06 242.44 1577.06 245.62 1572.86 251.98C1568.78 258.34 1566.74 267.58 1566.74 279.7C1566.74 291.7 1568.78 300.82 1572.86 307.06C1577.06 313.18 1583.06 316.24 1590.86 316.24ZM1647.53 322V315.52L1660.85 313C1660.97 308.44 1661.03 303.52 1661.03 298.24C1661.15 292.96 1661.21 288.28 1661.21 284.2V275.56C1661.21 270.64 1661.15 266.56 1661.03 263.32C1661.03 260.08 1660.91 256.66 1660.67 253.06L1646.45 251.44V245.14L1671.65 234.16L1674.35 235.96L1675.79 250.54C1679.99 245.74 1684.91 241.84 1690.55 238.84C1696.19 235.72 1701.77 234.16 1707.29 234.16C1712.93 234.16 1717.49 235.48 1720.97 238.12C1724.57 240.76 1727.15 245.08 1728.71 251.08C1733.27 245.44 1738.37 241.24 1744.01 238.48C1749.65 235.6 1755.41 234.16 1761.29 234.16C1768.61 234.16 1774.25 236.62 1778.21 241.54C1782.29 246.46 1784.33 254.5 1784.33 265.66V284.2C1784.33 288.28 1784.33 292.96 1784.33 298.24C1784.45 303.52 1784.57 308.44 1784.69 313L1797.29 315.52V322H1755.53V315.52L1768.85 313C1768.97 308.56 1769.03 303.7 1769.03 298.42C1769.15 293.02 1769.21 288.28 1769.21 284.2V268.54C1769.21 260.14 1768.01 254.5 1765.61 251.62C1763.21 248.62 1759.37 247.12 1754.09 247.12C1750.37 247.12 1746.53 247.96 1742.57 249.64C1738.73 251.32 1734.53 254.26 1729.97 258.46C1730.09 259.78 1730.15 261.22 1730.15 262.78C1730.27 264.22 1730.33 265.78 1730.33 267.46V284.2C1730.33 288.28 1730.33 292.96 1730.33 298.24C1730.45 303.52 1730.57 308.44 1730.69 313L1743.29 315.52V322H1701.53V315.52L1714.85 313C1714.97 308.56 1715.03 303.7 1715.03 298.42C1715.15 293.02 1715.21 288.28 1715.21 284.2V268.9C1715.21 260.74 1714.07 255.1 1711.79 251.98C1709.51 248.74 1705.73 247.12 1700.45 247.12C1696.37 247.12 1692.47 247.96 1688.75 249.64C1685.03 251.32 1680.95 254.08 1676.51 257.92V284.2C1676.51 288.16 1676.51 292.84 1676.51 298.24C1676.63 303.52 1676.75 308.44 1676.87 313L1689.29 315.52V322H1647.53ZM1806.24 365.02V358.72L1820.64 356.2C1820.76 351.28 1820.82 346.36 1820.82 341.44C1820.94 336.64 1821 331.84 1821 327.04V275.56C1821 270.64 1820.94 266.56 1820.82 263.32C1820.82 260.08 1820.7 256.66 1820.46 253.06L1806.24 251.44V245.14L1831.44 234.16L1834.14 235.96L1835.22 247.66C1843.74 238.66 1852.8 234.16 1862.4 234.16C1868.88 234.16 1874.7 235.96 1879.86 239.56C1885.02 243.16 1889.1 248.32 1892.1 255.04C1895.22 261.64 1896.78 269.62 1896.78 278.98C1896.78 288.22 1895.16 296.26 1891.92 303.1C1888.68 309.82 1884.24 315.04 1878.6 318.76C1873.08 322.48 1866.78 324.34 1859.7 324.34C1855.62 324.34 1851.54 323.5 1847.46 321.82C1843.5 320.14 1839.6 317.08 1835.76 312.64V326.86C1835.76 331.66 1835.76 336.46 1835.76 341.26C1835.88 346.18 1836 351.1 1836.12 356.02L1852.5 358.72V365.02H1806.24ZM1858.08 244.42C1855.32 244.42 1852.14 245.14 1848.54 246.58C1844.94 247.9 1840.86 250.48 1836.3 254.32V304.9C1839.66 308.14 1842.96 310.48 1846.2 311.92C1849.44 313.36 1852.74 314.08 1856.1 314.08C1862.82 314.08 1868.58 311.38 1873.38 305.98C1878.18 300.58 1880.58 292.06 1880.58 280.42C1880.58 268.9 1878.48 260.02 1874.28 253.78C1870.08 247.54 1864.68 244.42 1858.08 244.42ZM1943.26 324.34C1935.94 324.34 1930.18 321.94 1925.98 317.14C1921.78 312.22 1919.74 303.82 1919.86 291.94L1920.4 247.12L1907.62 244.42V237.94L1934.08 235.42L1935.88 237.22L1934.98 262.42V290.32C1934.98 298.12 1936.18 303.64 1938.58 306.88C1940.98 310 1944.58 311.56 1949.38 311.56C1957.78 311.56 1966.18 307.66 1974.58 299.86L1975.12 246.94L1962.34 244.42V237.94L1988.44 235.42L1990.24 237.22L1989.7 262.42V313L2001.94 315.52V322L1976.92 323.44L1975.12 307.42C1970.32 313.3 1965.16 317.62 1959.64 320.38C1954.24 323.02 1948.78 324.34 1943.26 324.34ZM2044.96 324.34C2038.72 324.34 2033.74 322.66 2030.02 319.3C2026.3 315.94 2024.44 310.78 2024.44 303.82C2024.44 301.54 2024.44 299.32 2024.44 297.16C2024.56 294.88 2024.62 292 2024.62 288.52V246.04H2009.68V238.12L2025.7 236.14L2030.38 212.02H2041.18L2040.1 236.5H2064.4V246.04H2039.92V301.84C2039.92 306.4 2040.82 309.76 2042.62 311.92C2044.42 313.96 2046.82 314.98 2049.82 314.98C2051.86 314.98 2053.78 314.56 2055.58 313.72C2057.5 312.88 2059.6 311.68 2061.88 310.12L2066.2 314.8C2061.28 321.16 2054.2 324.34 2044.96 324.34ZM2072.9 322V315.52L2086.4 313C2086.52 308.44 2086.58 303.52 2086.58 298.24C2086.7 292.84 2086.76 288.16 2086.76 284.2V275.74C2086.76 270.82 2086.7 266.74 2086.58 263.5C2086.58 260.14 2086.46 256.66 2086.22 253.06L2071.82 251.44V245.14L2099.54 234.16L2102.24 235.96L2101.7 260.44V284.2C2101.7 288.16 2101.7 292.84 2101.7 298.24C2101.82 303.52 2101.94 308.44 2102.06 313L2114.66 315.52V322H2072.9ZM2094.14 214.36C2090.78 214.36 2087.9 213.28 2085.5 211.12C2083.22 208.96 2082.08 206.2 2082.08 202.84C2082.08 199.36 2083.22 196.6 2085.5 194.56C2087.9 192.4 2090.78 191.32 2094.14 191.32C2097.5 191.32 2100.32 192.4 2102.6 194.56C2105 196.6 2106.2 199.36 2106.2 202.84C2106.2 206.2 2105 208.96 2102.6 211.12C2100.32 213.28 2097.5 214.36 2094.14 214.36ZM2127.41 322V315.52L2140.73 313C2140.85 308.44 2140.91 303.52 2140.91 298.24C2141.03 292.96 2141.09 288.28 2141.09 284.2V275.56C2141.09 270.64 2141.03 266.56 2140.91 263.32C2140.91 260.08 2140.79 256.66 2140.55 253.06L2126.33 251.44V245.14L2151.53 234.16L2154.23 235.96L2155.67 250.36C2160.11 245.56 2165.21 241.66 2170.97 238.66C2176.73 235.66 2182.37 234.16 2187.89 234.16C2195.69 234.16 2201.45 236.8 2205.17 242.08C2209.01 247.24 2210.93 255.7 2210.93 267.46V284.2C2210.93 288.28 2210.93 292.96 2210.93 298.24C2211.05 303.52 2211.17 308.44 2211.29 313L2223.89 315.52V322H2182.13V315.52L2195.45 313C2195.57 308.56 2195.63 303.7 2195.63 298.42C2195.75 293.02 2195.81 288.28 2195.81 284.2V268.9C2195.81 260.62 2194.61 254.92 2192.21 251.8C2189.93 248.68 2186.15 247.12 2180.87 247.12C2176.79 247.12 2172.83 247.96 2168.99 249.64C2165.15 251.32 2160.95 254.08 2156.39 257.92V284.2C2156.39 288.16 2156.39 292.84 2156.39 298.24C2156.51 303.52 2156.63 308.44 2156.75 313L2169.17 315.52V322H2127.41ZM2272.03 286C2277.79 286 2282.29 283.84 2285.53 279.52C2288.77 275.2 2290.39 269.74 2290.39 263.14C2290.39 256.78 2288.83 251.62 2285.71 247.66C2282.71 243.58 2278.39 241.54 2272.75 241.54C2267.11 241.54 2262.67 243.64 2259.43 247.84C2256.19 251.92 2254.57 257.26 2254.57 263.86C2254.57 270.46 2256.07 275.8 2259.07 279.88C2262.19 283.96 2266.51 286 2272.03 286ZM2272.39 293.2C2267.71 293.2 2263.27 292.54 2259.07 291.22C2256.07 295.06 2254.57 298.9 2254.57 302.74C2254.57 305.14 2255.23 307.06 2256.55 308.5C2257.99 309.94 2260.81 310.66 2265.01 310.66H2288.59C2298.55 310.66 2305.87 312.7 2310.55 316.78C2315.23 320.86 2317.57 326.56 2317.57 333.88C2317.57 339.04 2315.89 344.02 2312.53 348.82C2309.29 353.62 2304.37 357.52 2297.77 360.52C2291.17 363.52 2282.95 365.02 2273.11 365.02C2260.03 365.02 2250.55 362.98 2244.67 358.9C2238.79 354.82 2235.85 349.6 2235.85 343.24C2235.85 339.4 2237.11 335.8 2239.63 332.44C2242.27 329.2 2246.89 325.96 2253.49 322.72C2245.57 320.56 2241.61 316 2241.61 309.04C2241.61 306.16 2242.51 303.16 2244.31 300.04C2246.23 296.92 2249.41 293.26 2253.85 289.06C2249.53 286.66 2246.11 283.36 2243.59 279.16C2241.19 274.96 2239.99 269.8 2239.99 263.68C2239.99 254.2 2243.05 246.94 2249.17 241.9C2255.41 236.74 2263.21 234.16 2272.57 234.16C2282.05 234.16 2289.67 236.5 2295.43 241.18L2315.77 234.16L2318.47 235.96V247.3H2300.83C2303.59 251.74 2304.97 257.2 2304.97 263.68C2304.97 273.16 2301.85 280.48 2295.61 285.64C2289.49 290.68 2281.75 293.2 2272.39 293.2ZM2250.61 340.36C2250.61 346.24 2252.71 350.44 2256.91 352.96C2261.11 355.48 2266.75 356.74 2273.83 356.74C2283.67 356.74 2291.17 354.94 2296.33 351.34C2301.49 347.86 2304.07 343.6 2304.07 338.56C2304.07 334.6 2302.69 331.24 2299.93 328.48C2297.17 325.84 2292.55 324.52 2286.07 324.52H2265.01C2263.81 324.52 2262.55 324.46 2261.23 324.34C2260.03 324.34 2258.83 324.28 2257.63 324.16C2255.11 326.8 2253.31 329.38 2252.23 331.9C2251.15 334.54 2250.61 337.36 2250.61 340.36Z" fill="#231A26"/>
<g filter="url(#filter1_d_423_167)">
<path d="M5064.14 1070C5064.14 1070 4977.55 1070 4931.8 1070C4862.32 1070 4806 1018.02 4806 953.893C4806 894.912 4853.65 846.202 4915.36 838.768C4914.21 831.658 4913.62 824.383 4913.62 816.98C4913.62 735.805 4984.92 670 5072.87 670C5131.79 670 5183.23 699.532 5210.78 743.433C5222.61 738.511 5235.75 735.772 5249.57 735.772C5301.78 735.772 5344.1 774.834 5344.1 823.02C5344.1 832.157 5342.58 840.965 5339.76 849.242C5381.91 867.996 5411 907.809 5411 953.893C5411 1018.02 5354.68 1070 5285.2 1070C5215.72 1070 5171.04 1070 5171.04 1070H5064.14Z" fill="url(#paint1_linear_423_167)"/>
<path d="M4998.82 974.791C4990.74 974.791 4983.62 973.031 4977.46 969.511C4971.38 965.911 4966.62 960.951 4963.18 954.631C4959.82 948.311 4958.14 941.031 4958.14 932.791C4958.14 926.711 4959.14 921.151 4961.14 916.111C4963.22 910.991 4966.06 906.551 4969.66 902.791C4973.34 899.031 4977.62 896.111 4982.5 894.031C4987.46 891.951 4992.86 890.911 4998.7 890.911C5001.98 890.911 5005.66 891.311 5009.74 892.111C5013.82 892.831 5017.86 894.351 5021.86 896.671L5022.34 914.071H5014.9L5012.5 900.151C5010.34 898.951 5008.22 898.111 5006.14 897.631C5004.14 897.151 5002.18 896.911 5000.26 896.911C4994.9 896.911 4990.02 898.271 4985.62 900.991C4981.22 903.711 4977.7 907.751 4975.06 913.111C4972.5 918.391 4971.22 924.951 4971.22 932.791C4971.22 940.631 4972.42 947.231 4974.82 952.591C4977.22 957.951 4980.54 961.991 4984.78 964.711C4989.1 967.431 4993.98 968.791 4999.42 968.791C5001.74 968.791 5004.1 968.551 5006.5 968.071C5008.98 967.511 5011.38 966.671 5013.7 965.551L5016.1 951.631H5023.54L5023.06 969.031C5019.38 971.031 5015.46 972.471 5011.3 973.351C5007.22 974.311 5003.06 974.791 4998.82 974.791ZM5031.2 972.991V968.671L5040.8 966.991C5040.88 963.711 5040.92 960.511 5040.92 957.391C5041 954.191 5041.04 950.991 5041.04 947.791V895.111L5031.2 893.911V889.711L5049.92 884.311L5051.6 885.271L5051.12 902.311V947.791C5051.12 950.991 5051.12 954.191 5051.12 957.391C5051.2 960.591 5051.28 963.791 5051.36 966.991L5060.96 968.671V972.991H5031.2ZM5096.82 974.551C5092.18 974.551 5087.74 973.471 5083.5 971.311C5079.34 969.071 5075.94 965.751 5073.3 961.351C5070.66 956.871 5069.34 951.351 5069.34 944.791C5069.34 938.151 5070.66 932.591 5073.3 928.111C5075.94 923.551 5079.34 920.151 5083.5 917.911C5087.74 915.591 5092.18 914.431 5096.82 914.431C5101.46 914.431 5105.86 915.591 5110.02 917.911C5114.26 920.151 5117.7 923.551 5120.34 928.111C5123.06 932.591 5124.42 938.151 5124.42 944.791C5124.42 951.351 5123.06 956.871 5120.34 961.351C5117.7 965.751 5114.26 969.071 5110.02 971.311C5105.86 973.471 5101.46 974.551 5096.82 974.551ZM5096.82 969.151C5102.02 969.151 5106.02 967.111 5108.82 963.031C5111.62 958.871 5113.02 952.791 5113.02 944.791C5113.02 936.711 5111.62 930.551 5108.82 926.311C5106.02 922.071 5102.02 919.951 5096.82 919.951C5091.62 919.951 5087.62 922.071 5084.82 926.311C5082.1 930.551 5080.74 936.711 5080.74 944.791C5080.74 952.791 5082.1 958.871 5084.82 963.031C5087.62 967.111 5091.62 969.151 5096.82 969.151ZM5155.39 974.551C5150.51 974.551 5146.67 972.951 5143.87 969.751C5141.07 966.471 5139.71 960.871 5139.79 952.951L5140.15 923.071L5131.63 921.271V916.951L5149.27 915.271L5150.47 916.471L5149.87 933.271V951.871C5149.87 957.071 5150.67 960.751 5152.27 962.911C5153.87 964.991 5156.27 966.031 5159.47 966.031C5165.07 966.031 5170.67 963.431 5176.27 958.231L5176.63 922.951L5168.11 921.271V916.951L5185.51 915.271L5186.71 916.471L5186.35 933.271V966.991L5194.51 968.671V972.991L5177.83 973.951L5176.63 963.271C5173.43 967.191 5169.99 970.071 5166.31 971.911C5162.71 973.671 5159.07 974.551 5155.39 974.551ZM5213.62 944.791C5213.62 952.631 5215.18 958.431 5218.3 962.191C5221.5 965.871 5225.5 967.711 5230.3 967.711C5232.94 967.711 5235.26 967.191 5237.26 966.151C5239.34 965.031 5241.5 963.231 5243.74 960.751V927.511C5241.02 925.111 5238.58 923.471 5236.42 922.591C5234.26 921.711 5232.18 921.271 5230.18 921.271C5227.22 921.271 5224.46 922.111 5221.9 923.791C5219.42 925.391 5217.42 927.951 5215.9 931.471C5214.38 934.911 5213.62 939.351 5213.62 944.791ZM5244.94 974.191L5244.1 965.911C5242.02 968.631 5239.62 970.751 5236.9 972.271C5234.26 973.791 5231.06 974.551 5227.3 974.551C5222.42 974.551 5218.14 973.311 5214.46 970.831C5210.78 968.351 5207.9 964.911 5205.82 960.511C5203.82 956.031 5202.82 950.871 5202.82 945.031C5202.82 938.871 5203.94 933.511 5206.18 928.951C5208.42 924.391 5211.46 920.831 5215.3 918.271C5219.14 915.711 5223.5 914.431 5228.38 914.431C5231.18 914.431 5233.86 914.991 5236.42 916.111C5239.06 917.231 5241.62 919.271 5244.1 922.231V895.111L5233.9 893.911V889.711L5252.62 884.311L5254.3 885.271L5253.82 902.311V967.231L5263.54 968.671V972.991L5244.94 974.191Z" fill="#372C3B"/>
</g>
<path d="M4929.8 3201.36C4929.8 3207.2 4929.8 3212.84 4929.8 3218.28C4929.88 3223.72 4929.96 3229.08 4930.04 3234.36H4939.52C4948.8 3234.36 4955.92 3231.36 4960.88 3225.36C4965.84 3219.28 4968.32 3210.8 4968.32 3199.92C4968.32 3188.64 4965.88 3180.04 4961 3174.12C4956.12 3168.2 4949.32 3165.24 4940.6 3165.24H4930.04C4929.96 3170.36 4929.88 3175.6 4929.8 3180.96C4929.8 3186.24 4929.8 3191.56 4929.8 3196.92V3201.36ZM4907.12 3164.64V3159.72H4942.52C4950.2 3159.72 4956.96 3161.28 4962.8 3164.4C4968.64 3167.44 4973.2 3171.96 4976.48 3177.96C4979.76 3183.88 4981.4 3191.2 4981.4 3199.92C4981.4 3208.56 4979.6 3215.88 4976 3221.88C4972.4 3227.8 4967.48 3232.32 4961.24 3235.44C4955.08 3238.48 4948.08 3240 4940.24 3240H4907.12V3235.08L4918.16 3233.76C4918.32 3228.64 4918.4 3223.44 4918.4 3218.16C4918.4 3212.8 4918.4 3207.2 4918.4 3201.36V3196.92C4918.4 3191.72 4918.4 3186.56 4918.4 3181.44C4918.4 3176.24 4918.32 3171.08 4918.16 3165.96L4907.12 3164.64ZM5019.32 3186.96C5017.08 3186.96 5014.8 3187.6 5012.48 3188.88C5010.24 3190.16 5008.28 3192.2 5006.6 3195C5005 3197.8 5003.96 3201.52 5003.48 3206.16H5025.32C5028.2 3206.16 5030.08 3205.56 5030.96 3204.36C5031.92 3203.16 5032.4 3201.68 5032.4 3199.92C5032.4 3197.6 5031.8 3195.48 5030.6 3193.56C5029.48 3191.56 5027.92 3189.96 5025.92 3188.76C5024 3187.56 5021.8 3186.96 5019.32 3186.96ZM5019.2 3241.56C5011.12 3241.56 5004.64 3238.96 4999.76 3233.76C4994.88 3228.48 4992.44 3221.24 4992.44 3212.04C4992.44 3205.88 4993.68 3200.52 4996.16 3195.96C4998.72 3191.4 5002.08 3187.84 5006.24 3185.28C5010.48 3182.72 5015.08 3181.44 5020.04 3181.44C5024.2 3181.44 5027.96 3182.36 5031.32 3184.2C5034.68 3186.04 5037.36 3188.68 5039.36 3192.12C5041.36 3195.48 5042.36 3199.6 5042.36 3204.48C5042.36 3205.84 5042.28 3207.12 5042.12 3208.32C5041.96 3209.44 5041.76 3210.4 5041.52 3211.2H5003.24C5003.4 3218.56 5005.24 3224.16 5008.76 3228C5012.28 3231.84 5016.92 3233.76 5022.68 3233.76C5026.52 3233.76 5029.72 3233 5032.28 3231.48C5034.84 3229.88 5037.2 3227.84 5039.36 3225.36L5042.24 3227.64C5040 3231.88 5036.96 3235.28 5033.12 3237.84C5029.28 3240.32 5024.64 3241.56 5019.2 3241.56ZM5083.76 3187.68V3183H5106.56V3187.68L5099.96 3189.24L5080.52 3240.72H5075.36L5053.52 3188.88L5047.04 3187.68V3183H5076.08V3187.68L5065.52 3189.24L5080.16 3227.64L5093.48 3189.36L5083.76 3187.68ZM5111.82 3240V3235.68L5120.82 3234C5120.9 3230.96 5120.94 3227.68 5120.94 3224.16C5121.02 3220.56 5121.06 3217.44 5121.06 3214.8V3209.16C5121.06 3205.88 5121.02 3203.16 5120.94 3201C5120.94 3198.76 5120.86 3196.44 5120.7 3194.04L5111.1 3192.96V3188.76L5129.58 3181.44L5131.38 3182.64L5131.02 3198.96V3214.8C5131.02 3217.44 5131.02 3220.56 5131.02 3224.16C5131.1 3227.68 5131.18 3230.96 5131.26 3234L5139.66 3235.68V3240H5111.82ZM5125.98 3168.24C5123.74 3168.24 5121.82 3167.52 5120.22 3166.08C5118.7 3164.64 5117.94 3162.8 5117.94 3160.56C5117.94 3158.24 5118.7 3156.4 5120.22 3155.04C5121.82 3153.6 5123.74 3152.88 5125.98 3152.88C5128.22 3152.88 5130.1 3153.6 5131.62 3155.04C5133.22 3156.4 5134.02 3158.24 5134.02 3160.56C5134.02 3162.8 5133.22 3164.64 5131.62 3166.08C5130.1 3167.52 5128.22 3168.24 5125.98 3168.24ZM5175.4 3241.56C5167.16 3241.56 5160.6 3238.88 5155.72 3233.52C5150.84 3228.16 5148.4 3220.88 5148.4 3211.68C5148.4 3205.36 5149.68 3199.96 5152.24 3195.48C5154.88 3190.92 5158.32 3187.44 5162.56 3185.04C5166.8 3182.64 5171.32 3181.44 5176.12 3181.44C5179.72 3181.44 5183.04 3182.12 5186.08 3183.48C5189.12 3184.84 5191.64 3186.72 5193.64 3189.12C5195.64 3191.44 5196.88 3194.08 5197.36 3197.04C5196.8 3200.08 5194.96 3201.6 5191.84 3201.6C5189.84 3201.6 5188.32 3201.08 5187.28 3200.04C5186.32 3198.92 5185.64 3197.52 5185.24 3195.84L5183.08 3187.92C5181.96 3187.52 5180.84 3187.28 5179.72 3187.2C5178.68 3187.04 5177.64 3186.96 5176.6 3186.96C5171.48 3186.96 5167.24 3188.96 5163.88 3192.96C5160.6 3196.96 5158.96 3202.8 5158.96 3210.48C5158.96 3218 5160.76 3223.76 5164.36 3227.76C5167.96 3231.76 5172.56 3233.76 5178.16 3233.76C5181.6 3233.76 5184.76 3233 5187.64 3231.48C5190.52 3229.88 5192.88 3227.6 5194.72 3224.64L5197.72 3226.2C5196.04 3231.16 5193.32 3234.96 5189.56 3237.6C5185.8 3240.24 5181.08 3241.56 5175.4 3241.56ZM5234.24 3186.96C5232 3186.96 5229.72 3187.6 5227.4 3188.88C5225.16 3190.16 5223.2 3192.2 5221.52 3195C5219.92 3197.8 5218.88 3201.52 5218.4 3206.16H5240.24C5243.12 3206.16 5245 3205.56 5245.88 3204.36C5246.84 3203.16 5247.32 3201.68 5247.32 3199.92C5247.32 3197.6 5246.72 3195.48 5245.52 3193.56C5244.4 3191.56 5242.84 3189.96 5240.84 3188.76C5238.92 3187.56 5236.72 3186.96 5234.24 3186.96ZM5234.12 3241.56C5226.04 3241.56 5219.56 3238.96 5214.68 3233.76C5209.8 3228.48 5207.36 3221.24 5207.36 3212.04C5207.36 3205.88 5208.6 3200.52 5211.08 3195.96C5213.64 3191.4 5217 3187.84 5221.16 3185.28C5225.4 3182.72 5230 3181.44 5234.96 3181.44C5239.12 3181.44 5242.88 3182.36 5246.24 3184.2C5249.6 3186.04 5252.28 3188.68 5254.28 3192.12C5256.28 3195.48 5257.28 3199.6 5257.28 3204.48C5257.28 3205.84 5257.2 3207.12 5257.04 3208.32C5256.88 3209.44 5256.68 3210.4 5256.44 3211.2H5218.16C5218.32 3218.56 5220.16 3224.16 5223.68 3228C5227.2 3231.84 5231.84 3233.76 5237.6 3233.76C5241.44 3233.76 5244.64 3233 5247.2 3231.48C5249.76 3229.88 5252.12 3227.84 5254.28 3225.36L5257.16 3227.64C5254.92 3231.88 5251.88 3235.28 5248.04 3237.84C5244.2 3240.32 5239.56 3241.56 5234.12 3241.56ZM5287.13 3241.56C5283.77 3241.56 5280.69 3241.16 5277.89 3240.36C5275.09 3239.64 5272.21 3238.52 5269.25 3237L5268.77 3223.8H5275.37L5277.65 3234.24C5280.45 3235.52 5283.69 3236.16 5287.37 3236.16C5291.93 3236.16 5295.29 3235.32 5297.45 3233.64C5299.69 3231.96 5300.81 3229.76 5300.81 3227.04C5300.81 3224.48 5299.89 3222.44 5298.05 3220.92C5296.21 3219.32 5293.41 3217.88 5289.65 3216.6L5284.13 3214.56C5279.73 3212.96 5276.21 3210.88 5273.57 3208.32C5270.93 3205.76 5269.61 3202.44 5269.61 3198.36C5269.61 3195.4 5270.41 3192.64 5272.01 3190.08C5273.61 3187.52 5275.97 3185.44 5279.09 3183.84C5282.21 3182.24 5286.01 3181.44 5290.49 3181.44C5293.77 3181.44 5296.73 3181.88 5299.37 3182.76C5302.09 3183.56 5304.73 3184.76 5307.29 3186.36L5306.81 3198.6H5300.57L5298.65 3189C5295.93 3187.64 5293.17 3186.96 5290.37 3186.96C5286.69 3186.96 5283.89 3187.72 5281.97 3189.24C5280.13 3190.68 5279.21 3192.64 5279.21 3195.12C5279.21 3197.76 5280.01 3199.76 5281.61 3201.12C5283.29 3202.48 5286.17 3203.92 5290.25 3205.44L5293.97 3206.76C5299.97 3209 5304.21 3211.56 5306.69 3214.44C5309.25 3217.32 5310.53 3220.64 5310.53 3224.4C5310.53 3227.44 5309.65 3230.28 5307.89 3232.92C5306.13 3235.48 5303.53 3237.56 5300.09 3239.16C5296.65 3240.76 5292.33 3241.56 5287.13 3241.56Z" fill="#231A26"/>
<circle cx="5108.5" cy="1386.5" r="12.5" fill="#608FE3"/>
<circle cx="5108.5" cy="1555.5" r="12.5" fill="#608FE3"/>
<circle cx="5108.5" cy="2400.5" r="12.5" fill="#608FE3"/>
<circle cx="5108.5" cy="1473.5" r="12.5" fill="#608FE3"/>
<circle cx="5108.5" cy="2487.5" r="12.5" fill="#608FE3"/>
<circle cx="5108.5" cy="2569.5" r="12.5" fill="#608FE3"/>
<circle cx="5109" cy="1280" r="29.5" stroke="#608FE3" stroke-width="11"/>
<circle cx="5109" cy="2677" r="29.5" stroke="#608FE3" stroke-width="11"/>
<rect x="4289" y="1611" width="1640" height="732" rx="20" fill="url(#paint2_linear_423_167)"/>
<path d="M4542.27 2145.83V2141.77H4591.57L4592.26 2159.29H4586.62L4584.44 2146.72H4561.18C4561.11 2150.94 4561.05 2155.17 4560.98 2159.39C4560.98 2163.61 4560.98 2167.77 4560.98 2171.86H4575.53L4576.92 2162.46H4581.47V2185.82H4576.92L4575.63 2176.52H4560.98C4560.98 2181.47 4560.98 2186.12 4560.98 2190.48C4561.05 2194.77 4561.11 2198.96 4561.18 2203.05H4586.42L4588.6 2190.38H4594.24L4593.55 2208H4542.27V2203.94L4551.38 2202.85C4551.51 2198.69 4551.58 2194.47 4551.58 2190.18C4551.58 2185.89 4551.58 2181.6 4551.58 2177.31V2172.46C4551.58 2168.17 4551.58 2163.91 4551.58 2159.69C4551.58 2155.4 4551.51 2151.14 4551.38 2146.92L4542.27 2145.83ZM4610.93 2184.73C4610.93 2191.2 4612.22 2195.99 4614.79 2199.09C4617.43 2202.13 4620.73 2203.64 4624.69 2203.64C4626.87 2203.64 4628.78 2203.21 4630.43 2202.36C4632.15 2201.43 4633.93 2199.95 4635.78 2197.9V2170.48C4633.53 2168.5 4631.52 2167.15 4629.74 2166.42C4627.96 2165.69 4626.24 2165.33 4624.59 2165.33C4622.15 2165.33 4619.87 2166.02 4617.76 2167.41C4615.71 2168.73 4614.06 2170.84 4612.81 2173.75C4611.56 2176.58 4610.93 2180.25 4610.93 2184.73ZM4636.77 2208.99L4636.08 2202.16C4634.36 2204.4 4632.38 2206.15 4630.14 2207.41C4627.96 2208.66 4625.32 2209.29 4622.22 2209.29C4618.19 2209.29 4614.66 2208.26 4611.62 2206.22C4608.59 2204.17 4606.21 2201.33 4604.49 2197.7C4602.84 2194.01 4602.02 2189.75 4602.02 2184.93C4602.02 2179.85 4602.94 2175.43 4604.79 2171.67C4606.64 2167.9 4609.15 2164.97 4612.32 2162.86C4615.48 2160.74 4619.08 2159.69 4623.11 2159.69C4625.42 2159.69 4627.63 2160.15 4629.74 2161.07C4631.92 2162 4634.03 2163.68 4636.08 2166.12V2143.75L4627.66 2142.76V2139.29L4643.1 2134.84L4644.49 2135.63L4644.09 2149.69V2203.25L4652.11 2204.44V2208L4636.77 2208.99ZM4676.23 2188.2C4679.4 2188.2 4681.87 2187.01 4683.66 2184.64C4685.44 2182.26 4686.33 2179.26 4686.33 2175.63C4686.33 2172.13 4685.47 2169.29 4683.76 2167.11C4682.11 2164.87 4679.73 2163.75 4676.63 2163.75C4673.53 2163.75 4671.08 2164.9 4669.3 2167.21C4667.52 2169.46 4666.63 2172.39 4666.63 2176.02C4666.63 2179.65 4667.45 2182.59 4669.1 2184.83C4670.82 2187.08 4673.2 2188.2 4676.23 2188.2ZM4676.43 2192.16C4673.86 2192.16 4671.41 2191.8 4669.1 2191.07C4667.45 2193.18 4666.63 2195.29 4666.63 2197.41C4666.63 2198.73 4666.99 2199.78 4667.72 2200.57C4668.51 2201.37 4670.06 2201.76 4672.37 2201.76H4685.34C4690.82 2201.76 4694.84 2202.88 4697.42 2205.13C4699.99 2207.37 4701.28 2210.51 4701.28 2214.53C4701.28 2217.37 4700.35 2220.11 4698.51 2222.75C4696.72 2225.39 4694.02 2227.54 4690.39 2229.19C4686.76 2230.84 4682.24 2231.66 4676.83 2231.66C4669.63 2231.66 4664.42 2230.54 4661.18 2228.3C4657.95 2226.05 4656.33 2223.18 4656.33 2219.68C4656.33 2217.57 4657.03 2215.59 4658.41 2213.74C4659.86 2211.96 4662.4 2210.18 4666.03 2208.4C4661.68 2207.21 4659.5 2204.7 4659.5 2200.87C4659.5 2199.29 4660 2197.64 4660.99 2195.92C4662.04 2194.21 4663.79 2192.19 4666.23 2189.88C4663.86 2188.56 4661.98 2186.75 4660.59 2184.44C4659.27 2182.13 4658.61 2179.29 4658.61 2175.92C4658.61 2170.71 4660.29 2166.72 4663.66 2163.94C4667.09 2161.11 4671.38 2159.69 4676.53 2159.69C4681.74 2159.69 4685.93 2160.97 4689.1 2163.55L4700.29 2159.69L4701.77 2160.68V2166.91H4692.07C4693.59 2169.36 4694.35 2172.36 4694.35 2175.92C4694.35 2181.14 4692.63 2185.16 4689.2 2188C4685.83 2190.77 4681.58 2192.16 4676.43 2192.16ZM4664.45 2218.1C4664.45 2221.33 4665.61 2223.64 4667.92 2225.03C4670.23 2226.41 4673.33 2227.11 4677.22 2227.11C4682.63 2227.11 4686.76 2226.12 4689.6 2224.14C4692.43 2222.22 4693.85 2219.88 4693.85 2217.11C4693.85 2214.93 4693.09 2213.08 4691.58 2211.56C4690.06 2210.11 4687.52 2209.39 4683.95 2209.39H4672.37C4671.71 2209.39 4671.02 2209.35 4670.29 2209.29C4669.63 2209.29 4668.97 2209.25 4668.31 2209.19C4666.93 2210.64 4665.94 2212.06 4665.34 2213.45C4664.75 2214.9 4664.45 2216.45 4664.45 2218.1ZM4729.67 2164.24C4727.82 2164.24 4725.94 2164.77 4724.03 2165.83C4722.18 2166.88 4720.56 2168.56 4719.18 2170.87C4717.86 2173.18 4717 2176.25 4716.6 2180.08H4734.62C4737 2180.08 4738.55 2179.59 4739.28 2178.6C4740.07 2177.61 4740.46 2176.39 4740.46 2174.93C4740.46 2173.02 4739.97 2171.27 4738.98 2169.69C4738.05 2168.04 4736.77 2166.72 4735.12 2165.73C4733.53 2164.74 4731.72 2164.24 4729.67 2164.24ZM4729.57 2209.29C4722.91 2209.29 4717.56 2207.14 4713.54 2202.85C4709.51 2198.5 4707.5 2192.52 4707.5 2184.93C4707.5 2179.85 4708.52 2175.43 4710.57 2171.67C4712.68 2167.9 4715.45 2164.97 4718.88 2162.86C4722.38 2160.74 4726.17 2159.69 4730.27 2159.69C4733.7 2159.69 4736.8 2160.45 4739.57 2161.96C4742.34 2163.48 4744.56 2165.66 4746.21 2168.5C4747.86 2171.27 4748.68 2174.67 4748.68 2178.7C4748.68 2179.82 4748.61 2180.87 4748.48 2181.86C4748.35 2182.79 4748.19 2183.58 4747.99 2184.24H4716.41C4716.54 2190.31 4718.06 2194.93 4720.96 2198.1C4723.86 2201.27 4727.69 2202.85 4732.44 2202.85C4735.61 2202.85 4738.25 2202.22 4740.36 2200.97C4742.48 2199.65 4744.42 2197.97 4746.21 2195.92L4748.58 2197.8C4746.73 2201.3 4744.23 2204.11 4741.06 2206.22C4737.89 2208.26 4734.06 2209.29 4729.57 2209.29ZM4814.83 2209.49C4808.16 2209.49 4802.29 2208.03 4797.21 2205.13C4792.19 2202.16 4788.26 2198.07 4785.43 2192.85C4782.65 2187.64 4781.27 2181.63 4781.27 2174.83C4781.27 2169.82 4782.09 2165.23 4783.74 2161.07C4785.46 2156.85 4787.8 2153.19 4790.77 2150.08C4793.81 2146.98 4797.34 2144.57 4801.37 2142.86C4805.46 2141.14 4809.91 2140.28 4814.73 2140.28C4817.44 2140.28 4820.47 2140.61 4823.84 2141.27C4827.2 2141.87 4830.54 2143.12 4833.84 2145.04L4834.23 2159.39H4828.1L4826.12 2147.91C4824.33 2146.92 4822.58 2146.22 4820.87 2145.83C4819.22 2145.43 4817.6 2145.23 4816.02 2145.23C4811.6 2145.23 4807.57 2146.36 4803.94 2148.6C4800.31 2150.84 4797.41 2154.18 4795.23 2158.6C4793.12 2162.95 4792.06 2168.37 4792.06 2174.83C4792.06 2181.3 4793.05 2186.75 4795.03 2191.17C4797.01 2195.59 4799.75 2198.92 4803.25 2201.17C4806.81 2203.41 4810.84 2204.53 4815.32 2204.53C4817.24 2204.53 4819.19 2204.34 4821.17 2203.94C4823.21 2203.48 4825.19 2202.79 4827.11 2201.86L4829.09 2190.38H4835.22L4834.83 2204.73C4831.79 2206.38 4828.56 2207.57 4825.13 2208.3C4821.76 2209.09 4818.33 2209.49 4814.83 2209.49ZM4866.2 2209.29C4862.37 2209.29 4858.71 2208.4 4855.21 2206.61C4851.78 2204.77 4848.97 2202.03 4846.79 2198.4C4844.61 2194.7 4843.53 2190.15 4843.53 2184.73C4843.53 2179.26 4844.61 2174.67 4846.79 2170.97C4848.97 2167.21 4851.78 2164.41 4855.21 2162.56C4858.71 2160.64 4862.37 2159.69 4866.2 2159.69C4870.02 2159.69 4873.65 2160.64 4877.09 2162.56C4880.58 2164.41 4883.42 2167.21 4885.6 2170.97C4887.84 2174.67 4888.97 2179.26 4888.97 2184.73C4888.97 2190.15 4887.84 2194.7 4885.6 2198.4C4883.42 2202.03 4880.58 2204.77 4877.09 2206.61C4873.65 2208.4 4870.02 2209.29 4866.2 2209.29ZM4866.2 2204.83C4870.49 2204.83 4873.79 2203.15 4876.1 2199.78C4878.41 2196.35 4879.56 2191.33 4879.56 2184.73C4879.56 2178.07 4878.41 2172.99 4876.1 2169.49C4873.79 2165.99 4870.49 2164.24 4866.2 2164.24C4861.91 2164.24 4858.61 2165.99 4856.3 2169.49C4854.05 2172.99 4852.93 2178.07 4852.93 2184.73C4852.93 2191.33 4854.05 2196.35 4856.3 2199.78C4858.61 2203.15 4861.91 2204.83 4866.2 2204.83ZM4897.36 2208V2204.44L4904.69 2203.05C4904.76 2200.54 4904.79 2197.84 4904.79 2194.93C4904.86 2192.03 4904.89 2189.45 4904.89 2187.21V2182.46C4904.89 2179.75 4904.86 2177.51 4904.79 2175.73C4904.79 2173.94 4904.72 2172.06 4904.59 2170.08L4896.77 2169.19V2165.73L4910.63 2159.69L4912.12 2160.68L4912.91 2168.7C4915.22 2166.06 4917.92 2163.91 4921.03 2162.26C4924.13 2160.55 4927.2 2159.69 4930.23 2159.69C4933.33 2159.69 4935.84 2160.41 4937.76 2161.87C4939.74 2163.32 4941.16 2165.69 4942.01 2168.99C4944.52 2165.89 4947.33 2163.58 4950.43 2162.06C4953.53 2160.48 4956.7 2159.69 4959.93 2159.69C4963.96 2159.69 4967.06 2161.04 4969.24 2163.75C4971.48 2166.45 4972.6 2170.87 4972.6 2177.01V2187.21C4972.6 2189.45 4972.6 2192.03 4972.6 2194.93C4972.67 2197.84 4972.74 2200.54 4972.8 2203.05L4979.73 2204.44V2208H4956.76V2204.44L4964.09 2203.05C4964.16 2200.61 4964.19 2197.93 4964.19 2195.03C4964.26 2192.06 4964.29 2189.45 4964.29 2187.21V2178.6C4964.29 2173.98 4963.63 2170.87 4962.31 2169.29C4960.99 2167.64 4958.88 2166.82 4955.97 2166.82C4953.93 2166.82 4951.81 2167.28 4949.64 2168.2C4947.52 2169.13 4945.21 2170.74 4942.71 2173.05C4942.77 2173.78 4942.81 2174.57 4942.81 2175.43C4942.87 2176.22 4942.9 2177.08 4942.9 2178V2187.21C4942.9 2189.45 4942.9 2192.03 4942.9 2194.93C4942.97 2197.84 4943.04 2200.54 4943.1 2203.05L4950.03 2204.44V2208H4927.06V2204.44L4934.39 2203.05C4934.46 2200.61 4934.49 2197.93 4934.49 2195.03C4934.56 2192.06 4934.59 2189.45 4934.59 2187.21V2178.79C4934.59 2174.31 4933.96 2171.2 4932.71 2169.49C4931.45 2167.71 4929.37 2166.82 4926.47 2166.82C4924.23 2166.82 4922.08 2167.28 4920.04 2168.2C4917.99 2169.13 4915.75 2170.64 4913.3 2172.76V2187.21C4913.3 2189.39 4913.3 2191.96 4913.3 2194.93C4913.37 2197.84 4913.44 2200.54 4913.5 2203.05L4920.33 2204.44V2208H4897.36ZM4984.65 2231.66V2228.2L4992.57 2226.81C4992.64 2224.1 4992.67 2221.4 4992.67 2218.69C4992.74 2216.05 4992.77 2213.41 4992.77 2210.77V2182.46C4992.77 2179.75 4992.74 2177.51 4992.67 2175.73C4992.67 2173.94 4992.61 2172.06 4992.48 2170.08L4984.65 2169.19V2165.73L4998.51 2159.69L5000 2160.68L5000.59 2167.11C5005.28 2162.16 5010.26 2159.69 5015.54 2159.69C5019.11 2159.69 5022.31 2160.68 5025.15 2162.66C5027.98 2164.64 5030.23 2167.48 5031.88 2171.17C5033.59 2174.8 5034.45 2179.19 5034.45 2184.34C5034.45 2189.42 5033.56 2193.84 5031.78 2197.6C5030 2201.3 5027.55 2204.17 5024.45 2206.22C5021.42 2208.26 5017.95 2209.29 5014.06 2209.29C5011.81 2209.29 5009.57 2208.83 5007.33 2207.9C5005.15 2206.98 5003 2205.29 5000.89 2202.85V2210.67C5000.89 2213.31 5000.89 2215.95 5000.89 2218.59C5000.96 2221.3 5001.02 2224.01 5001.09 2226.71L5010.1 2228.2V2231.66H4984.65ZM5013.17 2165.33C5011.65 2165.33 5009.9 2165.73 5007.92 2166.52C5005.94 2167.24 5003.7 2168.66 5001.19 2170.78V2198.59C5003.04 2200.38 5004.85 2201.66 5006.63 2202.46C5008.41 2203.25 5010.23 2203.64 5012.08 2203.64C5015.77 2203.64 5018.94 2202.16 5021.58 2199.19C5024.22 2196.22 5025.54 2191.53 5025.54 2185.13C5025.54 2178.79 5024.39 2173.91 5022.08 2170.48C5019.77 2167.05 5016.8 2165.33 5013.17 2165.33ZM5060.02 2209.29C5055.99 2209.29 5052.82 2207.97 5050.51 2205.33C5048.2 2202.62 5047.08 2198 5047.15 2191.47L5047.44 2166.82L5040.42 2165.33V2161.77L5054.97 2160.38L5055.96 2161.37L5055.46 2175.23V2190.58C5055.46 2194.87 5056.12 2197.9 5057.44 2199.68C5058.76 2201.4 5060.74 2202.26 5063.38 2202.26C5068 2202.26 5072.62 2200.11 5077.24 2195.82L5077.54 2166.72L5070.51 2165.33V2161.77L5084.87 2160.38L5085.86 2161.37L5085.56 2175.23V2203.05L5092.29 2204.44V2208L5078.53 2208.79L5077.54 2199.98C5074.9 2203.21 5072.06 2205.59 5069.03 2207.11C5066.06 2208.56 5063.05 2209.29 5060.02 2209.29ZM5115.95 2209.29C5112.52 2209.29 5109.78 2208.36 5107.74 2206.51C5105.69 2204.67 5104.67 2201.83 5104.67 2198C5104.67 2196.75 5104.67 2195.53 5104.67 2194.34C5104.73 2193.08 5104.77 2191.5 5104.77 2189.59V2166.22H5096.55V2161.87L5105.36 2160.78L5107.93 2147.51H5113.87L5113.28 2160.97H5126.65V2166.22H5113.18V2196.91C5113.18 2199.42 5113.68 2201.27 5114.67 2202.46C5115.66 2203.58 5116.98 2204.14 5118.63 2204.14C5119.75 2204.14 5120.8 2203.91 5121.79 2203.45C5122.85 2202.98 5124.01 2202.32 5125.26 2201.47L5127.64 2204.04C5124.93 2207.54 5121.04 2209.29 5115.95 2209.29ZM5131.32 2208V2204.44L5138.74 2203.05C5138.81 2200.54 5138.84 2197.84 5138.84 2194.93C5138.91 2191.96 5138.94 2189.39 5138.94 2187.21V2182.56C5138.94 2179.85 5138.91 2177.61 5138.84 2175.82C5138.84 2173.98 5138.78 2172.06 5138.64 2170.08L5130.72 2169.19V2165.73L5145.97 2159.69L5147.45 2160.68L5147.16 2174.14V2187.21C5147.16 2189.39 5147.16 2191.96 5147.16 2194.93C5147.22 2197.84 5147.29 2200.54 5147.36 2203.05L5154.29 2204.44V2208H5131.32ZM5143 2148.8C5141.15 2148.8 5139.57 2148.2 5138.25 2147.02C5136.99 2145.83 5136.37 2144.31 5136.37 2142.46C5136.37 2140.55 5136.99 2139.03 5138.25 2137.91C5139.57 2136.72 5141.15 2136.13 5143 2136.13C5144.85 2136.13 5146.4 2136.72 5147.65 2137.91C5148.97 2139.03 5149.63 2140.55 5149.63 2142.46C5149.63 2144.31 5148.97 2145.83 5147.65 2147.02C5146.4 2148.2 5144.85 2148.8 5143 2148.8ZM5161.3 2208V2204.44L5168.63 2203.05C5168.69 2200.54 5168.72 2197.84 5168.72 2194.93C5168.79 2192.03 5168.82 2189.45 5168.82 2187.21V2182.46C5168.82 2179.75 5168.79 2177.51 5168.72 2175.73C5168.72 2173.94 5168.66 2172.06 5168.53 2170.08L5160.71 2169.19V2165.73L5174.57 2159.69L5176.05 2160.68L5176.84 2168.6C5179.28 2165.96 5182.09 2163.81 5185.26 2162.16C5188.43 2160.51 5191.53 2159.69 5194.56 2159.69C5198.85 2159.69 5202.02 2161.14 5204.07 2164.04C5206.18 2166.88 5207.24 2171.53 5207.24 2178V2187.21C5207.24 2189.45 5207.24 2192.03 5207.24 2194.93C5207.3 2197.84 5207.37 2200.54 5207.43 2203.05L5214.36 2204.44V2208H5191.4V2204.44L5198.72 2203.05C5198.79 2200.61 5198.82 2197.93 5198.82 2195.03C5198.89 2192.06 5198.92 2189.45 5198.92 2187.21V2178.79C5198.92 2174.24 5198.26 2171.11 5196.94 2169.39C5195.69 2167.67 5193.61 2166.82 5190.7 2166.82C5188.46 2166.82 5186.28 2167.28 5184.17 2168.2C5182.06 2169.13 5179.75 2170.64 5177.24 2172.76V2187.21C5177.24 2189.39 5177.24 2191.96 5177.24 2194.93C5177.3 2197.84 5177.37 2200.54 5177.44 2203.05L5184.27 2204.44V2208H5161.3ZM5240.84 2188.2C5244.01 2188.2 5246.48 2187.01 5248.27 2184.64C5250.05 2182.26 5250.94 2179.26 5250.94 2175.63C5250.94 2172.13 5250.08 2169.29 5248.36 2167.11C5246.71 2164.87 5244.34 2163.75 5241.24 2163.75C5238.13 2163.75 5235.69 2164.9 5233.91 2167.21C5232.13 2169.46 5231.24 2172.39 5231.24 2176.02C5231.24 2179.65 5232.06 2182.59 5233.71 2184.83C5235.43 2187.08 5237.8 2188.2 5240.84 2188.2ZM5241.04 2192.16C5238.46 2192.16 5236.02 2191.8 5233.71 2191.07C5232.06 2193.18 5231.24 2195.29 5231.24 2197.41C5231.24 2198.73 5231.6 2199.78 5232.33 2200.57C5233.12 2201.37 5234.67 2201.76 5236.98 2201.76H5249.95C5255.43 2201.76 5259.45 2202.88 5262.03 2205.13C5264.6 2207.37 5265.89 2210.51 5265.89 2214.53C5265.89 2217.37 5264.96 2220.11 5263.12 2222.75C5261.33 2225.39 5258.63 2227.54 5255 2229.19C5251.37 2230.84 5246.85 2231.66 5241.43 2231.66C5234.24 2231.66 5229.03 2230.54 5225.79 2228.3C5222.56 2226.05 5220.94 2223.18 5220.94 2219.68C5220.94 2217.57 5221.63 2215.59 5223.02 2213.74C5224.47 2211.96 5227.01 2210.18 5230.64 2208.4C5226.29 2207.21 5224.11 2204.7 5224.11 2200.87C5224.11 2199.29 5224.6 2197.64 5225.59 2195.92C5226.65 2194.21 5228.4 2192.19 5230.84 2189.88C5228.47 2188.56 5226.58 2186.75 5225.2 2184.44C5223.88 2182.13 5223.22 2179.29 5223.22 2175.92C5223.22 2170.71 5224.9 2166.72 5228.27 2163.94C5231.7 2161.11 5235.99 2159.69 5241.14 2159.69C5246.35 2159.69 5250.54 2160.97 5253.71 2163.55L5264.9 2159.69L5266.38 2160.68V2166.91H5256.68C5258.2 2169.36 5258.96 2172.36 5258.96 2175.92C5258.96 2181.14 5257.24 2185.16 5253.81 2188C5250.44 2190.77 5246.19 2192.16 5241.04 2192.16ZM5229.06 2218.1C5229.06 2221.33 5230.21 2223.64 5232.52 2225.03C5234.83 2226.41 5237.94 2227.11 5241.83 2227.11C5247.24 2227.11 5251.37 2226.12 5254.21 2224.14C5257.04 2222.22 5258.46 2219.88 5258.46 2217.11C5258.46 2214.93 5257.7 2213.08 5256.19 2211.56C5254.67 2210.11 5252.13 2209.39 5248.56 2209.39H5236.98C5236.32 2209.39 5235.63 2209.35 5234.9 2209.29C5234.24 2209.29 5233.58 2209.25 5232.92 2209.19C5231.53 2210.64 5230.54 2212.06 5229.95 2213.45C5229.36 2214.9 5229.06 2216.45 5229.06 2218.1ZM5320.93 2146.32H5314.99C5314.92 2150.55 5314.86 2154.87 5314.79 2159.29C5314.79 2163.65 5314.79 2168.04 5314.79 2172.46V2177.21H5321.33C5327.33 2177.21 5331.62 2175.76 5334.2 2172.85C5336.77 2169.88 5338.06 2166.09 5338.06 2161.47C5338.06 2156.65 5336.67 2152.92 5333.9 2150.28C5331.19 2147.64 5326.87 2146.32 5320.93 2146.32ZM5296.08 2145.83V2141.77H5322.71C5331.09 2141.77 5337.36 2143.62 5341.52 2147.31C5345.75 2150.94 5347.86 2155.66 5347.86 2161.47C5347.86 2165.17 5346.93 2168.56 5345.09 2171.67C5343.24 2174.77 5340.27 2177.24 5336.18 2179.09C5332.15 2180.94 5326.74 2181.86 5319.94 2181.86H5314.79C5314.79 2185.43 5314.79 2188.93 5314.79 2192.36C5314.86 2195.79 5314.92 2199.29 5314.99 2202.85L5324.2 2203.94V2208H5296.08V2203.94L5305.19 2202.85C5305.32 2198.69 5305.39 2194.47 5305.39 2190.18C5305.39 2185.89 5305.39 2181.6 5305.39 2177.31V2172.46C5305.39 2168.17 5305.39 2163.91 5305.39 2159.69C5305.39 2155.4 5305.32 2151.14 5305.19 2146.92L5296.08 2145.83ZM5352.5 2208V2204.44L5360.42 2203.05C5360.48 2200.34 5360.52 2197.7 5360.52 2195.13C5360.58 2192.49 5360.62 2189.85 5360.62 2187.21V2143.75L5352.5 2142.76V2139.29L5367.94 2134.84L5369.33 2135.63L5368.93 2149.69V2187.21C5368.93 2189.85 5368.93 2192.49 5368.93 2195.13C5369 2197.77 5369.06 2200.41 5369.13 2203.05L5377.05 2204.44V2208H5352.5ZM5419.73 2208.99C5417.35 2208.99 5415.37 2208.3 5413.79 2206.91C5412.2 2205.52 5411.21 2203.68 5410.82 2201.37C5408.11 2204.01 5405.73 2205.99 5403.69 2207.31C5401.64 2208.63 5399.17 2209.29 5396.26 2209.29C5392.63 2209.29 5389.5 2208.26 5386.86 2206.22C5384.28 2204.11 5383 2201 5383 2196.91C5383 2195 5383.43 2193.22 5384.28 2191.57C5385.21 2189.92 5386.86 2188.3 5389.23 2186.71C5391.61 2185.13 5395.01 2183.55 5399.43 2181.96C5400.95 2181.43 5402.7 2180.87 5404.68 2180.28C5406.66 2179.69 5408.64 2179.16 5410.62 2178.7V2176.22C5410.62 2171.4 5409.89 2168.2 5408.44 2166.62C5406.99 2165.03 5404.61 2164.24 5401.31 2164.24C5400.59 2164.24 5399.76 2164.27 5398.84 2164.34C5397.98 2164.41 5397.02 2164.57 5395.97 2164.84L5394.09 2171.27C5393.16 2174.44 5391.45 2176.02 5388.94 2176.02C5386.17 2176.02 5384.61 2174.67 5384.28 2171.96C5385.21 2168.2 5387.39 2165.23 5390.82 2163.05C5394.32 2160.81 5398.57 2159.69 5403.59 2159.69C5408.8 2159.69 5412.66 2161.01 5415.17 2163.65C5417.68 2166.22 5418.93 2170.64 5418.93 2176.91V2198C5418.93 2200.11 5419.26 2201.63 5419.92 2202.55C5420.58 2203.41 5421.44 2203.84 5422.5 2203.84C5423.36 2203.84 5424.08 2203.64 5424.68 2203.25C5425.27 2202.85 5425.83 2202.32 5426.36 2201.66L5428.34 2203.84C5427.15 2205.76 5425.83 2207.11 5424.38 2207.9C5422.99 2208.63 5421.44 2208.99 5419.73 2208.99ZM5391.81 2195.43C5391.81 2198.07 5392.57 2199.95 5394.09 2201.07C5395.6 2202.19 5397.48 2202.75 5399.73 2202.75C5400.72 2202.75 5401.64 2202.62 5402.5 2202.36C5403.42 2202.09 5404.51 2201.6 5405.77 2200.87C5407.02 2200.08 5408.64 2198.96 5410.62 2197.51V2182.36C5408.9 2182.82 5407.22 2183.35 5405.57 2183.94C5403.92 2184.47 5402.57 2184.93 5401.51 2185.33C5398.67 2186.45 5396.56 2187.61 5395.17 2188.79C5393.79 2189.98 5392.86 2191.14 5392.4 2192.26C5392.01 2193.38 5391.81 2194.44 5391.81 2195.43ZM5449.21 2209.29C5445.78 2209.29 5443.04 2208.36 5440.99 2206.51C5438.95 2204.67 5437.92 2201.83 5437.92 2198C5437.92 2196.75 5437.92 2195.53 5437.92 2194.34C5437.99 2193.08 5438.02 2191.5 5438.02 2189.59V2166.22H5429.8V2161.87L5438.62 2160.78L5441.19 2147.51H5447.13L5446.54 2160.97H5459.9V2166.22H5446.44V2196.91C5446.44 2199.42 5446.93 2201.27 5447.92 2202.46C5448.91 2203.58 5450.23 2204.14 5451.88 2204.14C5453 2204.14 5454.06 2203.91 5455.05 2203.45C5456.11 2202.98 5457.26 2202.32 5458.51 2201.47L5460.89 2204.04C5458.18 2207.54 5454.29 2209.29 5449.21 2209.29ZM5464.67 2208V2204.44L5472.49 2203.05C5472.56 2200.41 5472.59 2197.77 5472.59 2195.13C5472.66 2192.49 5472.69 2189.85 5472.69 2187.21V2166.22H5464.47V2161.87L5472.89 2160.78C5473.35 2155.5 5474.08 2151.24 5475.07 2148.01C5476.12 2144.71 5477.87 2141.83 5480.31 2139.39C5482.43 2137.28 5484.64 2135.83 5486.95 2135.04C5489.26 2134.24 5491.53 2133.85 5493.78 2133.85C5496.09 2133.85 5498.13 2134.28 5499.92 2135.14C5501.7 2135.93 5502.82 2137.28 5503.28 2139.19C5503.22 2140.45 5502.65 2141.5 5501.6 2142.36C5500.54 2143.22 5499.09 2143.65 5497.24 2143.65C5494.87 2143.65 5492.49 2142.66 5490.11 2140.68L5487.34 2138.5C5487.08 2138.7 5486.81 2138.9 5486.55 2139.1C5486.35 2139.29 5486.15 2139.49 5485.96 2139.69C5484.24 2141.41 5482.92 2144.01 5482 2147.51C5481.14 2150.94 5480.78 2155.43 5480.91 2160.97H5494.57V2166.22H5481.11V2187.21C5481.11 2189.85 5481.11 2192.49 5481.11 2195.13C5481.17 2197.7 5481.24 2200.31 5481.3 2202.95L5490.21 2204.44V2208H5464.67ZM5521.78 2209.29C5517.95 2209.29 5514.29 2208.4 5510.79 2206.61C5507.36 2204.77 5504.56 2202.03 5502.38 2198.4C5500.2 2194.7 5499.11 2190.15 5499.11 2184.73C5499.11 2179.26 5500.2 2174.67 5502.38 2170.97C5504.56 2167.21 5507.36 2164.41 5510.79 2162.56C5514.29 2160.64 5517.95 2159.69 5521.78 2159.69C5525.61 2159.69 5529.24 2160.64 5532.67 2162.56C5536.17 2164.41 5539.01 2167.21 5541.19 2170.97C5543.43 2174.67 5544.55 2179.26 5544.55 2184.73C5544.55 2190.15 5543.43 2194.7 5541.19 2198.4C5539.01 2202.03 5536.17 2204.77 5532.67 2206.61C5529.24 2208.4 5525.61 2209.29 5521.78 2209.29ZM5521.78 2204.83C5526.07 2204.83 5529.37 2203.15 5531.68 2199.78C5533.99 2196.35 5535.15 2191.33 5535.15 2184.73C5535.15 2178.07 5533.99 2172.99 5531.68 2169.49C5529.37 2165.99 5526.07 2164.24 5521.78 2164.24C5517.49 2164.24 5514.19 2165.99 5511.88 2169.49C5509.64 2172.99 5508.52 2178.07 5508.52 2184.73C5508.52 2191.33 5509.64 2196.35 5511.88 2199.78C5514.19 2203.15 5517.49 2204.83 5521.78 2204.83ZM5553.15 2208V2204.44L5560.28 2203.15C5560.34 2200.64 5560.37 2197.93 5560.37 2195.03C5560.44 2192.06 5560.47 2189.45 5560.47 2187.21V2182.46C5560.47 2179.75 5560.44 2177.51 5560.37 2175.73C5560.37 2173.94 5560.31 2172.06 5560.18 2170.08L5552.36 2169.19V2165.73L5566.22 2159.69L5567.7 2160.68L5568.79 2172.36C5570.44 2168.4 5572.55 2165.3 5575.13 2163.05C5577.77 2160.81 5580.41 2159.69 5583.05 2159.69C5584.56 2159.69 5585.98 2160.02 5587.3 2160.68C5588.62 2161.34 5589.58 2162.23 5590.17 2163.35C5590.17 2168.17 5588.23 2170.58 5584.33 2170.58C5583.21 2170.58 5582.15 2170.38 5581.16 2169.98C5580.17 2169.52 5579.22 2168.89 5578.29 2168.1L5577.11 2167.01C5575.13 2168.47 5573.48 2170.25 5572.16 2172.36C5570.84 2174.47 5569.75 2176.95 5568.89 2179.78V2187.21C5568.89 2189.39 5568.89 2191.93 5568.89 2194.83C5568.95 2197.74 5569.02 2200.44 5569.09 2202.95L5577.2 2204.44V2208H5553.15ZM5594.81 2208V2204.44L5602.14 2203.05C5602.2 2200.54 5602.24 2197.84 5602.24 2194.93C5602.3 2192.03 5602.34 2189.45 5602.34 2187.21V2182.46C5602.34 2179.75 5602.3 2177.51 5602.24 2175.73C5602.24 2173.94 5602.17 2172.06 5602.04 2170.08L5594.22 2169.19V2165.73L5608.08 2159.69L5609.56 2160.68L5610.35 2168.7C5612.66 2166.06 5615.37 2163.91 5618.47 2162.26C5621.57 2160.55 5624.64 2159.69 5627.68 2159.69C5630.78 2159.69 5633.29 2160.41 5635.2 2161.87C5637.18 2163.32 5638.6 2165.69 5639.46 2168.99C5641.97 2165.89 5644.77 2163.58 5647.88 2162.06C5650.98 2160.48 5654.15 2159.69 5657.38 2159.69C5661.41 2159.69 5664.51 2161.04 5666.69 2163.75C5668.93 2166.45 5670.05 2170.87 5670.05 2177.01V2187.21C5670.05 2189.45 5670.05 2192.03 5670.05 2194.93C5670.12 2197.84 5670.18 2200.54 5670.25 2203.05L5677.18 2204.44V2208H5654.21V2204.44L5661.54 2203.05C5661.6 2200.61 5661.64 2197.93 5661.64 2195.03C5661.7 2192.06 5661.74 2189.45 5661.74 2187.21V2178.6C5661.74 2173.98 5661.08 2170.87 5659.76 2169.29C5658.44 2167.64 5656.32 2166.82 5653.42 2166.82C5651.37 2166.82 5649.26 2167.28 5647.08 2168.2C5644.97 2169.13 5642.66 2170.74 5640.15 2173.05C5640.22 2173.78 5640.25 2174.57 5640.25 2175.43C5640.32 2176.22 5640.35 2177.08 5640.35 2178V2187.21C5640.35 2189.45 5640.35 2192.03 5640.35 2194.93C5640.42 2197.84 5640.48 2200.54 5640.55 2203.05L5647.48 2204.44V2208H5624.51V2204.44L5631.84 2203.05C5631.9 2200.61 5631.94 2197.93 5631.94 2195.03C5632 2192.06 5632.04 2189.45 5632.04 2187.21V2178.79C5632.04 2174.31 5631.41 2171.2 5630.15 2169.49C5628.9 2167.71 5626.82 2166.82 5623.92 2166.82C5621.67 2166.82 5619.53 2167.28 5617.48 2168.2C5615.44 2169.13 5613.19 2170.64 5610.75 2172.76V2187.21C5610.75 2189.39 5610.75 2191.96 5610.75 2194.93C5610.82 2197.84 5610.88 2200.54 5610.95 2203.05L5617.78 2204.44V2208H5594.81Z" fill="white"/>
<path d="M5024 2849.5H5089C5094.25 2849.5 5098.5 2853.75 5098.5 2859V3000C5098.5 3005.25 5094.25 3009.5 5089 3009.5H5024C5018.75 3009.5 5014.5 3005.25 5014.5 3000V2859C5014.5 2853.75 5018.75 2849.5 5024 2849.5Z" fill="white" stroke="#608FE3" stroke-width="5"/>
<path d="M5012 3001C5012 3007.08 5016.92 3012 5023 3012H5090C5096.08 3012 5101 3007.08 5101 3001V3001H5012V3001Z" fill="#608FE3"/>
<path d="M5101 2858C5101 2851.92 5096.08 2847 5090 2847L5023 2847C5016.92 2847 5012 2851.92 5012 2858V2858L5101 2858V2858Z" fill="#608FE3"/>
<path d="M5169 2850.5H5265C5270.25 2850.5 5274.5 2854.75 5274.5 2860V3001C5274.5 3006.25 5270.25 3010.5 5265 3010.5H5169C5163.75 3010.5 5159.5 3006.25 5159.5 3001V2860C5159.5 2854.75 5163.75 2850.5 5169 2850.5Z" fill="white" stroke="#608FE3" stroke-width="5"/>
<path d="M5157 3001C5157 3007.63 5162.37 3013 5169 3013H5265C5271.63 3013 5277 3007.63 5277 3001V2999H5157V3001Z" fill="#608FE3"/>
<path d="M5277 2860C5277 2853.37 5271.63 2848 5265 2848L5169 2848C5162.37 2848 5157 2853.37 5157 2860L5157 2862L5277 2862L5277 2860Z" fill="#608FE3"/>
<path d="M4750 2855H4934C4938.42 2855 4942 2858.58 4942 2863V2987H4742V2863C4742 2858.58 4745.58 2855 4750 2855Z" fill="white" stroke="#608FE3" stroke-width="12"/>
<path d="M4714 3000C4714 3007.73 4720.27 3014 4728 3014H4955C4962.73 3014 4969 3007.73 4969 3000V2997H4714V3000Z" fill="#608FE3"/>
<path d="M5367.08 2854H5451.92C5459.79 2854 5466.49 2859.72 5467.73 2867.49L5474.32 2909H5344.68L5351.27 2867.49C5352.51 2859.72 5359.21 2854 5367.08 2854Z" fill="white" stroke="#608FE3" stroke-width="8"/>
<path d="M5461 2980V2995C5461 3002.73 5467.27 3009 5475 3009C5482.73 3009 5489 3002.73 5489 2995V2978.25C5486.22 2979.38 5483.18 2980 5480 2980H5461Z" fill="#654FF0"/>
<rect x="5316" y="2910" width="188" height="70" rx="24" fill="#608FE3"/>
<path d="M5329.02 2977.34C5329.01 2977.56 5329 2977.78 5329 2978V2995C5329 3002.73 5335.27 3009 5343 3009C5350.73 3009 5357 3002.73 5357 2995V2980H5340C5336.04 2980 5332.31 2979.04 5329.02 2977.34Z" fill="#654FF0"/>
<rect x="5376" y="2958" width="66" height="22" fill="#654FF0"/>
<circle cx="5343" cy="2944" r="11" fill="#654FF0"/>
<circle cx="5475" cy="2944" r="11" fill="#654FF0"/>
<path d="M4452.14 208.96V201.58H4541.78L4543.04 233.44H4532.78L4528.82 210.58H4486.52C4486.4 218.26 4486.28 225.94 4486.16 233.62C4486.16 241.3 4486.16 248.86 4486.16 256.3H4512.62L4515.14 239.2H4523.42V281.68H4515.14L4512.8 264.76H4486.16C4486.16 273.76 4486.16 282.22 4486.16 290.14C4486.28 297.94 4486.4 305.56 4486.52 313H4532.42L4536.38 289.96H4546.64L4545.38 322H4452.14V314.62L4468.7 312.64C4468.94 305.08 4469.06 297.4 4469.06 289.6C4469.06 281.8 4469.06 274 4469.06 266.2V257.38C4469.06 249.58 4469.06 241.84 4469.06 234.16C4469.06 226.36 4468.94 218.62 4468.7 210.94L4452.14 208.96ZM4576.98 279.7C4576.98 291.46 4579.32 300.16 4584 305.8C4588.8 311.32 4594.8 314.08 4602 314.08C4605.96 314.08 4609.44 313.3 4612.44 311.74C4615.56 310.06 4618.8 307.36 4622.16 303.64V253.78C4618.08 250.18 4614.42 247.72 4611.18 246.4C4607.94 245.08 4604.82 244.42 4601.82 244.42C4597.38 244.42 4593.24 245.68 4589.4 248.2C4585.68 250.6 4582.68 254.44 4580.4 259.72C4578.12 264.88 4576.98 271.54 4576.98 279.7ZM4623.96 323.8L4622.7 311.38C4619.58 315.46 4615.98 318.64 4611.9 320.92C4607.94 323.2 4603.14 324.34 4597.5 324.34C4590.18 324.34 4583.76 322.48 4578.24 318.76C4572.72 315.04 4568.4 309.88 4565.28 303.28C4562.28 296.56 4560.78 288.82 4560.78 280.06C4560.78 270.82 4562.46 262.78 4565.82 255.94C4569.18 249.1 4573.74 243.76 4579.5 239.92C4585.26 236.08 4591.8 234.16 4599.12 234.16C4603.32 234.16 4607.34 235 4611.18 236.68C4615.14 238.36 4618.98 241.42 4622.7 245.86V205.18L4607.4 203.38V197.08L4635.48 188.98L4638 190.42L4637.28 215.98V313.36L4651.86 315.52V322L4623.96 323.8ZM4695.71 286C4701.47 286 4705.97 283.84 4709.21 279.52C4712.45 275.2 4714.07 269.74 4714.07 263.14C4714.07 256.78 4712.51 251.62 4709.39 247.66C4706.39 243.58 4702.07 241.54 4696.43 241.54C4690.79 241.54 4686.35 243.64 4683.11 247.84C4679.87 251.92 4678.25 257.26 4678.25 263.86C4678.25 270.46 4679.75 275.8 4682.75 279.88C4685.87 283.96 4690.19 286 4695.71 286ZM4696.07 293.2C4691.39 293.2 4686.95 292.54 4682.75 291.22C4679.75 295.06 4678.25 298.9 4678.25 302.74C4678.25 305.14 4678.91 307.06 4680.23 308.5C4681.67 309.94 4684.49 310.66 4688.69 310.66H4712.27C4722.23 310.66 4729.55 312.7 4734.23 316.78C4738.91 320.86 4741.25 326.56 4741.25 333.88C4741.25 339.04 4739.57 344.02 4736.21 348.82C4732.97 353.62 4728.05 357.52 4721.45 360.52C4714.85 363.52 4706.63 365.02 4696.79 365.02C4683.71 365.02 4674.23 362.98 4668.35 358.9C4662.47 354.82 4659.53 349.6 4659.53 343.24C4659.53 339.4 4660.79 335.8 4663.31 332.44C4665.95 329.2 4670.57 325.96 4677.17 322.72C4669.25 320.56 4665.29 316 4665.29 309.04C4665.29 306.16 4666.19 303.16 4667.99 300.04C4669.91 296.92 4673.09 293.26 4677.53 289.06C4673.21 286.66 4669.79 283.36 4667.27 279.16C4664.87 274.96 4663.67 269.8 4663.67 263.68C4663.67 254.2 4666.73 246.94 4672.85 241.9C4679.09 236.74 4686.89 234.16 4696.25 234.16C4705.73 234.16 4713.35 236.5 4719.11 241.18L4739.45 234.16L4742.15 235.96V247.3H4724.51C4727.27 251.74 4728.65 257.2 4728.65 263.68C4728.65 273.16 4725.53 280.48 4719.29 285.64C4713.17 290.68 4705.43 293.2 4696.07 293.2ZM4674.29 340.36C4674.29 346.24 4676.39 350.44 4680.59 352.96C4684.79 355.48 4690.43 356.74 4697.51 356.74C4707.35 356.74 4714.85 354.94 4720.01 351.34C4725.17 347.86 4727.75 343.6 4727.75 338.56C4727.75 334.6 4726.37 331.24 4723.61 328.48C4720.85 325.84 4716.23 324.52 4709.75 324.52H4688.69C4687.49 324.52 4686.23 324.46 4684.91 324.34C4683.71 324.34 4682.51 324.28 4681.31 324.16C4678.79 326.8 4676.99 329.38 4675.91 331.9C4674.83 334.54 4674.29 337.36 4674.29 340.36ZM4792.88 242.44C4789.52 242.44 4786.1 243.4 4782.62 245.32C4779.26 247.24 4776.32 250.3 4773.8 254.5C4771.4 258.7 4769.84 264.28 4769.12 271.24H4801.88C4806.2 271.24 4809.02 270.34 4810.34 268.54C4811.78 266.74 4812.5 264.52 4812.5 261.88C4812.5 258.4 4811.6 255.22 4809.8 252.34C4808.12 249.34 4805.78 246.94 4802.78 245.14C4799.9 243.34 4796.6 242.44 4792.88 242.44ZM4792.7 324.34C4780.58 324.34 4770.86 320.44 4763.54 312.64C4756.22 304.72 4752.56 293.86 4752.56 280.06C4752.56 270.82 4754.42 262.78 4758.14 255.94C4761.98 249.1 4767.02 243.76 4773.26 239.92C4779.62 236.08 4786.52 234.16 4793.96 234.16C4800.2 234.16 4805.84 235.54 4810.88 238.3C4815.92 241.06 4819.94 245.02 4822.94 250.18C4825.94 255.22 4827.44 261.4 4827.44 268.72C4827.44 270.76 4827.32 272.68 4827.08 274.48C4826.84 276.16 4826.54 277.6 4826.18 278.8H4768.76C4769 289.84 4771.76 298.24 4777.04 304C4782.32 309.76 4789.28 312.64 4797.92 312.64C4803.68 312.64 4808.48 311.5 4812.32 309.22C4816.16 306.82 4819.7 303.76 4822.94 300.04L4827.26 303.46C4823.9 309.82 4819.34 314.92 4813.58 318.76C4807.82 322.48 4800.86 324.34 4792.7 324.34ZM4947.71 324.7C4935.59 324.7 4924.91 322.06 4915.67 316.78C4906.55 311.38 4899.41 303.94 4894.25 294.46C4889.21 284.98 4886.69 274.06 4886.69 261.7C4886.69 252.58 4888.19 244.24 4891.19 236.68C4894.31 229 4898.57 222.34 4903.97 216.7C4909.49 211.06 4915.91 206.68 4923.23 203.56C4930.67 200.44 4938.77 198.88 4947.53 198.88C4952.45 198.88 4957.97 199.48 4964.09 200.68C4970.21 201.76 4976.27 204.04 4982.27 207.52L4982.99 233.62H4971.83L4968.23 212.74C4964.99 210.94 4961.81 209.68 4958.69 208.96C4955.69 208.24 4952.75 207.88 4949.87 207.88C4941.83 207.88 4934.51 209.92 4927.91 214C4921.31 218.08 4916.03 224.14 4912.07 232.18C4908.23 240.1 4906.31 249.94 4906.31 261.7C4906.31 273.46 4908.11 283.36 4911.71 291.4C4915.31 299.44 4920.29 305.5 4926.65 309.58C4933.13 313.66 4940.45 315.7 4948.61 315.7C4952.09 315.7 4955.63 315.34 4959.23 314.62C4962.95 313.78 4966.55 312.52 4970.03 310.84L4973.63 289.96H4984.79L4984.07 316.06C4978.55 319.06 4972.67 321.22 4966.43 322.54C4960.31 323.98 4954.07 324.7 4947.71 324.7ZM5041.1 324.34C5034.14 324.34 5027.48 322.72 5021.12 319.48C5014.88 316.12 5009.78 311.14 5005.82 304.54C5001.86 297.82 4999.88 289.54 4999.88 279.7C4999.88 269.74 5001.86 261.4 5005.82 254.68C5009.78 247.84 5014.88 242.74 5021.12 239.38C5027.48 235.9 5034.14 234.16 5041.1 234.16C5048.06 234.16 5054.66 235.9 5060.9 239.38C5067.26 242.74 5072.42 247.84 5076.38 254.68C5080.46 261.4 5082.5 269.74 5082.5 279.7C5082.5 289.54 5080.46 297.82 5076.38 304.54C5072.42 311.14 5067.26 316.12 5060.9 319.48C5054.66 322.72 5048.06 324.34 5041.1 324.34ZM5041.1 316.24C5048.9 316.24 5054.9 313.18 5059.1 307.06C5063.3 300.82 5065.4 291.7 5065.4 279.7C5065.4 267.58 5063.3 258.34 5059.1 251.98C5054.9 245.62 5048.9 242.44 5041.1 242.44C5033.3 242.44 5027.3 245.62 5023.1 251.98C5019.02 258.34 5016.98 267.58 5016.98 279.7C5016.98 291.7 5019.02 300.82 5023.1 307.06C5027.3 313.18 5033.3 316.24 5041.1 316.24ZM5097.77 322V315.52L5111.09 313C5111.21 308.44 5111.27 303.52 5111.27 298.24C5111.39 292.96 5111.45 288.28 5111.45 284.2V275.56C5111.45 270.64 5111.39 266.56 5111.27 263.32C5111.27 260.08 5111.15 256.66 5110.91 253.06L5096.69 251.44V245.14L5121.89 234.16L5124.59 235.96L5126.03 250.54C5130.23 245.74 5135.15 241.84 5140.79 238.84C5146.43 235.72 5152.01 234.16 5157.53 234.16C5163.17 234.16 5167.73 235.48 5171.21 238.12C5174.81 240.76 5177.39 245.08 5178.95 251.08C5183.51 245.44 5188.61 241.24 5194.25 238.48C5199.89 235.6 5205.65 234.16 5211.53 234.16C5218.85 234.16 5224.49 236.62 5228.45 241.54C5232.53 246.46 5234.57 254.5 5234.57 265.66V284.2C5234.57 288.28 5234.57 292.96 5234.57 298.24C5234.69 303.52 5234.81 308.44 5234.93 313L5247.53 315.52V322H5205.77V315.52L5219.09 313C5219.21 308.56 5219.27 303.7 5219.27 298.42C5219.39 293.02 5219.45 288.28 5219.45 284.2V268.54C5219.45 260.14 5218.25 254.5 5215.85 251.62C5213.45 248.62 5209.61 247.12 5204.33 247.12C5200.61 247.12 5196.77 247.96 5192.81 249.64C5188.97 251.32 5184.77 254.26 5180.21 258.46C5180.33 259.78 5180.39 261.22 5180.39 262.78C5180.51 264.22 5180.57 265.78 5180.57 267.46V284.2C5180.57 288.28 5180.57 292.96 5180.57 298.24C5180.69 303.52 5180.81 308.44 5180.93 313L5193.53 315.52V322H5151.77V315.52L5165.09 313C5165.21 308.56 5165.27 303.7 5165.27 298.42C5165.39 293.02 5165.45 288.28 5165.45 284.2V268.9C5165.45 260.74 5164.31 255.1 5162.03 251.98C5159.75 248.74 5155.97 247.12 5150.69 247.12C5146.61 247.12 5142.71 247.96 5138.99 249.64C5135.27 251.32 5131.19 254.08 5126.75 257.92V284.2C5126.75 288.16 5126.75 292.84 5126.75 298.24C5126.87 303.52 5126.99 308.44 5127.11 313L5139.53 315.52V322H5097.77ZM5256.48 365.02V358.72L5270.88 356.2C5271 351.28 5271.06 346.36 5271.06 341.44C5271.18 336.64 5271.24 331.84 5271.24 327.04V275.56C5271.24 270.64 5271.18 266.56 5271.06 263.32C5271.06 260.08 5270.94 256.66 5270.7 253.06L5256.48 251.44V245.14L5281.68 234.16L5284.38 235.96L5285.46 247.66C5293.98 238.66 5303.04 234.16 5312.64 234.16C5319.12 234.16 5324.94 235.96 5330.1 239.56C5335.26 243.16 5339.34 248.32 5342.34 255.04C5345.46 261.64 5347.02 269.62 5347.02 278.98C5347.02 288.22 5345.4 296.26 5342.16 303.1C5338.92 309.82 5334.48 315.04 5328.84 318.76C5323.32 322.48 5317.02 324.34 5309.94 324.34C5305.86 324.34 5301.78 323.5 5297.7 321.82C5293.74 320.14 5289.84 317.08 5286 312.64V326.86C5286 331.66 5286 336.46 5286 341.26C5286.12 346.18 5286.24 351.1 5286.36 356.02L5302.74 358.72V365.02H5256.48ZM5308.32 244.42C5305.56 244.42 5302.38 245.14 5298.78 246.58C5295.18 247.9 5291.1 250.48 5286.54 254.32V304.9C5289.9 308.14 5293.2 310.48 5296.44 311.92C5299.68 313.36 5302.98 314.08 5306.34 314.08C5313.06 314.08 5318.82 311.38 5323.62 305.98C5328.42 300.58 5330.82 292.06 5330.82 280.42C5330.82 268.9 5328.72 260.02 5324.52 253.78C5320.32 247.54 5314.92 244.42 5308.32 244.42ZM5393.5 324.34C5386.18 324.34 5380.42 321.94 5376.22 317.14C5372.02 312.22 5369.98 303.82 5370.1 291.94L5370.64 247.12L5357.86 244.42V237.94L5384.32 235.42L5386.12 237.22L5385.22 262.42V290.32C5385.22 298.12 5386.42 303.64 5388.82 306.88C5391.22 310 5394.82 311.56 5399.62 311.56C5408.02 311.56 5416.42 307.66 5424.82 299.86L5425.36 246.94L5412.58 244.42V237.94L5438.68 235.42L5440.48 237.22L5439.94 262.42V313L5452.18 315.52V322L5427.16 323.44L5425.36 307.42C5420.56 313.3 5415.4 317.62 5409.88 320.38C5404.48 323.02 5399.02 324.34 5393.5 324.34ZM5495.2 324.34C5488.96 324.34 5483.98 322.66 5480.26 319.3C5476.54 315.94 5474.68 310.78 5474.68 303.82C5474.68 301.54 5474.68 299.32 5474.68 297.16C5474.8 294.88 5474.86 292 5474.86 288.52V246.04H5459.92V238.12L5475.94 236.14L5480.62 212.02H5491.42L5490.34 236.5H5514.64V246.04H5490.16V301.84C5490.16 306.4 5491.06 309.76 5492.86 311.92C5494.66 313.96 5497.06 314.98 5500.06 314.98C5502.1 314.98 5504.02 314.56 5505.82 313.72C5507.74 312.88 5509.84 311.68 5512.12 310.12L5516.44 314.8C5511.52 321.16 5504.44 324.34 5495.2 324.34ZM5523.14 322V315.52L5536.64 313C5536.76 308.44 5536.82 303.52 5536.82 298.24C5536.94 292.84 5537 288.16 5537 284.2V275.74C5537 270.82 5536.94 266.74 5536.82 263.5C5536.82 260.14 5536.7 256.66 5536.46 253.06L5522.06 251.44V245.14L5549.78 234.16L5552.48 235.96L5551.94 260.44V284.2C5551.94 288.16 5551.94 292.84 5551.94 298.24C5552.06 303.52 5552.18 308.44 5552.3 313L5564.9 315.52V322H5523.14ZM5544.38 214.36C5541.02 214.36 5538.14 213.28 5535.74 211.12C5533.46 208.96 5532.32 206.2 5532.32 202.84C5532.32 199.36 5533.46 196.6 5535.74 194.56C5538.14 192.4 5541.02 191.32 5544.38 191.32C5547.74 191.32 5550.56 192.4 5552.84 194.56C5555.24 196.6 5556.44 199.36 5556.44 202.84C5556.44 206.2 5555.24 208.96 5552.84 211.12C5550.56 213.28 5547.74 214.36 5544.38 214.36ZM5577.65 322V315.52L5590.97 313C5591.09 308.44 5591.15 303.52 5591.15 298.24C5591.27 292.96 5591.33 288.28 5591.33 284.2V275.56C5591.33 270.64 5591.27 266.56 5591.15 263.32C5591.15 260.08 5591.03 256.66 5590.79 253.06L5576.57 251.44V245.14L5601.77 234.16L5604.47 235.96L5605.91 250.36C5610.35 245.56 5615.45 241.66 5621.21 238.66C5626.97 235.66 5632.61 234.16 5638.13 234.16C5645.93 234.16 5651.69 236.8 5655.41 242.08C5659.25 247.24 5661.17 255.7 5661.17 267.46V284.2C5661.17 288.28 5661.17 292.96 5661.17 298.24C5661.29 303.52 5661.41 308.44 5661.53 313L5674.13 315.52V322H5632.37V315.52L5645.69 313C5645.81 308.56 5645.87 303.7 5645.87 298.42C5645.99 293.02 5646.05 288.28 5646.05 284.2V268.9C5646.05 260.62 5644.85 254.92 5642.45 251.8C5640.17 248.68 5636.39 247.12 5631.11 247.12C5627.03 247.12 5623.07 247.96 5619.23 249.64C5615.39 251.32 5611.19 254.08 5606.63 257.92V284.2C5606.63 288.16 5606.63 292.84 5606.63 298.24C5606.75 303.52 5606.87 308.44 5606.99 313L5619.41 315.52V322H5577.65ZM5722.27 286C5728.03 286 5732.53 283.84 5735.77 279.52C5739.01 275.2 5740.63 269.74 5740.63 263.14C5740.63 256.78 5739.07 251.62 5735.95 247.66C5732.95 243.58 5728.63 241.54 5722.99 241.54C5717.35 241.54 5712.91 243.64 5709.67 247.84C5706.43 251.92 5704.81 257.26 5704.81 263.86C5704.81 270.46 5706.31 275.8 5709.31 279.88C5712.43 283.96 5716.75 286 5722.27 286ZM5722.63 293.2C5717.95 293.2 5713.51 292.54 5709.31 291.22C5706.31 295.06 5704.81 298.9 5704.81 302.74C5704.81 305.14 5705.47 307.06 5706.79 308.5C5708.23 309.94 5711.05 310.66 5715.25 310.66H5738.83C5748.79 310.66 5756.11 312.7 5760.79 316.78C5765.47 320.86 5767.81 326.56 5767.81 333.88C5767.81 339.04 5766.13 344.02 5762.77 348.82C5759.53 353.62 5754.61 357.52 5748.01 360.52C5741.41 363.52 5733.19 365.02 5723.35 365.02C5710.27 365.02 5700.79 362.98 5694.91 358.9C5689.03 354.82 5686.09 349.6 5686.09 343.24C5686.09 339.4 5687.35 335.8 5689.87 332.44C5692.51 329.2 5697.13 325.96 5703.73 322.72C5695.81 320.56 5691.85 316 5691.85 309.04C5691.85 306.16 5692.75 303.16 5694.55 300.04C5696.47 296.92 5699.65 293.26 5704.09 289.06C5699.77 286.66 5696.35 283.36 5693.83 279.16C5691.43 274.96 5690.23 269.8 5690.23 263.68C5690.23 254.2 5693.29 246.94 5699.41 241.9C5705.65 236.74 5713.45 234.16 5722.81 234.16C5732.29 234.16 5739.91 236.5 5745.67 241.18L5766.01 234.16L5768.71 235.96V247.3H5751.07C5753.83 251.74 5755.21 257.2 5755.21 263.68C5755.21 273.16 5752.09 280.48 5745.85 285.64C5739.73 290.68 5731.99 293.2 5722.63 293.2ZM5700.85 340.36C5700.85 346.24 5702.95 350.44 5707.15 352.96C5711.35 355.48 5716.99 356.74 5724.07 356.74C5733.91 356.74 5741.41 354.94 5746.57 351.34C5751.73 347.86 5754.31 343.6 5754.31 338.56C5754.31 334.6 5752.93 331.24 5750.17 328.48C5747.41 325.84 5742.79 324.52 5736.31 324.52H5715.25C5714.05 324.52 5712.79 324.46 5711.47 324.34C5710.27 324.34 5709.07 324.28 5707.87 324.16C5705.35 326.8 5703.55 329.38 5702.47 331.9C5701.39 334.54 5700.85 337.36 5700.85 340.36Z" fill="#231A26"/>
<path fill-rule="evenodd" clip-rule="evenodd" d="M5365.32 1849.58C5357.91 1832.08 5345.54 1817.2 5329.98 1806.68C5314.43 1796.16 5295.65 1790 5275.5 1790C5262.07 1790 5249.24 1792.73 5237.58 1797.68C5220.08 1805.09 5205.2 1817.46 5194.68 1833.02C5184.16 1848.57 5178 1867.36 5178 1887.5C5178 1900.93 5180.73 1913.76 5185.68 1925.42C5193.09 1942.92 5205.46 1957.8 5221.02 1968.32C5236.57 1978.84 5255.35 1985 5275.5 1985C5288.93 1985 5301.76 1982.27 5313.42 1977.32C5330.92 1969.91 5345.8 1957.54 5356.32 1941.98C5366.84 1926.43 5373 1907.64 5373 1887.5C5373 1874.07 5370.27 1861.24 5365.32 1849.58ZM5353.35 1920.35C5346.93 1935.5 5336.2 1948.43 5322.7 1957.55C5309.2 1966.67 5292.99 1972 5275.5 1972C5263.84 1972 5252.75 1969.63 5242.65 1965.35C5227.5 1958.93 5214.57 1948.2 5205.45 1934.7C5196.32 1921.2 5191 1904.99 5191 1887.5C5191 1875.84 5193.37 1864.75 5197.65 1854.65C5204.06 1839.5 5214.8 1826.57 5228.3 1817.45C5241.8 1808.32 5258.01 1803 5275.5 1803C5287.16 1803 5298.25 1805.37 5308.35 1809.65C5323.5 1816.07 5336.43 1826.8 5345.55 1840.3C5354.68 1853.8 5360 1870.01 5360 1887.5C5360 1899.16 5357.63 1910.25 5353.35 1920.35ZM5300.94 1817.54H5295.56C5288.21 1817.54 5281.32 1820.06 5275.87 1824.37C5273.14 1826.52 5270.76 1829.12 5268.85 1832.08C5266.94 1835.03 5265.49 1838.35 5264.64 1841.92L5248.56 1908.91C5248.04 1911.07 5247.18 1913.05 5246.03 1914.82C5244.31 1917.47 5241.96 1919.66 5239.21 1921.18C5236.45 1922.69 5233.32 1923.54 5230 1923.54H5224.62C5221.11 1923.54 5218.26 1926.39 5218.26 1929.9C5218.26 1933.41 5221.11 1936.26 5224.62 1936.26H5230C5237.35 1936.26 5244.24 1933.74 5249.69 1929.43C5252.42 1927.28 5254.8 1924.68 5256.71 1921.72C5258.62 1918.77 5260.07 1915.45 5260.93 1911.88L5277 1844.89C5277.52 1842.73 5278.38 1840.75 5279.53 1838.98C5281.25 1836.33 5283.6 1834.14 5286.36 1832.62C5289.11 1831.11 5292.24 1830.26 5295.56 1830.26H5300.94C5304.45 1830.26 5307.3 1827.41 5307.3 1823.9C5307.3 1820.39 5304.45 1817.54 5300.94 1817.54ZM5309.68 1908.96L5301.46 1917.18L5309.68 1925.4C5312.16 1927.89 5312.16 1931.91 5309.68 1934.4C5307.19 1936.88 5303.17 1936.88 5300.68 1934.4L5292.46 1926.17L5284.24 1934.4C5281.75 1936.88 5277.73 1936.88 5275.24 1934.4C5272.76 1931.91 5272.76 1927.89 5275.24 1925.4L5283.47 1917.18L5275.24 1908.96C5272.76 1906.47 5272.76 1902.45 5275.24 1899.96C5277.73 1897.48 5281.75 1897.48 5284.24 1899.96L5292.46 1908.19L5300.68 1899.96C5303.17 1897.48 5307.19 1897.48 5309.68 1899.96C5312.16 1902.45 5312.16 1906.47 5309.68 1908.96Z" fill="white"/>
<rect x="4859.5" y="1816.5" width="142" height="142" rx="14.5" stroke="white" stroke-width="11"/>
<path d="M4893 1789C4893 1785.13 4896.13 1782 4900 1782V1782C4903.87 1782 4907 1785.13 4907 1789V1815C4907 1818.87 4903.87 1822 4900 1822V1822C4896.13 1822 4893 1818.87 4893 1815V1789Z" fill="white"/>
<path d="M4923 1789C4923 1785.13 4926.13 1782 4930 1782V1782C4933.87 1782 4937 1785.13 4937 1789V1815C4937 1818.87 4933.87 1822 4930 1822V1822C4926.13 1822 4923 1818.87 4923 1815V1789Z" fill="white"/>
<path d="M4953 1789C4953 1785.13 4956.13 1782 4960 1782V1782C4963.87 1782 4967 1785.13 4967 1789V1815C4967 1818.87 4963.87 1822 4960 1822V1822C4956.13 1822 4953 1818.87 4953 1815V1789Z" fill="white"/>
<path d="M5029 1850C5032.87 1850 5036 1853.13 5036 1857V1857C5036 1860.87 5032.87 1864 5029 1864L5003 1864C4999.13 1864 4996 1860.87 4996 1857V1857C4996 1853.13 4999.13 1850 5003 1850L5029 1850Z" fill="white"/>
<path d="M5029 1880C5032.87 1880 5036 1883.13 5036 1887V1887C5036 1890.87 5032.87 1894 5029 1894L5003 1894C4999.13 1894 4996 1890.87 4996 1887V1887C4996 1883.13 4999.13 1880 5003 1880L5029 1880Z" fill="white"/>
<path d="M5029 1910C5032.87 1910 5036 1913.13 5036 1917V1917C5036 1920.87 5032.87 1924 5029 1924L5003 1924C4999.13 1924 4996 1920.87 4996 1917V1917C4996 1913.13 4999.13 1910 5003 1910L5029 1910Z" fill="white"/>
<path d="M4858 1850C4861.87 1850 4865 1853.13 4865 1857V1857C4865 1860.87 4861.87 1864 4858 1864L4832 1864C4828.13 1864 4825 1860.87 4825 1857V1857C4825 1853.13 4828.13 1850 4832 1850L4858 1850Z" fill="white"/>
<path d="M4858 1880C4861.87 1880 4865 1883.13 4865 1887V1887C4865 1890.87 4861.87 1894 4858 1894L4832 1894C4828.13 1894 4825 1890.87 4825 1887V1887C4825 1883.13 4828.13 1880 4832 1880L4858 1880Z" fill="white"/>
<path d="M4858 1910C4861.87 1910 4865 1913.13 4865 1917V1917C4865 1920.87 4861.87 1924 4858 1924L4832 1924C4828.13 1924 4825 1920.87 4825 1917V1917C4825 1913.13 4828.13 1910 4832 1910L4858 1910Z" fill="white"/>
<path d="M4893 1960C4893 1956.13 4896.13 1953 4900 1953V1953C4903.87 1953 4907 1956.13 4907 1960V1986C4907 1989.87 4903.87 1993 4900 1993V1993C4896.13 1993 4893 1989.87 4893 1986V1960Z" fill="white"/>
<path d="M4923 1960C4923 1956.13 4926.13 1953 4930 1953V1953C4933.87 1953 4937 1956.13 4937 1960V1986C4937 1989.87 4933.87 1993 4930 1993V1993C4926.13 1993 4923 1989.87 4923 1986V1960Z" fill="white"/>
<path d="M4953 1960C4953 1956.13 4956.13 1953 4960 1953V1953C4963.87 1953 4967 1956.13 4967 1960V1986C4967 1989.87 4963.87 1993 4960 1993V1993C4956.13 1993 4953 1989.87 4953 1986V1960Z" fill="white"/>
<mask id="mask0_423_167" style="mask-type:alpha" maskUnits="userSpaceOnUse" x="4431" y="1815" width="272" height="162">
<path d="M4565.87 1977L4431 1815H4702.29L4565.87 1977Z" fill="#D9D9D9"/>
</mask>
<g mask="url(#mask0_423_167)">
<circle cx="4565.87" cy="1949.87" r="15.5024" fill="white"/>
<circle cx="4565.87" cy="1949.87" r="70.4617" stroke="white" stroke-width="11"/>
<circle cx="4566.65" cy="1950.65" r="130.146" stroke="white" stroke-width="11"/>
</g>
<path d="M5611 1875.85C5647.83 1875.85 5687 1864.56 5687 1843.69V1826.15C5687 1805.28 5647.83 1794 5611 1794C5574.17 1794 5535 1805.28 5535 1826.15V1843.69C5535 1864.56 5574.17 1875.85 5611 1875.85ZM5546.69 1826.15C5546.69 1817.79 5571.77 1805.69 5611 1805.69C5650.23 1805.69 5675.31 1817.79 5675.31 1826.15V1843.69C5675.31 1852.05 5650.23 1864.15 5611 1864.15C5571.77 1864.15 5546.69 1852.05 5546.69 1843.69V1826.15Z" fill="white"/>
<path d="M5611 1981.08C5647.83 1981.08 5687 1969.79 5687 1948.92V1931.38C5687 1929.83 5686.38 1928.35 5685.29 1927.25C5684.19 1926.15 5682.7 1925.54 5681.15 1925.54C5679.6 1925.54 5678.12 1926.15 5677.02 1927.25C5675.92 1928.35 5675.31 1929.83 5675.31 1931.38V1948.92C5675.31 1957.28 5650.23 1969.38 5611 1969.38C5571.77 1969.38 5546.69 1957.28 5546.69 1948.92V1931.38C5546.69 1929.83 5546.08 1928.35 5544.98 1927.25C5543.88 1926.15 5542.4 1925.54 5540.85 1925.54C5539.3 1925.54 5537.81 1926.15 5536.71 1927.25C5535.62 1928.35 5535 1929.83 5535 1931.38V1948.92C5535 1969.79 5574.17 1981.08 5611 1981.08Z" fill="white"/>
<path d="M5611 1928.46C5647.83 1928.46 5687 1917.18 5687 1896.31V1878.77C5687 1877.22 5686.38 1875.73 5685.29 1874.64C5684.19 1873.54 5682.7 1872.92 5681.15 1872.92C5679.6 1872.92 5678.12 1873.54 5677.02 1874.64C5675.92 1875.73 5675.31 1877.22 5675.31 1878.77V1896.31C5675.31 1904.67 5650.23 1916.77 5611 1916.77C5571.77 1916.77 5546.69 1904.67 5546.69 1896.31V1878.77C5546.69 1877.22 5546.08 1875.73 5544.98 1874.64C5543.88 1873.54 5542.4 1872.92 5540.85 1872.92C5539.3 1872.92 5537.81 1873.54 5536.71 1874.64C5535.62 1875.73 5535 1877.22 5535 1878.77V1896.31C5535 1917.18 5574.17 1928.46 5611 1928.46Z" fill="white"/>
<defs>
<filter id="filter0_d_423_167" x="1296" y="658" width="645" height="440" filterUnits="userSpaceOnUse" color-interpolation-filters="sRGB">
<feFlood flood-opacity="0" result="BackgroundImageFix"/>
<feColorMatrix in="SourceAlpha" type="matrix" values="0 0 0 0 0 0 0 0 0 0 0 0 0 0 0 0 0 0 127 0" result="hardAlpha"/>
<feOffset/>
<feGaussianBlur stdDeviation="10"/>
<feComposite in2="hardAlpha" operator="out"/>
<feColorMatrix type="matrix" values="0 0 0 0 0 0 0 0 0 0 0 0 0 0 0 0 0 0 0.25 0"/>
<feBlend mode="normal" in2="BackgroundImageFix" result="effect1_dropShadow_423_167"/>
<feBlend mode="normal" in="SourceGraphic" in2="effect1_dropShadow_423_167" result="shape"/>
</filter>
<filter id="filter1_d_423_167" x="4786" y="650" width="645" height="440" filterUnits="userSpaceOnUse" color-interpolation-filters="sRGB">
<feFlood flood-opacity="0" result="BackgroundImageFix"/>
<feColorMatrix in="SourceAlpha" type="matrix" values="0 0 0 0 0 0 0 0 0 0 0 0 0 0 0 0 0 0 127 0" result="hardAlpha"/>
<feOffset/>
<feGaussianBlur stdDeviation="10"/>
<feComposite in2="hardAlpha" operator="out"/>
<feColorMatrix type="matrix" values="0 0 0 0 0 0 0 0 0 0 0 0 0 0 0 0 0 0 0.25 0"/>
<feBlend mode="normal" in2="BackgroundImageFix" result="effect1_dropShadow_423_167"/>
<feBlend mode="normal" in="SourceGraphic" in2="effect1_dropShadow_423_167" result="shape"/>
</filter>
<linearGradient id="paint0_linear_423_167" x1="1618.5" y1="932.102" x2="1618.5" y2="1078" gradientUnits="userSpaceOnUse">
<stop stop-color="white"/>
<stop offset="1" stop-color="#CACACA"/>
</linearGradient>
<linearGradient id="paint1_linear_423_167" x1="5108.5" y1="924.102" x2="5108.5" y2="1070" gradientUnits="userSpaceOnUse">
<stop stop-color="white"/>
<stop offset="1" stop-color="#CACACA"/>
</linearGradient>
<linearGradient id="paint2_linear_423_167" x1="5743.73" y1="1611" x2="5421.28" y2="2538.86" gradientUnits="userSpaceOnUse">
<stop offset="0.130208" stop-color="#D82668"/>
<stop offset="1" stop-color="#608FE3"/>
</linearGradient>
</defs>
</svg>
