<svg width="821" height="154" viewBox="0 0 821 154" fill="none" xmlns="http://www.w3.org/2000/svg">
<path d="M251.843 120.081C254.746 120.081 256.77 119.852 257.916 119.393C259.138 118.935 259.75 117.751 259.75 115.841C259.75 113.932 257.725 107.439 253.677 96.3625H218.729C215.445 106.064 213.802 112.175 213.802 114.696C213.802 117.14 214.414 118.668 215.636 119.279C216.934 119.813 219.226 120.081 222.511 120.081L222.74 121.456H196.959L197.188 120.081C199.403 120.081 201.122 119.89 202.344 119.508C203.643 119.126 205.018 118.133 206.469 116.529C207.997 114.848 209.448 112.442 210.823 109.31C212.198 106.178 213.841 101.786 215.75 96.1334L225.948 66.686C229.538 56.2973 231.333 49.9953 231.333 47.7801C231.333 45.5648 230.799 44.1517 229.729 43.5406C228.66 42.8531 226.597 42.5093 223.542 42.5093L223.313 41.249H242.219L262.499 96.1334C265.937 105.223 268.229 110.991 269.374 113.435C270.597 115.88 271.742 117.445 272.812 118.133C274.721 119.432 277.128 120.081 280.03 120.081L280.26 121.456H251.614L251.843 120.081ZM235.802 47.4363L219.646 93.6126H252.76L235.802 47.4363Z" fill="black"/>
<path d="M284.416 104.383C284.416 109.348 285.753 113.091 288.426 115.612C291.1 118.057 294.27 119.279 297.936 119.279C301.679 119.279 304.697 118.439 306.988 116.758C309.28 115.077 310.426 112.824 310.426 109.998C310.426 107.095 309.433 104.727 307.447 102.894C305.537 101.06 303.207 99.5708 300.457 98.425C297.707 97.2792 294.919 96.0952 292.093 94.873C289.343 93.6508 286.975 91.8557 284.989 89.4877C283.079 87.1196 282.124 83.9496 282.124 79.9774C282.124 76.0053 283.881 72.7206 287.395 70.1234C290.985 67.4499 295.11 66.1131 299.77 66.1131C306.415 66.1131 311.61 67.1825 315.353 69.3214C315.353 72.8352 314.894 77.724 313.978 83.9878L312.603 83.644C312.603 78.6024 311.457 74.9358 309.165 72.6442C306.874 70.3526 304.086 69.2068 300.801 69.2068C297.593 69.2068 294.995 70.047 293.009 71.7276C291.1 73.4081 290.145 75.6997 290.145 78.6024C290.145 81.4288 291.1 83.7204 293.009 85.4773C294.995 87.1578 297.364 88.571 300.113 89.7168C302.863 90.8626 305.613 92.0848 308.363 93.3834C311.19 94.6056 313.558 96.4007 315.467 98.7687C317.453 101.06 318.446 103.887 318.446 107.248C318.446 112.137 316.537 115.918 312.717 118.591C308.898 121.265 303.856 122.602 297.593 122.602C291.405 122.602 286.173 120.959 281.895 117.675C281.895 113.855 282.277 109.348 283.041 104.154L284.416 104.383Z" fill="black"/>
<path d="M331.524 104.383C331.524 109.348 332.861 113.091 335.534 115.612C338.208 118.057 341.378 119.279 345.045 119.279C348.788 119.279 351.805 118.439 354.096 116.758C356.388 115.077 357.534 112.824 357.534 109.998C357.534 107.095 356.541 104.727 354.555 102.894C352.645 101.06 350.315 99.5708 347.565 98.425C344.815 97.2792 342.027 96.0952 339.201 94.873C336.451 93.6508 334.083 91.8557 332.097 89.4877C330.187 87.1196 329.232 83.9496 329.232 79.9774C329.232 76.0053 330.989 72.7206 334.503 70.1234C338.093 67.4499 342.218 66.1131 346.878 66.1131C353.524 66.1131 358.718 67.1825 362.461 69.3214C362.461 72.8352 362.003 77.724 361.086 83.9878L359.711 83.644C359.711 78.6024 358.565 74.9358 356.273 72.6442C353.982 70.3526 351.194 69.2068 347.909 69.2068C344.701 69.2068 342.104 70.047 340.118 71.7276C338.208 73.4081 337.253 75.6997 337.253 78.6024C337.253 81.4288 338.208 83.7204 340.118 85.4773C342.104 87.1578 344.472 88.571 347.222 89.7168C349.972 90.8626 352.721 92.0848 355.471 93.3834C358.298 94.6056 360.666 96.4007 362.575 98.7687C364.562 101.06 365.555 103.887 365.555 107.248C365.555 112.137 363.645 115.918 359.826 118.591C356.006 121.265 350.965 122.602 344.701 122.602C338.513 122.602 333.281 120.959 329.003 117.675C329.003 113.855 329.385 109.348 330.149 104.154L331.524 104.383Z" fill="black"/>
<path d="M421.256 92.4668H383.674V94.4147C383.674 102.512 385.392 108.699 388.83 112.977C392.267 117.178 396.545 119.279 401.663 119.279C409.302 119.279 414.802 116.223 418.163 110.112L419.881 111.029C415.909 118.744 409.263 122.602 399.944 122.602C393.069 122.602 387.187 120.119 382.299 115.154C377.41 110.189 374.965 103.505 374.965 95.1021C374.965 86.6231 377.104 79.6719 381.382 74.2484C385.736 68.8248 391.503 66.1131 398.684 66.1131C405.941 66.1131 411.517 68.5957 415.413 73.5609C419.308 78.4497 421.256 84.7516 421.256 92.4668ZM399.028 68.4047C394.597 68.4047 391.083 70.3144 388.486 74.1338C385.965 77.8768 384.438 82.8801 383.903 89.1439H412.434C411.899 75.3178 407.43 68.4047 399.028 68.4047Z" fill="black"/>
<path d="M483.49 86.6231C484.178 81.1232 485.934 76.349 488.761 72.3005C491.664 68.1755 495.674 66.1131 500.792 66.1131C505.91 66.1131 509.882 67.679 512.708 70.8109C515.535 73.9428 516.948 78.4879 516.948 84.4461V102.55C516.948 110.494 517.444 115.421 518.437 117.331C519.507 119.164 522.257 120.081 526.687 120.081L526.916 121.456H499.875L500.104 120.081C504.306 120.081 506.826 119.126 507.667 117.216C508.507 115.307 508.927 110.074 508.927 101.519V85.5919C508.927 80.3212 508.163 76.349 506.635 73.6754C505.184 71.0019 502.816 69.6651 499.531 69.6651C496.247 69.6651 493.535 70.8873 491.396 73.3317C489.257 75.6997 487.653 78.717 486.584 82.3836C484.521 89.4877 483.49 96.6299 483.49 103.81C483.49 110.991 483.948 115.498 484.865 117.331C485.858 119.164 488.608 120.081 493.115 120.081L493.344 121.456H466.417L466.647 120.081C470.848 120.081 473.369 119.126 474.209 117.216C475.049 115.307 475.469 110.074 475.469 101.519V85.5919C475.469 80.3212 474.705 76.349 473.178 73.6754C471.726 71.0019 469.358 69.6651 466.074 69.6651C462.789 69.6651 460.077 70.8873 457.938 73.3317C455.8 75.6997 454.195 78.717 453.126 82.3836C451.064 89.4877 450.032 96.6299 450.032 103.81C450.032 110.991 450.491 115.498 451.407 117.331C452.4 119.164 455.15 120.081 459.657 120.081L459.886 121.456H431.928L432.158 120.081C436.741 120.081 439.529 119.164 440.522 117.331C441.515 115.421 442.012 110.418 442.012 102.321V93.1543C442.012 81.6961 441.439 74.7831 440.293 72.4151C439.911 71.5748 439.223 70.8109 438.23 70.1234C437.314 69.4359 436.283 69.0158 435.137 68.863C434.067 68.7103 432.578 68.6339 430.668 68.6339L430.439 67.3735C437.085 66.5332 443.616 66.1131 450.032 66.1131V86.6231C450.72 81.1232 452.477 76.349 455.303 72.3005C458.206 68.1755 462.216 66.1131 467.334 66.1131C478.105 66.1131 483.49 72.9498 483.49 86.6231Z" fill="black"/>
<path d="M568.09 66.1131C573.056 66.1131 577.219 67.6026 580.58 70.5817C586.538 75.8525 589.517 83.835 589.517 94.5292C589.517 102.703 586.92 109.425 581.726 114.696C576.608 119.966 569.656 122.602 560.872 122.602C557.282 122.602 553.959 122.334 550.903 121.8C547.848 121.265 545.671 120.768 544.372 120.31L542.539 119.508V57.5195C542.539 49.1933 542.08 44.1517 541.164 42.3948C540.858 41.8601 540.285 41.3635 539.445 40.9052C538.605 40.3705 537.726 40.0649 536.81 39.9886C535.893 39.9122 534.594 39.874 532.914 39.874L532.685 38.6136C538.185 37.6969 544.143 37.2386 550.559 37.2386V81.1232C553.768 71.1165 559.611 66.1131 568.09 66.1131ZM550.559 115.841C553.462 118.133 556.938 119.279 560.986 119.279C565.111 119.279 568.472 118.477 571.07 116.873C573.667 115.268 575.615 113.206 576.913 110.685C578.288 108.088 579.281 105.453 579.892 102.779C580.503 100.029 580.809 97.2792 580.809 94.5292C580.809 91.7793 580.58 89.1057 580.121 86.5085C579.739 83.9114 579.052 81.276 578.059 78.6024C577.142 75.9289 575.653 73.79 573.59 72.1859C571.528 70.5054 568.892 69.6651 565.684 69.6651C562.476 69.6651 559.611 71.3456 557.091 74.7067C554.57 78.0677 552.851 81.5816 551.934 85.2482C551.018 88.8384 550.559 92.0084 550.559 94.7584V115.841Z" fill="black"/>
<path d="M615.03 37.124V101.519C615.03 109.998 615.527 115.23 616.52 117.216C617.513 119.126 620.263 120.081 624.77 120.081L624.999 121.456H596.926L597.156 120.081C601.739 120.081 604.527 119.126 605.52 117.216C606.513 115.307 607.01 110.074 607.01 101.519V57.7486C607.01 49.2696 606.551 44.1517 605.635 42.3948C605.329 41.8601 604.756 41.3253 603.916 40.7906C603.076 40.2559 602.159 39.9504 601.166 39.874C600.249 39.7976 598.912 39.7594 597.156 39.7594L596.926 38.499C602.655 37.5823 608.69 37.124 615.03 37.124Z" fill="black"/>
<path d="M639.528 145.518C643.348 145.518 646.518 144.028 649.038 141.049C651.636 138.146 654.271 133.41 656.945 126.841L639.872 83.7586C637.351 77.342 635.06 73.2171 632.997 71.3838C631.011 69.5505 628.605 68.6339 625.778 68.6339L625.549 67.2589H653.965L653.736 68.6339C651.063 68.6339 649.191 69.054 648.122 69.8943C647.129 70.7345 646.632 72.0331 646.632 73.79C646.632 77.3039 648.427 83.5676 652.018 92.5814L660.84 114.81L669.778 87.3106C671.535 81.8107 672.413 77.6476 672.413 74.8213C672.413 70.6963 669.739 68.6339 664.392 68.6339L664.163 67.2589H685.704L685.475 68.6339C682.343 68.6339 680.128 69.6651 678.83 71.7276C677.607 73.7136 675.278 79.9392 671.84 90.4043L661.528 121.8C658.167 132.112 654.233 140.056 649.726 145.632C645.219 151.209 640.521 153.997 635.632 153.997C633.417 153.997 631.584 153.539 630.133 152.622C628.681 151.782 627.956 150.559 627.956 148.955C627.956 147.428 628.414 146.205 629.33 145.289C630.324 144.448 631.355 144.028 632.424 144.028C633.57 144.028 634.83 144.258 636.205 144.716C637.58 145.251 638.688 145.518 639.528 145.518Z" fill="black"/>
<path d="M689.6 116.643C689.6 114.887 690.173 113.435 691.319 112.289C692.541 111.067 693.993 110.456 695.673 110.456C697.354 110.456 698.767 111.067 699.913 112.289C701.058 113.435 701.631 114.887 701.631 116.643C701.631 118.324 701.02 119.737 699.798 120.883C698.652 122.029 697.239 122.602 695.558 122.602C693.954 122.602 692.541 122.029 691.319 120.883C690.173 119.737 689.6 118.324 689.6 116.643Z" fill="black"/>
<path d="M713.76 104.383C713.76 109.348 715.097 113.091 717.77 115.612C720.444 118.057 723.614 119.279 727.28 119.279C731.023 119.279 734.041 118.439 736.332 116.758C738.624 115.077 739.77 112.824 739.77 109.998C739.77 107.095 738.777 104.727 736.791 102.894C734.881 101.06 732.551 99.5708 729.801 98.425C727.051 97.2792 724.263 96.0952 721.437 94.873C718.687 93.6508 716.319 91.8557 714.333 89.4877C712.423 87.1196 711.468 83.9496 711.468 79.9774C711.468 76.0053 713.225 72.7206 716.739 70.1234C720.329 67.4499 724.454 66.1131 729.114 66.1131C735.759 66.1131 740.954 67.1825 744.697 69.3214C744.697 72.8352 744.238 77.724 743.322 83.9878L741.947 83.644C741.947 78.6024 740.801 74.9358 738.509 72.6442C736.218 70.3526 733.43 69.2068 730.145 69.2068C726.937 69.2068 724.34 70.047 722.353 71.7276C720.444 73.4081 719.489 75.6997 719.489 78.6024C719.489 81.4288 720.444 83.7204 722.353 85.4773C724.34 87.1578 726.708 88.571 729.458 89.7168C732.207 90.8626 734.957 92.0848 737.707 93.3834C740.534 94.6056 742.902 96.4007 744.811 98.7687C746.797 101.06 747.791 103.887 747.791 107.248C747.791 112.137 745.881 115.918 742.061 118.591C738.242 121.265 733.201 122.602 726.937 122.602C720.749 122.602 715.517 120.959 711.239 117.675C711.239 113.855 711.621 109.348 712.385 104.154L713.76 104.383Z" fill="black"/>
<path d="M775.076 37.124V86.6231C775.764 81.1232 777.673 76.349 780.805 72.3005C783.937 68.1755 788.1 66.1131 793.294 66.1131C804.982 66.1131 810.825 72.2241 810.825 84.4461V102.55C810.825 110.494 811.322 115.421 812.315 117.331C813.384 119.164 816.134 120.081 820.565 120.081L820.794 121.456H792.951L793.18 120.081C797.763 120.081 800.513 119.126 801.43 117.216C802.346 115.307 802.805 110.074 802.805 101.519V85.5919C802.805 80.3212 801.964 76.349 800.284 73.6754C798.68 71.0019 796.083 69.6651 792.492 69.6651C788.979 69.6651 786.038 70.8873 783.67 73.3317C781.302 75.6997 779.545 78.717 778.399 82.3836C776.184 89.4877 775.076 96.6299 775.076 103.81C775.076 110.991 775.534 115.498 776.451 117.331C777.444 119.164 780.194 120.081 784.701 120.081L784.93 121.456H756.972L757.201 120.081C761.785 120.081 764.573 119.164 765.566 117.331C766.559 115.421 767.055 110.418 767.055 102.321V64.1652C767.055 52.7071 766.521 45.8322 765.451 43.5406C764.993 42.6239 764.267 41.8219 763.274 41.1344C762.358 40.4469 761.326 40.0268 760.181 39.874C759.111 39.7212 757.622 39.6448 755.712 39.6448L755.483 38.3844C762.128 37.5442 768.66 37.124 775.076 37.124Z" fill="black"/>
<path d="M94.6965 0C97.1692 0 98.6784 2.71808 97.371 4.81695L25.6422 119.971C25.0669 120.895 24.0557 121.456 22.9676 121.456H3.94898C1.47622 121.456 -0.0329558 118.738 1.27442 116.639L73.0033 1.48502C73.5786 0.561415 74.5897 0 75.6779 0H94.6965Z" fill="#D82668"/>
<path d="M60.1331 121.456C61.2197 121.456 62.2296 120.896 62.8053 119.975L134.761 4.82074C136.072 2.72202 134.563 0 132.089 0H113.077C111.99 0 110.98 0.559784 110.405 1.48122L38.4489 116.635C37.1375 118.734 38.6463 121.456 41.1211 121.456H60.1331Z" fill="#D82668"/>
<path d="M115.209 73.5988C112.788 73.5988 111.271 70.982 112.475 68.8814L129.117 39.8341C129.679 38.8541 130.722 38.2496 131.851 38.2496H140.928C142.668 38.2496 144.079 39.6604 144.079 41.4006V70.4478C144.079 72.188 142.668 73.5988 140.928 73.5988H115.209Z" fill="#D82668"/>
<path d="M87.7886 121.456C85.3676 121.456 83.851 118.839 85.0546 116.739L96.9196 96.0302C97.4811 95.0502 98.5242 94.4457 99.6536 94.4457H140.928C142.668 94.4457 144.079 95.8565 144.079 97.5967V118.305C144.079 120.045 142.668 121.456 140.928 121.456H87.7886Z" fill="#D82668"/>
</svg>
