<svg width="6943" height="3453" viewBox="0 0 6943 3453" fill="none" xmlns="http://www.w3.org/2000/svg">
<line x1="3476.5" y1="682.5" x2="3476.5" y2="3257.5" stroke="white" stroke-opacity="0.7" stroke-width="11" stroke-linecap="round" stroke-dasharray="2 120"/>
<path d="M1574.14 1077C1574.14 1077 1487.55 1077 1441.8 1077C1372.32 1077 1316 1025.02 1316 960.893C1316 901.912 1363.65 853.202 1425.36 845.768C1424.21 838.658 1423.62 831.383 1423.62 823.98C1423.62 742.805 1494.92 677 1582.87 677C1641.79 677 1693.23 706.532 1720.78 750.433C1732.61 745.511 1745.75 742.772 1759.57 742.772C1811.78 742.772 1854.1 781.834 1854.1 830.02C1854.1 839.157 1852.58 847.965 1849.76 856.242C1891.91 874.996 1921 914.809 1921 960.893C1921 1025.02 1864.68 1077 1795.2 1077C1725.72 1077 1681.04 1077 1681.04 1077H1574.14Z" fill="url(#paint0_linear_423_44)"/>
<path d="M1508.82 981.791C1500.74 981.791 1493.62 980.031 1487.46 976.511C1481.38 972.911 1476.62 967.951 1473.18 961.631C1469.82 955.311 1468.14 948.031 1468.14 939.791C1468.14 933.711 1469.14 928.151 1471.14 923.111C1473.22 917.991 1476.06 913.551 1479.66 909.791C1483.34 906.031 1487.62 903.111 1492.5 901.031C1497.46 898.951 1502.86 897.911 1508.7 897.911C1511.98 897.911 1515.66 898.311 1519.74 899.111C1523.82 899.831 1527.86 901.351 1531.86 903.671L1532.34 921.071H1524.9L1522.5 907.151C1520.34 905.951 1518.22 905.111 1516.14 904.631C1514.14 904.151 1512.18 903.911 1510.26 903.911C1504.9 903.911 1500.02 905.271 1495.62 907.991C1491.22 910.711 1487.7 914.751 1485.06 920.111C1482.5 925.391 1481.22 931.951 1481.22 939.791C1481.22 947.631 1482.42 954.231 1484.82 959.591C1487.22 964.951 1490.54 968.991 1494.78 971.711C1499.1 974.431 1503.98 975.791 1509.42 975.791C1511.74 975.791 1514.1 975.551 1516.5 975.071C1518.98 974.511 1521.38 973.671 1523.7 972.551L1526.1 958.631H1533.54L1533.06 976.031C1529.38 978.031 1525.46 979.471 1521.3 980.351C1517.22 981.311 1513.06 981.791 1508.82 981.791ZM1541.2 979.991V975.671L1550.8 973.991C1550.88 970.711 1550.92 967.511 1550.92 964.391C1551 961.191 1551.04 957.991 1551.04 954.791V902.111L1541.2 900.911V896.711L1559.92 891.311L1561.6 892.271L1561.12 909.311V954.791C1561.12 957.991 1561.12 961.191 1561.12 964.391C1561.2 967.591 1561.28 970.791 1561.36 973.991L1570.96 975.671V979.991H1541.2ZM1606.82 981.551C1602.18 981.551 1597.74 980.471 1593.5 978.311C1589.34 976.071 1585.94 972.751 1583.3 968.351C1580.66 963.871 1579.34 958.351 1579.34 951.791C1579.34 945.151 1580.66 939.591 1583.3 935.111C1585.94 930.551 1589.34 927.151 1593.5 924.911C1597.74 922.591 1602.18 921.431 1606.82 921.431C1611.46 921.431 1615.86 922.591 1620.02 924.911C1624.26 927.151 1627.7 930.551 1630.34 935.111C1633.06 939.591 1634.42 945.151 1634.42 951.791C1634.42 958.351 1633.06 963.871 1630.34 968.351C1627.7 972.751 1624.26 976.071 1620.02 978.311C1615.86 980.471 1611.46 981.551 1606.82 981.551ZM1606.82 976.151C1612.02 976.151 1616.02 974.111 1618.82 970.031C1621.62 965.871 1623.02 959.791 1623.02 951.791C1623.02 943.711 1621.62 937.551 1618.82 933.311C1616.02 929.071 1612.02 926.951 1606.82 926.951C1601.62 926.951 1597.62 929.071 1594.82 933.311C1592.1 937.551 1590.74 943.711 1590.74 951.791C1590.74 959.791 1592.1 965.871 1594.82 970.031C1597.62 974.111 1601.62 976.151 1606.82 976.151ZM1665.39 981.551C1660.51 981.551 1656.67 979.951 1653.87 976.751C1651.07 973.471 1649.71 967.871 1649.79 959.951L1650.15 930.071L1641.63 928.271V923.951L1659.27 922.271L1660.47 923.471L1659.87 940.271V958.871C1659.87 964.071 1660.67 967.751 1662.27 969.911C1663.87 971.991 1666.27 973.031 1669.47 973.031C1675.07 973.031 1680.67 970.431 1686.27 965.231L1686.63 929.951L1678.11 928.271V923.951L1695.51 922.271L1696.71 923.471L1696.35 940.271V973.991L1704.51 975.671V979.991L1687.83 980.951L1686.63 970.271C1683.43 974.191 1679.99 977.071 1676.31 978.911C1672.71 980.671 1669.07 981.551 1665.39 981.551ZM1723.62 951.791C1723.62 959.631 1725.18 965.431 1728.3 969.191C1731.5 972.871 1735.5 974.711 1740.3 974.711C1742.94 974.711 1745.26 974.191 1747.26 973.151C1749.34 972.031 1751.5 970.231 1753.74 967.751V934.511C1751.02 932.111 1748.58 930.471 1746.42 929.591C1744.26 928.711 1742.18 928.271 1740.18 928.271C1737.22 928.271 1734.46 929.111 1731.9 930.791C1729.42 932.391 1727.42 934.951 1725.9 938.471C1724.38 941.911 1723.62 946.351 1723.62 951.791ZM1754.94 981.191L1754.1 972.911C1752.02 975.631 1749.62 977.751 1746.9 979.271C1744.26 980.791 1741.06 981.551 1737.3 981.551C1732.42 981.551 1728.14 980.311 1724.46 977.831C1720.78 975.351 1717.9 971.911 1715.82 967.511C1713.82 963.031 1712.82 957.871 1712.82 952.031C1712.82 945.871 1713.94 940.511 1716.18 935.951C1718.42 931.391 1721.46 927.831 1725.3 925.271C1729.14 922.711 1733.5 921.431 1738.38 921.431C1741.18 921.431 1743.86 921.991 1746.42 923.111C1749.06 924.231 1751.62 926.271 1754.1 929.231V902.111L1743.9 900.911V896.711L1762.62 891.311L1764.3 892.271L1763.82 909.311V974.231L1773.54 975.671V979.991L1754.94 981.191Z" fill="#372C3B"/>
<path d="M1440.8 3200.36C1440.8 3206.2 1440.8 3211.84 1440.8 3217.28C1440.88 3222.72 1440.96 3228.08 1441.04 3233.36H1450.52C1459.8 3233.36 1466.92 3230.36 1471.88 3224.36C1476.84 3218.28 1479.32 3209.8 1479.32 3198.92C1479.32 3187.64 1476.88 3179.04 1472 3173.12C1467.12 3167.2 1460.32 3164.24 1451.6 3164.24H1441.04C1440.96 3169.36 1440.88 3174.6 1440.8 3179.96C1440.8 3185.24 1440.8 3190.56 1440.8 3195.92V3200.36ZM1418.12 3163.64V3158.72H1453.52C1461.2 3158.72 1467.96 3160.28 1473.8 3163.4C1479.64 3166.44 1484.2 3170.96 1487.48 3176.96C1490.76 3182.88 1492.4 3190.2 1492.4 3198.92C1492.4 3207.56 1490.6 3214.88 1487 3220.88C1483.4 3226.8 1478.48 3231.32 1472.24 3234.44C1466.08 3237.48 1459.08 3239 1451.24 3239H1418.12V3234.08L1429.16 3232.76C1429.32 3227.64 1429.4 3222.44 1429.4 3217.16C1429.4 3211.8 1429.4 3206.2 1429.4 3200.36V3195.92C1429.4 3190.72 1429.4 3185.56 1429.4 3180.44C1429.4 3175.24 1429.32 3170.08 1429.16 3164.96L1418.12 3163.64ZM1530.32 3185.96C1528.08 3185.96 1525.8 3186.6 1523.48 3187.88C1521.24 3189.16 1519.28 3191.2 1517.6 3194C1516 3196.8 1514.96 3200.52 1514.48 3205.16H1536.32C1539.2 3205.16 1541.08 3204.56 1541.96 3203.36C1542.92 3202.16 1543.4 3200.68 1543.4 3198.92C1543.4 3196.6 1542.8 3194.48 1541.6 3192.56C1540.48 3190.56 1538.92 3188.96 1536.92 3187.76C1535 3186.56 1532.8 3185.96 1530.32 3185.96ZM1530.2 3240.56C1522.12 3240.56 1515.64 3237.96 1510.76 3232.76C1505.88 3227.48 1503.44 3220.24 1503.44 3211.04C1503.44 3204.88 1504.68 3199.52 1507.16 3194.96C1509.72 3190.4 1513.08 3186.84 1517.24 3184.28C1521.48 3181.72 1526.08 3180.44 1531.04 3180.44C1535.2 3180.44 1538.96 3181.36 1542.32 3183.2C1545.68 3185.04 1548.36 3187.68 1550.36 3191.12C1552.36 3194.48 1553.36 3198.6 1553.36 3203.48C1553.36 3204.84 1553.28 3206.12 1553.12 3207.32C1552.96 3208.44 1552.76 3209.4 1552.52 3210.2H1514.24C1514.4 3217.56 1516.24 3223.16 1519.76 3227C1523.28 3230.84 1527.92 3232.76 1533.68 3232.76C1537.52 3232.76 1540.72 3232 1543.28 3230.48C1545.84 3228.88 1548.2 3226.84 1550.36 3224.36L1553.24 3226.64C1551 3230.88 1547.96 3234.28 1544.12 3236.84C1540.28 3239.32 1535.64 3240.56 1530.2 3240.56ZM1594.76 3186.68V3182H1617.56V3186.68L1610.96 3188.24L1591.52 3239.72H1586.36L1564.52 3187.88L1558.04 3186.68V3182H1587.08V3186.68L1576.52 3188.24L1591.16 3226.64L1604.48 3188.36L1594.76 3186.68ZM1622.82 3239V3234.68L1631.82 3233C1631.9 3229.96 1631.94 3226.68 1631.94 3223.16C1632.02 3219.56 1632.06 3216.44 1632.06 3213.8V3208.16C1632.06 3204.88 1632.02 3202.16 1631.94 3200C1631.94 3197.76 1631.86 3195.44 1631.7 3193.04L1622.1 3191.96V3187.76L1640.58 3180.44L1642.38 3181.64L1642.02 3197.96V3213.8C1642.02 3216.44 1642.02 3219.56 1642.02 3223.16C1642.1 3226.68 1642.18 3229.96 1642.26 3233L1650.66 3234.68V3239H1622.82ZM1636.98 3167.24C1634.74 3167.24 1632.82 3166.52 1631.22 3165.08C1629.7 3163.64 1628.94 3161.8 1628.94 3159.56C1628.94 3157.24 1629.7 3155.4 1631.22 3154.04C1632.82 3152.6 1634.74 3151.88 1636.98 3151.88C1639.22 3151.88 1641.1 3152.6 1642.62 3154.04C1644.22 3155.4 1645.02 3157.24 1645.02 3159.56C1645.02 3161.8 1644.22 3163.64 1642.62 3165.08C1641.1 3166.52 1639.22 3167.24 1636.98 3167.24ZM1686.4 3240.56C1678.16 3240.56 1671.6 3237.88 1666.72 3232.52C1661.84 3227.16 1659.4 3219.88 1659.4 3210.68C1659.4 3204.36 1660.68 3198.96 1663.24 3194.48C1665.88 3189.92 1669.32 3186.44 1673.56 3184.04C1677.8 3181.64 1682.32 3180.44 1687.12 3180.44C1690.72 3180.44 1694.04 3181.12 1697.08 3182.48C1700.12 3183.84 1702.64 3185.72 1704.64 3188.12C1706.64 3190.44 1707.88 3193.08 1708.36 3196.04C1707.8 3199.08 1705.96 3200.6 1702.84 3200.6C1700.84 3200.6 1699.32 3200.08 1698.28 3199.04C1697.32 3197.92 1696.64 3196.52 1696.24 3194.84L1694.08 3186.92C1692.96 3186.52 1691.84 3186.28 1690.72 3186.2C1689.68 3186.04 1688.64 3185.96 1687.6 3185.96C1682.48 3185.96 1678.24 3187.96 1674.88 3191.96C1671.6 3195.96 1669.96 3201.8 1669.96 3209.48C1669.96 3217 1671.76 3222.76 1675.36 3226.76C1678.96 3230.76 1683.56 3232.76 1689.16 3232.76C1692.6 3232.76 1695.76 3232 1698.64 3230.48C1701.52 3228.88 1703.88 3226.6 1705.72 3223.64L1708.72 3225.2C1707.04 3230.16 1704.32 3233.96 1700.56 3236.6C1696.8 3239.24 1692.08 3240.56 1686.4 3240.56ZM1745.24 3185.96C1743 3185.96 1740.72 3186.6 1738.4 3187.88C1736.16 3189.16 1734.2 3191.2 1732.52 3194C1730.92 3196.8 1729.88 3200.52 1729.4 3205.16H1751.24C1754.12 3205.16 1756 3204.56 1756.88 3203.36C1757.84 3202.16 1758.32 3200.68 1758.32 3198.92C1758.32 3196.6 1757.72 3194.48 1756.52 3192.56C1755.4 3190.56 1753.84 3188.96 1751.84 3187.76C1749.92 3186.56 1747.72 3185.96 1745.24 3185.96ZM1745.12 3240.56C1737.04 3240.56 1730.56 3237.96 1725.68 3232.76C1720.8 3227.48 1718.36 3220.24 1718.36 3211.04C1718.36 3204.88 1719.6 3199.52 1722.08 3194.96C1724.64 3190.4 1728 3186.84 1732.16 3184.28C1736.4 3181.72 1741 3180.44 1745.96 3180.44C1750.12 3180.44 1753.88 3181.36 1757.24 3183.2C1760.6 3185.04 1763.28 3187.68 1765.28 3191.12C1767.28 3194.48 1768.28 3198.6 1768.28 3203.48C1768.28 3204.84 1768.2 3206.12 1768.04 3207.32C1767.88 3208.44 1767.68 3209.4 1767.44 3210.2H1729.16C1729.32 3217.56 1731.16 3223.16 1734.68 3227C1738.2 3230.84 1742.84 3232.76 1748.6 3232.76C1752.44 3232.76 1755.64 3232 1758.2 3230.48C1760.76 3228.88 1763.12 3226.84 1765.28 3224.36L1768.16 3226.64C1765.92 3230.88 1762.88 3234.28 1759.04 3236.84C1755.2 3239.32 1750.56 3240.56 1745.12 3240.56ZM1798.13 3240.56C1794.77 3240.56 1791.69 3240.16 1788.89 3239.36C1786.09 3238.64 1783.21 3237.52 1780.25 3236L1779.77 3222.8H1786.37L1788.65 3233.24C1791.45 3234.52 1794.69 3235.16 1798.37 3235.16C1802.93 3235.16 1806.29 3234.32 1808.45 3232.64C1810.69 3230.96 1811.81 3228.76 1811.81 3226.04C1811.81 3223.48 1810.89 3221.44 1809.05 3219.92C1807.21 3218.32 1804.41 3216.88 1800.65 3215.6L1795.13 3213.56C1790.73 3211.96 1787.21 3209.88 1784.57 3207.32C1781.93 3204.76 1780.61 3201.44 1780.61 3197.36C1780.61 3194.4 1781.41 3191.64 1783.01 3189.08C1784.61 3186.52 1786.97 3184.44 1790.09 3182.84C1793.21 3181.24 1797.01 3180.44 1801.49 3180.44C1804.77 3180.44 1807.73 3180.88 1810.37 3181.76C1813.09 3182.56 1815.73 3183.76 1818.29 3185.36L1817.81 3197.6H1811.57L1809.65 3188C1806.93 3186.64 1804.17 3185.96 1801.37 3185.96C1797.69 3185.96 1794.89 3186.72 1792.97 3188.24C1791.13 3189.68 1790.21 3191.64 1790.21 3194.12C1790.21 3196.76 1791.01 3198.76 1792.61 3200.12C1794.29 3201.48 1797.17 3202.92 1801.25 3204.44L1804.97 3205.76C1810.97 3208 1815.21 3210.56 1817.69 3213.44C1820.25 3216.32 1821.53 3219.64 1821.53 3223.4C1821.53 3226.44 1820.65 3229.28 1818.89 3231.92C1817.13 3234.48 1814.53 3236.56 1811.09 3238.16C1807.65 3239.76 1803.33 3240.56 1798.13 3240.56Z" fill="white"/>
<circle cx="1618.5" cy="1385.5" r="12.5" fill="#608FE3"/>
<circle cx="1618.5" cy="1554.5" r="12.5" fill="#608FE3"/>
<circle cx="1618.5" cy="1723.5" r="12.5" fill="#608FE3"/>
<circle cx="1618.5" cy="1892.5" r="12.5" fill="#608FE3"/>
<circle cx="1618.5" cy="2061.5" r="12.5" fill="#608FE3"/>
<circle cx="1618.5" cy="2230.5" r="12.5" fill="#608FE3"/>
<circle cx="1618.5" cy="2399.5" r="12.5" fill="#608FE3"/>
<circle cx="1618.5" cy="1472.5" r="12.5" fill="#608FE3"/>
<circle cx="1618.5" cy="1641.5" r="12.5" fill="#608FE3"/>
<circle cx="1618.5" cy="1810.5" r="12.5" fill="#608FE3"/>
<circle cx="1618.5" cy="1979.5" r="12.5" fill="#608FE3"/>
<circle cx="1618.5" cy="2148.5" r="12.5" fill="#608FE3"/>
<circle cx="1618.5" cy="2317.5" r="12.5" fill="#608FE3"/>
<circle cx="1618.5" cy="2486.5" r="12.5" fill="#608FE3"/>
<circle cx="1618.5" cy="2568.5" r="12.5" fill="#608FE3"/>
<circle cx="1619" cy="1279" r="29.5" stroke="#608FE3" stroke-width="11"/>
<circle cx="1619" cy="2676" r="29.5" stroke="#608FE3" stroke-width="11"/>
<path d="M1534 2848.5H1599C1604.25 2848.5 1608.5 2852.75 1608.5 2858V2999C1608.5 3004.25 1604.25 3008.5 1599 3008.5H1534C1528.75 3008.5 1524.5 3004.25 1524.5 2999V2858C1524.5 2852.75 1528.75 2848.5 1534 2848.5Z" fill="white" stroke="#608FE3" stroke-width="5"/>
<path d="M1522 3000C1522 3006.08 1526.92 3011 1533 3011H1600C1606.08 3011 1611 3006.08 1611 3000V3000H1522V3000Z" fill="#608FE3"/>
<path d="M1611 2857C1611 2850.92 1606.08 2846 1600 2846L1533 2846C1526.92 2846 1522 2850.92 1522 2857V2857L1611 2857V2857Z" fill="#608FE3"/>
<path d="M1679 2849.5H1775C1780.25 2849.5 1784.5 2853.75 1784.5 2859V3000C1784.5 3005.25 1780.25 3009.5 1775 3009.5H1679C1673.75 3009.5 1669.5 3005.25 1669.5 3000V2859C1669.5 2853.75 1673.75 2849.5 1679 2849.5Z" fill="white" stroke="#608FE3" stroke-width="5"/>
<path d="M1667 3000C1667 3006.63 1672.37 3012 1679 3012H1775C1781.63 3012 1787 3006.63 1787 3000V2998H1667V3000Z" fill="#608FE3"/>
<path d="M1787 2859C1787 2852.37 1781.63 2847 1775 2847L1679 2847C1672.37 2847 1667 2852.37 1667 2859L1667 2861L1787 2861L1787 2859Z" fill="#608FE3"/>
<path d="M1260 2854H1444C1448.42 2854 1452 2857.58 1452 2862V2986H1252V2862C1252 2857.58 1255.58 2854 1260 2854Z" fill="white" stroke="#608FE3" stroke-width="12"/>
<path d="M1224 2999C1224 3006.73 1230.27 3013 1238 3013H1465C1472.73 3013 1479 3006.73 1479 2999V2996H1224V2999Z" fill="#608FE3"/>
<path d="M1877.08 2853H1961.92C1969.79 2853 1976.49 2858.72 1977.73 2866.49L1984.32 2908H1854.68L1861.27 2866.49C1862.51 2858.72 1869.21 2853 1877.08 2853Z" fill="white" stroke="#608FE3" stroke-width="8"/>
<path d="M1971 2979V2994C1971 3001.73 1977.27 3008 1985 3008C1992.73 3008 1999 3001.73 1999 2994V2977.25C1996.22 2978.38 1993.18 2979 1990 2979H1971Z" fill="#654FF0"/>
<rect x="1826" y="2909" width="188" height="70" rx="24" fill="#608FE3"/>
<path d="M1839.02 2976.34C1839.01 2976.56 1839 2976.78 1839 2977V2994C1839 3001.73 1845.27 3008 1853 3008C1860.73 3008 1867 3001.73 1867 2994V2979H1850C1846.04 2979 1842.31 2978.04 1839.02 2976.34Z" fill="#654FF0"/>
<rect x="1886" y="2957" width="66" height="22" fill="#654FF0"/>
<circle cx="1853" cy="2943" r="11" fill="#654FF0"/>
<circle cx="1985" cy="2943" r="11" fill="#654FF0"/>
<path d="M985.943 323.7C973.823 323.7 963.143 321.06 953.903 315.78C944.783 310.38 937.643 302.94 932.483 293.46C927.443 283.98 924.923 273.06 924.923 260.7C924.923 251.58 926.423 243.24 929.423 235.68C932.543 228 936.803 221.34 942.203 215.7C947.723 210.06 954.143 205.68 961.463 202.56C968.903 199.44 977.003 197.88 985.763 197.88C990.683 197.88 996.203 198.48 1002.32 199.68C1008.44 200.76 1014.5 203.04 1020.5 206.52L1021.22 232.62H1010.06L1006.46 211.74C1003.22 209.94 1000.04 208.68 996.923 207.96C993.923 207.24 990.983 206.88 988.103 206.88C980.063 206.88 972.743 208.92 966.143 213C959.543 217.08 954.263 223.14 950.303 231.18C946.463 239.1 944.543 248.94 944.543 260.7C944.543 272.46 946.343 282.36 949.943 290.4C953.543 298.44 958.523 304.5 964.883 308.58C971.363 312.66 978.683 314.7 986.843 314.7C990.323 314.7 993.863 314.34 997.463 313.62C1001.18 312.78 1004.78 311.52 1008.26 309.84L1011.86 288.96H1023.02L1022.3 315.06C1016.78 318.06 1010.9 320.22 1004.66 321.54C998.543 322.98 992.303 323.7 985.943 323.7ZM1034.52 321V314.52L1048.92 312C1049.04 307.08 1049.1 302.28 1049.1 297.6C1049.22 292.8 1049.28 288 1049.28 283.2V204.18L1034.52 202.38V196.08L1062.6 187.98L1065.12 189.42L1064.4 214.98V283.2C1064.4 288 1064.4 292.8 1064.4 297.6C1064.52 302.4 1064.64 307.2 1064.76 312L1079.16 314.52V321H1034.52ZM1132.95 323.34C1125.99 323.34 1119.33 321.72 1112.97 318.48C1106.73 315.12 1101.63 310.14 1097.67 303.54C1093.71 296.82 1091.73 288.54 1091.73 278.7C1091.73 268.74 1093.71 260.4 1097.67 253.68C1101.63 246.84 1106.73 241.74 1112.97 238.38C1119.33 234.9 1125.99 233.16 1132.95 233.16C1139.91 233.16 1146.51 234.9 1152.75 238.38C1159.11 241.74 1164.27 246.84 1168.23 253.68C1172.31 260.4 1174.35 268.74 1174.35 278.7C1174.35 288.54 1172.31 296.82 1168.23 303.54C1164.27 310.14 1159.11 315.12 1152.75 318.48C1146.51 321.72 1139.91 323.34 1132.95 323.34ZM1132.95 315.24C1140.75 315.24 1146.75 312.18 1150.95 306.06C1155.15 299.82 1157.25 290.7 1157.25 278.7C1157.25 266.58 1155.15 257.34 1150.95 250.98C1146.75 244.62 1140.75 241.44 1132.95 241.44C1125.15 241.44 1119.15 244.62 1114.95 250.98C1110.87 257.34 1108.83 266.58 1108.83 278.7C1108.83 290.7 1110.87 299.82 1114.95 306.06C1119.15 312.18 1125.15 315.24 1132.95 315.24ZM1220.8 323.34C1213.48 323.34 1207.72 320.94 1203.52 316.14C1199.32 311.22 1197.28 302.82 1197.4 290.94L1197.94 246.12L1185.16 243.42V236.94L1211.62 234.42L1213.42 236.22L1212.52 261.42V289.32C1212.52 297.12 1213.72 302.64 1216.12 305.88C1218.52 309 1222.12 310.56 1226.92 310.56C1235.32 310.56 1243.72 306.66 1252.12 298.86L1252.66 245.94L1239.88 243.42V236.94L1265.98 234.42L1267.78 236.22L1267.24 261.42V312L1279.48 314.52V321L1254.46 322.44L1252.66 306.42C1247.86 312.3 1242.7 316.62 1237.18 319.38C1231.78 322.02 1226.32 323.34 1220.8 323.34ZM1308.15 278.7C1308.15 290.46 1310.49 299.16 1315.17 304.8C1319.97 310.32 1325.97 313.08 1333.17 313.08C1337.13 313.08 1340.61 312.3 1343.61 310.74C1346.73 309.06 1349.97 306.36 1353.33 302.64V252.78C1349.25 249.18 1345.59 246.72 1342.35 245.4C1339.11 244.08 1335.99 243.42 1332.99 243.42C1328.55 243.42 1324.41 244.68 1320.57 247.2C1316.85 249.6 1313.85 253.44 1311.57 258.72C1309.29 263.88 1308.15 270.54 1308.15 278.7ZM1355.13 322.8L1353.87 310.38C1350.75 314.46 1347.15 317.64 1343.07 319.92C1339.11 322.2 1334.31 323.34 1328.67 323.34C1321.35 323.34 1314.93 321.48 1309.41 317.76C1303.89 314.04 1299.57 308.88 1296.45 302.28C1293.45 295.56 1291.95 287.82 1291.95 279.06C1291.95 269.82 1293.63 261.78 1296.99 254.94C1300.35 248.1 1304.91 242.76 1310.67 238.92C1316.43 235.08 1322.97 233.16 1330.29 233.16C1334.49 233.16 1338.51 234 1342.35 235.68C1346.31 237.36 1350.15 240.42 1353.87 244.86V204.18L1338.57 202.38V196.08L1366.65 187.98L1369.17 189.42L1368.45 214.98V312.36L1383.03 314.52V321L1355.13 322.8ZM1497.47 323.7C1485.35 323.7 1474.67 321.06 1465.43 315.78C1456.31 310.38 1449.17 302.94 1444.01 293.46C1438.97 283.98 1436.45 273.06 1436.45 260.7C1436.45 251.58 1437.95 243.24 1440.95 235.68C1444.07 228 1448.33 221.34 1453.73 215.7C1459.25 210.06 1465.67 205.68 1472.99 202.56C1480.43 199.44 1488.53 197.88 1497.29 197.88C1502.21 197.88 1507.73 198.48 1513.85 199.68C1519.97 200.76 1526.03 203.04 1532.03 206.52L1532.75 232.62H1521.59L1517.99 211.74C1514.75 209.94 1511.57 208.68 1508.45 207.96C1505.45 207.24 1502.51 206.88 1499.63 206.88C1491.59 206.88 1484.27 208.92 1477.67 213C1471.07 217.08 1465.79 223.14 1461.83 231.18C1457.99 239.1 1456.07 248.94 1456.07 260.7C1456.07 272.46 1457.87 282.36 1461.47 290.4C1465.07 298.44 1470.05 304.5 1476.41 308.58C1482.89 312.66 1490.21 314.7 1498.37 314.7C1501.85 314.7 1505.39 314.34 1508.99 313.62C1512.71 312.78 1516.31 311.52 1519.79 309.84L1523.39 288.96H1534.55L1533.83 315.06C1528.31 318.06 1522.43 320.22 1516.19 321.54C1510.07 322.98 1503.83 323.7 1497.47 323.7ZM1590.86 323.34C1583.9 323.34 1577.24 321.72 1570.88 318.48C1564.64 315.12 1559.54 310.14 1555.58 303.54C1551.62 296.82 1549.64 288.54 1549.64 278.7C1549.64 268.74 1551.62 260.4 1555.58 253.68C1559.54 246.84 1564.64 241.74 1570.88 238.38C1577.24 234.9 1583.9 233.16 1590.86 233.16C1597.82 233.16 1604.42 234.9 1610.66 238.38C1617.02 241.74 1622.18 246.84 1626.14 253.68C1630.22 260.4 1632.26 268.74 1632.26 278.7C1632.26 288.54 1630.22 296.82 1626.14 303.54C1622.18 310.14 1617.02 315.12 1610.66 318.48C1604.42 321.72 1597.82 323.34 1590.86 323.34ZM1590.86 315.24C1598.66 315.24 1604.66 312.18 1608.86 306.06C1613.06 299.82 1615.16 290.7 1615.16 278.7C1615.16 266.58 1613.06 257.34 1608.86 250.98C1604.66 244.62 1598.66 241.44 1590.86 241.44C1583.06 241.44 1577.06 244.62 1572.86 250.98C1568.78 257.34 1566.74 266.58 1566.74 278.7C1566.74 290.7 1568.78 299.82 1572.86 306.06C1577.06 312.18 1583.06 315.24 1590.86 315.24ZM1647.53 321V314.52L1660.85 312C1660.97 307.44 1661.03 302.52 1661.03 297.24C1661.15 291.96 1661.21 287.28 1661.21 283.2V274.56C1661.21 269.64 1661.15 265.56 1661.03 262.32C1661.03 259.08 1660.91 255.66 1660.67 252.06L1646.45 250.44V244.14L1671.65 233.16L1674.35 234.96L1675.79 249.54C1679.99 244.74 1684.91 240.84 1690.55 237.84C1696.19 234.72 1701.77 233.16 1707.29 233.16C1712.93 233.16 1717.49 234.48 1720.97 237.12C1724.57 239.76 1727.15 244.08 1728.71 250.08C1733.27 244.44 1738.37 240.24 1744.01 237.48C1749.65 234.6 1755.41 233.16 1761.29 233.16C1768.61 233.16 1774.25 235.62 1778.21 240.54C1782.29 245.46 1784.33 253.5 1784.33 264.66V283.2C1784.33 287.28 1784.33 291.96 1784.33 297.24C1784.45 302.52 1784.57 307.44 1784.69 312L1797.29 314.52V321H1755.53V314.52L1768.85 312C1768.97 307.56 1769.03 302.7 1769.03 297.42C1769.15 292.02 1769.21 287.28 1769.21 283.2V267.54C1769.21 259.14 1768.01 253.5 1765.61 250.62C1763.21 247.62 1759.37 246.12 1754.09 246.12C1750.37 246.12 1746.53 246.96 1742.57 248.64C1738.73 250.32 1734.53 253.26 1729.97 257.46C1730.09 258.78 1730.15 260.22 1730.15 261.78C1730.27 263.22 1730.33 264.78 1730.33 266.46V283.2C1730.33 287.28 1730.33 291.96 1730.33 297.24C1730.45 302.52 1730.57 307.44 1730.69 312L1743.29 314.52V321H1701.53V314.52L1714.85 312C1714.97 307.56 1715.03 302.7 1715.03 297.42C1715.15 292.02 1715.21 287.28 1715.21 283.2V267.9C1715.21 259.74 1714.07 254.1 1711.79 250.98C1709.51 247.74 1705.73 246.12 1700.45 246.12C1696.37 246.12 1692.47 246.96 1688.75 248.64C1685.03 250.32 1680.95 253.08 1676.51 256.92V283.2C1676.51 287.16 1676.51 291.84 1676.51 297.24C1676.63 302.52 1676.75 307.44 1676.87 312L1689.29 314.52V321H1647.53ZM1806.24 364.02V357.72L1820.64 355.2C1820.76 350.28 1820.82 345.36 1820.82 340.44C1820.94 335.64 1821 330.84 1821 326.04V274.56C1821 269.64 1820.94 265.56 1820.82 262.32C1820.82 259.08 1820.7 255.66 1820.46 252.06L1806.24 250.44V244.14L1831.44 233.16L1834.14 234.96L1835.22 246.66C1843.74 237.66 1852.8 233.16 1862.4 233.16C1868.88 233.16 1874.7 234.96 1879.86 238.56C1885.02 242.16 1889.1 247.32 1892.1 254.04C1895.22 260.64 1896.78 268.62 1896.78 277.98C1896.78 287.22 1895.16 295.26 1891.92 302.1C1888.68 308.82 1884.24 314.04 1878.6 317.76C1873.08 321.48 1866.78 323.34 1859.7 323.34C1855.62 323.34 1851.54 322.5 1847.46 320.82C1843.5 319.14 1839.6 316.08 1835.76 311.64V325.86C1835.76 330.66 1835.76 335.46 1835.76 340.26C1835.88 345.18 1836 350.1 1836.12 355.02L1852.5 357.72V364.02H1806.24ZM1858.08 243.42C1855.32 243.42 1852.14 244.14 1848.54 245.58C1844.94 246.9 1840.86 249.48 1836.3 253.32V303.9C1839.66 307.14 1842.96 309.48 1846.2 310.92C1849.44 312.36 1852.74 313.08 1856.1 313.08C1862.82 313.08 1868.58 310.38 1873.38 304.98C1878.18 299.58 1880.58 291.06 1880.58 279.42C1880.58 267.9 1878.48 259.02 1874.28 252.78C1870.08 246.54 1864.68 243.42 1858.08 243.42ZM1943.26 323.34C1935.94 323.34 1930.18 320.94 1925.98 316.14C1921.78 311.22 1919.74 302.82 1919.86 290.94L1920.4 246.12L1907.62 243.42V236.94L1934.08 234.42L1935.88 236.22L1934.98 261.42V289.32C1934.98 297.12 1936.18 302.64 1938.58 305.88C1940.98 309 1944.58 310.56 1949.38 310.56C1957.78 310.56 1966.18 306.66 1974.58 298.86L1975.12 245.94L1962.34 243.42V236.94L1988.44 234.42L1990.24 236.22L1989.7 261.42V312L2001.94 314.52V321L1976.92 322.44L1975.12 306.42C1970.32 312.3 1965.16 316.62 1959.64 319.38C1954.24 322.02 1948.78 323.34 1943.26 323.34ZM2044.96 323.34C2038.72 323.34 2033.74 321.66 2030.02 318.3C2026.3 314.94 2024.44 309.78 2024.44 302.82C2024.44 300.54 2024.44 298.32 2024.44 296.16C2024.56 293.88 2024.62 291 2024.62 287.52V245.04H2009.68V237.12L2025.7 235.14L2030.38 211.02H2041.18L2040.1 235.5H2064.4V245.04H2039.92V300.84C2039.92 305.4 2040.82 308.76 2042.62 310.92C2044.42 312.96 2046.82 313.98 2049.82 313.98C2051.86 313.98 2053.78 313.56 2055.58 312.72C2057.5 311.88 2059.6 310.68 2061.88 309.12L2066.2 313.8C2061.28 320.16 2054.2 323.34 2044.96 323.34ZM2072.9 321V314.52L2086.4 312C2086.52 307.44 2086.58 302.52 2086.58 297.24C2086.7 291.84 2086.76 287.16 2086.76 283.2V274.74C2086.76 269.82 2086.7 265.74 2086.58 262.5C2086.58 259.14 2086.46 255.66 2086.22 252.06L2071.82 250.44V244.14L2099.54 233.16L2102.24 234.96L2101.7 259.44V283.2C2101.7 287.16 2101.7 291.84 2101.7 297.24C2101.82 302.52 2101.94 307.44 2102.06 312L2114.66 314.52V321H2072.9ZM2094.14 213.36C2090.78 213.36 2087.9 212.28 2085.5 210.12C2083.22 207.96 2082.08 205.2 2082.08 201.84C2082.08 198.36 2083.22 195.6 2085.5 193.56C2087.9 191.4 2090.78 190.32 2094.14 190.32C2097.5 190.32 2100.32 191.4 2102.6 193.56C2105 195.6 2106.2 198.36 2106.2 201.84C2106.2 205.2 2105 207.96 2102.6 210.12C2100.32 212.28 2097.5 213.36 2094.14 213.36ZM2127.41 321V314.52L2140.73 312C2140.85 307.44 2140.91 302.52 2140.91 297.24C2141.03 291.96 2141.09 287.28 2141.09 283.2V274.56C2141.09 269.64 2141.03 265.56 2140.91 262.32C2140.91 259.08 2140.79 255.66 2140.55 252.06L2126.33 250.44V244.14L2151.53 233.16L2154.23 234.96L2155.67 249.36C2160.11 244.56 2165.21 240.66 2170.97 237.66C2176.73 234.66 2182.37 233.16 2187.89 233.16C2195.69 233.16 2201.45 235.8 2205.17 241.08C2209.01 246.24 2210.93 254.7 2210.93 266.46V283.2C2210.93 287.28 2210.93 291.96 2210.93 297.24C2211.05 302.52 2211.17 307.44 2211.29 312L2223.89 314.52V321H2182.13V314.52L2195.45 312C2195.57 307.56 2195.63 302.7 2195.63 297.42C2195.75 292.02 2195.81 287.28 2195.81 283.2V267.9C2195.81 259.62 2194.61 253.92 2192.21 250.8C2189.93 247.68 2186.15 246.12 2180.87 246.12C2176.79 246.12 2172.83 246.96 2168.99 248.64C2165.15 250.32 2160.95 253.08 2156.39 256.92V283.2C2156.39 287.16 2156.39 291.84 2156.39 297.24C2156.51 302.52 2156.63 307.44 2156.75 312L2169.17 314.52V321H2127.41ZM2272.03 285C2277.79 285 2282.29 282.84 2285.53 278.52C2288.77 274.2 2290.39 268.74 2290.39 262.14C2290.39 255.78 2288.83 250.62 2285.71 246.66C2282.71 242.58 2278.39 240.54 2272.75 240.54C2267.11 240.54 2262.67 242.64 2259.43 246.84C2256.19 250.92 2254.57 256.26 2254.57 262.86C2254.57 269.46 2256.07 274.8 2259.07 278.88C2262.19 282.96 2266.51 285 2272.03 285ZM2272.39 292.2C2267.71 292.2 2263.27 291.54 2259.07 290.22C2256.07 294.06 2254.57 297.9 2254.57 301.74C2254.57 304.14 2255.23 306.06 2256.55 307.5C2257.99 308.94 2260.81 309.66 2265.01 309.66H2288.59C2298.55 309.66 2305.87 311.7 2310.55 315.78C2315.23 319.86 2317.57 325.56 2317.57 332.88C2317.57 338.04 2315.89 343.02 2312.53 347.82C2309.29 352.62 2304.37 356.52 2297.77 359.52C2291.17 362.52 2282.95 364.02 2273.11 364.02C2260.03 364.02 2250.55 361.98 2244.67 357.9C2238.79 353.82 2235.85 348.6 2235.85 342.24C2235.85 338.4 2237.11 334.8 2239.63 331.44C2242.27 328.2 2246.89 324.96 2253.49 321.72C2245.57 319.56 2241.61 315 2241.61 308.04C2241.61 305.16 2242.51 302.16 2244.31 299.04C2246.23 295.92 2249.41 292.26 2253.85 288.06C2249.53 285.66 2246.11 282.36 2243.59 278.16C2241.19 273.96 2239.99 268.8 2239.99 262.68C2239.99 253.2 2243.05 245.94 2249.17 240.9C2255.41 235.74 2263.21 233.16 2272.57 233.16C2282.05 233.16 2289.67 235.5 2295.43 240.18L2315.77 233.16L2318.47 234.96V246.3H2300.83C2303.59 250.74 2304.97 256.2 2304.97 262.68C2304.97 272.16 2301.85 279.48 2295.61 284.64C2289.49 289.68 2281.75 292.2 2272.39 292.2ZM2250.61 339.36C2250.61 345.24 2252.71 349.44 2256.91 351.96C2261.11 354.48 2266.75 355.74 2273.83 355.74C2283.67 355.74 2291.17 353.94 2296.33 350.34C2301.49 346.86 2304.07 342.6 2304.07 337.56C2304.07 333.6 2302.69 330.24 2299.93 327.48C2297.17 324.84 2292.55 323.52 2286.07 323.52H2265.01C2263.81 323.52 2262.55 323.46 2261.23 323.34C2260.03 323.34 2258.83 323.28 2257.63 323.16C2255.11 325.8 2253.31 328.38 2252.23 330.9C2251.15 333.54 2250.61 336.36 2250.61 339.36Z" fill="white"/>
<path d="M5064.14 1069C5064.14 1069 4977.55 1069 4931.8 1069C4862.32 1069 4806 1017.02 4806 952.893C4806 893.912 4853.65 845.202 4915.36 837.768C4914.21 830.658 4913.62 823.383 4913.62 815.98C4913.62 734.805 4984.92 669 5072.87 669C5131.79 669 5183.23 698.532 5210.78 742.433C5222.61 737.511 5235.75 734.772 5249.57 734.772C5301.78 734.772 5344.1 773.834 5344.1 822.02C5344.1 831.157 5342.58 839.965 5339.76 848.242C5381.91 866.996 5411 906.809 5411 952.893C5411 1017.02 5354.68 1069 5285.2 1069C5215.72 1069 5171.04 1069 5171.04 1069H5064.14Z" fill="url(#paint1_linear_423_44)"/>
<path d="M4998.82 973.791C4990.74 973.791 4983.62 972.031 4977.46 968.511C4971.38 964.911 4966.62 959.951 4963.18 953.631C4959.82 947.311 4958.14 940.031 4958.14 931.791C4958.14 925.711 4959.14 920.151 4961.14 915.111C4963.22 909.991 4966.06 905.551 4969.66 901.791C4973.34 898.031 4977.62 895.111 4982.5 893.031C4987.46 890.951 4992.86 889.911 4998.7 889.911C5001.98 889.911 5005.66 890.311 5009.74 891.111C5013.82 891.831 5017.86 893.351 5021.86 895.671L5022.34 913.071H5014.9L5012.5 899.151C5010.34 897.951 5008.22 897.111 5006.14 896.631C5004.14 896.151 5002.18 895.911 5000.26 895.911C4994.9 895.911 4990.02 897.271 4985.62 899.991C4981.22 902.711 4977.7 906.751 4975.06 912.111C4972.5 917.391 4971.22 923.951 4971.22 931.791C4971.22 939.631 4972.42 946.231 4974.82 951.591C4977.22 956.951 4980.54 960.991 4984.78 963.711C4989.1 966.431 4993.98 967.791 4999.42 967.791C5001.74 967.791 5004.1 967.551 5006.5 967.071C5008.98 966.511 5011.38 965.671 5013.7 964.551L5016.1 950.631H5023.54L5023.06 968.031C5019.38 970.031 5015.46 971.471 5011.3 972.351C5007.22 973.311 5003.06 973.791 4998.82 973.791ZM5031.2 971.991V967.671L5040.8 965.991C5040.88 962.711 5040.92 959.511 5040.92 956.391C5041 953.191 5041.04 949.991 5041.04 946.791V894.111L5031.2 892.911V888.711L5049.92 883.311L5051.6 884.271L5051.12 901.311V946.791C5051.12 949.991 5051.12 953.191 5051.12 956.391C5051.2 959.591 5051.28 962.791 5051.36 965.991L5060.96 967.671V971.991H5031.2ZM5096.82 973.551C5092.18 973.551 5087.74 972.471 5083.5 970.311C5079.34 968.071 5075.94 964.751 5073.3 960.351C5070.66 955.871 5069.34 950.351 5069.34 943.791C5069.34 937.151 5070.66 931.591 5073.3 927.111C5075.94 922.551 5079.34 919.151 5083.5 916.911C5087.74 914.591 5092.18 913.431 5096.82 913.431C5101.46 913.431 5105.86 914.591 5110.02 916.911C5114.26 919.151 5117.7 922.551 5120.34 927.111C5123.06 931.591 5124.42 937.151 5124.42 943.791C5124.42 950.351 5123.06 955.871 5120.34 960.351C5117.7 964.751 5114.26 968.071 5110.02 970.311C5105.86 972.471 5101.46 973.551 5096.82 973.551ZM5096.82 968.151C5102.02 968.151 5106.02 966.111 5108.82 962.031C5111.62 957.871 5113.02 951.791 5113.02 943.791C5113.02 935.711 5111.62 929.551 5108.82 925.311C5106.02 921.071 5102.02 918.951 5096.82 918.951C5091.62 918.951 5087.62 921.071 5084.82 925.311C5082.1 929.551 5080.74 935.711 5080.74 943.791C5080.74 951.791 5082.1 957.871 5084.82 962.031C5087.62 966.111 5091.62 968.151 5096.82 968.151ZM5155.39 973.551C5150.51 973.551 5146.67 971.951 5143.87 968.751C5141.07 965.471 5139.71 959.871 5139.79 951.951L5140.15 922.071L5131.63 920.271V915.951L5149.27 914.271L5150.47 915.471L5149.87 932.271V950.871C5149.87 956.071 5150.67 959.751 5152.27 961.911C5153.87 963.991 5156.27 965.031 5159.47 965.031C5165.07 965.031 5170.67 962.431 5176.27 957.231L5176.63 921.951L5168.11 920.271V915.951L5185.51 914.271L5186.71 915.471L5186.35 932.271V965.991L5194.51 967.671V971.991L5177.83 972.951L5176.63 962.271C5173.43 966.191 5169.99 969.071 5166.31 970.911C5162.71 972.671 5159.07 973.551 5155.39 973.551ZM5213.62 943.791C5213.62 951.631 5215.18 957.431 5218.3 961.191C5221.5 964.871 5225.5 966.711 5230.3 966.711C5232.94 966.711 5235.26 966.191 5237.26 965.151C5239.34 964.031 5241.5 962.231 5243.74 959.751V926.511C5241.02 924.111 5238.58 922.471 5236.42 921.591C5234.26 920.711 5232.18 920.271 5230.18 920.271C5227.22 920.271 5224.46 921.111 5221.9 922.791C5219.42 924.391 5217.42 926.951 5215.9 930.471C5214.38 933.911 5213.62 938.351 5213.62 943.791ZM5244.94 973.191L5244.1 964.911C5242.02 967.631 5239.62 969.751 5236.9 971.271C5234.26 972.791 5231.06 973.551 5227.3 973.551C5222.42 973.551 5218.14 972.311 5214.46 969.831C5210.78 967.351 5207.9 963.911 5205.82 959.511C5203.82 955.031 5202.82 949.871 5202.82 944.031C5202.82 937.871 5203.94 932.511 5206.18 927.951C5208.42 923.391 5211.46 919.831 5215.3 917.271C5219.14 914.711 5223.5 913.431 5228.38 913.431C5231.18 913.431 5233.86 913.991 5236.42 915.111C5239.06 916.231 5241.62 918.271 5244.1 921.231V894.111L5233.9 892.911V888.711L5252.62 883.311L5254.3 884.271L5253.82 901.311V966.231L5263.54 967.671V971.991L5244.94 973.191Z" fill="#372C3B"/>
<path d="M4929.8 3200.36C4929.8 3206.2 4929.8 3211.84 4929.8 3217.28C4929.88 3222.72 4929.96 3228.08 4930.04 3233.36H4939.52C4948.8 3233.36 4955.92 3230.36 4960.88 3224.36C4965.84 3218.28 4968.32 3209.8 4968.32 3198.92C4968.32 3187.64 4965.88 3179.04 4961 3173.12C4956.12 3167.2 4949.32 3164.24 4940.6 3164.24H4930.04C4929.96 3169.36 4929.88 3174.6 4929.8 3179.96C4929.8 3185.24 4929.8 3190.56 4929.8 3195.92V3200.36ZM4907.12 3163.64V3158.72H4942.52C4950.2 3158.72 4956.96 3160.28 4962.8 3163.4C4968.64 3166.44 4973.2 3170.96 4976.48 3176.96C4979.76 3182.88 4981.4 3190.2 4981.4 3198.92C4981.4 3207.56 4979.6 3214.88 4976 3220.88C4972.4 3226.8 4967.48 3231.32 4961.24 3234.44C4955.08 3237.48 4948.08 3239 4940.24 3239H4907.12V3234.08L4918.16 3232.76C4918.32 3227.64 4918.4 3222.44 4918.4 3217.16C4918.4 3211.8 4918.4 3206.2 4918.4 3200.36V3195.92C4918.4 3190.72 4918.4 3185.56 4918.4 3180.44C4918.4 3175.24 4918.32 3170.08 4918.16 3164.96L4907.12 3163.64ZM5019.32 3185.96C5017.08 3185.96 5014.8 3186.6 5012.48 3187.88C5010.24 3189.16 5008.28 3191.2 5006.6 3194C5005 3196.8 5003.96 3200.52 5003.48 3205.16H5025.32C5028.2 3205.16 5030.08 3204.56 5030.96 3203.36C5031.92 3202.16 5032.4 3200.68 5032.4 3198.92C5032.4 3196.6 5031.8 3194.48 5030.6 3192.56C5029.48 3190.56 5027.92 3188.96 5025.92 3187.76C5024 3186.56 5021.8 3185.96 5019.32 3185.96ZM5019.2 3240.56C5011.12 3240.56 5004.64 3237.96 4999.76 3232.76C4994.88 3227.48 4992.44 3220.24 4992.44 3211.04C4992.44 3204.88 4993.68 3199.52 4996.16 3194.96C4998.72 3190.4 5002.08 3186.84 5006.24 3184.28C5010.48 3181.72 5015.08 3180.44 5020.04 3180.44C5024.2 3180.44 5027.96 3181.36 5031.32 3183.2C5034.68 3185.04 5037.36 3187.68 5039.36 3191.12C5041.36 3194.48 5042.36 3198.6 5042.36 3203.48C5042.36 3204.84 5042.28 3206.12 5042.12 3207.32C5041.96 3208.44 5041.76 3209.4 5041.52 3210.2H5003.24C5003.4 3217.56 5005.24 3223.16 5008.76 3227C5012.28 3230.84 5016.92 3232.76 5022.68 3232.76C5026.52 3232.76 5029.72 3232 5032.28 3230.48C5034.84 3228.88 5037.2 3226.84 5039.36 3224.36L5042.24 3226.64C5040 3230.88 5036.96 3234.28 5033.12 3236.84C5029.28 3239.32 5024.64 3240.56 5019.2 3240.56ZM5083.76 3186.68V3182H5106.56V3186.68L5099.96 3188.24L5080.52 3239.72H5075.36L5053.52 3187.88L5047.04 3186.68V3182H5076.08V3186.68L5065.52 3188.24L5080.16 3226.64L5093.48 3188.36L5083.76 3186.68ZM5111.82 3239V3234.68L5120.82 3233C5120.9 3229.96 5120.94 3226.68 5120.94 3223.16C5121.02 3219.56 5121.06 3216.44 5121.06 3213.8V3208.16C5121.06 3204.88 5121.02 3202.16 5120.94 3200C5120.94 3197.76 5120.86 3195.44 5120.7 3193.04L5111.1 3191.96V3187.76L5129.58 3180.44L5131.38 3181.64L5131.02 3197.96V3213.8C5131.02 3216.44 5131.02 3219.56 5131.02 3223.16C5131.1 3226.68 5131.18 3229.96 5131.26 3233L5139.66 3234.68V3239H5111.82ZM5125.98 3167.24C5123.74 3167.24 5121.82 3166.52 5120.22 3165.08C5118.7 3163.64 5117.94 3161.8 5117.94 3159.56C5117.94 3157.24 5118.7 3155.4 5120.22 3154.04C5121.82 3152.6 5123.74 3151.88 5125.98 3151.88C5128.22 3151.88 5130.1 3152.6 5131.62 3154.04C5133.22 3155.4 5134.02 3157.24 5134.02 3159.56C5134.02 3161.8 5133.22 3163.64 5131.62 3165.08C5130.1 3166.52 5128.22 3167.24 5125.98 3167.24ZM5175.4 3240.56C5167.16 3240.56 5160.6 3237.88 5155.72 3232.52C5150.84 3227.16 5148.4 3219.88 5148.4 3210.68C5148.4 3204.36 5149.68 3198.96 5152.24 3194.48C5154.88 3189.92 5158.32 3186.44 5162.56 3184.04C5166.8 3181.64 5171.32 3180.44 5176.12 3180.44C5179.72 3180.44 5183.04 3181.12 5186.08 3182.48C5189.12 3183.84 5191.64 3185.72 5193.64 3188.12C5195.64 3190.44 5196.88 3193.08 5197.36 3196.04C5196.8 3199.08 5194.96 3200.6 5191.84 3200.6C5189.84 3200.6 5188.32 3200.08 5187.28 3199.04C5186.32 3197.92 5185.64 3196.52 5185.24 3194.84L5183.08 3186.92C5181.96 3186.52 5180.84 3186.28 5179.72 3186.2C5178.68 3186.04 5177.64 3185.96 5176.6 3185.96C5171.48 3185.96 5167.24 3187.96 5163.88 3191.96C5160.6 3195.96 5158.96 3201.8 5158.96 3209.48C5158.96 3217 5160.76 3222.76 5164.36 3226.76C5167.96 3230.76 5172.56 3232.76 5178.16 3232.76C5181.6 3232.76 5184.76 3232 5187.64 3230.48C5190.52 3228.88 5192.88 3226.6 5194.72 3223.64L5197.72 3225.2C5196.04 3230.16 5193.32 3233.96 5189.56 3236.6C5185.8 3239.24 5181.08 3240.56 5175.4 3240.56ZM5234.24 3185.96C5232 3185.96 5229.72 3186.6 5227.4 3187.88C5225.16 3189.16 5223.2 3191.2 5221.52 3194C5219.92 3196.8 5218.88 3200.52 5218.4 3205.16H5240.24C5243.12 3205.16 5245 3204.56 5245.88 3203.36C5246.84 3202.16 5247.32 3200.68 5247.32 3198.92C5247.32 3196.6 5246.72 3194.48 5245.52 3192.56C5244.4 3190.56 5242.84 3188.96 5240.84 3187.76C5238.92 3186.56 5236.72 3185.96 5234.24 3185.96ZM5234.12 3240.56C5226.04 3240.56 5219.56 3237.96 5214.68 3232.76C5209.8 3227.48 5207.36 3220.24 5207.36 3211.04C5207.36 3204.88 5208.6 3199.52 5211.08 3194.96C5213.64 3190.4 5217 3186.84 5221.16 3184.28C5225.4 3181.72 5230 3180.44 5234.96 3180.44C5239.12 3180.44 5242.88 3181.36 5246.24 3183.2C5249.6 3185.04 5252.28 3187.68 5254.28 3191.12C5256.28 3194.48 5257.28 3198.6 5257.28 3203.48C5257.28 3204.84 5257.2 3206.12 5257.04 3207.32C5256.88 3208.44 5256.68 3209.4 5256.44 3210.2H5218.16C5218.32 3217.56 5220.16 3223.16 5223.68 3227C5227.2 3230.84 5231.84 3232.76 5237.6 3232.76C5241.44 3232.76 5244.64 3232 5247.2 3230.48C5249.76 3228.88 5252.12 3226.84 5254.28 3224.36L5257.16 3226.64C5254.92 3230.88 5251.88 3234.28 5248.04 3236.84C5244.2 3239.32 5239.56 3240.56 5234.12 3240.56ZM5287.13 3240.56C5283.77 3240.56 5280.69 3240.16 5277.89 3239.36C5275.09 3238.64 5272.21 3237.52 5269.25 3236L5268.77 3222.8H5275.37L5277.65 3233.24C5280.45 3234.52 5283.69 3235.16 5287.37 3235.16C5291.93 3235.16 5295.29 3234.32 5297.45 3232.64C5299.69 3230.96 5300.81 3228.76 5300.81 3226.04C5300.81 3223.48 5299.89 3221.44 5298.05 3219.92C5296.21 3218.32 5293.41 3216.88 5289.65 3215.6L5284.13 3213.56C5279.73 3211.96 5276.21 3209.88 5273.57 3207.32C5270.93 3204.76 5269.61 3201.44 5269.61 3197.36C5269.61 3194.4 5270.41 3191.64 5272.01 3189.08C5273.61 3186.52 5275.97 3184.44 5279.09 3182.84C5282.21 3181.24 5286.01 3180.44 5290.49 3180.44C5293.77 3180.44 5296.73 3180.88 5299.37 3181.76C5302.09 3182.56 5304.73 3183.76 5307.29 3185.36L5306.81 3197.6H5300.57L5298.65 3188C5295.93 3186.64 5293.17 3185.96 5290.37 3185.96C5286.69 3185.96 5283.89 3186.72 5281.97 3188.24C5280.13 3189.68 5279.21 3191.64 5279.21 3194.12C5279.21 3196.76 5280.01 3198.76 5281.61 3200.12C5283.29 3201.48 5286.17 3202.92 5290.25 3204.44L5293.97 3205.76C5299.97 3208 5304.21 3210.56 5306.69 3213.44C5309.25 3216.32 5310.53 3219.64 5310.53 3223.4C5310.53 3226.44 5309.65 3229.28 5307.89 3231.92C5306.13 3234.48 5303.53 3236.56 5300.09 3238.16C5296.65 3239.76 5292.33 3240.56 5287.13 3240.56Z" fill="white"/>
<circle cx="5108.5" cy="1385.5" r="12.5" fill="#608FE3"/>
<circle cx="5108.5" cy="1554.5" r="12.5" fill="#608FE3"/>
<circle cx="5108.5" cy="2399.5" r="12.5" fill="#608FE3"/>
<circle cx="5108.5" cy="1472.5" r="12.5" fill="#608FE3"/>
<circle cx="5108.5" cy="2486.5" r="12.5" fill="#608FE3"/>
<circle cx="5108.5" cy="2568.5" r="12.5" fill="#608FE3"/>
<circle cx="5109" cy="1279" r="29.5" stroke="#608FE3" stroke-width="11"/>
<circle cx="5109" cy="2676" r="29.5" stroke="#608FE3" stroke-width="11"/>
<rect x="4289" y="1610" width="1640" height="732" rx="20" fill="url(#paint2_linear_423_44)"/>
<path d="M4542.27 2144.83V2140.77H4591.57L4592.26 2158.29H4586.62L4584.44 2145.72H4561.18C4561.11 2149.94 4561.05 2154.17 4560.98 2158.39C4560.98 2162.61 4560.98 2166.77 4560.98 2170.86H4575.53L4576.92 2161.46H4581.47V2184.82H4576.92L4575.63 2175.52H4560.98C4560.98 2180.47 4560.98 2185.12 4560.98 2189.48C4561.05 2193.77 4561.11 2197.96 4561.18 2202.05H4586.42L4588.6 2189.38H4594.24L4593.55 2207H4542.27V2202.94L4551.38 2201.85C4551.51 2197.69 4551.58 2193.47 4551.58 2189.18C4551.58 2184.89 4551.58 2180.6 4551.58 2176.31V2171.46C4551.58 2167.17 4551.58 2162.91 4551.58 2158.69C4551.58 2154.4 4551.51 2150.14 4551.38 2145.92L4542.27 2144.83ZM4610.93 2183.73C4610.93 2190.2 4612.22 2194.99 4614.79 2198.09C4617.43 2201.13 4620.73 2202.64 4624.69 2202.64C4626.87 2202.64 4628.78 2202.21 4630.43 2201.36C4632.15 2200.43 4633.93 2198.95 4635.78 2196.9V2169.48C4633.53 2167.5 4631.52 2166.15 4629.74 2165.42C4627.96 2164.69 4626.24 2164.33 4624.59 2164.33C4622.15 2164.33 4619.87 2165.02 4617.76 2166.41C4615.71 2167.73 4614.06 2169.84 4612.81 2172.75C4611.56 2175.58 4610.93 2179.25 4610.93 2183.73ZM4636.77 2207.99L4636.08 2201.16C4634.36 2203.4 4632.38 2205.15 4630.14 2206.41C4627.96 2207.66 4625.32 2208.29 4622.22 2208.29C4618.19 2208.29 4614.66 2207.26 4611.62 2205.22C4608.59 2203.17 4606.21 2200.33 4604.49 2196.7C4602.84 2193.01 4602.02 2188.75 4602.02 2183.93C4602.02 2178.85 4602.94 2174.43 4604.79 2170.67C4606.64 2166.9 4609.15 2163.97 4612.32 2161.86C4615.48 2159.74 4619.08 2158.69 4623.11 2158.69C4625.42 2158.69 4627.63 2159.15 4629.74 2160.07C4631.92 2161 4634.03 2162.68 4636.08 2165.12V2142.75L4627.66 2141.76V2138.29L4643.1 2133.84L4644.49 2134.63L4644.09 2148.69V2202.25L4652.11 2203.44V2207L4636.77 2207.99ZM4676.23 2187.2C4679.4 2187.2 4681.87 2186.01 4683.66 2183.64C4685.44 2181.26 4686.33 2178.26 4686.33 2174.63C4686.33 2171.13 4685.47 2168.29 4683.76 2166.11C4682.11 2163.87 4679.73 2162.75 4676.63 2162.75C4673.53 2162.75 4671.08 2163.9 4669.3 2166.21C4667.52 2168.46 4666.63 2171.39 4666.63 2175.02C4666.63 2178.65 4667.45 2181.59 4669.1 2183.83C4670.82 2186.08 4673.2 2187.2 4676.23 2187.2ZM4676.43 2191.16C4673.86 2191.16 4671.41 2190.8 4669.1 2190.07C4667.45 2192.18 4666.63 2194.29 4666.63 2196.41C4666.63 2197.73 4666.99 2198.78 4667.72 2199.57C4668.51 2200.37 4670.06 2200.76 4672.37 2200.76H4685.34C4690.82 2200.76 4694.84 2201.88 4697.42 2204.13C4699.99 2206.37 4701.28 2209.51 4701.28 2213.53C4701.28 2216.37 4700.35 2219.11 4698.51 2221.75C4696.72 2224.39 4694.02 2226.54 4690.39 2228.19C4686.76 2229.84 4682.24 2230.66 4676.83 2230.66C4669.63 2230.66 4664.42 2229.54 4661.18 2227.3C4657.95 2225.05 4656.33 2222.18 4656.33 2218.68C4656.33 2216.57 4657.03 2214.59 4658.41 2212.74C4659.86 2210.96 4662.4 2209.18 4666.03 2207.4C4661.68 2206.21 4659.5 2203.7 4659.5 2199.87C4659.5 2198.29 4660 2196.64 4660.99 2194.92C4662.04 2193.21 4663.79 2191.19 4666.23 2188.88C4663.86 2187.56 4661.98 2185.75 4660.59 2183.44C4659.27 2181.13 4658.61 2178.29 4658.61 2174.92C4658.61 2169.71 4660.29 2165.72 4663.66 2162.94C4667.09 2160.11 4671.38 2158.69 4676.53 2158.69C4681.74 2158.69 4685.93 2159.97 4689.1 2162.55L4700.29 2158.69L4701.77 2159.68V2165.91H4692.07C4693.59 2168.36 4694.35 2171.36 4694.35 2174.92C4694.35 2180.14 4692.63 2184.16 4689.2 2187C4685.83 2189.77 4681.58 2191.16 4676.43 2191.16ZM4664.45 2217.1C4664.45 2220.33 4665.61 2222.64 4667.92 2224.03C4670.23 2225.41 4673.33 2226.11 4677.22 2226.11C4682.63 2226.11 4686.76 2225.12 4689.6 2223.14C4692.43 2221.22 4693.85 2218.88 4693.85 2216.11C4693.85 2213.93 4693.09 2212.08 4691.58 2210.56C4690.06 2209.11 4687.52 2208.39 4683.95 2208.39H4672.37C4671.71 2208.39 4671.02 2208.35 4670.29 2208.29C4669.63 2208.29 4668.97 2208.25 4668.31 2208.19C4666.93 2209.64 4665.94 2211.06 4665.34 2212.45C4664.75 2213.9 4664.45 2215.45 4664.45 2217.1ZM4729.67 2163.24C4727.82 2163.24 4725.94 2163.77 4724.03 2164.83C4722.18 2165.88 4720.56 2167.56 4719.18 2169.87C4717.86 2172.18 4717 2175.25 4716.6 2179.08H4734.62C4737 2179.08 4738.55 2178.59 4739.28 2177.6C4740.07 2176.61 4740.46 2175.39 4740.46 2173.93C4740.46 2172.02 4739.97 2170.27 4738.98 2168.69C4738.05 2167.04 4736.77 2165.72 4735.12 2164.73C4733.53 2163.74 4731.72 2163.24 4729.67 2163.24ZM4729.57 2208.29C4722.91 2208.29 4717.56 2206.14 4713.54 2201.85C4709.51 2197.5 4707.5 2191.52 4707.5 2183.93C4707.5 2178.85 4708.52 2174.43 4710.57 2170.67C4712.68 2166.9 4715.45 2163.97 4718.88 2161.86C4722.38 2159.74 4726.17 2158.69 4730.27 2158.69C4733.7 2158.69 4736.8 2159.45 4739.57 2160.96C4742.34 2162.48 4744.56 2164.66 4746.21 2167.5C4747.86 2170.27 4748.68 2173.67 4748.68 2177.7C4748.68 2178.82 4748.61 2179.87 4748.48 2180.86C4748.35 2181.79 4748.19 2182.58 4747.99 2183.24H4716.41C4716.54 2189.31 4718.06 2193.93 4720.96 2197.1C4723.86 2200.27 4727.69 2201.85 4732.44 2201.85C4735.61 2201.85 4738.25 2201.22 4740.36 2199.97C4742.48 2198.65 4744.42 2196.97 4746.21 2194.92L4748.58 2196.8C4746.73 2200.3 4744.23 2203.11 4741.06 2205.22C4737.89 2207.26 4734.06 2208.29 4729.57 2208.29ZM4814.83 2208.49C4808.16 2208.49 4802.29 2207.03 4797.21 2204.13C4792.19 2201.16 4788.26 2197.07 4785.43 2191.85C4782.65 2186.64 4781.27 2180.63 4781.27 2173.83C4781.27 2168.82 4782.09 2164.23 4783.74 2160.07C4785.46 2155.85 4787.8 2152.19 4790.77 2149.08C4793.81 2145.98 4797.34 2143.57 4801.37 2141.86C4805.46 2140.14 4809.91 2139.28 4814.73 2139.28C4817.44 2139.28 4820.47 2139.61 4823.84 2140.27C4827.2 2140.87 4830.54 2142.12 4833.84 2144.04L4834.23 2158.39H4828.1L4826.12 2146.91C4824.33 2145.92 4822.58 2145.22 4820.87 2144.83C4819.22 2144.43 4817.6 2144.23 4816.02 2144.23C4811.6 2144.23 4807.57 2145.36 4803.94 2147.6C4800.31 2149.84 4797.41 2153.18 4795.23 2157.6C4793.12 2161.95 4792.06 2167.37 4792.06 2173.83C4792.06 2180.3 4793.05 2185.75 4795.03 2190.17C4797.01 2194.59 4799.75 2197.92 4803.25 2200.17C4806.81 2202.41 4810.84 2203.53 4815.32 2203.53C4817.24 2203.53 4819.19 2203.34 4821.17 2202.94C4823.21 2202.48 4825.19 2201.79 4827.11 2200.86L4829.09 2189.38H4835.22L4834.83 2203.73C4831.79 2205.38 4828.56 2206.57 4825.13 2207.3C4821.76 2208.09 4818.33 2208.49 4814.83 2208.49ZM4866.2 2208.29C4862.37 2208.29 4858.71 2207.4 4855.21 2205.61C4851.78 2203.77 4848.97 2201.03 4846.79 2197.4C4844.61 2193.7 4843.53 2189.15 4843.53 2183.73C4843.53 2178.26 4844.61 2173.67 4846.79 2169.97C4848.97 2166.21 4851.78 2163.41 4855.21 2161.56C4858.71 2159.64 4862.37 2158.69 4866.2 2158.69C4870.02 2158.69 4873.65 2159.64 4877.09 2161.56C4880.58 2163.41 4883.42 2166.21 4885.6 2169.97C4887.84 2173.67 4888.97 2178.26 4888.97 2183.73C4888.97 2189.15 4887.84 2193.7 4885.6 2197.4C4883.42 2201.03 4880.58 2203.77 4877.09 2205.61C4873.65 2207.4 4870.02 2208.29 4866.2 2208.29ZM4866.2 2203.83C4870.49 2203.83 4873.79 2202.15 4876.1 2198.78C4878.41 2195.35 4879.56 2190.33 4879.56 2183.73C4879.56 2177.07 4878.41 2171.99 4876.1 2168.49C4873.79 2164.99 4870.49 2163.24 4866.2 2163.24C4861.91 2163.24 4858.61 2164.99 4856.3 2168.49C4854.05 2171.99 4852.93 2177.07 4852.93 2183.73C4852.93 2190.33 4854.05 2195.35 4856.3 2198.78C4858.61 2202.15 4861.91 2203.83 4866.2 2203.83ZM4897.36 2207V2203.44L4904.69 2202.05C4904.76 2199.54 4904.79 2196.84 4904.79 2193.93C4904.86 2191.03 4904.89 2188.45 4904.89 2186.21V2181.46C4904.89 2178.75 4904.86 2176.51 4904.79 2174.73C4904.79 2172.94 4904.72 2171.06 4904.59 2169.08L4896.77 2168.19V2164.73L4910.63 2158.69L4912.12 2159.68L4912.91 2167.7C4915.22 2165.06 4917.92 2162.91 4921.03 2161.26C4924.13 2159.55 4927.2 2158.69 4930.23 2158.69C4933.33 2158.69 4935.84 2159.41 4937.76 2160.87C4939.74 2162.32 4941.16 2164.69 4942.01 2167.99C4944.52 2164.89 4947.33 2162.58 4950.43 2161.06C4953.53 2159.48 4956.7 2158.69 4959.93 2158.69C4963.96 2158.69 4967.06 2160.04 4969.24 2162.75C4971.48 2165.45 4972.6 2169.87 4972.6 2176.01V2186.21C4972.6 2188.45 4972.6 2191.03 4972.6 2193.93C4972.67 2196.84 4972.74 2199.54 4972.8 2202.05L4979.73 2203.44V2207H4956.76V2203.44L4964.09 2202.05C4964.16 2199.61 4964.19 2196.93 4964.19 2194.03C4964.26 2191.06 4964.29 2188.45 4964.29 2186.21V2177.6C4964.29 2172.98 4963.63 2169.87 4962.31 2168.29C4960.99 2166.64 4958.88 2165.82 4955.97 2165.82C4953.93 2165.82 4951.81 2166.28 4949.64 2167.2C4947.52 2168.13 4945.21 2169.74 4942.71 2172.05C4942.77 2172.78 4942.81 2173.57 4942.81 2174.43C4942.87 2175.22 4942.9 2176.08 4942.9 2177V2186.21C4942.9 2188.45 4942.9 2191.03 4942.9 2193.93C4942.97 2196.84 4943.04 2199.54 4943.1 2202.05L4950.03 2203.44V2207H4927.06V2203.44L4934.39 2202.05C4934.46 2199.61 4934.49 2196.93 4934.49 2194.03C4934.56 2191.06 4934.59 2188.45 4934.59 2186.21V2177.79C4934.59 2173.31 4933.96 2170.2 4932.71 2168.49C4931.45 2166.71 4929.37 2165.82 4926.47 2165.82C4924.23 2165.82 4922.08 2166.28 4920.04 2167.2C4917.99 2168.13 4915.75 2169.64 4913.3 2171.76V2186.21C4913.3 2188.39 4913.3 2190.96 4913.3 2193.93C4913.37 2196.84 4913.44 2199.54 4913.5 2202.05L4920.33 2203.44V2207H4897.36ZM4984.65 2230.66V2227.2L4992.57 2225.81C4992.64 2223.1 4992.67 2220.4 4992.67 2217.69C4992.74 2215.05 4992.77 2212.41 4992.77 2209.77V2181.46C4992.77 2178.75 4992.74 2176.51 4992.67 2174.73C4992.67 2172.94 4992.61 2171.06 4992.48 2169.08L4984.65 2168.19V2164.73L4998.51 2158.69L5000 2159.68L5000.59 2166.11C5005.28 2161.16 5010.26 2158.69 5015.54 2158.69C5019.11 2158.69 5022.31 2159.68 5025.15 2161.66C5027.98 2163.64 5030.23 2166.48 5031.88 2170.17C5033.59 2173.8 5034.45 2178.19 5034.45 2183.34C5034.45 2188.42 5033.56 2192.84 5031.78 2196.6C5030 2200.3 5027.55 2203.17 5024.45 2205.22C5021.42 2207.26 5017.95 2208.29 5014.06 2208.29C5011.81 2208.29 5009.57 2207.83 5007.33 2206.9C5005.15 2205.98 5003 2204.29 5000.89 2201.85V2209.67C5000.89 2212.31 5000.89 2214.95 5000.89 2217.59C5000.96 2220.3 5001.02 2223.01 5001.09 2225.71L5010.1 2227.2V2230.66H4984.65ZM5013.17 2164.33C5011.65 2164.33 5009.9 2164.73 5007.92 2165.52C5005.94 2166.24 5003.7 2167.66 5001.19 2169.78V2197.59C5003.04 2199.38 5004.85 2200.66 5006.63 2201.46C5008.41 2202.25 5010.23 2202.64 5012.08 2202.64C5015.77 2202.64 5018.94 2201.16 5021.58 2198.19C5024.22 2195.22 5025.54 2190.53 5025.54 2184.13C5025.54 2177.79 5024.39 2172.91 5022.08 2169.48C5019.77 2166.05 5016.8 2164.33 5013.17 2164.33ZM5060.02 2208.29C5055.99 2208.29 5052.82 2206.97 5050.51 2204.33C5048.2 2201.62 5047.08 2197 5047.15 2190.47L5047.44 2165.82L5040.42 2164.33V2160.77L5054.97 2159.38L5055.96 2160.37L5055.46 2174.23V2189.58C5055.46 2193.87 5056.12 2196.9 5057.44 2198.68C5058.76 2200.4 5060.74 2201.26 5063.38 2201.26C5068 2201.26 5072.62 2199.11 5077.24 2194.82L5077.54 2165.72L5070.51 2164.33V2160.77L5084.87 2159.38L5085.86 2160.37L5085.56 2174.23V2202.05L5092.29 2203.44V2207L5078.53 2207.79L5077.54 2198.98C5074.9 2202.21 5072.06 2204.59 5069.03 2206.11C5066.06 2207.56 5063.05 2208.29 5060.02 2208.29ZM5115.95 2208.29C5112.52 2208.29 5109.78 2207.36 5107.74 2205.51C5105.69 2203.67 5104.67 2200.83 5104.67 2197C5104.67 2195.75 5104.67 2194.53 5104.67 2193.34C5104.73 2192.08 5104.77 2190.5 5104.77 2188.59V2165.22H5096.55V2160.87L5105.36 2159.78L5107.93 2146.51H5113.87L5113.28 2159.97H5126.65V2165.22H5113.18V2195.91C5113.18 2198.42 5113.68 2200.27 5114.67 2201.46C5115.66 2202.58 5116.98 2203.14 5118.63 2203.14C5119.75 2203.14 5120.8 2202.91 5121.79 2202.45C5122.85 2201.98 5124.01 2201.32 5125.26 2200.47L5127.64 2203.04C5124.93 2206.54 5121.04 2208.29 5115.95 2208.29ZM5131.32 2207V2203.44L5138.74 2202.05C5138.81 2199.54 5138.84 2196.84 5138.84 2193.93C5138.91 2190.96 5138.94 2188.39 5138.94 2186.21V2181.56C5138.94 2178.85 5138.91 2176.61 5138.84 2174.82C5138.84 2172.98 5138.78 2171.06 5138.64 2169.08L5130.72 2168.19V2164.73L5145.97 2158.69L5147.45 2159.68L5147.16 2173.14V2186.21C5147.16 2188.39 5147.16 2190.96 5147.16 2193.93C5147.22 2196.84 5147.29 2199.54 5147.36 2202.05L5154.29 2203.44V2207H5131.32ZM5143 2147.8C5141.15 2147.8 5139.57 2147.2 5138.25 2146.02C5136.99 2144.83 5136.37 2143.31 5136.37 2141.46C5136.37 2139.55 5136.99 2138.03 5138.25 2136.91C5139.57 2135.72 5141.15 2135.13 5143 2135.13C5144.85 2135.13 5146.4 2135.72 5147.65 2136.91C5148.97 2138.03 5149.63 2139.55 5149.63 2141.46C5149.63 2143.31 5148.97 2144.83 5147.65 2146.02C5146.4 2147.2 5144.85 2147.8 5143 2147.8ZM5161.3 2207V2203.44L5168.63 2202.05C5168.69 2199.54 5168.72 2196.84 5168.72 2193.93C5168.79 2191.03 5168.82 2188.45 5168.82 2186.21V2181.46C5168.82 2178.75 5168.79 2176.51 5168.72 2174.73C5168.72 2172.94 5168.66 2171.06 5168.53 2169.08L5160.71 2168.19V2164.73L5174.57 2158.69L5176.05 2159.68L5176.84 2167.6C5179.28 2164.96 5182.09 2162.81 5185.26 2161.16C5188.43 2159.51 5191.53 2158.69 5194.56 2158.69C5198.85 2158.69 5202.02 2160.14 5204.07 2163.04C5206.18 2165.88 5207.24 2170.53 5207.24 2177V2186.21C5207.24 2188.45 5207.24 2191.03 5207.24 2193.93C5207.3 2196.84 5207.37 2199.54 5207.43 2202.05L5214.36 2203.44V2207H5191.4V2203.44L5198.72 2202.05C5198.79 2199.61 5198.82 2196.93 5198.82 2194.03C5198.89 2191.06 5198.92 2188.45 5198.92 2186.21V2177.79C5198.92 2173.24 5198.26 2170.11 5196.94 2168.39C5195.69 2166.67 5193.61 2165.82 5190.7 2165.82C5188.46 2165.82 5186.28 2166.28 5184.17 2167.2C5182.06 2168.13 5179.75 2169.64 5177.24 2171.76V2186.21C5177.24 2188.39 5177.24 2190.96 5177.24 2193.93C5177.3 2196.84 5177.37 2199.54 5177.44 2202.05L5184.27 2203.44V2207H5161.3ZM5240.84 2187.2C5244.01 2187.2 5246.48 2186.01 5248.27 2183.64C5250.05 2181.26 5250.94 2178.26 5250.94 2174.63C5250.94 2171.13 5250.08 2168.29 5248.36 2166.11C5246.71 2163.87 5244.34 2162.75 5241.24 2162.75C5238.13 2162.75 5235.69 2163.9 5233.91 2166.21C5232.13 2168.46 5231.24 2171.39 5231.24 2175.02C5231.24 2178.65 5232.06 2181.59 5233.71 2183.83C5235.43 2186.08 5237.8 2187.2 5240.84 2187.2ZM5241.04 2191.16C5238.46 2191.16 5236.02 2190.8 5233.71 2190.07C5232.06 2192.18 5231.24 2194.29 5231.24 2196.41C5231.24 2197.73 5231.6 2198.78 5232.33 2199.57C5233.12 2200.37 5234.67 2200.76 5236.98 2200.76H5249.95C5255.43 2200.76 5259.45 2201.88 5262.03 2204.13C5264.6 2206.37 5265.89 2209.51 5265.89 2213.53C5265.89 2216.37 5264.96 2219.11 5263.12 2221.75C5261.33 2224.39 5258.63 2226.54 5255 2228.19C5251.37 2229.84 5246.85 2230.66 5241.43 2230.66C5234.24 2230.66 5229.03 2229.54 5225.79 2227.3C5222.56 2225.05 5220.94 2222.18 5220.94 2218.68C5220.94 2216.57 5221.63 2214.59 5223.02 2212.74C5224.47 2210.96 5227.01 2209.18 5230.64 2207.4C5226.29 2206.21 5224.11 2203.7 5224.11 2199.87C5224.11 2198.29 5224.6 2196.64 5225.59 2194.92C5226.65 2193.21 5228.4 2191.19 5230.84 2188.88C5228.47 2187.56 5226.58 2185.75 5225.2 2183.44C5223.88 2181.13 5223.22 2178.29 5223.22 2174.92C5223.22 2169.71 5224.9 2165.72 5228.27 2162.94C5231.7 2160.11 5235.99 2158.69 5241.14 2158.69C5246.35 2158.69 5250.54 2159.97 5253.71 2162.55L5264.9 2158.69L5266.38 2159.68V2165.91H5256.68C5258.2 2168.36 5258.96 2171.36 5258.96 2174.92C5258.96 2180.14 5257.24 2184.16 5253.81 2187C5250.44 2189.77 5246.19 2191.16 5241.04 2191.16ZM5229.06 2217.1C5229.06 2220.33 5230.21 2222.64 5232.52 2224.03C5234.83 2225.41 5237.94 2226.11 5241.83 2226.11C5247.24 2226.11 5251.37 2225.12 5254.21 2223.14C5257.04 2221.22 5258.46 2218.88 5258.46 2216.11C5258.46 2213.93 5257.7 2212.08 5256.19 2210.56C5254.67 2209.11 5252.13 2208.39 5248.56 2208.39H5236.98C5236.32 2208.39 5235.63 2208.35 5234.9 2208.29C5234.24 2208.29 5233.58 2208.25 5232.92 2208.19C5231.53 2209.64 5230.54 2211.06 5229.95 2212.45C5229.36 2213.9 5229.06 2215.45 5229.06 2217.1ZM5320.93 2145.32H5314.99C5314.92 2149.55 5314.86 2153.87 5314.79 2158.29C5314.79 2162.65 5314.79 2167.04 5314.79 2171.46V2176.21H5321.33C5327.33 2176.21 5331.62 2174.76 5334.2 2171.85C5336.77 2168.88 5338.06 2165.09 5338.06 2160.47C5338.06 2155.65 5336.67 2151.92 5333.9 2149.28C5331.19 2146.64 5326.87 2145.32 5320.93 2145.32ZM5296.08 2144.83V2140.77H5322.71C5331.09 2140.77 5337.36 2142.62 5341.52 2146.31C5345.75 2149.94 5347.86 2154.66 5347.86 2160.47C5347.86 2164.17 5346.93 2167.56 5345.09 2170.67C5343.24 2173.77 5340.27 2176.24 5336.18 2178.09C5332.15 2179.94 5326.74 2180.86 5319.94 2180.86H5314.79C5314.79 2184.43 5314.79 2187.93 5314.79 2191.36C5314.86 2194.79 5314.92 2198.29 5314.99 2201.85L5324.2 2202.94V2207H5296.08V2202.94L5305.19 2201.85C5305.32 2197.69 5305.39 2193.47 5305.39 2189.18C5305.39 2184.89 5305.39 2180.6 5305.39 2176.31V2171.46C5305.39 2167.17 5305.39 2162.91 5305.39 2158.69C5305.39 2154.4 5305.32 2150.14 5305.19 2145.92L5296.08 2144.83ZM5352.5 2207V2203.44L5360.42 2202.05C5360.48 2199.34 5360.52 2196.7 5360.52 2194.13C5360.58 2191.49 5360.62 2188.85 5360.62 2186.21V2142.75L5352.5 2141.76V2138.29L5367.94 2133.84L5369.33 2134.63L5368.93 2148.69V2186.21C5368.93 2188.85 5368.93 2191.49 5368.93 2194.13C5369 2196.77 5369.06 2199.41 5369.13 2202.05L5377.05 2203.44V2207H5352.5ZM5419.73 2207.99C5417.35 2207.99 5415.37 2207.3 5413.79 2205.91C5412.2 2204.52 5411.21 2202.68 5410.82 2200.37C5408.11 2203.01 5405.73 2204.99 5403.69 2206.31C5401.64 2207.63 5399.17 2208.29 5396.26 2208.29C5392.63 2208.29 5389.5 2207.26 5386.86 2205.22C5384.28 2203.11 5383 2200 5383 2195.91C5383 2194 5383.43 2192.22 5384.28 2190.57C5385.21 2188.92 5386.86 2187.3 5389.23 2185.71C5391.61 2184.13 5395.01 2182.55 5399.43 2180.96C5400.95 2180.43 5402.7 2179.87 5404.68 2179.28C5406.66 2178.69 5408.64 2178.16 5410.62 2177.7V2175.22C5410.62 2170.4 5409.89 2167.2 5408.44 2165.62C5406.99 2164.03 5404.61 2163.24 5401.31 2163.24C5400.59 2163.24 5399.76 2163.27 5398.84 2163.34C5397.98 2163.41 5397.02 2163.57 5395.97 2163.84L5394.09 2170.27C5393.16 2173.44 5391.45 2175.02 5388.94 2175.02C5386.17 2175.02 5384.61 2173.67 5384.28 2170.96C5385.21 2167.2 5387.39 2164.23 5390.82 2162.05C5394.32 2159.81 5398.57 2158.69 5403.59 2158.69C5408.8 2158.69 5412.66 2160.01 5415.17 2162.65C5417.68 2165.22 5418.93 2169.64 5418.93 2175.91V2197C5418.93 2199.11 5419.26 2200.63 5419.92 2201.55C5420.58 2202.41 5421.44 2202.84 5422.5 2202.84C5423.36 2202.84 5424.08 2202.64 5424.68 2202.25C5425.27 2201.85 5425.83 2201.32 5426.36 2200.66L5428.34 2202.84C5427.15 2204.76 5425.83 2206.11 5424.38 2206.9C5422.99 2207.63 5421.44 2207.99 5419.73 2207.99ZM5391.81 2194.43C5391.81 2197.07 5392.57 2198.95 5394.09 2200.07C5395.6 2201.19 5397.48 2201.75 5399.73 2201.75C5400.72 2201.75 5401.64 2201.62 5402.5 2201.36C5403.42 2201.09 5404.51 2200.6 5405.77 2199.87C5407.02 2199.08 5408.64 2197.96 5410.62 2196.51V2181.36C5408.9 2181.82 5407.22 2182.35 5405.57 2182.94C5403.92 2183.47 5402.57 2183.93 5401.51 2184.33C5398.67 2185.45 5396.56 2186.61 5395.17 2187.79C5393.79 2188.98 5392.86 2190.14 5392.4 2191.26C5392.01 2192.38 5391.81 2193.44 5391.81 2194.43ZM5449.21 2208.29C5445.78 2208.29 5443.04 2207.36 5440.99 2205.51C5438.95 2203.67 5437.92 2200.83 5437.92 2197C5437.92 2195.75 5437.92 2194.53 5437.92 2193.34C5437.99 2192.08 5438.02 2190.5 5438.02 2188.59V2165.22H5429.8V2160.87L5438.62 2159.78L5441.19 2146.51H5447.13L5446.54 2159.97H5459.9V2165.22H5446.44V2195.91C5446.44 2198.42 5446.93 2200.27 5447.92 2201.46C5448.91 2202.58 5450.23 2203.14 5451.88 2203.14C5453 2203.14 5454.06 2202.91 5455.05 2202.45C5456.11 2201.98 5457.26 2201.32 5458.51 2200.47L5460.89 2203.04C5458.18 2206.54 5454.29 2208.29 5449.21 2208.29ZM5464.67 2207V2203.44L5472.49 2202.05C5472.56 2199.41 5472.59 2196.77 5472.59 2194.13C5472.66 2191.49 5472.69 2188.85 5472.69 2186.21V2165.22H5464.47V2160.87L5472.89 2159.78C5473.35 2154.5 5474.08 2150.24 5475.07 2147.01C5476.12 2143.71 5477.87 2140.83 5480.31 2138.39C5482.43 2136.28 5484.64 2134.83 5486.95 2134.04C5489.26 2133.24 5491.53 2132.85 5493.78 2132.85C5496.09 2132.85 5498.13 2133.28 5499.92 2134.14C5501.7 2134.93 5502.82 2136.28 5503.28 2138.19C5503.22 2139.45 5502.65 2140.5 5501.6 2141.36C5500.54 2142.22 5499.09 2142.65 5497.24 2142.65C5494.87 2142.65 5492.49 2141.66 5490.11 2139.68L5487.34 2137.5C5487.08 2137.7 5486.81 2137.9 5486.55 2138.1C5486.35 2138.29 5486.15 2138.49 5485.96 2138.69C5484.24 2140.41 5482.92 2143.01 5482 2146.51C5481.14 2149.94 5480.78 2154.43 5480.91 2159.97H5494.57V2165.22H5481.11V2186.21C5481.11 2188.85 5481.11 2191.49 5481.11 2194.13C5481.17 2196.7 5481.24 2199.31 5481.3 2201.95L5490.21 2203.44V2207H5464.67ZM5521.78 2208.29C5517.95 2208.29 5514.29 2207.4 5510.79 2205.61C5507.36 2203.77 5504.56 2201.03 5502.38 2197.4C5500.2 2193.7 5499.11 2189.15 5499.11 2183.73C5499.11 2178.26 5500.2 2173.67 5502.38 2169.97C5504.56 2166.21 5507.36 2163.41 5510.79 2161.56C5514.29 2159.64 5517.95 2158.69 5521.78 2158.69C5525.61 2158.69 5529.24 2159.64 5532.67 2161.56C5536.17 2163.41 5539.01 2166.21 5541.19 2169.97C5543.43 2173.67 5544.55 2178.26 5544.55 2183.73C5544.55 2189.15 5543.43 2193.7 5541.19 2197.4C5539.01 2201.03 5536.17 2203.77 5532.67 2205.61C5529.24 2207.4 5525.61 2208.29 5521.78 2208.29ZM5521.78 2203.83C5526.07 2203.83 5529.37 2202.15 5531.68 2198.78C5533.99 2195.35 5535.15 2190.33 5535.15 2183.73C5535.15 2177.07 5533.99 2171.99 5531.68 2168.49C5529.37 2164.99 5526.07 2163.24 5521.78 2163.24C5517.49 2163.24 5514.19 2164.99 5511.88 2168.49C5509.64 2171.99 5508.52 2177.07 5508.52 2183.73C5508.52 2190.33 5509.64 2195.35 5511.88 2198.78C5514.19 2202.15 5517.49 2203.83 5521.78 2203.83ZM5553.15 2207V2203.44L5560.28 2202.15C5560.34 2199.64 5560.37 2196.93 5560.37 2194.03C5560.44 2191.06 5560.47 2188.45 5560.47 2186.21V2181.46C5560.47 2178.75 5560.44 2176.51 5560.37 2174.73C5560.37 2172.94 5560.31 2171.06 5560.18 2169.08L5552.36 2168.19V2164.73L5566.22 2158.69L5567.7 2159.68L5568.79 2171.36C5570.44 2167.4 5572.55 2164.3 5575.13 2162.05C5577.77 2159.81 5580.41 2158.69 5583.05 2158.69C5584.56 2158.69 5585.98 2159.02 5587.3 2159.68C5588.62 2160.34 5589.58 2161.23 5590.17 2162.35C5590.17 2167.17 5588.23 2169.58 5584.33 2169.58C5583.21 2169.58 5582.15 2169.38 5581.16 2168.98C5580.17 2168.52 5579.22 2167.89 5578.29 2167.1L5577.11 2166.01C5575.13 2167.47 5573.48 2169.25 5572.16 2171.36C5570.84 2173.47 5569.75 2175.95 5568.89 2178.78V2186.21C5568.89 2188.39 5568.89 2190.93 5568.89 2193.83C5568.95 2196.74 5569.02 2199.44 5569.09 2201.95L5577.2 2203.44V2207H5553.15ZM5594.81 2207V2203.44L5602.14 2202.05C5602.2 2199.54 5602.24 2196.84 5602.24 2193.93C5602.3 2191.03 5602.34 2188.45 5602.34 2186.21V2181.46C5602.34 2178.75 5602.3 2176.51 5602.24 2174.73C5602.24 2172.94 5602.17 2171.06 5602.04 2169.08L5594.22 2168.19V2164.73L5608.08 2158.69L5609.56 2159.68L5610.35 2167.7C5612.66 2165.06 5615.37 2162.91 5618.47 2161.26C5621.57 2159.55 5624.64 2158.69 5627.68 2158.69C5630.78 2158.69 5633.29 2159.41 5635.2 2160.87C5637.18 2162.32 5638.6 2164.69 5639.46 2167.99C5641.97 2164.89 5644.77 2162.58 5647.88 2161.06C5650.98 2159.48 5654.15 2158.69 5657.38 2158.69C5661.41 2158.69 5664.51 2160.04 5666.69 2162.75C5668.93 2165.45 5670.05 2169.87 5670.05 2176.01V2186.21C5670.05 2188.45 5670.05 2191.03 5670.05 2193.93C5670.12 2196.84 5670.18 2199.54 5670.25 2202.05L5677.18 2203.44V2207H5654.21V2203.44L5661.54 2202.05C5661.6 2199.61 5661.64 2196.93 5661.64 2194.03C5661.7 2191.06 5661.74 2188.45 5661.74 2186.21V2177.6C5661.74 2172.98 5661.08 2169.87 5659.76 2168.29C5658.44 2166.64 5656.32 2165.82 5653.42 2165.82C5651.37 2165.82 5649.26 2166.28 5647.08 2167.2C5644.97 2168.13 5642.66 2169.74 5640.15 2172.05C5640.22 2172.78 5640.25 2173.57 5640.25 2174.43C5640.32 2175.22 5640.35 2176.08 5640.35 2177V2186.21C5640.35 2188.45 5640.35 2191.03 5640.35 2193.93C5640.42 2196.84 5640.48 2199.54 5640.55 2202.05L5647.48 2203.44V2207H5624.51V2203.44L5631.84 2202.05C5631.9 2199.61 5631.94 2196.93 5631.94 2194.03C5632 2191.06 5632.04 2188.45 5632.04 2186.21V2177.79C5632.04 2173.31 5631.41 2170.2 5630.15 2168.49C5628.9 2166.71 5626.82 2165.82 5623.92 2165.82C5621.67 2165.82 5619.53 2166.28 5617.48 2167.2C5615.44 2168.13 5613.19 2169.64 5610.75 2171.76V2186.21C5610.75 2188.39 5610.75 2190.96 5610.75 2193.93C5610.82 2196.84 5610.88 2199.54 5610.95 2202.05L5617.78 2203.44V2207H5594.81Z" fill="white"/>
<path d="M5024 2848.5H5089C5094.25 2848.5 5098.5 2852.75 5098.5 2858V2999C5098.5 3004.25 5094.25 3008.5 5089 3008.5H5024C5018.75 3008.5 5014.5 3004.25 5014.5 2999V2858C5014.5 2852.75 5018.75 2848.5 5024 2848.5Z" fill="white" stroke="#608FE3" stroke-width="5"/>
<path d="M5012 3000C5012 3006.08 5016.92 3011 5023 3011H5090C5096.08 3011 5101 3006.08 5101 3000V3000H5012V3000Z" fill="#608FE3"/>
<path d="M5101 2857C5101 2850.92 5096.08 2846 5090 2846L5023 2846C5016.92 2846 5012 2850.92 5012 2857V2857L5101 2857V2857Z" fill="#608FE3"/>
<path d="M5169 2849.5H5265C5270.25 2849.5 5274.5 2853.75 5274.5 2859V3000C5274.5 3005.25 5270.25 3009.5 5265 3009.5H5169C5163.75 3009.5 5159.5 3005.25 5159.5 3000V2859C5159.5 2853.75 5163.75 2849.5 5169 2849.5Z" fill="white" stroke="#608FE3" stroke-width="5"/>
<path d="M5157 3000C5157 3006.63 5162.37 3012 5169 3012H5265C5271.63 3012 5277 3006.63 5277 3000V2998H5157V3000Z" fill="#608FE3"/>
<path d="M5277 2859C5277 2852.37 5271.63 2847 5265 2847L5169 2847C5162.37 2847 5157 2852.37 5157 2859L5157 2861L5277 2861L5277 2859Z" fill="#608FE3"/>
<path d="M4750 2854H4934C4938.42 2854 4942 2857.58 4942 2862V2986H4742V2862C4742 2857.58 4745.58 2854 4750 2854Z" fill="white" stroke="#608FE3" stroke-width="12"/>
<path d="M4714 2999C4714 3006.73 4720.27 3013 4728 3013H4955C4962.73 3013 4969 3006.73 4969 2999V2996H4714V2999Z" fill="#608FE3"/>
<path d="M5367.08 2853H5451.92C5459.79 2853 5466.49 2858.72 5467.73 2866.49L5474.32 2908H5344.68L5351.27 2866.49C5352.51 2858.72 5359.21 2853 5367.08 2853Z" fill="white" stroke="#608FE3" stroke-width="8"/>
<path d="M5461 2979V2994C5461 3001.73 5467.27 3008 5475 3008C5482.73 3008 5489 3001.73 5489 2994V2977.25C5486.22 2978.38 5483.18 2979 5480 2979H5461Z" fill="#654FF0"/>
<rect x="5316" y="2909" width="188" height="70" rx="24" fill="#608FE3"/>
<path d="M5329.02 2976.34C5329.01 2976.56 5329 2976.78 5329 2977V2994C5329 3001.73 5335.27 3008 5343 3008C5350.73 3008 5357 3001.73 5357 2994V2979H5340C5336.04 2979 5332.31 2978.04 5329.02 2976.34Z" fill="#654FF0"/>
<rect x="5376" y="2957" width="66" height="22" fill="#654FF0"/>
<circle cx="5343" cy="2943" r="11" fill="#654FF0"/>
<circle cx="5475" cy="2943" r="11" fill="#654FF0"/>
<path d="M4452.14 207.96V200.58H4541.78L4543.04 232.44H4532.78L4528.82 209.58H4486.52C4486.4 217.26 4486.28 224.94 4486.16 232.62C4486.16 240.3 4486.16 247.86 4486.16 255.3H4512.62L4515.14 238.2H4523.42V280.68H4515.14L4512.8 263.76H4486.16C4486.16 272.76 4486.16 281.22 4486.16 289.14C4486.28 296.94 4486.4 304.56 4486.52 312H4532.42L4536.38 288.96H4546.64L4545.38 321H4452.14V313.62L4468.7 311.64C4468.94 304.08 4469.06 296.4 4469.06 288.6C4469.06 280.8 4469.06 273 4469.06 265.2V256.38C4469.06 248.58 4469.06 240.84 4469.06 233.16C4469.06 225.36 4468.94 217.62 4468.7 209.94L4452.14 207.96ZM4576.98 278.7C4576.98 290.46 4579.32 299.16 4584 304.8C4588.8 310.32 4594.8 313.08 4602 313.08C4605.96 313.08 4609.44 312.3 4612.44 310.74C4615.56 309.06 4618.8 306.36 4622.16 302.64V252.78C4618.08 249.18 4614.42 246.72 4611.18 245.4C4607.94 244.08 4604.82 243.42 4601.82 243.42C4597.38 243.42 4593.24 244.68 4589.4 247.2C4585.68 249.6 4582.68 253.44 4580.4 258.72C4578.12 263.88 4576.98 270.54 4576.98 278.7ZM4623.96 322.8L4622.7 310.38C4619.58 314.46 4615.98 317.64 4611.9 319.92C4607.94 322.2 4603.14 323.34 4597.5 323.34C4590.18 323.34 4583.76 321.48 4578.24 317.76C4572.72 314.04 4568.4 308.88 4565.28 302.28C4562.28 295.56 4560.78 287.82 4560.78 279.06C4560.78 269.82 4562.46 261.78 4565.82 254.94C4569.18 248.1 4573.74 242.76 4579.5 238.92C4585.26 235.08 4591.8 233.16 4599.12 233.16C4603.32 233.16 4607.34 234 4611.18 235.68C4615.14 237.36 4618.98 240.42 4622.7 244.86V204.18L4607.4 202.38V196.08L4635.48 187.98L4638 189.42L4637.28 214.98V312.36L4651.86 314.52V321L4623.96 322.8ZM4695.71 285C4701.47 285 4705.97 282.84 4709.21 278.52C4712.45 274.2 4714.07 268.74 4714.07 262.14C4714.07 255.78 4712.51 250.62 4709.39 246.66C4706.39 242.58 4702.07 240.54 4696.43 240.54C4690.79 240.54 4686.35 242.64 4683.11 246.84C4679.87 250.92 4678.25 256.26 4678.25 262.86C4678.25 269.46 4679.75 274.8 4682.75 278.88C4685.87 282.96 4690.19 285 4695.71 285ZM4696.07 292.2C4691.39 292.2 4686.95 291.54 4682.75 290.22C4679.75 294.06 4678.25 297.9 4678.25 301.74C4678.25 304.14 4678.91 306.06 4680.23 307.5C4681.67 308.94 4684.49 309.66 4688.69 309.66H4712.27C4722.23 309.66 4729.55 311.7 4734.23 315.78C4738.91 319.86 4741.25 325.56 4741.25 332.88C4741.25 338.04 4739.57 343.02 4736.21 347.82C4732.97 352.62 4728.05 356.52 4721.45 359.52C4714.85 362.52 4706.63 364.02 4696.79 364.02C4683.71 364.02 4674.23 361.98 4668.35 357.9C4662.47 353.82 4659.53 348.6 4659.53 342.24C4659.53 338.4 4660.79 334.8 4663.31 331.44C4665.95 328.2 4670.57 324.96 4677.17 321.72C4669.25 319.56 4665.29 315 4665.29 308.04C4665.29 305.16 4666.19 302.16 4667.99 299.04C4669.91 295.92 4673.09 292.26 4677.53 288.06C4673.21 285.66 4669.79 282.36 4667.27 278.16C4664.87 273.96 4663.67 268.8 4663.67 262.68C4663.67 253.2 4666.73 245.94 4672.85 240.9C4679.09 235.74 4686.89 233.16 4696.25 233.16C4705.73 233.16 4713.35 235.5 4719.11 240.18L4739.45 233.16L4742.15 234.96V246.3H4724.51C4727.27 250.74 4728.65 256.2 4728.65 262.68C4728.65 272.16 4725.53 279.48 4719.29 284.64C4713.17 289.68 4705.43 292.2 4696.07 292.2ZM4674.29 339.36C4674.29 345.24 4676.39 349.44 4680.59 351.96C4684.79 354.48 4690.43 355.74 4697.51 355.74C4707.35 355.74 4714.85 353.94 4720.01 350.34C4725.17 346.86 4727.75 342.6 4727.75 337.56C4727.75 333.6 4726.37 330.24 4723.61 327.48C4720.85 324.84 4716.23 323.52 4709.75 323.52H4688.69C4687.49 323.52 4686.23 323.46 4684.91 323.34C4683.71 323.34 4682.51 323.28 4681.31 323.16C4678.79 325.8 4676.99 328.38 4675.91 330.9C4674.83 333.54 4674.29 336.36 4674.29 339.36ZM4792.88 241.44C4789.52 241.44 4786.1 242.4 4782.62 244.32C4779.26 246.24 4776.32 249.3 4773.8 253.5C4771.4 257.7 4769.84 263.28 4769.12 270.24H4801.88C4806.2 270.24 4809.02 269.34 4810.34 267.54C4811.78 265.74 4812.5 263.52 4812.5 260.88C4812.5 257.4 4811.6 254.22 4809.8 251.34C4808.12 248.34 4805.78 245.94 4802.78 244.14C4799.9 242.34 4796.6 241.44 4792.88 241.44ZM4792.7 323.34C4780.58 323.34 4770.86 319.44 4763.54 311.64C4756.22 303.72 4752.56 292.86 4752.56 279.06C4752.56 269.82 4754.42 261.78 4758.14 254.94C4761.98 248.1 4767.02 242.76 4773.26 238.92C4779.62 235.08 4786.52 233.16 4793.96 233.16C4800.2 233.16 4805.84 234.54 4810.88 237.3C4815.92 240.06 4819.94 244.02 4822.94 249.18C4825.94 254.22 4827.44 260.4 4827.44 267.72C4827.44 269.76 4827.32 271.68 4827.08 273.48C4826.84 275.16 4826.54 276.6 4826.18 277.8H4768.76C4769 288.84 4771.76 297.24 4777.04 303C4782.32 308.76 4789.28 311.64 4797.92 311.64C4803.68 311.64 4808.48 310.5 4812.32 308.22C4816.16 305.82 4819.7 302.76 4822.94 299.04L4827.26 302.46C4823.9 308.82 4819.34 313.92 4813.58 317.76C4807.82 321.48 4800.86 323.34 4792.7 323.34ZM4947.71 323.7C4935.59 323.7 4924.91 321.06 4915.67 315.78C4906.55 310.38 4899.41 302.94 4894.25 293.46C4889.21 283.98 4886.69 273.06 4886.69 260.7C4886.69 251.58 4888.19 243.24 4891.19 235.68C4894.31 228 4898.57 221.34 4903.97 215.7C4909.49 210.06 4915.91 205.68 4923.23 202.56C4930.67 199.44 4938.77 197.88 4947.53 197.88C4952.45 197.88 4957.97 198.48 4964.09 199.68C4970.21 200.76 4976.27 203.04 4982.27 206.52L4982.99 232.62H4971.83L4968.23 211.74C4964.99 209.94 4961.81 208.68 4958.69 207.96C4955.69 207.24 4952.75 206.88 4949.87 206.88C4941.83 206.88 4934.51 208.92 4927.91 213C4921.31 217.08 4916.03 223.14 4912.07 231.18C4908.23 239.1 4906.31 248.94 4906.31 260.7C4906.31 272.46 4908.11 282.36 4911.71 290.4C4915.31 298.44 4920.29 304.5 4926.65 308.58C4933.13 312.66 4940.45 314.7 4948.61 314.7C4952.09 314.7 4955.63 314.34 4959.23 313.62C4962.95 312.78 4966.55 311.52 4970.03 309.84L4973.63 288.96H4984.79L4984.07 315.06C4978.55 318.06 4972.67 320.22 4966.43 321.54C4960.31 322.98 4954.07 323.7 4947.71 323.7ZM5041.1 323.34C5034.14 323.34 5027.48 321.72 5021.12 318.48C5014.88 315.12 5009.78 310.14 5005.82 303.54C5001.86 296.82 4999.88 288.54 4999.88 278.7C4999.88 268.74 5001.86 260.4 5005.82 253.68C5009.78 246.84 5014.88 241.74 5021.12 238.38C5027.48 234.9 5034.14 233.16 5041.1 233.16C5048.06 233.16 5054.66 234.9 5060.9 238.38C5067.26 241.74 5072.42 246.84 5076.38 253.68C5080.46 260.4 5082.5 268.74 5082.5 278.7C5082.5 288.54 5080.46 296.82 5076.38 303.54C5072.42 310.14 5067.26 315.12 5060.9 318.48C5054.66 321.72 5048.06 323.34 5041.1 323.34ZM5041.1 315.24C5048.9 315.24 5054.9 312.18 5059.1 306.06C5063.3 299.82 5065.4 290.7 5065.4 278.7C5065.4 266.58 5063.3 257.34 5059.1 250.98C5054.9 244.62 5048.9 241.44 5041.1 241.44C5033.3 241.44 5027.3 244.62 5023.1 250.98C5019.02 257.34 5016.98 266.58 5016.98 278.7C5016.98 290.7 5019.02 299.82 5023.1 306.06C5027.3 312.18 5033.3 315.24 5041.1 315.24ZM5097.77 321V314.52L5111.09 312C5111.21 307.44 5111.27 302.52 5111.27 297.24C5111.39 291.96 5111.45 287.28 5111.45 283.2V274.56C5111.45 269.64 5111.39 265.56 5111.27 262.32C5111.27 259.08 5111.15 255.66 5110.91 252.06L5096.69 250.44V244.14L5121.89 233.16L5124.59 234.96L5126.03 249.54C5130.23 244.74 5135.15 240.84 5140.79 237.84C5146.43 234.72 5152.01 233.16 5157.53 233.16C5163.17 233.16 5167.73 234.48 5171.21 237.12C5174.81 239.76 5177.39 244.08 5178.95 250.08C5183.51 244.44 5188.61 240.24 5194.25 237.48C5199.89 234.6 5205.65 233.16 5211.53 233.16C5218.85 233.16 5224.49 235.62 5228.45 240.54C5232.53 245.46 5234.57 253.5 5234.57 264.66V283.2C5234.57 287.28 5234.57 291.96 5234.57 297.24C5234.69 302.52 5234.81 307.44 5234.93 312L5247.53 314.52V321H5205.77V314.52L5219.09 312C5219.21 307.56 5219.27 302.7 5219.27 297.42C5219.39 292.02 5219.45 287.28 5219.45 283.2V267.54C5219.45 259.14 5218.25 253.5 5215.85 250.62C5213.45 247.62 5209.61 246.12 5204.33 246.12C5200.61 246.12 5196.77 246.96 5192.81 248.64C5188.97 250.32 5184.77 253.26 5180.21 257.46C5180.33 258.78 5180.39 260.22 5180.39 261.78C5180.51 263.22 5180.57 264.78 5180.57 266.46V283.2C5180.57 287.28 5180.57 291.96 5180.57 297.24C5180.69 302.52 5180.81 307.44 5180.93 312L5193.53 314.52V321H5151.77V314.52L5165.09 312C5165.21 307.56 5165.27 302.7 5165.27 297.42C5165.39 292.02 5165.45 287.28 5165.45 283.2V267.9C5165.45 259.74 5164.31 254.1 5162.03 250.98C5159.75 247.74 5155.97 246.12 5150.69 246.12C5146.61 246.12 5142.71 246.96 5138.99 248.64C5135.27 250.32 5131.19 253.08 5126.75 256.92V283.2C5126.75 287.16 5126.75 291.84 5126.75 297.24C5126.87 302.52 5126.99 307.44 5127.11 312L5139.53 314.52V321H5097.77ZM5256.48 364.02V357.72L5270.88 355.2C5271 350.28 5271.06 345.36 5271.06 340.44C5271.18 335.64 5271.24 330.84 5271.24 326.04V274.56C5271.24 269.64 5271.18 265.56 5271.06 262.32C5271.06 259.08 5270.94 255.66 5270.7 252.06L5256.48 250.44V244.14L5281.68 233.16L5284.38 234.96L5285.46 246.66C5293.98 237.66 5303.04 233.16 5312.64 233.16C5319.12 233.16 5324.94 234.96 5330.1 238.56C5335.26 242.16 5339.34 247.32 5342.34 254.04C5345.46 260.64 5347.02 268.62 5347.02 277.98C5347.02 287.22 5345.4 295.26 5342.16 302.1C5338.92 308.82 5334.48 314.04 5328.84 317.76C5323.32 321.48 5317.02 323.34 5309.94 323.34C5305.86 323.34 5301.78 322.5 5297.7 320.82C5293.74 319.14 5289.84 316.08 5286 311.64V325.86C5286 330.66 5286 335.46 5286 340.26C5286.12 345.18 5286.24 350.1 5286.36 355.02L5302.74 357.72V364.02H5256.48ZM5308.32 243.42C5305.56 243.42 5302.38 244.14 5298.78 245.58C5295.18 246.9 5291.1 249.48 5286.54 253.32V303.9C5289.9 307.14 5293.2 309.48 5296.44 310.92C5299.68 312.36 5302.98 313.08 5306.34 313.08C5313.06 313.08 5318.82 310.38 5323.62 304.98C5328.42 299.58 5330.82 291.06 5330.82 279.42C5330.82 267.9 5328.72 259.02 5324.52 252.78C5320.32 246.54 5314.92 243.42 5308.32 243.42ZM5393.5 323.34C5386.18 323.34 5380.42 320.94 5376.22 316.14C5372.02 311.22 5369.98 302.82 5370.1 290.94L5370.64 246.12L5357.86 243.42V236.94L5384.32 234.42L5386.12 236.22L5385.22 261.42V289.32C5385.22 297.12 5386.42 302.64 5388.82 305.88C5391.22 309 5394.82 310.56 5399.62 310.56C5408.02 310.56 5416.42 306.66 5424.82 298.86L5425.36 245.94L5412.58 243.42V236.94L5438.68 234.42L5440.48 236.22L5439.94 261.42V312L5452.18 314.52V321L5427.16 322.44L5425.36 306.42C5420.56 312.3 5415.4 316.62 5409.88 319.38C5404.48 322.02 5399.02 323.34 5393.5 323.34ZM5495.2 323.34C5488.96 323.34 5483.98 321.66 5480.26 318.3C5476.54 314.94 5474.68 309.78 5474.68 302.82C5474.68 300.54 5474.68 298.32 5474.68 296.16C5474.8 293.88 5474.86 291 5474.86 287.52V245.04H5459.92V237.12L5475.94 235.14L5480.62 211.02H5491.42L5490.34 235.5H5514.64V245.04H5490.16V300.84C5490.16 305.4 5491.06 308.76 5492.86 310.92C5494.66 312.96 5497.06 313.98 5500.06 313.98C5502.1 313.98 5504.02 313.56 5505.82 312.72C5507.74 311.88 5509.84 310.68 5512.12 309.12L5516.44 313.8C5511.52 320.16 5504.44 323.34 5495.2 323.34ZM5523.14 321V314.52L5536.64 312C5536.76 307.44 5536.82 302.52 5536.82 297.24C5536.94 291.84 5537 287.16 5537 283.2V274.74C5537 269.82 5536.94 265.74 5536.82 262.5C5536.82 259.14 5536.7 255.66 5536.46 252.06L5522.06 250.44V244.14L5549.78 233.16L5552.48 234.96L5551.94 259.44V283.2C5551.94 287.16 5551.94 291.84 5551.94 297.24C5552.06 302.52 5552.18 307.44 5552.3 312L5564.9 314.52V321H5523.14ZM5544.38 213.36C5541.02 213.36 5538.14 212.28 5535.74 210.12C5533.46 207.96 5532.32 205.2 5532.32 201.84C5532.32 198.36 5533.46 195.6 5535.74 193.56C5538.14 191.4 5541.02 190.32 5544.38 190.32C5547.74 190.32 5550.56 191.4 5552.84 193.56C5555.24 195.6 5556.44 198.36 5556.44 201.84C5556.44 205.2 5555.24 207.96 5552.84 210.12C5550.56 212.28 5547.74 213.36 5544.38 213.36ZM5577.65 321V314.52L5590.97 312C5591.09 307.44 5591.15 302.52 5591.15 297.24C5591.27 291.96 5591.33 287.28 5591.33 283.2V274.56C5591.33 269.64 5591.27 265.56 5591.15 262.32C5591.15 259.08 5591.03 255.66 5590.79 252.06L5576.57 250.44V244.14L5601.77 233.16L5604.47 234.96L5605.91 249.36C5610.35 244.56 5615.45 240.66 5621.21 237.66C5626.97 234.66 5632.61 233.16 5638.13 233.16C5645.93 233.16 5651.69 235.8 5655.41 241.08C5659.25 246.24 5661.17 254.7 5661.17 266.46V283.2C5661.17 287.28 5661.17 291.96 5661.17 297.24C5661.29 302.52 5661.41 307.44 5661.53 312L5674.13 314.52V321H5632.37V314.52L5645.69 312C5645.81 307.56 5645.87 302.7 5645.87 297.42C5645.99 292.02 5646.05 287.28 5646.05 283.2V267.9C5646.05 259.62 5644.85 253.92 5642.45 250.8C5640.17 247.68 5636.39 246.12 5631.11 246.12C5627.03 246.12 5623.07 246.96 5619.23 248.64C5615.39 250.32 5611.19 253.08 5606.63 256.92V283.2C5606.63 287.16 5606.63 291.84 5606.63 297.24C5606.75 302.52 5606.87 307.44 5606.99 312L5619.41 314.52V321H5577.65ZM5722.27 285C5728.03 285 5732.53 282.84 5735.77 278.52C5739.01 274.2 5740.63 268.74 5740.63 262.14C5740.63 255.78 5739.07 250.62 5735.95 246.66C5732.95 242.58 5728.63 240.54 5722.99 240.54C5717.35 240.54 5712.91 242.64 5709.67 246.84C5706.43 250.92 5704.81 256.26 5704.81 262.86C5704.81 269.46 5706.31 274.8 5709.31 278.88C5712.43 282.96 5716.75 285 5722.27 285ZM5722.63 292.2C5717.95 292.2 5713.51 291.54 5709.31 290.22C5706.31 294.06 5704.81 297.9 5704.81 301.74C5704.81 304.14 5705.47 306.06 5706.79 307.5C5708.23 308.94 5711.05 309.66 5715.25 309.66H5738.83C5748.79 309.66 5756.11 311.7 5760.79 315.78C5765.47 319.86 5767.81 325.56 5767.81 332.88C5767.81 338.04 5766.13 343.02 5762.77 347.82C5759.53 352.62 5754.61 356.52 5748.01 359.52C5741.41 362.52 5733.19 364.02 5723.35 364.02C5710.27 364.02 5700.79 361.98 5694.91 357.9C5689.03 353.82 5686.09 348.6 5686.09 342.24C5686.09 338.4 5687.35 334.8 5689.87 331.44C5692.51 328.2 5697.13 324.96 5703.73 321.72C5695.81 319.56 5691.85 315 5691.85 308.04C5691.85 305.16 5692.75 302.16 5694.55 299.04C5696.47 295.92 5699.65 292.26 5704.09 288.06C5699.77 285.66 5696.35 282.36 5693.83 278.16C5691.43 273.96 5690.23 268.8 5690.23 262.68C5690.23 253.2 5693.29 245.94 5699.41 240.9C5705.65 235.74 5713.45 233.16 5722.81 233.16C5732.29 233.16 5739.91 235.5 5745.67 240.18L5766.01 233.16L5768.71 234.96V246.3H5751.07C5753.83 250.74 5755.21 256.2 5755.21 262.68C5755.21 272.16 5752.09 279.48 5745.85 284.64C5739.73 289.68 5731.99 292.2 5722.63 292.2ZM5700.85 339.36C5700.85 345.24 5702.95 349.44 5707.15 351.96C5711.35 354.48 5716.99 355.74 5724.07 355.74C5733.91 355.74 5741.41 353.94 5746.57 350.34C5751.73 346.86 5754.31 342.6 5754.31 337.56C5754.31 333.6 5752.93 330.24 5750.17 327.48C5747.41 324.84 5742.79 323.52 5736.31 323.52H5715.25C5714.05 323.52 5712.79 323.46 5711.47 323.34C5710.27 323.34 5709.07 323.28 5707.87 323.16C5705.35 325.8 5703.55 328.38 5702.47 330.9C5701.39 333.54 5700.85 336.36 5700.85 339.36Z" fill="white"/>
<path fill-rule="evenodd" clip-rule="evenodd" d="M5365.32 1848.58C5357.91 1831.08 5345.54 1816.2 5329.98 1805.68C5314.43 1795.16 5295.65 1789 5275.5 1789C5262.07 1789 5249.24 1791.73 5237.58 1796.68C5220.08 1804.09 5205.2 1816.46 5194.68 1832.02C5184.16 1847.57 5178 1866.36 5178 1886.5C5178 1899.93 5180.73 1912.76 5185.68 1924.42C5193.09 1941.92 5205.46 1956.8 5221.02 1967.32C5236.57 1977.84 5255.35 1984 5275.5 1984C5288.93 1984 5301.76 1981.27 5313.42 1976.32C5330.92 1968.91 5345.8 1956.54 5356.32 1940.98C5366.84 1925.43 5373 1906.64 5373 1886.5C5373 1873.07 5370.27 1860.24 5365.32 1848.58ZM5353.35 1919.35C5346.93 1934.5 5336.2 1947.43 5322.7 1956.55C5309.2 1965.67 5292.99 1971 5275.5 1971C5263.84 1971 5252.75 1968.63 5242.65 1964.35C5227.5 1957.93 5214.57 1947.2 5205.45 1933.7C5196.32 1920.2 5191 1903.99 5191 1886.5C5191 1874.84 5193.37 1863.75 5197.65 1853.65C5204.06 1838.5 5214.8 1825.57 5228.3 1816.45C5241.8 1807.32 5258.01 1802 5275.5 1802C5287.16 1802 5298.25 1804.37 5308.35 1808.65C5323.5 1815.07 5336.43 1825.8 5345.55 1839.3C5354.68 1852.8 5360 1869.01 5360 1886.5C5360 1898.16 5357.63 1909.25 5353.35 1919.35ZM5300.94 1816.54H5295.56C5288.21 1816.54 5281.32 1819.06 5275.87 1823.37C5273.14 1825.52 5270.76 1828.12 5268.85 1831.08C5266.94 1834.03 5265.49 1837.35 5264.64 1840.92L5248.56 1907.91C5248.04 1910.07 5247.18 1912.05 5246.03 1913.82C5244.31 1916.47 5241.96 1918.66 5239.21 1920.18C5236.45 1921.69 5233.32 1922.54 5230 1922.54H5224.62C5221.11 1922.54 5218.26 1925.39 5218.26 1928.9C5218.26 1932.41 5221.11 1935.26 5224.62 1935.26H5230C5237.35 1935.26 5244.24 1932.74 5249.69 1928.43C5252.42 1926.28 5254.8 1923.68 5256.71 1920.72C5258.62 1917.77 5260.07 1914.45 5260.93 1910.88L5277 1843.89C5277.52 1841.73 5278.38 1839.75 5279.53 1837.98C5281.25 1835.33 5283.6 1833.14 5286.36 1831.62C5289.11 1830.11 5292.24 1829.26 5295.56 1829.26H5300.94C5304.45 1829.26 5307.3 1826.41 5307.3 1822.9C5307.3 1819.39 5304.45 1816.54 5300.94 1816.54ZM5309.68 1907.96L5301.46 1916.18L5309.68 1924.4C5312.16 1926.89 5312.16 1930.91 5309.68 1933.4C5307.19 1935.88 5303.17 1935.88 5300.68 1933.4L5292.46 1925.17L5284.24 1933.4C5281.75 1935.88 5277.73 1935.88 5275.24 1933.4C5272.76 1930.91 5272.76 1926.89 5275.24 1924.4L5283.47 1916.18L5275.24 1907.96C5272.76 1905.47 5272.76 1901.45 5275.24 1898.96C5277.73 1896.48 5281.75 1896.48 5284.24 1898.96L5292.46 1907.19L5300.68 1898.96C5303.17 1896.48 5307.19 1896.48 5309.68 1898.96C5312.16 1901.45 5312.16 1905.47 5309.68 1907.96Z" fill="white"/>
<rect x="4859.5" y="1815.5" width="142" height="142" rx="14.5" stroke="white" stroke-width="11"/>
<path d="M4893 1788C4893 1784.13 4896.13 1781 4900 1781V1781C4903.87 1781 4907 1784.13 4907 1788V1814C4907 1817.87 4903.87 1821 4900 1821V1821C4896.13 1821 4893 1817.87 4893 1814V1788Z" fill="white"/>
<path d="M4923 1788C4923 1784.13 4926.13 1781 4930 1781V1781C4933.87 1781 4937 1784.13 4937 1788V1814C4937 1817.87 4933.87 1821 4930 1821V1821C4926.13 1821 4923 1817.87 4923 1814V1788Z" fill="white"/>
<path d="M4953 1788C4953 1784.13 4956.13 1781 4960 1781V1781C4963.87 1781 4967 1784.13 4967 1788V1814C4967 1817.87 4963.87 1821 4960 1821V1821C4956.13 1821 4953 1817.87 4953 1814V1788Z" fill="white"/>
<path d="M5029 1849C5032.87 1849 5036 1852.13 5036 1856V1856C5036 1859.87 5032.87 1863 5029 1863L5003 1863C4999.13 1863 4996 1859.87 4996 1856V1856C4996 1852.13 4999.13 1849 5003 1849L5029 1849Z" fill="white"/>
<path d="M5029 1879C5032.87 1879 5036 1882.13 5036 1886V1886C5036 1889.87 5032.87 1893 5029 1893L5003 1893C4999.13 1893 4996 1889.87 4996 1886V1886C4996 1882.13 4999.13 1879 5003 1879L5029 1879Z" fill="white"/>
<path d="M5029 1909C5032.87 1909 5036 1912.13 5036 1916V1916C5036 1919.87 5032.87 1923 5029 1923L5003 1923C4999.13 1923 4996 1919.87 4996 1916V1916C4996 1912.13 4999.13 1909 5003 1909L5029 1909Z" fill="white"/>
<path d="M4858 1849C4861.87 1849 4865 1852.13 4865 1856V1856C4865 1859.87 4861.87 1863 4858 1863L4832 1863C4828.13 1863 4825 1859.87 4825 1856V1856C4825 1852.13 4828.13 1849 4832 1849L4858 1849Z" fill="white"/>
<path d="M4858 1879C4861.87 1879 4865 1882.13 4865 1886V1886C4865 1889.87 4861.87 1893 4858 1893L4832 1893C4828.13 1893 4825 1889.87 4825 1886V1886C4825 1882.13 4828.13 1879 4832 1879L4858 1879Z" fill="white"/>
<path d="M4858 1909C4861.87 1909 4865 1912.13 4865 1916V1916C4865 1919.87 4861.87 1923 4858 1923L4832 1923C4828.13 1923 4825 1919.87 4825 1916V1916C4825 1912.13 4828.13 1909 4832 1909L4858 1909Z" fill="white"/>
<path d="M4893 1959C4893 1955.13 4896.13 1952 4900 1952V1952C4903.87 1952 4907 1955.13 4907 1959V1985C4907 1988.87 4903.87 1992 4900 1992V1992C4896.13 1992 4893 1988.87 4893 1985V1959Z" fill="white"/>
<path d="M4923 1959C4923 1955.13 4926.13 1952 4930 1952V1952C4933.87 1952 4937 1955.13 4937 1959V1985C4937 1988.87 4933.87 1992 4930 1992V1992C4926.13 1992 4923 1988.87 4923 1985V1959Z" fill="white"/>
<path d="M4953 1959C4953 1955.13 4956.13 1952 4960 1952V1952C4963.87 1952 4967 1955.13 4967 1959V1985C4967 1988.87 4963.87 1992 4960 1992V1992C4956.13 1992 4953 1988.87 4953 1985V1959Z" fill="white"/>
<mask id="mask0_423_44" style="mask-type:alpha" maskUnits="userSpaceOnUse" x="4431" y="1814" width="272" height="162">
<path d="M4565.87 1976L4431 1814H4702.29L4565.87 1976Z" fill="#D9D9D9"/>
</mask>
<g mask="url(#mask0_423_44)">
<circle cx="4565.87" cy="1948.87" r="15.5024" fill="white"/>
<circle cx="4565.87" cy="1948.87" r="70.4617" stroke="white" stroke-width="11"/>
<circle cx="4566.65" cy="1949.65" r="130.146" stroke="white" stroke-width="11"/>
</g>
<path d="M5611 1874.85C5647.83 1874.85 5687 1863.56 5687 1842.69V1825.15C5687 1804.28 5647.83 1793 5611 1793C5574.17 1793 5535 1804.28 5535 1825.15V1842.69C5535 1863.56 5574.17 1874.85 5611 1874.85ZM5546.69 1825.15C5546.69 1816.79 5571.77 1804.69 5611 1804.69C5650.23 1804.69 5675.31 1816.79 5675.31 1825.15V1842.69C5675.31 1851.05 5650.23 1863.15 5611 1863.15C5571.77 1863.15 5546.69 1851.05 5546.69 1842.69V1825.15Z" fill="white"/>
<path d="M5611 1980.08C5647.83 1980.08 5687 1968.79 5687 1947.92V1930.38C5687 1928.83 5686.38 1927.35 5685.29 1926.25C5684.19 1925.15 5682.7 1924.54 5681.15 1924.54C5679.6 1924.54 5678.12 1925.15 5677.02 1926.25C5675.92 1927.35 5675.31 1928.83 5675.31 1930.38V1947.92C5675.31 1956.28 5650.23 1968.38 5611 1968.38C5571.77 1968.38 5546.69 1956.28 5546.69 1947.92V1930.38C5546.69 1928.83 5546.08 1927.35 5544.98 1926.25C5543.88 1925.15 5542.4 1924.54 5540.85 1924.54C5539.3 1924.54 5537.81 1925.15 5536.71 1926.25C5535.62 1927.35 5535 1928.83 5535 1930.38V1947.92C5535 1968.79 5574.17 1980.08 5611 1980.08Z" fill="white"/>
<path d="M5611 1927.46C5647.83 1927.46 5687 1916.18 5687 1895.31V1877.77C5687 1876.22 5686.38 1874.73 5685.29 1873.64C5684.19 1872.54 5682.7 1871.92 5681.15 1871.92C5679.6 1871.92 5678.12 1872.54 5677.02 1873.64C5675.92 1874.73 5675.31 1876.22 5675.31 1877.77V1895.31C5675.31 1903.67 5650.23 1915.77 5611 1915.77C5571.77 1915.77 5546.69 1903.67 5546.69 1895.31V1877.77C5546.69 1876.22 5546.08 1874.73 5544.98 1873.64C5543.88 1872.54 5542.4 1871.92 5540.85 1871.92C5539.3 1871.92 5537.81 1872.54 5536.71 1873.64C5535.62 1874.73 5535 1876.22 5535 1877.77V1895.31C5535 1916.18 5574.17 1927.46 5611 1927.46Z" fill="white"/>
<defs>
<linearGradient id="paint0_linear_423_44" x1="1618.5" y1="931.102" x2="1618.5" y2="1077" gradientUnits="userSpaceOnUse">
<stop stop-color="white"/>
<stop offset="1" stop-color="#CACACA"/>
</linearGradient>
<linearGradient id="paint1_linear_423_44" x1="5108.5" y1="923.102" x2="5108.5" y2="1069" gradientUnits="userSpaceOnUse">
<stop stop-color="white"/>
<stop offset="1" stop-color="#CACACA"/>
</linearGradient>
<linearGradient id="paint2_linear_423_44" x1="5743.73" y1="1610" x2="5421.28" y2="2537.86" gradientUnits="userSpaceOnUse">
<stop offset="0.130208" stop-color="#D82668"/>
<stop offset="1" stop-color="#608FE3"/>
</linearGradient>
</defs>
</svg>
